<?xml version="1.0" encoding="UTF-8"?>
<svg width="70px" height="70px" viewBox="0 0 70 70" version="1.1" xmlns="http://www.w3.org/2000/svg" xmlns:xlink="http://www.w3.org/1999/xlink">
    <!-- Generator: sketchtool 49 (51002) - http://www.bohemiancoding.com/sketch -->
    <title>053D4D8A-FA53-4F93-9FB6-4FF6C433BEE6</title>
    <desc>Created with sketchtool.</desc>
    <defs></defs>
    <g id="price" stroke="none" stroke-width="1" fill="none" fill-rule="evenodd">
        <g id="uplata-card-pricing" transform="translate(-305.000000, -490.000000)">
            <g id="Group-11" transform="translate(305.000000, 490.000000)">
                <path d="M35,69.5 C54.0543576,69.5 69.5,54.0543576 69.5,35 C69.5,15.9456424 54.0543576,0.5 35,0.5 C15.9456424,0.5 0.5,15.9456424 0.5,35 C0.5,54.0543576 15.9456424,69.5 35,69.5 Z" id="Stroke-1" stroke="#727789"></path>
                <g id="Group-2" transform="translate(17.000000, 24.000000)">
                    <path d="M33.91055,0.5 L2.38255,0.5 C1.4428,0.5 0.64655,1.28575 0.64655,2.2535 L0.64655,19.74475 C0.64655,20.2855 0.90905,20.7545 1.2958,21.07825 C0.90905,20.7545 0.64655,20.2855 0.64655,19.74475 L0.64655,2.2535 C0.64655,1.28575 1.4428,0.5 2.38255,0.5 L28.64655,0.5 L7.64655,21.5 L33.91055,21.5 C34.84855,21.5 35.64655,20.71425 35.64655,19.74475 L35.64655,2.2535 C35.64655,1.298 34.86955,0.5 33.91055,0.5 Z" id="Fill-3" fill="#FFFFFF"></path>
                    <path d="M2.736,1 C1.79625,1 1,1.78575 1,2.7535 L1,20.24475 C1,20.7855 1.2625,21.2545 1.64925,21.57825 C1.95025,21.8285 2.31775,22 2.736,22 L8,22 L29,1 L2.736,1 Z" id="Fill-5" fill="#FDBE9E"></path>
                    <path d="M1,2.7535 C1,1.784 1.79625,1 2.736,1 L34.264,1 C35.223,1 36,1.79625 36,2.7535 L36,20.24475 C36,21.21425 35.20375,22 34.264,22 L2.736,22 C1.777,22 1,21.202 1,20.24475 L1,2.7535 Z" id="Stroke-7" stroke="#727789"></path>
                    <g id="Group" transform="translate(10.000000, 7.000000)">
                        <path d="M6.22173637,5.00194849 C6.22173637,3.49678028 6.93199172,2.15668146 8.03760939,1.289541 C7.22228847,0.650009882 6.19228157,0.267253364 5.07148102,0.267253364 C2.43026639,0.267253364 0.289479641,2.38699685 0.289479641,5.00194849 C0.289479641,7.61690013 2.43026639,9.73664361 5.07148102,9.73664361 C6.19228157,9.73664361 7.22228847,9.35388709 8.03760939,8.71435597 C6.93199172,7.84721552 6.22173637,6.50711669 6.22173637,5.00194849" id="Fill-171" fill="#EC2226"></path>
                        <path d="M6.22164527,5.00194849 C6.22164527,6.50711669 6.93190062,7.84721552 8.03751829,8.71435597 C9.14313596,7.84721552 9.85308765,6.50711669 9.85308765,5.00194849 C9.85308765,3.49678028 9.14313596,2.15668146 8.03751829,1.289541 C6.93190062,2.15668146 6.22164527,3.49678028 6.22164527,5.00194849" id="Fill-173" fill="#F16A21"></path>
                        <path d="M11.0034645,0.267163162 C9.88266391,0.267163162 8.852657,0.64991968 8.03733609,1.2894508 C9.14295376,2.15689193 9.85320911,3.49669008 9.85320911,5.00185828 C9.85320911,6.50702649 9.14295376,7.84712532 8.03733609,8.71426577 C8.852657,9.35379689 9.88266391,9.73685408 11.0034645,9.73685408 C13.6443754,9.73685408 15.7851622,7.61680992 15.7851622,5.00185828 C15.7851622,2.38690664 13.6443754,0.267163162 11.0034645,0.267163162" id="Fill-177" fill="#F89F1E"></path>
                    </g>
                </g>
            </g>
        </g>
    </g>
</svg>