<?xml version="1.0" encoding="UTF-8"?>
<svg width="70px" height="70px" viewBox="0 0 70 70" version="1.1" xmlns="http://www.w3.org/2000/svg" xmlns:xlink="http://www.w3.org/1999/xlink">
    <!-- Generator: sketchtool 42 (36781) - http://www.bohemiancoding.com/sketch -->
    <title>02E7D16E-0C25-4C43-9FBF-6B4E5113B1F3</title>
    <desc>Created with sketchtool.</desc>
    <defs>
        <path d="M35,70 C54.3305,70 70,54.3305 70,35 C70,15.6695 54.3305,0 35,0 C15.6695,0 0,15.6695 0,35 C0,54.3305 15.6695,70 35,70 Z" id="path-1"></path>
        <mask id="mask-2" maskContentUnits="userSpaceOnUse" maskUnits="objectBoundingBox" x="0" y="0" width="70" height="70" fill="white">
            <use xlink:href="#path-1"></use>
        </mask>
    </defs>
    <g id="price" stroke="none" stroke-width="1" fill="none" fill-rule="evenodd">
        <g id="uplata_pricing" transform="translate(-305.000000, -232.000000)">
            <g id="Group" transform="translate(285.000000, 100.000000)">
                <g id="ic_pricing_c2c" transform="translate(20.000000, 132.000000)">
                    <use id="Stroke-1" stroke="#727789" mask="url(#mask-2)" stroke-width="2" xlink:href="#path-1"></use>
                    <g id="Group-22" transform="translate(12.250000, 17.500000)">
                        <path d="M33.66055,14 L2.13255,14 C1.1928,14 0.39655,14.78575 0.39655,15.7535 L0.39655,33.24475 C0.39655,33.7855 0.65905,34.2545 1.0458,34.57825 C0.65905,34.2545 0.39655,33.7855 0.39655,33.24475 L0.39655,15.7535 C0.39655,14.78575 1.1928,14 2.13255,14 L28.39655,14 L7.39655,35 L33.66055,35 C34.59855,35 35.39655,34.21425 35.39655,33.24475 L35.39655,15.7535 C35.39655,14.798 34.61955,14 33.66055,14 Z" id="Fill-3" fill="#CFE8F9"></path>
                        <path d="M2.132025,14 C1.192275,14 0.396025,14.78575 0.396025,15.7535 L0.396025,33.24475 C0.396025,33.7855 0.658525,34.2545 1.045275,34.57825 C1.346275,34.8285 1.713775,35 2.132025,35 L7.396025,35 L28.396025,14 L2.132025,14 Z" id="Fill-5" fill="#E3F2FC"></path>
                        <path d="M0.396375,15.7542 C0.396375,14.7847 1.192625,14.0007 2.132375,14.0007 L33.660375,14.0007 C34.619375,14.0007 35.396375,14.79695 35.396375,15.7542 L35.396375,33.24545 C35.396375,34.21495 34.600125,35.0007 33.660375,35.0007 L2.132375,35.0007 C1.173375,35.0007 0.396375,34.2027 0.396375,33.24545 L0.396375,15.7542 Z" id="Stroke-7" stroke="#727789"></path>
                        <path d="M14.396375,29.749825 C17.296125,29.749825 19.646375,27.399575 19.646375,24.499825 C19.646375,21.600075 17.296125,19.249825 14.396375,19.249825 C11.496625,19.249825 9.146375,21.600075 9.146375,24.499825 C9.146375,27.399575 11.496625,29.749825 14.396375,29.749825" id="Fill-9" fill="#88C9F0"></path>
                        <path d="M21.396375,29.749825 C24.296125,29.749825 26.646375,27.399575 26.646375,24.499825 C26.646375,21.600075 24.296125,19.249825 21.396375,19.249825 C18.496625,19.249825 16.146375,21.600075 16.146375,24.499825 C16.146375,27.399575 18.496625,29.749825 21.396375,29.749825" id="Fill-11" fill="#CEA1A9"></path>
                        <path d="M44.9687,1.085525 C44.70795,0.453775 44.0902,0.000525 43.36745,0.000525 L11.83945,0.000525 C10.8997,0.000525 10.10345,0.786275 10.10345,1.754025 L10.10345,19.245275 C10.10345,20.202525 10.88045,21.000525 11.83945,21.000525 L24.14195,21.000525 L44.60645,0.536025 C44.7587,0.693525 44.88295,0.880775 44.9687,1.085525" id="Fill-13" fill="#C4E3F8"></path>
                        <path d="M45.103625,19.245625 L45.103625,1.754375 C45.103625,1.518125 45.054625,1.292375 44.968875,1.085875 C44.883125,0.879375 44.758875,0.693875 44.606625,0.534625 L24.140375,20.999125 L43.367625,20.999125 C43.602125,20.999125 43.827875,20.950125 44.034375,20.862625 C44.655625,20.594875 45.103625,19.971875 45.103625,19.245625" id="Fill-15" fill="#AED8F4"></path>
                        <path d="M10.03625,1.7542 C10.03625,0.7847 10.8325,0.0007 11.77225,0.0007 L43.30025,0.0007 C44.25925,0.0007 45.03625,0.79695 45.03625,1.7542 L45.03625,19.24545 C45.03625,20.21495 44.24,21.0007 43.30025,21.0007 L11.77225,21.0007 C10.81325,21.0007 10.03625,20.2027 10.03625,19.24545 L10.03625,1.7542 Z" id="Stroke-17" stroke="#727789"></path>
                        <polygon id="Fill-19" fill="#727789" points="10.10275 7.756 44.968 7.756 44.968 4.256 10.10275 4.256"></polygon>
                        <polygon id="Fill-21" fill="#75BAE6" points="38.89725 18.375 42.39725 18.375 42.39725 14.875 38.89725 14.875"></polygon>
                    </g>
                </g>
            </g>
        </g>
    </g>
</svg>