<?xml version="1.0" encoding="UTF-8"?>
<svg width="213px" height="51px" viewBox="0 0 213 51" version="1.1" xmlns="http://www.w3.org/2000/svg" xmlns:xlink="http://www.w3.org/1999/xlink">
    <!-- Generator: sketchtool 49.3 (51167) - http://www.bohemiancoding.com/sketch -->
    <title>2EE921DB-749A-4101-B26E-10663BDCB320</title>
    <desc>Created with sketchtool.</desc>
    <defs></defs>
    <g id="IndexPage(MainLanding)" stroke="none" stroke-width="1" fill="none" fill-rule="evenodd">
        <g id="IndexPage" transform="translate(-841.000000, -2300.000000)" fill="#FD8247">
            <g id="Group-9" transform="translate(795.000000, 1950.000000)">
                <g id="img/4YourSecurity" transform="translate(46.000000, 350.000000)">
                    <path d="M6.84,37.9 C6.9866674,37.8199996 7.1333326,37.78 7.28,37.78 C7.4666676,37.78 7.6299993,37.8366661 7.77,37.95 C7.9100007,38.0633339 7.98,38.2066658 7.98,38.38 C7.98,38.4066668 7.9666668,38.4733328 7.94,38.58 C7.9800002,38.4066658 7.8400016,38.6933296 7.52,39.44 C7.1999984,40.1866704 7.0266668,40.5866664 7,40.64 L7,40.7 C7.1866676,40.7 7.3099997,40.7566661 7.37,40.87 C7.4300003,40.9833339 7.4533334,41.1333324 7.44,41.32 C7.3199994,41.3466668 7.2066672,41.393333 7.1,41.46 C6.9933328,41.526667 6.906667,41.56 6.84,41.56 C6.7999998,41.56 6.7533336,41.5799998 6.7,41.62 C6.6466664,41.6600002 6.6133334,41.7066664 6.6,41.76 C6.5733332,41.8133336 6.526667,42.0199982 6.46,42.38 L6.1,43.82 C6.0733332,43.9133338 6.026667,43.993333 5.96,44.06 C5.893333,44.126667 5.8333336,44.1666666 5.78,44.18 C5.7266664,44.1666666 5.6233341,44.1300003 5.47,44.07 C5.3166659,44.0099997 5.2133336,43.9633335 5.16,43.93 C5.1066664,43.8966665 5.0533336,43.8600002 5,43.82 L5,43.7 C5,43.5133324 5.033333,43.320001 5.1,43.12 C5.2066672,42.7999984 5.3133328,42.3533362 5.42,41.78 C5.3133328,41.7399998 5.0466688,41.7566663 4.62,41.83 C4.1933312,41.9033337 3.9600002,41.94 3.92,41.94 C3.8399996,41.9800002 3.6800012,42 3.44,42 C3.0533314,42 2.7800008,41.966667 2.62,41.9 L2.5,41.96 C2.4733332,42.0800006 2.4333336,42.2133326 2.38,42.36 C2.2333326,42.7733354 2.16,43.079999 2.16,43.28 C2.1333332,43.4666676 2.1066668,43.6199994 2.08,43.74 C2.0533332,43.873334 2.0266668,44.073332 2,44.34 C1.9866666,44.7133352 1.8600012,44.9 1.62,44.9 C1.4733326,44.9 1.3133342,44.8466672 1.14,44.74 C1.0466662,44.6866664 0.9200008,44.5800008 0.76,44.42 L1.08,42.88 C1.1200002,42.7599994 1.1633331,42.5933344 1.21,42.38 C1.2566669,42.1666656 1.3066664,41.993334 1.36,41.86 L1.58,41.24 C1.7400008,40.773331 1.886666,40.3933348 2.02,40.1 L2.44,38.92 C2.4800002,38.8266662 2.5699993,38.5700021 2.71,38.15 C2.8500007,37.7299979 2.9333332,37.486667 2.96,37.42 C3.0133336,37.2733326 3.1199992,37.2 3.28,37.2 C3.4933344,37.1866666 3.6766659,37.2366661 3.83,37.35 C3.9833341,37.4633339 4.0666666,37.5999992 4.08,37.76 C4.08,37.8000002 4.0733334,37.8633329 4.06,37.95 C4.0466666,38.0366671 4.0333334,38.0999998 4.02,38.14 L2.98,40.68 L2.98,40.84 C3.0333336,40.8800002 3.126666,40.9 3.26,40.9 C3.3666672,40.9 3.5299989,40.8800002 3.75,40.84 C3.9700011,40.7999998 4.1066664,40.78 4.16,40.78 C4.2800006,40.7666666 4.4599988,40.7533334 4.7,40.74 C4.9400012,40.7266666 5.1799988,40.72 5.42,40.72 C5.6066676,40.72 5.7066666,40.7266666 5.72,40.74 L5.94,40.1 C6.1533344,39.4466634 6.3799988,38.920002 6.62,38.52 C6.6333334,38.4799998 6.6599998,38.4033339 6.7,38.29 C6.7400002,38.1766661 6.7866664,38.0466674 6.84,37.9 Z M8.46333334,44.28 C8.42333314,44.1999996 8.36000044,44.1166671 8.27333334,44.03 C8.18666624,43.9433329 8.14333334,43.8866668 8.14333334,43.86 C8.14333334,43.7133326 8.11000034,43.6000004 8.04333334,43.52 C8.01666654,43.4933332 8.00333334,43.4333338 8.00333334,43.34 C8.00333334,43.1266656 8.10666564,42.7633359 8.31333334,42.25 C8.52000104,41.7366641 8.78999834,41.180003 9.12333334,40.58 C9.20333374,40.4999996 9.30666604,40.360001 9.43333334,40.16 C9.56000064,39.959999 9.64333314,39.8466668 9.68333334,39.82 C9.68333334,39.7666664 9.70333314,39.7166669 9.74333334,39.67 C9.78333354,39.6233331 9.82999974,39.6 9.88333334,39.6 L9.88333334,39.48 C9.88333334,39.3599994 10.1033311,39.0700023 10.5433333,38.61 C10.9833355,38.1499977 11.3433319,37.8333342 11.6233333,37.66 C11.9566683,37.4333322 12.2966649,37.32 12.6433333,37.32 C12.8833345,37.32 13.0899991,37.386666 13.2633333,37.52 C13.3300003,37.6000004 13.6366639,37.8866642 14.1833333,38.38 L14.9233333,39.04 L14.5633333,40.04 C14.4433327,40.4000018 14.3833333,40.7266652 14.3833333,41.02 C14.3833333,41.5266692 14.5299985,42.013331 14.8233333,42.48 C14.8900003,42.6266674 15.0233323,42.766666 15.2233333,42.9 C15.4233343,43.033334 15.6233323,43.1133332 15.8233333,43.14 C16.1166681,43.1933336 16.2633333,43.3399988 16.2633333,43.58 C16.2633333,43.846668 16.1433345,44.0066664 15.9033333,44.06 C15.8499997,44.0733334 15.7700005,44.08 15.6633333,44.08 C14.8766627,44.08 14.1966695,43.5266722 13.6233333,42.42 C13.5699997,42.3399996 13.5000004,42.1933344 13.4133333,41.98 C13.3266662,41.7666656 13.2766667,41.6200004 13.2633333,41.54 C13.1833329,41.6466672 13.0833339,41.7733326 12.9633333,41.92 C12.8433327,42.0666674 12.7300005,42.1933328 12.6233333,42.3 C11.1699927,43.7533406 10.0233375,44.48 9.18333334,44.48 C8.91666534,44.48 8.67666774,44.413334 8.46333334,44.28 Z M9.18333334,43.16 C9.18333334,43.226667 9.25333264,43.2466668 9.39333334,43.22 C9.53333404,43.1933332 9.70666564,43.1266672 9.91333334,43.02 C10.120001,42.9133328 10.3299989,42.7733342 10.5433333,42.6 C11.6900057,41.6133284 12.5166641,40.753337 13.0233333,40.02 L13.4633333,39.3 C13.3299993,39.0199986 13.1900007,38.8166673 13.0433333,38.69 C12.8966659,38.5633327 12.7633339,38.5 12.6433333,38.5 C12.3633319,38.5 11.9233363,38.8499965 11.3233333,39.55 C10.7233303,40.2500035 10.1766691,41.0733286 9.68333334,42.02 C9.56333274,42.2466678 9.45666714,42.4766655 9.36333334,42.71 L9.18333334,43.16 Z M19.5066667,32.22 C19.7733347,32.1666664 19.9666661,32.14 20.0866667,32.14 C20.3133345,32.14 20.5133325,32.1933328 20.6866667,32.3 C21.3533367,32.5133344 21.8666649,32.819998 22.2266667,33.22 C22.5866685,33.620002 22.836666,34.0933306 22.9766667,34.64 C23.1166674,35.1866694 23.1999999,35.8733292 23.2266667,36.7 C23.2400001,36.8200006 23.2466667,36.979999 23.2466667,37.18 C23.2466667,37.3533342 23.2266669,37.6599978 23.1866667,38.1 C23.1066663,38.2066672 23.0600001,38.3399992 23.0466667,38.5 C23.0333333,38.6600008 23.0266667,38.7533332 23.0266667,38.78 C23.0266667,39.046668 23.0000003,39.2399994 22.9466667,39.36 C22.9333333,39.5333342 22.8800005,39.719999 22.7866667,39.92 C22.6933329,40.120001 22.6466667,40.2599996 22.6466667,40.34 C22.2599981,41.4333388 21.7000037,42.413329 20.9666667,43.28 C20.2333297,44.146671 19.4400043,44.679999 18.5866667,44.88 C18.5199997,44.9066668 18.3466681,44.8500007 18.0666667,44.71 C17.7866653,44.5699993 17.5800007,44.4266674 17.4466667,44.28 C17.3133327,44.1199992 17.2100004,43.973334 17.1366667,43.84 C17.063333,43.706666 17.0266667,43.5533342 17.0266667,43.38 C16.9466663,43.1933324 16.8966668,43.0033343 16.8766667,42.81 C16.8566666,42.6166657 16.8466667,42.3666682 16.8466667,42.06 C16.8466667,41.7799986 16.8999995,41.506668 17.0066667,41.24 C17.1133339,40.973332 17.2599991,40.6533352 17.4466667,40.28 C17.5666673,39.946665 17.8366646,39.5366691 18.2566667,39.05 C18.6766688,38.5633309 19.1199977,38.2066678 19.5866667,37.98 C19.9600019,37.779999 20.2799987,37.68 20.5466667,37.68 C20.7066675,37.68 20.8599993,37.7066664 21.0066667,37.76 C21.1666675,37.8000002 21.2866663,37.8633329 21.3666667,37.95 C21.4466671,38.0366671 21.5066665,38.0933332 21.5466667,38.12 C21.6533339,38.0133328 21.7499996,37.7700019 21.8366667,37.39 C21.9233338,37.0099981 21.9666667,36.6000022 21.9666667,36.16 C21.9666667,35.3333292 21.8266681,34.7333352 21.5466667,34.36 C21.1066645,33.7333302 20.5933363,33.42 20.0066667,33.42 C19.7799989,33.42 19.5000017,33.486666 19.1666667,33.62 C18.9933325,33.5399996 18.8466673,33.4066676 18.7266667,33.22 C18.6066661,33.0333324 18.5733331,32.8533342 18.6266667,32.68 C18.9333349,32.4266654 19.2266653,32.2733336 19.5066667,32.22 Z M21.4466667,38.9 C21.3399995,38.7933328 21.2000009,38.74 21.0266667,38.74 C20.6933317,38.74 20.2866691,38.906665 19.8066667,39.24 C19.6466659,39.3600006 19.4900008,39.5233323 19.3366667,39.73 C19.1833326,39.9366677 19.0866669,40.0666664 19.0466667,40.12 C18.9133327,40.3333344 18.8066671,40.4866662 18.7266667,40.58 L18.7266667,40.62 C18.7266667,40.7133338 18.6900004,40.793333 18.6166667,40.86 C18.543333,40.926667 18.4933335,40.9799998 18.4666667,41.02 C18.3199993,41.3000014 18.2133337,41.5833319 18.1466667,41.87 C18.0799997,42.1566681 18.0466667,42.3599994 18.0466667,42.48 C18.0466667,42.7200012 18.083333,42.9466656 18.1566667,43.16 C18.2300004,43.3733344 18.3333327,43.513333 18.4666667,43.58 C18.6533343,43.6600004 18.9766644,43.5100019 19.4366667,43.13 C19.896669,42.7499981 20.2799985,42.3400022 20.5866667,41.9 C20.6666671,41.7799994 20.7933325,41.5500017 20.9666667,41.21 C21.1400009,40.8699983 21.2666663,40.6133342 21.3466667,40.44 C21.4933341,40.039998 21.5666667,39.6800016 21.5666667,39.36 C21.5666667,39.1333322 21.5266671,38.9800004 21.4466667,38.9 Z M24.67,44.7 C24.5099992,44.7 24.3833338,44.6733336 24.29,44.62 C24.1966662,44.5666664 24.0633342,44.4666674 23.89,44.32 C23.4499978,43.853331 23.23,43.4266686 23.23,43.04 C23.23,42.9466662 23.2366666,42.8800002 23.25,42.84 C23.2900002,42.7466662 23.3066667,42.6533338 23.3,42.56 C23.2933333,42.4666662 23.29,42.4066668 23.29,42.38 C23.2366664,42.3266664 23.21,42.2900001 23.21,42.27 C23.21,42.2499999 23.2233332,42.2300001 23.25,42.21 C23.2766668,42.1899999 23.2966666,42.1666668 23.31,42.14 C23.3900004,42.14 23.4166668,42.0666674 23.39,41.92 C23.3633332,41.8133328 23.416666,41.5766685 23.55,41.21 C23.683334,40.8433315 23.849999,40.5066682 24.05,40.2 C24.1966674,39.9599988 24.4133319,39.6600018 24.7,39.3 C24.9866681,38.9399982 25.2433322,38.6666676 25.47,38.48 C25.7900016,38.1999986 26.0766654,37.993334 26.33,37.86 C26.5833346,37.726666 26.8633318,37.626667 27.17,37.56 C27.436668,37.493333 27.6166662,37.46 27.71,37.46 C27.8033338,37.46 27.8866663,37.4833331 27.96,37.53 C28.0333337,37.5766669 28.1299994,37.6599994 28.25,37.78 C28.6100018,37.9400008 28.8599993,38.1433321 29,38.39 C29.1400007,38.6366679 29.21,39.0199974 29.21,39.54 C29.21,40.406671 28.8566702,41.3466616 28.15,42.36 C27.8433318,42.8000022 27.556668,43.1366655 27.29,43.37 C27.023332,43.6033345 26.6700022,43.853332 26.23,44.12 C25.9499986,44.320001 25.6933345,44.4633329 25.46,44.55 C25.2266655,44.6366671 24.9633348,44.6866666 24.67,44.7 Z M26.59,42.58 C26.9100016,42.2199982 27.1666657,41.8800016 27.36,41.56 C27.5533343,41.2399984 27.7366658,40.8333358 27.91,40.34 C27.976667,40.1133322 28.01,39.8400016 28.01,39.52 C28.01,39.119998 27.9566672,38.8933336 27.85,38.84 C27.716666,38.773333 27.583334,38.74 27.45,38.74 C27.1566652,38.74 26.8500016,38.873332 26.53,39.14 C26.1433314,39.473335 25.7966682,39.8833309 25.49,40.37 C25.1833318,40.8566691 24.8700016,41.4599964 24.55,42.18 C24.416666,42.4600014 24.35,42.733332 24.35,43 C24.35,43.200001 24.3999995,43.3599994 24.5,43.48 C24.6000005,43.6000006 24.7366658,43.66 24.91,43.66 C25.3500022,43.66 25.9099966,43.3000036 26.59,42.58 Z M40.1966667,37.9 C40.3433341,37.8199996 40.4899993,37.78 40.6366667,37.78 C40.8233343,37.78 40.986666,37.8366661 41.1266667,37.95 C41.2666674,38.0633339 41.3366667,38.2066658 41.3366667,38.38 C41.3366667,38.4066668 41.3233335,38.4733328 41.2966667,38.58 C41.3366669,38.4066658 41.1966683,38.6933296 40.8766667,39.44 C40.5566651,40.1866704 40.3833335,40.5866664 40.3566667,40.64 L40.3566667,40.7 C40.5433343,40.7 40.6666664,40.7566661 40.7266667,40.87 C40.786667,40.9833339 40.8100001,41.1333324 40.7966667,41.32 C40.6766661,41.3466668 40.5633339,41.393333 40.4566667,41.46 C40.3499995,41.526667 40.2633337,41.56 40.1966667,41.56 C40.1566665,41.56 40.1100003,41.5799998 40.0566667,41.62 C40.0033331,41.6600002 39.9700001,41.7066664 39.9566667,41.76 C39.9299999,41.8133336 39.8833337,42.0199982 39.8166667,42.38 L39.4566667,43.82 C39.4299999,43.9133338 39.3833337,43.993333 39.3166667,44.06 C39.2499997,44.126667 39.1900003,44.1666666 39.1366667,44.18 C39.0833331,44.1666666 38.9800008,44.1300003 38.8266667,44.07 C38.6733326,44.0099997 38.5700003,43.9633335 38.5166667,43.93 C38.4633331,43.8966665 38.4100003,43.8600002 38.3566667,43.82 L38.3566667,43.7 C38.3566667,43.5133324 38.3899997,43.320001 38.4566667,43.12 C38.5633339,42.7999984 38.6699995,42.3533362 38.7766667,41.78 C38.6699995,41.7399998 38.4033355,41.7566663 37.9766667,41.83 C37.5499979,41.9033337 37.3166669,41.94 37.2766667,41.94 C37.1966663,41.9800002 37.0366679,42 36.7966667,42 C36.4099981,42 36.1366675,41.966667 35.9766667,41.9 L35.8566667,41.96 C35.8299999,42.0800006 35.7900003,42.2133326 35.7366667,42.36 C35.5899993,42.7733354 35.5166667,43.079999 35.5166667,43.28 C35.4899999,43.4666676 35.4633335,43.6199994 35.4366667,43.74 C35.4099999,43.873334 35.3833335,44.073332 35.3566667,44.34 C35.3433333,44.7133352 35.2166679,44.9 34.9766667,44.9 C34.8299993,44.9 34.6700009,44.8466672 34.4966667,44.74 C34.4033329,44.6866664 34.2766675,44.5800008 34.1166667,44.42 L34.4366667,42.88 C34.4766669,42.7599994 34.5199998,42.5933344 34.5666667,42.38 C34.6133336,42.1666656 34.6633331,41.993334 34.7166667,41.86 L34.9366667,41.24 C35.0966675,40.773331 35.2433327,40.3933348 35.3766667,40.1 L35.7966667,38.92 C35.8366669,38.8266662 35.926666,38.5700021 36.0666667,38.15 C36.2066674,37.7299979 36.2899999,37.486667 36.3166667,37.42 C36.3700003,37.2733326 36.4766659,37.2 36.6366667,37.2 C36.8500011,37.1866666 37.0333326,37.2366661 37.1866667,37.35 C37.3400008,37.4633339 37.4233333,37.5999992 37.4366667,37.76 C37.4366667,37.8000002 37.4300001,37.8633329 37.4166667,37.95 C37.4033333,38.0366671 37.3900001,38.0999998 37.3766667,38.14 L36.3366667,40.68 L36.3366667,40.84 C36.3900003,40.8800002 36.4833327,40.9 36.6166667,40.9 C36.7233339,40.9 36.8866656,40.8800002 37.1066667,40.84 C37.3266678,40.7999998 37.4633331,40.78 37.5166667,40.78 C37.6366673,40.7666666 37.8166655,40.7533334 38.0566667,40.74 C38.2966679,40.7266666 38.5366655,40.72 38.7766667,40.72 C38.9633343,40.72 39.0633333,40.7266666 39.0766667,40.74 L39.2966667,40.1 C39.5100011,39.4466634 39.7366655,38.920002 39.9766667,38.52 C39.9900001,38.4799998 40.0166665,38.4033339 40.0566667,38.29 C40.0966669,38.1766661 40.1433331,38.0466674 40.1966667,37.9 Z M41.8200001,44.28 C41.7799999,44.1999996 41.7166672,44.1166671 41.6300001,44.03 C41.543333,43.9433329 41.5000001,43.8866668 41.5000001,43.86 C41.5000001,43.7133326 41.4666671,43.6000004 41.4000001,43.52 C41.3733333,43.4933332 41.3600001,43.4333338 41.3600001,43.34 C41.3600001,43.1266656 41.4633324,42.7633359 41.6700001,42.25 C41.8766678,41.7366641 42.1466651,41.180003 42.4800001,40.58 C42.5600005,40.4999996 42.6633328,40.360001 42.7900001,40.16 C42.9166674,39.959999 42.9999999,39.8466668 43.0400001,39.82 C43.0400001,39.7666664 43.0599999,39.7166669 43.1000001,39.67 C43.1400003,39.6233331 43.1866665,39.6 43.2400001,39.6 L43.2400001,39.48 C43.2400001,39.3599994 43.4599979,39.0700023 43.9000001,38.61 C44.3400023,38.1499977 44.6999987,37.8333342 44.9800001,37.66 C45.3133351,37.4333322 45.6533317,37.32 46.0000001,37.32 C46.2400013,37.32 46.4466659,37.386666 46.6200001,37.52 C46.6866671,37.6000004 46.9933307,37.8866642 47.5400001,38.38 L48.2800001,39.04 L47.9200001,40.04 C47.7999995,40.4000018 47.7400001,40.7266652 47.7400001,41.02 C47.7400001,41.5266692 47.8866653,42.013331 48.1800001,42.48 C48.2466671,42.6266674 48.3799991,42.766666 48.5800001,42.9 C48.7800011,43.033334 48.9799991,43.1133332 49.1800001,43.14 C49.4733349,43.1933336 49.6200001,43.3399988 49.6200001,43.58 C49.6200001,43.846668 49.5000013,44.0066664 49.2600001,44.06 C49.2066665,44.0733334 49.1266673,44.08 49.0200001,44.08 C48.2333295,44.08 47.5533363,43.5266722 46.9800001,42.42 C46.9266665,42.3399996 46.8566672,42.1933344 46.7700001,41.98 C46.683333,41.7666656 46.6333335,41.6200004 46.6200001,41.54 C46.5399997,41.6466672 46.4400007,41.7733326 46.3200001,41.92 C46.1999995,42.0666674 46.0866673,42.1933328 45.9800001,42.3 C44.5266595,43.7533406 43.3800043,44.48 42.5400001,44.48 C42.2733321,44.48 42.0333345,44.413334 41.8200001,44.28 Z M42.5400001,43.16 C42.5400001,43.226667 42.6099994,43.2466668 42.7500001,43.22 C42.8900008,43.1933332 43.0633324,43.1266672 43.2700001,43.02 C43.4766678,42.9133328 43.6866657,42.7733342 43.9000001,42.6 C45.0466725,41.6133284 45.8733309,40.753337 46.3800001,40.02 L46.8200001,39.3 C46.6866661,39.0199986 46.5466675,38.8166673 46.4000001,38.69 C46.2533327,38.5633327 46.1200007,38.5 46.0000001,38.5 C45.7199987,38.5 45.2800031,38.8499965 44.6800001,39.55 C44.0799971,40.2500035 43.5333359,41.0733286 43.0400001,42.02 C42.9199995,42.2466678 42.8133339,42.4766655 42.7200001,42.71 L42.5400001,43.16 Z M55.3633334,42.28 C55.3099998,42.3600004 55.2100008,42.4966657 55.0633334,42.69 C54.916666,42.8833343 54.8100004,43.079999 54.7433334,43.28 C54.7033332,43.3866672 54.6400005,43.4766663 54.5533334,43.55 C54.4666663,43.6233337 54.4166668,43.6666666 54.4033334,43.68 C54.3366664,43.6533332 54.2600005,43.6266668 54.1733334,43.6 C54.0866663,43.5733332 54.016667,43.5366669 53.9633334,43.49 C53.9099998,43.4433331 53.8433338,43.3800004 53.7633334,43.3 C53.4966654,43.0466654 53.3899998,42.8066678 53.4433334,42.58 C53.43,42.446666 53.4266667,42.313334 53.4333334,42.18 C53.4400001,42.046666 53.4433334,41.9266672 53.4433334,41.82 C53.4566668,41.6599992 53.4633334,41.4200016 53.4633334,41.1 C53.4633334,40.4866636 53.4300004,40.1066674 53.3633334,39.96 C53.216666,39.9733334 53.116667,39.9933332 53.0633334,40.02 C53.0099998,40.0466668 52.9433338,40.126666 52.8633334,40.26 C52.8366666,40.3133336 52.7600007,40.4366657 52.6333334,40.63 C52.5066661,40.8233343 52.3433344,41.0599986 52.1433334,41.34 C51.9433324,41.6466682 51.6866683,42.0399976 51.3733334,42.52 C51.0599985,43.0000024 50.91,43.2333334 50.9233334,43.22 C50.7633326,43.4066676 50.6300006,43.6466652 50.5233334,43.94 C50.376666,44.273335 50.2300008,44.3666674 50.0833334,44.22 C49.803332,44.0733326 49.5966674,43.9466672 49.4633334,43.84 C49.3433328,43.6266656 49.2766668,43.4133344 49.2633334,43.2 C49.3033336,43.1866666 49.3499998,43.1633335 49.4033334,43.13 C49.456667,43.0966665 49.4966666,43.0666668 49.5233334,43.04 C49.5500002,43.0133332 49.57,42.9800002 49.5833334,42.94 L51.1033334,40.72 L51.3633334,40.34 C51.4300004,40.206666 51.6099986,39.9533352 51.9033334,39.58 C51.9300002,39.513333 52.0599989,39.3333348 52.2933334,39.04 C52.5266679,38.7466652 52.683333,38.5800002 52.7633334,38.54 C52.8300004,38.4999998 52.8866665,38.4300005 52.9333334,38.33 C52.9800003,38.2299995 53.01,38.1666668 53.0233334,38.14 C53.0633336,37.9266656 53.2033322,37.82 53.4433334,37.82 C53.5233338,37.82 53.5833332,37.8266666 53.6233334,37.84 L54.4033334,38.44 C54.39,38.4933336 54.3833334,38.5799994 54.3833334,38.7 C54.3833334,38.8866676 54.4366662,39.1666648 54.5433334,39.54 C54.53,39.5800002 54.5233334,39.6399996 54.5233334,39.72 C54.5233334,39.8266672 54.5333333,39.9299995 54.5533334,40.03 C54.5733335,40.1300005 54.5833334,40.2333328 54.5833334,40.34 C54.5833334,40.4200004 54.5766668,40.4799998 54.5633334,40.52 C54.5633334,40.7733346 54.6299994,40.9 54.7633334,40.9 C54.8566672,40.9 54.9699994,40.833334 55.1033334,40.7 C55.4766686,40.233331 56.1833282,39.4800052 57.2233334,38.44 C57.610002,38.0533314 57.8166666,37.8400002 57.8433334,37.8 C57.8833336,37.733333 57.9499996,37.7 58.0433334,37.7 C58.1100004,37.7 58.1633332,37.7133332 58.2033334,37.74 C58.390001,37.8333338 58.5333329,37.913333 58.6333334,37.98 C58.7333339,38.046667 58.856666,38.1533326 59.0033334,38.3 C59.0833338,38.3933338 59.1233334,38.4933328 59.1233334,38.6 C59.1233334,38.666667 59.1033336,38.733333 59.0633334,38.8 C58.9433328,39.0800014 58.7833344,39.6299959 58.5833334,40.45 C58.3833324,41.2700041 58.2766668,41.846665 58.2633334,42.18 C58.2633334,42.2733338 58.2533335,42.4166657 58.2333334,42.61 C58.2133333,42.8033343 58.2033334,42.9733326 58.2033334,43.12 C58.2033334,43.4133348 58.2299998,43.6733322 58.2833334,43.9 C58.3500004,44.1533346 58.3833334,44.3666658 58.3833334,44.54 C58.3833334,44.673334 58.3533337,44.7666664 58.2933334,44.82 C58.2333331,44.8733336 58.1233342,44.9133332 57.9633334,44.94 C57.883333,44.8999998 57.783334,44.8300005 57.6633334,44.73 C57.5433328,44.6299995 57.4300006,44.546667 57.3233334,44.48 C57.2966666,44.3733328 57.2466671,44.2033345 57.1733334,43.97 C57.0999997,43.7366655 57.07,43.5266676 57.0833334,43.34 C57.0833334,43.273333 57.0666669,43.1633341 57.0333334,43.01 C56.9999999,42.8566659 57.0033332,42.7400004 57.0433334,42.66 L57.0233334,42.42 C57.0233334,41.9399976 57.1366656,41.1933384 57.3633334,40.18 C57.3233332,40.1266664 57.2866669,40.0933334 57.2533334,40.08 C57.2199999,40.0666666 57.176667,40.0866664 57.1233334,40.14 C56.9499992,40.3000008 56.6966684,40.5733314 56.3633334,40.96 C56.3366666,40.9866668 56.2833338,41.0299997 56.2033334,41.09 C56.123333,41.1500003 56.0833334,41.2266662 56.0833334,41.32 L55.3633334,42.28 Z M67.3100001,32.22 C67.5766681,32.1666664 67.7699995,32.14 67.8900001,32.14 C68.1166679,32.14 68.3166659,32.1933328 68.4900001,32.3 C69.1566701,32.5133344 69.6699983,32.819998 70.0300001,33.22 C70.3900019,33.620002 70.6399994,34.0933306 70.7800001,34.64 C70.9200008,35.1866694 71.0033333,35.8733292 71.0300001,36.7 C71.0433335,36.8200006 71.0500001,36.979999 71.0500001,37.18 C71.0500001,37.3533342 71.0300003,37.6599978 70.9900001,38.1 C70.9099997,38.2066672 70.8633335,38.3399992 70.8500001,38.5 C70.8366667,38.6600008 70.8300001,38.7533332 70.8300001,38.78 C70.8300001,39.046668 70.8033337,39.2399994 70.7500001,39.36 C70.7366667,39.5333342 70.6833339,39.719999 70.5900001,39.92 C70.4966663,40.120001 70.4500001,40.2599996 70.4500001,40.34 C70.0633315,41.4333388 69.5033371,42.413329 68.7700001,43.28 C68.0366631,44.146671 67.2433377,44.679999 66.3900001,44.88 C66.3233331,44.9066668 66.1500015,44.8500007 65.8700001,44.71 C65.5899987,44.5699993 65.3833341,44.4266674 65.2500001,44.28 C65.1166661,44.1199992 65.0133338,43.973334 64.9400001,43.84 C64.8666664,43.706666 64.8300001,43.5533342 64.8300001,43.38 C64.7499997,43.1933324 64.7000002,43.0033343 64.6800001,42.81 C64.66,42.6166657 64.6500001,42.3666682 64.6500001,42.06 C64.6500001,41.7799986 64.7033329,41.506668 64.8100001,41.24 C64.9166673,40.973332 65.0633325,40.6533352 65.2500001,40.28 C65.3700007,39.946665 65.639998,39.5366691 66.0600001,39.05 C66.4800022,38.5633309 66.9233311,38.2066678 67.3900001,37.98 C67.7633353,37.779999 68.0833321,37.68 68.3500001,37.68 C68.5100009,37.68 68.6633327,37.7066664 68.8100001,37.76 C68.9700009,37.8000002 69.0899997,37.8633329 69.1700001,37.95 C69.2500005,38.0366671 69.3099999,38.0933332 69.3500001,38.12 C69.4566673,38.0133328 69.553333,37.7700019 69.6400001,37.39 C69.7266672,37.0099981 69.7700001,36.6000022 69.7700001,36.16 C69.7700001,35.3333292 69.6300015,34.7333352 69.3500001,34.36 C68.9099979,33.7333302 68.3966697,33.42 67.8100001,33.42 C67.5833323,33.42 67.3033351,33.486666 66.9700001,33.62 C66.7966659,33.5399996 66.6500007,33.4066676 66.5300001,33.22 C66.4099995,33.0333324 66.3766665,32.8533342 66.4300001,32.68 C66.7366683,32.4266654 67.0299987,32.2733336 67.3100001,32.22 Z M69.2500001,38.9 C69.1433329,38.7933328 69.0033343,38.74 68.8300001,38.74 C68.4966651,38.74 68.0900025,38.906665 67.6100001,39.24 C67.4499993,39.3600006 67.2933342,39.5233323 67.1400001,39.73 C66.986666,39.9366677 66.8900003,40.0666664 66.8500001,40.12 C66.7166661,40.3333344 66.6100005,40.4866662 66.5300001,40.58 L66.5300001,40.62 C66.5300001,40.7133338 66.4933338,40.793333 66.4200001,40.86 C66.3466664,40.926667 66.2966669,40.9799998 66.2700001,41.02 C66.1233327,41.3000014 66.0166671,41.5833319 65.9500001,41.87 C65.8833331,42.1566681 65.8500001,42.3599994 65.8500001,42.48 C65.8500001,42.7200012 65.8866664,42.9466656 65.9600001,43.16 C66.0333338,43.3733344 66.1366661,43.513333 66.2700001,43.58 C66.4566677,43.6600004 66.7799978,43.5100019 67.2400001,43.13 C67.7000024,42.7499981 68.0833319,42.3400022 68.3900001,41.9 C68.4700005,41.7799994 68.5966659,41.5500017 68.7700001,41.21 C68.9433343,40.8699983 69.0699997,40.6133342 69.1500001,40.44 C69.2966675,40.039998 69.3700001,39.6800016 69.3700001,39.36 C69.3700001,39.1333322 69.3300005,38.9800004 69.2500001,38.9 Z M71.6133334,44.84 C71.533333,44.906667 71.3900011,44.9366667 71.1833334,44.93 C70.9766657,44.9233333 70.8400004,44.92 70.7733334,44.92 C70.693333,44.8933332 70.5833341,44.8033341 70.4433334,44.65 C70.3033327,44.4966659 70.206667,44.3933336 70.1533334,44.34 C70.1533334,44.2466662 70.1833331,44.1733336 70.2433334,44.12 C70.3033337,44.0666664 70.3466666,44.0266668 70.3733334,44 C70.4133336,43.9466664 70.5033327,43.9066668 70.6433334,43.88 C70.7833341,43.8533332 70.8733332,43.8200002 70.9133334,43.78 C70.966667,43.7399998 71.099999,43.6466674 71.3133334,43.5 C71.5266678,43.3533326 71.7166659,43.2033341 71.8833334,43.05 C72.0500009,42.8966659 72.1866662,42.7400008 72.2933334,42.58 C72.6400018,42.0866642 73.0066648,41.5000034 73.3933334,40.82 C73.513334,40.5933322 73.6699991,40.2833353 73.8633334,39.89 C74.0566677,39.4966647 74.1666666,39.2400006 74.1933334,39.12 L73.5733334,38.92 C73.5466666,38.8933332 73.506667,38.8400004 73.4533334,38.76 C73.3999998,38.6799996 73.3700001,38.6133336 73.3633334,38.56 C73.3566667,38.5066664 73.3533334,38.446667 73.3533334,38.38 C73.3533334,38.2199992 73.3699999,38.106667 73.4033334,38.04 C73.4366669,37.973333 73.5066662,37.9333334 73.6133334,37.92 C74.0266688,37.8399996 74.3666654,37.7800002 74.6333334,37.74 C75.0333354,37.6866664 75.3333324,37.6333336 75.5333334,37.58 C75.6933342,37.5399998 75.8733324,37.52 76.0733334,37.52 C76.4200018,37.52 76.733332,37.5799994 77.0133334,37.7 C77.2133344,37.7800004 77.386666,37.9399988 77.5333334,38.18 C77.720001,38.4333346 77.8133334,38.6866654 77.8133334,38.94 C77.8133334,39.0333338 77.8066668,39.1233329 77.7933334,39.21 C77.78,39.2966671 77.7733334,39.3866662 77.7733334,39.48 C77.7733334,39.6000006 77.7933332,39.7199994 77.8333334,39.84 C77.6599992,40.4800032 77.4733344,41.066664 77.2733334,41.6 C77.2333332,41.7066672 77.1733338,41.8866654 77.0933334,42.14 C77.013333,42.3933346 76.9533336,42.6133324 76.9133334,42.8 C76.8733332,43.000001 76.8133338,43.1866658 76.7333334,43.36 C76.6266662,43.6666682 76.5600002,43.9133324 76.5333334,44.1 C76.5066666,44.2466674 76.4500005,44.3566663 76.3633334,44.43 C76.2766663,44.5033337 76.1833339,44.5633331 76.0833334,44.61 C75.9833329,44.6566669 75.9200002,44.6866666 75.8933334,44.7 C75.8399998,44.7266668 75.7466674,44.7133336 75.6133334,44.66 C75.4799994,44.6066664 75.3666672,44.5333338 75.2733334,44.44 C75.2466666,44.3599996 75.2333334,44.253334 75.2333334,44.12 C75.2333334,44.0133328 75.2599998,43.8666676 75.3133334,43.68 C75.5533346,42.9066628 75.879998,41.786674 76.2933334,40.32 L76.5133334,39.56 C76.5533336,39.4399994 76.5733334,39.3000008 76.5733334,39.14 C76.5733334,39.0199994 76.5533336,38.9000006 76.5133334,38.78 C76.299999,38.6999996 76.133334,38.66 76.0133334,38.66 C75.9466664,38.66 75.8733338,38.6733332 75.7933334,38.7 C75.713333,38.7266668 75.6400004,38.7466666 75.5733334,38.76 C75.4399994,38.8533338 75.3600002,38.9799992 75.3333334,39.14 C75.0799988,39.80667 74.8200014,40.3933308 74.5533334,40.9 C74.2866654,41.4066692 74.0800008,41.8199984 73.9333334,42.14 C73.8799998,42.273334 73.726668,42.5266648 73.4733334,42.9 C73.3133326,43.1400012 73.2000004,43.3199994 73.1333334,43.44 L72.9133334,43.72 C72.8466664,43.786667 72.7333342,43.8933326 72.5733334,44.04 C72.4133326,44.1866674 72.3000004,44.293333 72.2333334,44.36 L71.6133334,44.84 Z M82.6566668,40.94 C82.830001,40.9800002 83.0066659,41.0099999 83.1866668,41.03 C83.3666677,41.0500001 83.4899998,41.0666666 83.5566668,41.08 C83.7166676,41.1200002 83.8699994,41.1999994 84.0166668,41.32 C84.1633342,41.4400006 84.2633332,41.5199998 84.3166668,41.56 L84.3166668,41.64 C84.3166668,41.7200004 84.2900004,41.8066662 84.2366668,41.9 C84.076666,42.2200016 83.9500006,42.4599992 83.8566668,42.62 C83.7899998,42.7400006 83.7100006,42.8899991 83.6166668,43.07 C83.523333,43.2500009 83.423334,43.4599988 83.3166668,43.7 C83.2766666,43.7800004 83.2300004,43.9399988 83.1766668,44.18 C83.083333,44.4733348 83.0300002,44.6399998 83.0166668,44.68 C82.8699994,44.8266674 82.776667,44.9 82.7366668,44.9 C82.7233334,44.9 82.696667,44.8900001 82.6566668,44.87 C82.6166666,44.8499999 82.5566672,44.84 82.4766668,44.84 C82.2899992,44.7999998 82.1633338,44.7000008 82.0966668,44.54 C82.0833334,44.4866664 82.0533337,44.4166671 82.0066668,44.33 C81.9599999,44.2433329 81.9366668,44.166667 81.9366668,44.1 C81.9366668,43.9533326 82.0033328,43.7733344 82.1366668,43.56 C82.2033338,43.426666 82.2899996,43.226668 82.3966668,42.96 C82.4500004,42.8133326 82.5433328,42.5933348 82.6766668,42.3 C82.7033336,42.2733332 82.7233334,42.2400002 82.7366668,42.2 C82.7500002,42.1599998 82.7566668,42.1200002 82.7566668,42.08 L82.6166668,42.08 L82.0166668,41.98 C81.9766666,42.0066668 81.903334,42.0566663 81.7966668,42.13 C81.6899996,42.2033337 81.6100004,42.3133326 81.5566668,42.46 C81.5033332,42.5133336 81.3766678,42.673332 81.1766668,42.94 C81.0433328,43.1533344 80.8833344,43.3533324 80.6966668,43.54 C80.2566646,44.006669 79.9033348,44.3533322 79.6366668,44.58 C79.343332,44.7933344 79.0700014,44.9 78.8166668,44.9 C78.5099986,44.9 78.2833342,44.8133342 78.1366668,44.64 C78.0166662,44.4533324 77.9166672,44.2466678 77.8366668,44.02 C77.8633336,43.9266662 77.9099998,43.8366671 77.9766668,43.75 C78.0433338,43.6633329 78.123333,43.62 78.2166668,43.62 C78.2700004,43.62 78.3299998,43.6399998 78.3966668,43.68 C78.4233336,43.68 78.45,43.6933332 78.4766668,43.72 C78.5033336,43.7466668 78.5366666,43.7733332 78.5766668,43.8 C79.016669,43.599999 79.3866653,43.3400016 79.6866668,43.02 C79.9866683,42.6999984 80.3233316,42.2533362 80.6966668,41.68 C80.469999,41.613333 80.2466679,41.5066674 80.0266668,41.36 C79.8066657,41.2133326 79.6500006,41.0600008 79.5566668,40.9 C79.4366662,40.699999 79.3500004,40.4533348 79.2966668,40.16 C79.2433332,39.8666652 79.2100002,39.7000002 79.1966668,39.66 C79.2500004,39.5399994 79.3299996,39.2933352 79.4366668,38.92 C79.4900004,38.7066656 79.5499998,38.5200008 79.6166668,38.36 C79.6833338,38.1999992 79.796666,38.0133344 79.9566668,37.8 C80.1566678,37.533332 80.436665,37.2833345 80.7966668,37.05 C81.1566686,36.8166655 81.4099994,36.7 81.5566668,36.7 C81.663334,36.7400002 81.8066659,36.7366669 81.9866668,36.69 C82.1666677,36.6433331 82.2966664,36.6333332 82.3766668,36.66 C82.4300004,36.6733334 82.4766666,36.6766667 82.5166668,36.67 C82.556667,36.6633333 82.5966666,36.6666666 82.6366668,36.68 C83.0366688,36.7600004 83.349999,36.8633327 83.5766668,36.99 C83.8033346,37.1166673 83.9499998,37.3266652 84.0166668,37.62 C83.99,37.7133338 83.9500004,37.8766655 83.8966668,38.11 C83.8433332,38.3433345 83.7833338,38.5533324 83.7166668,38.74 C83.6499998,38.9266676 83.5700006,39.0999992 83.4766668,39.26 L83.2366668,39.76 C82.9966656,40.2400024 82.790001,40.5933322 82.6166668,40.82 L82.6566668,40.94 Z M82.2366668,37.48 C81.2366618,37.7733348 80.5966682,38.3999952 80.3166668,39.36 C80.2766666,39.5333342 80.2566668,39.6999992 80.2566668,39.86 C80.2566668,40.126668 80.3166662,40.3499991 80.4366668,40.53 C80.5566674,40.7100009 80.7233324,40.8 80.9366668,40.8 C81.0300006,40.8 81.123333,40.7800002 81.2166668,40.74 C81.3366674,40.7133332 81.5633318,40.466669 81.8966668,40 C82.2300018,39.533331 82.4166666,39.2400006 82.4566668,39.12 C82.5100004,38.9999994 82.6033328,38.7600018 82.7366668,38.4 C82.8700008,38.0399982 82.9699998,37.7666676 83.0366668,37.58 C82.8633326,37.4599994 82.7100008,37.4 82.5766668,37.4 C82.5366666,37.4 82.4233344,37.4266664 82.2366668,37.48 Z M98.9433335,43.26 C98.9966671,43.3000002 99.0233335,43.3599996 99.0233335,43.44 C99.0233335,43.5333338 98.9933338,43.6233329 98.9333335,43.71 C98.8733332,43.7966671 98.8166671,43.84 98.7633335,43.84 C98.5099989,43.84 98.266668,43.7700007 98.0333335,43.63 C97.799999,43.4899993 97.6833335,43.2666682 97.6833335,42.96 L97.6833335,41.72 C97.6833335,41.0933302 97.6366673,40.7400004 97.5433335,40.66 C97.3433325,40.5533328 97.0000026,40.7733306 96.5133335,41.32 C96.0266644,41.8666694 95.5566691,42.5133296 95.1033335,43.26 C94.9566661,43.5000012 94.8366673,43.686666 94.7433335,43.82 C94.6499997,43.953334 94.5766671,44.02 94.5233335,44.02 C94.4833333,44.02 94.4166673,43.986667 94.3233335,43.92 C93.9099981,43.7999994 93.7033335,43.5666684 93.7033335,43.22 C93.7033335,43.1799998 93.7166667,43.093334 93.7433335,42.96 C93.8766675,42.5199978 94.0099995,42.0300027 94.1433335,41.49 C94.2766675,40.9499973 94.3833331,40.4933352 94.4633335,40.12 C94.4233333,40.0399996 94.3566673,40 94.2633335,40 C94.1299995,40 93.9766677,40.066666 93.8033335,40.2 C93.4699985,40.4266678 93.0433361,40.9666624 92.5233335,41.82 C91.8699969,42.820005 91.4166681,43.4266656 91.1633335,43.64 C91.0699997,43.8000008 90.9866672,43.9233329 90.9133335,44.01 C90.8399998,44.0966671 90.7700005,44.14 90.7033335,44.14 C90.6499999,44.14 90.5500009,44.1000004 90.4033335,44.02 C90.0166649,43.7933322 89.8233335,43.4733354 89.8233335,43.06 C89.8233335,42.859999 89.8833329,42.460003 90.0033335,41.86 C90.1233341,41.259997 90.2566661,40.7000026 90.4033335,40.18 C90.5233341,39.9533322 90.633333,39.7166679 90.7333335,39.47 C90.833334,39.2233321 90.8833335,39.0733336 90.8833335,39.02 C90.9366671,38.7399986 91.0033331,38.4400016 91.0833335,38.12 C91.1633339,37.7999984 91.2233333,37.6200002 91.2633335,37.58 C91.3566673,37.4866662 91.4633329,37.44 91.5833335,37.44 C91.7833345,37.44 91.9299997,37.5466656 92.0233335,37.76 C92.1700009,37.9066674 92.2433335,38.0933322 92.2433335,38.32 C92.2433335,38.5733346 92.1700009,38.899998 92.0233335,39.3 C91.7966657,39.7933358 91.5500015,40.5133286 91.2833335,41.46 C91.5633349,41.1533318 91.7633329,40.9133342 91.8833335,40.74 C92.2033351,40.2866644 92.6166643,39.7800028 93.1233335,39.22 C93.5366689,38.7666644 94.0033309,38.54 94.5233335,38.54 C95.1366699,38.6466672 95.4899997,39.1599954 95.5833335,40.08 C95.5833335,40.2400008 95.5700003,40.4366655 95.5433335,40.67 C95.5166667,40.9033345 95.4966669,41.053333 95.4833335,41.12 C95.5366671,41.0399996 95.6733324,40.866668 95.8933335,40.6 C96.1133346,40.333332 96.3833319,40.0600014 96.7033335,39.78 C96.9966683,39.5533322 97.2699989,39.44 97.5233335,39.44 C97.7366679,39.44 97.9233327,39.5266658 98.0833335,39.7 C98.3633349,39.8600008 98.5633329,40.0833319 98.6833335,40.37 C98.8033341,40.6566681 98.8633335,41.0199978 98.8633335,41.46 C98.8633335,41.6866678 98.8566669,41.866666 98.8433335,42 C98.8166667,42.266668 98.8033335,42.433333 98.8033335,42.5 C98.8033335,42.7533346 98.8499997,43.0066654 98.9433335,43.26 Z M101.666667,44.94 C101.626667,44.94 101.496668,44.9433333 101.276667,44.95 C101.056666,44.9566667 100.846668,44.9100005 100.646667,44.81 C100.446666,44.7099995 100.280001,44.5533344 100.146667,44.34 C100.053333,44.1666658 99.9733338,43.9666678 99.9066668,43.74 C99.8399998,43.5133322 99.8066668,43.3200008 99.8066668,43.16 C99.8066668,43.093333 99.82,43.0200004 99.8466668,42.94 C100.100001,41.473326 100.306666,40.5466686 100.466667,40.16 L100.786667,39.38 C100.853334,39.1666656 100.873334,38.926668 100.846667,38.66 L100.846667,38.58 C100.846667,38.4066658 100.913333,38.2600006 101.046667,38.14 C101.273335,37.9666658 101.453333,37.7400014 101.586667,37.46 C101.680001,37.2333322 101.826666,36.9266686 102.026667,36.54 C102.226668,36.1533314 102.373333,35.9000006 102.466667,35.78 C102.613334,35.579999 102.746666,35.3866676 102.866667,35.2 C102.893334,35.1599998 102.989999,35.0166679 103.156667,34.77 C103.323334,34.5233321 103.513332,34.3133342 103.726667,34.14 C103.980001,33.7133312 104.479996,33.200003 105.226667,32.6 C105.546668,32.333332 105.746666,32.1600004 105.826667,32.08 C105.866667,32.0399998 105.986666,31.9966669 106.186667,31.95 C106.386668,31.9033331 106.513333,31.8733334 106.566667,31.86 C106.673334,31.8333332 106.853332,31.786667 107.106667,31.72 C107.186667,31.6799998 107.336666,31.7099995 107.556667,31.81 C107.776668,31.9100005 107.94,32.0199994 108.046667,32.14 C108.260001,32.5133352 108.366667,32.8066656 108.366667,33.02 C108.366667,33.1933342 108.326667,33.3866656 108.246667,33.6 C108.166666,33.8133344 108.013335,34.1599976 107.786667,34.64 C107.306664,35.6000048 106.43334,36.513329 105.166667,37.38 C104.686664,37.8066688 104.14667,38.1799984 103.546667,38.5 C103.106665,38.7266678 102.746668,38.8866662 102.466667,38.98 C102.253332,39.046667 102.100001,39.1999988 102.006667,39.44 C101.953333,39.5600006 101.91,39.7066658 101.876667,39.88 C101.843333,40.0533342 101.8,40.1666664 101.746667,40.22 C101.666666,40.3000004 101.533334,40.7466626 101.346667,41.56 C101.159999,42.3733374 101.066667,42.9266652 101.066667,43.22 C101.066667,43.3266672 101.08,43.4199996 101.106667,43.5 C101.133334,43.5800004 101.193333,43.6399998 101.286667,43.68 C101.473334,43.6399998 101.623333,43.5766671 101.736667,43.49 C101.850001,43.4033329 101.993333,43.260001 102.166667,43.06 C102.540002,42.593331 102.806666,42.1466688 102.966667,41.72 C103.006667,41.5999994 103.046667,41.4433343 103.086667,41.25 C103.126667,41.0566657 103.173333,40.9066672 103.226667,40.8 C103.226667,40.333331 103.22,40.0300007 103.206667,39.89 C103.193333,39.7499993 103.146667,39.580001 103.066667,39.38 C103.133334,39.3399998 103.19,39.2966669 103.236667,39.25 C103.283334,39.2033331 103.346666,39.1866666 103.426667,39.2 C103.733335,39.266667 104.046665,39.4533318 104.366667,39.76 C104.460001,39.8533338 104.486667,39.966666 104.446667,40.1 C104.393333,40.5266688 104.366667,40.8333324 104.366667,41.02 C104.326667,41.1133338 104.260001,41.3199984 104.166667,41.64 C104.153333,41.8133342 104.113334,41.9799992 104.046667,42.14 C103.806666,42.6333358 103.633334,42.9666658 103.526667,43.14 C103.233332,43.6866694 102.833336,44.1533314 102.326667,44.54 L101.666667,44.94 Z M107.206667,32.52 C106.819998,32.6933342 106.516668,32.8566659 106.296667,33.01 C106.076666,33.1633341 105.800002,33.406665 105.466667,33.74 C105.146665,34.0600016 104.710003,34.6033295 104.156667,35.37 C103.603331,36.1366705 103.233334,36.753331 103.046667,37.22 C103.113334,37.2333334 103.193333,37.24 103.286667,37.24 C103.420001,37.24 103.533333,37.173334 103.626667,37.04 C104.573338,36.3866634 105.313331,35.8166691 105.846667,35.33 C106.380003,34.8433309 106.726666,34.3866688 106.886667,33.96 C106.94,33.8533328 107.013333,33.7166675 107.106667,33.55 C107.200001,33.3833325 107.26,33.2266674 107.286667,33.08 L107.206667,32.52 Z M106.57,44.7 C106.409999,44.7 106.283334,44.6733336 106.19,44.62 C106.096666,44.5666664 105.963334,44.4666674 105.79,44.32 C105.349998,43.853331 105.13,43.4266686 105.13,43.04 C105.13,42.9466662 105.136667,42.8800002 105.15,42.84 C105.19,42.7466662 105.206667,42.6533338 105.2,42.56 C105.193333,42.4666662 105.19,42.4066668 105.19,42.38 C105.136667,42.3266664 105.11,42.2900001 105.11,42.27 C105.11,42.2499999 105.123333,42.2300001 105.15,42.21 C105.176667,42.1899999 105.196667,42.1666668 105.21,42.14 C105.290001,42.14 105.316667,42.0666674 105.29,41.92 C105.263333,41.8133328 105.316666,41.5766685 105.45,41.21 C105.583334,40.8433315 105.749999,40.5066682 105.95,40.2 C106.096668,39.9599988 106.313332,39.6600018 106.6,39.3 C106.886668,38.9399982 107.143332,38.6666676 107.37,38.48 C107.690002,38.1999986 107.976666,37.993334 108.23,37.86 C108.483335,37.726666 108.763332,37.626667 109.07,37.56 C109.336668,37.493333 109.516666,37.46 109.61,37.46 C109.703334,37.46 109.786666,37.4833331 109.86,37.53 C109.933334,37.5766669 110.03,37.6599994 110.15,37.78 C110.510002,37.9400008 110.759999,38.1433321 110.9,38.39 C111.040001,38.6366679 111.11,39.0199974 111.11,39.54 C111.11,40.406671 110.75667,41.3466616 110.05,42.36 C109.743332,42.8000022 109.456668,43.1366655 109.19,43.37 C108.923332,43.6033345 108.570002,43.853332 108.13,44.12 C107.849999,44.320001 107.593335,44.4633329 107.36,44.55 C107.126666,44.6366671 106.863335,44.6866666 106.57,44.7 Z M108.49,42.58 C108.810002,42.2199982 109.066666,41.8800016 109.26,41.56 C109.453334,41.2399984 109.636666,40.8333358 109.81,40.34 C109.876667,40.1133322 109.91,39.8400016 109.91,39.52 C109.91,39.119998 109.856667,38.8933336 109.75,38.84 C109.616666,38.773333 109.483334,38.74 109.35,38.74 C109.056665,38.74 108.750002,38.873332 108.43,39.14 C108.043332,39.473335 107.696668,39.8833309 107.39,40.37 C107.083332,40.8566691 106.770002,41.4599964 106.45,42.18 C106.316666,42.4600014 106.25,42.733332 106.25,43 C106.25,43.200001 106.3,43.3599994 106.4,43.48 C106.500001,43.6000006 106.636666,43.66 106.81,43.66 C107.250002,43.66 107.809997,43.3000036 108.49,42.58 Z M115.353333,44.3 C115.019998,44.5933348 114.620002,44.74 114.153333,44.74 C113.819998,44.74 113.503335,44.6600008 113.203333,44.5 C112.903332,44.3399992 112.653334,44.1200014 112.453333,43.84 C112.279999,43.6266656 112.153334,43.386668 112.073333,43.12 C111.993333,42.853332 111.953333,42.5266686 111.953333,42.14 C111.953333,42.006666 111.966667,41.740002 111.993333,41.34 C112.033334,40.8466642 112.196665,40.333336 112.483333,39.8 C112.770002,39.266664 113.126665,38.7900021 113.553333,38.37 C113.980002,37.9499979 114.399998,37.6600008 114.813333,37.5 C115.026668,37.366666 115.219999,37.3 115.393333,37.3 C115.486667,37.3 115.58,37.3066666 115.673333,37.32 C115.766667,37.3333334 115.866666,37.3466666 115.973333,37.36 C116.266668,37.4000002 116.489999,37.4566663 116.643333,37.53 C116.796668,37.6033337 116.926666,37.7133326 117.033333,37.86 C117.366668,38.193335 117.533333,38.5799978 117.533333,39.02 C117.48,39.3400016 117.273335,39.7066646 116.913333,40.12 C116.553332,40.5333354 116.120003,40.8666654 115.613333,41.12 C115.373332,41.2000004 115.100002,41.24 114.793333,41.24 C114.379998,41.24 114.046668,41.1533342 113.793333,40.98 C113.673333,40.9399998 113.58,40.92 113.513333,40.92 C113.393333,40.92 113.303334,40.9999992 113.243333,41.16 C113.183333,41.3200008 113.126667,41.6133312 113.073333,42.04 C113.06,42.1333338 113.053333,42.2666658 113.053333,42.44 C113.053333,43.1200034 113.279998,43.493333 113.733333,43.56 C114.040002,43.626667 114.259999,43.66 114.393333,43.66 C114.553334,43.66 114.733332,43.6066672 114.933333,43.5 L115.313333,43.28 C115.393334,43.2399998 115.466666,43.186667 115.533333,43.12 L115.713333,42.94 C115.74,42.9133332 115.78,42.8700003 115.833333,42.81 C115.886667,42.7499997 115.936667,42.7100001 115.983333,42.69 C116.03,42.6699999 116.073333,42.66 116.113333,42.66 C116.166667,42.66 116.226666,42.6899997 116.293333,42.75 C116.36,42.8100003 116.413333,42.8533332 116.453333,42.88 C116.573334,42.88 116.6,42.9633325 116.533333,43.13 C116.466666,43.2966675 116.323335,43.4899989 116.103333,43.71 C115.883332,43.9300011 115.633335,44.1266658 115.353333,44.3 Z M115.333333,40.06 C115.560001,39.9666662 115.789999,39.8000012 116.023333,39.56 C116.256668,39.3199988 116.373333,39.1200008 116.373333,38.96 C116.373333,38.7999992 116.313334,38.6666672 116.193333,38.56 C116.073333,38.4533328 115.906668,38.4 115.693333,38.4 C115.533333,38.4 115.413334,38.4133332 115.333333,38.44 C115.146666,38.4933336 114.926668,38.6366655 114.673333,38.87 C114.419999,39.1033345 114.200001,39.3399988 114.013333,39.58 C113.826666,39.8200012 113.753333,39.9599998 113.793333,40 C113.86,40.1200006 114.119998,40.18 114.573333,40.18 C114.880002,40.18 115.133332,40.1400004 115.333333,40.06 Z M122.616667,44.96 C122.523333,45.0133336 122.400001,44.9933338 122.246667,44.9 C122.093333,44.8066662 121.943334,44.6666676 121.796667,44.48 C121.69,44.3066658 121.626667,44.1266676 121.606667,43.94 C121.586667,43.7533324 121.576667,43.3666696 121.576667,42.78 C121.576667,42.646666 121.55,42.58 121.496667,42.58 C121.456667,42.58 121.363334,42.6433327 121.216667,42.77 C121.069999,42.8966673 120.890001,43.0666656 120.676667,43.28 C120.329998,43.613335 120.010002,43.8733324 119.716667,44.06 C119.423332,44.2466676 119.183334,44.3333334 118.996667,44.32 C118.849999,44.32 118.693334,44.220001 118.526667,44.02 C118.359999,43.819999 118.230001,43.586668 118.136667,43.32 C118.096667,43.1599992 118.076667,42.9733344 118.076667,42.76 C118.076667,42.1999972 118.193332,41.520004 118.426667,40.72 C118.660001,39.919996 118.933332,39.2300029 119.246667,38.65 C119.560002,38.0699971 119.836666,37.78 120.076667,37.78 C120.276668,37.78 120.463333,37.9999978 120.636667,38.44 C120.676667,38.5200004 120.696667,38.5866664 120.696667,38.64 C120.696667,38.7333338 120.643334,38.8266662 120.536667,38.92 C120.336666,39.1733346 120.103335,39.6266634 119.836667,40.28 C119.569999,40.9333366 119.360001,41.5399972 119.206667,42.1 C119.053333,42.6600028 119.023333,42.94 119.116667,42.94 C119.303334,42.94 119.523332,42.8666674 119.776667,42.72 C120.030001,42.5733326 120.283332,42.3800012 120.536667,42.14 C120.790001,41.8866654 121.016666,41.6166681 121.216667,41.33 C121.416668,41.0433319 121.663332,40.6533358 121.956667,40.16 C122.51667,39.2666622 122.823333,38.7466674 122.876667,38.6 C123.076668,38.2266648 123.22,37.9833339 123.306667,37.87 C123.393334,37.7566661 123.503333,37.6800002 123.636667,37.64 L123.916667,37.64 C123.996667,37.6533334 124.09,37.7133328 124.196667,37.82 C124.290001,37.8600002 124.346667,37.9033331 124.366667,37.95 C124.386667,37.9966669 124.396667,38.0599996 124.396667,38.14 L124.076667,38.88 L123.896667,39.3 C123.883333,39.3533336 123.810001,39.5066654 123.676667,39.76 C123.369999,40.4400034 123.136668,40.9866646 122.976667,41.4 C122.816666,41.8133354 122.696667,42.2399978 122.616667,42.68 C122.603333,42.746667 122.596667,42.8599992 122.596667,43.02 C122.596667,43.420002 122.636666,43.6999992 122.716667,43.86 C122.836667,44.1000012 122.956666,44.2733328 123.076667,44.38 C123.143334,44.4333336 123.176667,44.4866664 123.176667,44.54 C123.176667,44.6333338 123.100001,44.7266662 122.946667,44.82 C122.793333,44.9133338 122.683334,44.96 122.616667,44.96 Z M122.416667,36.06 C121.68333,36.06 121.170002,35.5066722 120.876667,34.4 C120.85,34.2933328 120.836667,34.2200002 120.836667,34.18 C120.836667,34.0866662 120.863333,33.9866672 120.916667,33.88 C120.943334,33.8266664 120.996666,33.7866668 121.076667,33.76 C121.156667,33.7333332 121.223333,33.7266666 121.276667,33.74 C121.463334,33.7933336 121.6,33.8699995 121.686667,33.97 C121.773334,34.0700005 121.83,34.1999992 121.856667,34.36 C121.896667,34.4533338 121.916667,34.5466662 121.916667,34.64 C122.023334,34.973335 122.169999,35.14 122.356667,35.14 C122.396667,35.14 122.496666,35.1133336 122.656667,35.06 C123.21667,34.8333322 123.636665,34.5800014 123.916667,34.3 L124.756667,33.52 L124.776667,33.5 C124.83,33.4733332 124.876667,33.46 124.916667,33.46 C125.010001,33.46 125.076667,33.4799998 125.116667,33.52 C125.183334,33.6000004 125.223333,33.673333 125.236667,33.74 C125.25,33.806667 125.256667,33.873333 125.256667,33.94 L125.256667,34.1 L125.236667,34.14 C125.263334,34.2200004 125.196668,34.3766655 125.036667,34.61 C124.876666,34.8433345 124.696668,35.0333326 124.496667,35.18 C124.243332,35.380001 123.823336,35.6266652 123.236667,35.92 C123.143333,35.9733336 123.036667,36.0099999 122.916667,36.03 C122.796666,36.0500001 122.630001,36.06 122.416667,36.06 Z M133.223334,38.56 C133.290001,38.6533338 133.323334,38.7399996 133.323334,38.82 C133.323334,38.8600002 133.31,38.9333328 133.283334,39.04 C133.203333,39.2800012 133.130001,39.4466662 133.063334,39.54 C132.903333,39.6866674 132.766667,39.8499991 132.653334,40.03 C132.54,40.2100009 132.433334,40.3966657 132.333334,40.59 C132.233333,40.7833343 132.156667,40.9333328 132.103334,41.04 C132.103334,41.1200004 132.053334,41.2199994 131.953334,41.34 C131.853333,41.4600006 131.803334,41.5599996 131.803334,41.64 C131.803334,41.7600006 131.763334,41.953332 131.683334,42.22 C131.603333,42.3933342 131.563334,42.613332 131.563334,42.88 L131.583334,43.46 C131.716668,43.5133336 131.803333,43.54 131.843334,43.54 C131.950001,43.54 132.063333,43.4800006 132.183334,43.36 C132.450002,43.1466656 132.64,42.9533342 132.753334,42.78 C132.866667,42.6066658 132.97,42.3933346 133.063334,42.14 C133.103334,42.073333 133.14,41.9966671 133.173334,41.91 C133.206667,41.8233329 133.25,41.7333338 133.303334,41.64 C133.450001,41.3599986 133.58,40.9900023 133.693334,40.53 C133.806667,40.0699977 133.863334,39.6933348 133.863334,39.4 C133.863334,39.2799994 133.856667,39.2000002 133.843334,39.16 L133.843334,39.12 L133.863334,38.88 C133.863334,38.7866662 133.823334,38.706667 133.743334,38.64 C133.796667,38.5866664 133.823334,38.4733342 133.823334,38.3 C133.823334,38.166666 133.806667,38.0233341 133.773334,37.87 C133.74,37.7166659 133.703334,37.606667 133.663334,37.54 C133.623333,36.87333 133.603334,36.3333354 133.603334,35.92 C133.603334,35.3599972 133.643333,34.8733354 133.723334,34.46 C133.736667,34.4066664 133.823333,34.2633345 133.983334,34.03 C134.143334,33.7966655 134.283333,33.6200006 134.403334,33.5 C134.630001,33.3133324 134.936665,33.1600006 135.323334,33.04 C135.710002,32.9199994 136.049999,32.8733332 136.343334,32.9 C136.33,32.9133334 136.396666,32.92 136.543334,32.92 C136.876669,32.92 137.263331,32.9000002 137.703334,32.86 C137.850001,32.8333332 137.973333,32.8033335 138.073334,32.77 C138.173334,32.7366665 138.336666,32.653334 138.563334,32.52 C138.616667,32.4799998 138.66,32.4566667 138.693334,32.45 C138.726667,32.4433333 138.77,32.4466666 138.823334,32.46 L139.363334,32.92 C139.35,33.3066686 139.253334,33.5866658 139.073334,33.76 C138.893333,33.9333342 138.563336,34.0466664 138.083334,34.1 L137.783334,34.08 C137.73,34.08 137.650001,34.0933332 137.543334,34.12 C137.516667,34.1333334 137.483334,34.14 137.443334,34.14 C137.39,34.14 137.330001,34.1300001 137.263334,34.11 C137.196667,34.0899999 137.136667,34.08 137.083334,34.08 C136.976666,34.08 136.863334,34.0899999 136.743334,34.11 C136.623333,34.1300001 136.503334,34.14 136.383334,34.14 C136.263333,34.14 136.176667,34.1333334 136.123334,34.12 C135.589998,34.2800008 135.203335,34.4733322 134.963334,34.7 C134.723332,34.9266678 134.603334,35.2866642 134.603334,35.78 C134.63,36.046668 134.683333,36.4066644 134.763334,36.86 C134.883334,37.460003 134.943334,37.9666646 134.943334,38.38 C134.956667,38.4600004 134.976667,38.5366663 135.003334,38.61 C135.03,38.6833337 135.043334,38.7399998 135.043334,38.78 C135.043334,38.846667 135.023334,38.8999998 134.983334,38.94 C135.050001,39.273335 135.083334,39.5599988 135.083334,39.8 C135.083334,40.0933348 135.043334,40.3199992 134.963334,40.48 C134.95,40.5600004 134.933334,40.733332 134.913334,41 C134.893333,41.266668 134.823334,41.5199988 134.703334,41.76 C134.343332,42.493337 134.006668,43.0833311 133.693334,43.53 C133.379999,43.9766689 132.996669,44.3533318 132.543334,44.66 C132.463333,44.7133336 132.336668,44.7599998 132.163334,44.8 C131.989999,44.8400002 131.850001,44.8733332 131.743334,44.9 C131.663333,44.8599998 131.533334,44.7900005 131.353334,44.69 C131.173333,44.5899995 131.036667,44.5000004 130.943334,44.42 C130.516665,44.0333314 130.303334,43.5266698 130.303334,42.9 C130.303334,42.6466654 130.336667,42.3700015 130.403334,42.07 C130.470001,41.7699985 130.503334,41.6000002 130.503334,41.56 C130.49,41.4533328 130.516667,41.3366673 130.583334,41.21 C130.650001,41.0833327 130.696667,40.9933336 130.723334,40.94 C131.003335,40.3933306 131.243333,39.9600016 131.443334,39.64 C131.643335,39.3199984 131.929998,38.9533354 132.303334,38.54 C132.343334,38.5133332 132.41,38.4600004 132.503334,38.38 C132.596667,38.2999996 132.683333,38.2466668 132.763334,38.22 L133.223334,38.56 Z M139.646667,44.3 C139.313332,44.5933348 138.913336,44.74 138.446667,44.74 C138.113332,44.74 137.796668,44.6600008 137.496667,44.5 C137.196665,44.3399992 136.946668,44.1200014 136.746667,43.84 C136.573333,43.6266656 136.446667,43.386668 136.366667,43.12 C136.286666,42.853332 136.246667,42.5266686 136.246667,42.14 C136.246667,42.006666 136.26,41.740002 136.286667,41.34 C136.326667,40.8466642 136.489999,40.333336 136.776667,39.8 C137.063335,39.266664 137.419998,38.7900021 137.846667,38.37 C138.273336,37.9499979 138.693331,37.6600008 139.106667,37.5 C139.320001,37.366666 139.513333,37.3 139.686667,37.3 C139.780001,37.3 139.873333,37.3066666 139.966667,37.32 C140.060001,37.3333334 140.16,37.3466666 140.266667,37.36 C140.560002,37.4000002 140.783333,37.4566663 140.936667,37.53 C141.090001,37.6033337 141.22,37.7133326 141.326667,37.86 C141.660002,38.193335 141.826667,38.5799978 141.826667,39.02 C141.773333,39.3400016 141.566669,39.7066646 141.206667,40.12 C140.846665,40.5333354 140.413336,40.8666654 139.906667,41.12 C139.666666,41.2000004 139.393335,41.24 139.086667,41.24 C138.673331,41.24 138.340001,41.1533342 138.086667,40.98 C137.966666,40.9399998 137.873334,40.92 137.806667,40.92 C137.686666,40.92 137.596667,40.9999992 137.536667,41.16 C137.476667,41.3200008 137.42,41.6133312 137.366667,42.04 C137.353333,42.1333338 137.346667,42.2666658 137.346667,42.44 C137.346667,43.1200034 137.573331,43.493333 138.026667,43.56 C138.333335,43.626667 138.553333,43.66 138.686667,43.66 C138.846668,43.66 139.026666,43.6066672 139.226667,43.5 L139.606667,43.28 C139.686667,43.2399998 139.76,43.186667 139.826667,43.12 L140.006667,42.94 C140.033334,42.9133332 140.073333,42.8700003 140.126667,42.81 C140.18,42.7499997 140.23,42.7100001 140.276667,42.69 C140.323334,42.6699999 140.366667,42.66 140.406667,42.66 C140.46,42.66 140.52,42.6899997 140.586667,42.75 C140.653334,42.8100003 140.706667,42.8533332 140.746667,42.88 C140.866667,42.88 140.893334,42.9633325 140.826667,43.13 C140.76,43.2966675 140.616668,43.4899989 140.396667,43.71 C140.176666,43.9300011 139.926668,44.1266658 139.646667,44.3 Z M139.626667,40.06 C139.853335,39.9666662 140.083332,39.8000012 140.316667,39.56 C140.550001,39.3199988 140.666667,39.1200008 140.666667,38.96 C140.666667,38.7999992 140.606667,38.6666672 140.486667,38.56 C140.366666,38.4533328 140.200001,38.4 139.986667,38.4 C139.826666,38.4 139.706667,38.4133332 139.626667,38.44 C139.439999,38.4933336 139.220001,38.6366655 138.966667,38.87 C138.713332,39.1033345 138.493334,39.3399988 138.306667,39.58 C138.119999,39.8200012 138.046667,39.9599998 138.086667,40 C138.153334,40.1200006 138.413331,40.18 138.866667,40.18 C139.173335,40.18 139.426666,40.1400004 139.626667,40.06 Z M144.93,37.5 C145.55667,37.5266668 146.049998,37.7666644 146.41,38.22 C146.730002,38.6333354 146.89,39.039998 146.89,39.44 C146.89,39.8933356 146.663336,40.5066628 146.21,41.28 C145.929999,41.7066688 145.190006,42.319996 143.99,43.12 L143.57,43.42 C143.730001,43.620001 143.899999,43.9733308 144.08,44.48 C144.260001,44.9866692 144.35,45.406665 144.35,45.74 C144.35,45.8200004 144.336667,45.9133328 144.31,46.02 C144.416667,46.0466668 144.593332,46.0366669 144.84,45.99 C145.086668,45.9433331 145.243333,45.92 145.31,45.92 C145.363334,45.9733336 145.44,46.0466662 145.54,46.14 C145.640001,46.2333338 145.716667,46.3166663 145.77,46.39 C145.823334,46.4633337 145.85,46.533333 145.85,46.6 L145.85,46.66 C145.85,46.726667 145.826667,46.7866664 145.78,46.84 C145.733333,46.8933336 145.676667,46.9266666 145.61,46.94 C145.543333,46.9533334 145.430001,46.96 145.27,46.96 C145.096666,46.96 144.910001,46.9666666 144.71,46.98 C144.509999,46.9933334 144.330001,47.033333 144.17,47.1 C144.076666,47.233334 143.983334,47.3966657 143.89,47.59 C143.796666,47.7833343 143.73,47.9266662 143.69,48.02 C143.503333,48.4600022 143.303335,48.8533316 143.09,49.2 C142.876666,49.5466684 142.570002,49.886665 142.17,50.22 C141.996666,50.3666674 141.823334,50.4933328 141.65,50.6 C141.476666,50.7066672 141.343334,50.76 141.25,50.76 C140.809998,50.9066674 140.416669,50.98 140.07,50.98 C139.44333,50.98 138.903336,50.7533356 138.45,50.3 C138.33,50.0066652 138.25,49.8300003 138.21,49.77 C138.17,49.7099997 138.043335,49.5733344 137.83,49.36 C137.83,49.2666662 137.86,49.1333342 137.92,48.96 C137.980001,48.7866658 138.056666,48.6400006 138.15,48.52 C138.723336,47.8399966 139.529995,47.3200018 140.57,46.96 C140.596667,46.9466666 140.653333,46.9200002 140.74,46.88 C140.826667,46.8399998 140.91,46.82 140.99,46.82 C141.03,46.82 141.063333,46.7966669 141.09,46.75 C141.116667,46.7033331 141.143333,46.6700001 141.17,46.65 C141.196667,46.6299999 141.236667,46.6399998 141.29,46.68 C141.33,46.6666666 141.38,46.6366669 141.44,46.59 C141.500001,46.5433331 141.57,46.5333332 141.65,46.56 C141.663334,46.5733334 141.879998,46.5166673 142.3,46.39 C142.720002,46.2633327 143.009999,46.1733336 143.17,46.12 C143.196667,45.7733316 143.21,45.5066676 143.21,45.32 C143.21,44.7333304 143.096668,44.340001 142.87,44.14 C142.736666,44.006666 142.620001,43.8166679 142.52,43.57 C142.42,43.3233321 142.343334,43.1466672 142.29,43.04 C142.356667,42.7999988 142.496666,42.6333338 142.71,42.54 C143.136669,42.3266656 143.653331,41.9733358 144.26,41.48 C144.86667,40.9866642 145.376665,40.4533362 145.79,39.88 C145.950001,39.6533322 146.03,39.4533342 146.03,39.28 C146.03,38.9333316 145.783336,38.7333336 145.29,38.68 C144.796664,38.68 144.150004,39.01333 143.35,39.68 C143.243333,39.7066668 143.176667,39.72 143.15,39.72 C142.936666,39.72 142.776667,39.5400018 142.67,39.18 C142.696667,39.046666 142.743333,38.9300005 142.81,38.83 C142.876667,38.7299995 142.976666,38.6066674 143.11,38.46 L143.37,38.12 C143.450001,38.0799998 143.563333,38.0100005 143.71,37.91 C143.856668,37.8099995 143.98,37.7333336 144.08,37.68 C144.180001,37.6266664 144.296666,37.6 144.43,37.6 C144.483334,37.6 144.563333,37.5833335 144.67,37.55 C144.776667,37.5166665 144.863333,37.5 144.93,37.5 Z M142.51,47.6 C142.47,47.5599998 142.416667,47.54 142.35,47.54 C142.256666,47.54 142.143334,47.573333 142.01,47.64 C141.876666,47.706667 141.79,47.7466666 141.75,47.76 C141.696667,47.7866668 141.633334,47.8166665 141.56,47.85 C141.486667,47.8833335 141.396667,47.9199998 141.29,47.96 C140.903332,48.093334 140.506669,48.2699989 140.1,48.49 C139.693332,48.7100011 139.390001,48.9399988 139.19,49.18 C139.056666,49.3666676 138.896668,49.526666 138.71,49.66 C138.870001,49.860001 139.036666,49.96 139.21,49.96 C139.21,49.9866668 139.276666,50 139.41,50 C139.623335,50 139.876665,49.966667 140.17,49.9 C140.463335,49.833333 140.716666,49.7400006 140.93,49.62 C141.330002,49.3799988 141.736665,48.9533364 142.15,48.34 C142.323334,48.073332 142.443333,47.8266678 142.51,47.6 Z M148.453334,44.7 C148.293333,44.7 148.166667,44.6733336 148.073334,44.62 C147.98,44.5666664 147.846668,44.4666674 147.673334,44.32 C147.233331,43.853331 147.013334,43.4266686 147.013334,43.04 C147.013334,42.9466662 147.02,42.8800002 147.033334,42.84 C147.073334,42.7466662 147.09,42.6533338 147.083334,42.56 C147.076667,42.4666662 147.073334,42.4066668 147.073334,42.38 C147.02,42.3266664 146.993334,42.2900001 146.993334,42.27 C146.993334,42.2499999 147.006667,42.2300001 147.033334,42.21 C147.06,42.1899999 147.08,42.1666668 147.093334,42.14 C147.173334,42.14 147.2,42.0666674 147.173334,41.92 C147.146667,41.8133328 147.2,41.5766685 147.333334,41.21 C147.466668,40.8433315 147.633333,40.5066682 147.833334,40.2 C147.980001,39.9599988 148.196665,39.6600018 148.483334,39.3 C148.770002,38.9399982 149.026666,38.6666676 149.253334,38.48 C149.573335,38.1999986 149.859999,37.993334 150.113334,37.86 C150.366668,37.726666 150.646665,37.626667 150.953334,37.56 C151.220002,37.493333 151.4,37.46 151.493334,37.46 C151.586667,37.46 151.67,37.4833331 151.743334,37.53 C151.816667,37.5766669 151.913333,37.6599994 152.033334,37.78 C152.393335,37.9400008 152.643333,38.1433321 152.783334,38.39 C152.923334,38.6366679 152.993334,39.0199974 152.993334,39.54 C152.993334,40.406671 152.640004,41.3466616 151.933334,42.36 C151.626665,42.8000022 151.340002,43.1366655 151.073334,43.37 C150.806666,43.6033345 150.453336,43.853332 150.013334,44.12 C149.733332,44.320001 149.476668,44.4633329 149.243334,44.55 C149.009999,44.6366671 148.746668,44.6866666 148.453334,44.7 Z M150.373334,42.58 C150.693335,42.2199982 150.949999,41.8800016 151.143334,41.56 C151.336668,41.2399984 151.519999,40.8333358 151.693334,40.34 C151.760001,40.1133322 151.793334,39.8400016 151.793334,39.52 C151.793334,39.119998 151.740001,38.8933336 151.633334,38.84 C151.5,38.773333 151.366668,38.74 151.233334,38.74 C150.939999,38.74 150.633335,38.873332 150.313334,39.14 C149.926665,39.473335 149.580002,39.8833309 149.273334,40.37 C148.966665,40.8566691 148.653335,41.4599964 148.333334,42.18 C148.2,42.4600014 148.133334,42.733332 148.133334,43 C148.133334,43.200001 148.183333,43.3599994 148.283334,43.48 C148.383334,43.6000006 148.519999,43.66 148.693334,43.66 C149.133336,43.66 149.69333,43.3000036 150.373334,42.58 Z M158.056667,37.42 C158.190001,37.4066666 158.376666,37.4266664 158.616667,37.48 C158.856668,37.5333336 159.036666,37.56 159.156667,37.56 C159.623336,37.7466676 159.969999,37.9366657 160.196667,38.13 C160.423335,38.3233343 160.523334,38.5933316 160.496667,38.94 C160.47,39.073334 160.446667,39.2666654 160.426667,39.52 C160.406667,39.7733346 160.343334,39.9866658 160.236667,40.16 C160.223333,40.2533338 160.170001,40.4199988 160.076667,40.66 C159.983333,40.9000012 159.923334,41.0599996 159.896667,41.14 C159.616665,41.8200034 159.45,42.293332 159.396667,42.56 C159.383333,42.6133336 159.346667,42.6999994 159.286667,42.82 C159.226667,42.9400006 159.196667,43.0399996 159.196667,43.12 C159.21,43.253334 159.186667,43.419999 159.126667,43.62 C159.066667,43.820001 158.996667,43.9666662 158.916667,44.06 C158.81,44.1666672 158.690001,44.22 158.556667,44.22 C158.369999,44.22 158.206668,44.1500007 158.066667,44.01 C157.926666,43.8699993 157.863333,43.7133342 157.876667,43.54 C157.876667,43.2199984 157.916666,42.8200024 157.996667,42.34 C158.090001,42.2466662 158.143333,42.1433339 158.156667,42.03 C158.17,41.9166661 158.183333,41.8400002 158.196667,41.8 C158.396668,41.333331 158.586666,40.800003 158.766667,40.2 C158.946668,39.599997 159.036667,39.1400016 159.036667,38.82 C159.036667,38.7266662 159.03,38.6600002 159.016667,38.62 C158.696665,38.62 158.25667,38.6399998 157.696667,38.68 C157.136664,38.7200002 156.823334,38.74 156.756667,38.74 C156.703333,38.7533334 156.656667,38.7833331 156.616667,38.83 C156.576667,38.8766669 156.556667,38.9199998 156.556667,38.96 C156.53,39.1333342 156.476667,39.319999 156.396667,39.52 L156.236667,39.92 C156.076666,40.2800018 155.963334,40.6066652 155.896667,40.9 C155.883333,41.033334 155.770001,41.333331 155.556667,41.8 C155.209998,42.6400042 155.03,43.1866654 155.016667,43.44 C154.896666,43.6133342 154.83,43.8733316 154.816667,44.22 C154.803333,44.3266672 154.756667,44.3999998 154.676667,44.44 C154.596666,44.4800002 154.450001,44.5199998 154.236667,44.56 C154.143333,44.5466666 154.056667,44.506667 153.976667,44.44 C153.896666,44.373333 153.823334,44.3000004 153.756667,44.22 C153.69,44.1399996 153.616667,44.0600004 153.536667,43.98 C153.536667,43.7666656 153.623333,43.3733362 153.796667,42.8 C153.970001,42.2266638 154.123333,41.8200012 154.256667,41.58 C154.323334,41.2199982 154.449999,40.8200022 154.636667,40.38 C154.676667,40.2733328 154.763333,40.0266686 154.896667,39.64 C155.056668,39.0666638 155.203333,38.580002 155.336667,38.18 C155.39,38.0599994 155.426667,37.9466672 155.446667,37.84 C155.466667,37.7333328 155.493333,37.6600002 155.526667,37.62 C155.56,37.5799998 155.649999,37.5200004 155.796667,37.44 C155.970001,37.506667 156.116666,37.54 156.236667,37.54 C156.343334,37.54 156.45,37.506667 156.556667,37.44 C156.596667,37.4266666 156.653333,37.4233333 156.726667,37.43 C156.800001,37.4366667 156.883333,37.44 156.976667,37.44 L157.436667,37.44 C157.756668,37.44 157.963333,37.4333334 158.056667,37.42 Z M160.96,44.28 C160.92,44.1999996 160.856667,44.1166671 160.77,44.03 C160.683333,43.9433329 160.64,43.8866668 160.64,43.86 C160.64,43.7133326 160.606667,43.6000004 160.54,43.52 C160.513333,43.4933332 160.5,43.4333338 160.5,43.34 C160.5,43.1266656 160.603333,42.7633359 160.81,42.25 C161.016668,41.7366641 161.286665,41.180003 161.62,40.58 C161.700001,40.4999996 161.803333,40.360001 161.93,40.16 C162.056668,39.959999 162.14,39.8466668 162.18,39.82 C162.18,39.7666664 162.2,39.7166669 162.24,39.67 C162.28,39.6233331 162.326667,39.6 162.38,39.6 L162.38,39.48 C162.38,39.3599994 162.599998,39.0700023 163.04,38.61 C163.480002,38.1499977 163.839999,37.8333342 164.12,37.66 C164.453335,37.4333322 164.793332,37.32 165.14,37.32 C165.380001,37.32 165.586666,37.386666 165.76,37.52 C165.826667,37.6000004 166.133331,37.8866642 166.68,38.38 L167.42,39.04 L167.06,40.04 C166.94,40.4000018 166.88,40.7266652 166.88,41.02 C166.88,41.5266692 167.026665,42.013331 167.32,42.48 C167.386667,42.6266674 167.519999,42.766666 167.72,42.9 C167.920001,43.033334 168.119999,43.1133332 168.32,43.14 C168.613335,43.1933336 168.76,43.3399988 168.76,43.58 C168.76,43.846668 168.640001,44.0066664 168.4,44.06 C168.346667,44.0733334 168.266667,44.08 168.16,44.08 C167.37333,44.08 166.693336,43.5266722 166.12,42.42 C166.066667,42.3399996 165.996667,42.1933344 165.91,41.98 C165.823333,41.7666656 165.773334,41.6200004 165.76,41.54 C165.68,41.6466672 165.580001,41.7733326 165.46,41.92 C165.34,42.0666674 165.226667,42.1933328 165.12,42.3 C163.66666,43.7533406 162.520004,44.48 161.68,44.48 C161.413332,44.48 161.173335,44.413334 160.96,44.28 Z M161.68,43.16 C161.68,43.226667 161.75,43.2466668 161.89,43.22 C162.030001,43.1933332 162.203333,43.1266672 162.41,43.02 C162.616668,42.9133328 162.826666,42.7733342 163.04,42.6 C164.186673,41.6133284 165.013331,40.753337 165.52,40.02 L165.96,39.3 C165.826666,39.0199986 165.686668,38.8166673 165.54,38.69 C165.393333,38.5633327 165.260001,38.5 165.14,38.5 C164.859999,38.5 164.420003,38.8499965 163.82,39.55 C163.219997,40.2500035 162.673336,41.0733286 162.18,42.02 C162.06,42.2466678 161.953334,42.4766655 161.86,42.71 L161.68,43.16 Z M171.323334,44.78 C171.136666,44.8066668 170.996667,44.82 170.903334,44.82 C170.409998,44.82 170.003335,44.6666682 169.683334,44.36 C169.363332,44.0533318 169.203334,43.6266694 169.203334,43.08 C169.15,42.4933304 169.279999,41.766671 169.593334,40.9 C169.906668,40.033329 170.303331,39.3066696 170.783334,38.72 C171.116669,38.3333314 171.403332,38.0200012 171.643334,37.78 C171.883335,37.5399988 172.103333,37.3800004 172.303334,37.3 C172.583335,37.1799994 172.896665,37.12 173.243334,37.12 C173.483335,37.1733336 173.719999,37.2733326 173.953334,37.42 C174.186668,37.5666674 174.303334,37.7133326 174.303334,37.86 L174.403334,37.96 C174.483334,37.96 174.556667,38.0566657 174.623334,38.25 C174.690001,38.4433343 174.723334,38.6533322 174.723334,38.88 C174.723334,39.0666676 174.690001,39.226666 174.623334,39.36 C174.57,39.6133346 174.480001,39.8333324 174.353334,40.02 C174.226666,40.2066676 174.103334,40.3 173.983334,40.3 C173.836666,40.3 173.763334,40.3399996 173.763334,40.42 C173.763334,40.4733336 173.736667,40.5 173.683334,40.5 C173.616667,40.5 173.536667,40.4600004 173.443334,40.38 C173.35,40.2999996 173.283334,40.2066672 173.243334,40.1 C173.243334,40.0599998 173.27,39.9466676 173.323334,39.76 C173.376667,39.5733324 173.43,39.3666678 173.483334,39.14 C173.523334,38.9799992 173.543334,38.8400006 173.543334,38.72 C173.543334,38.453332 173.443335,38.32 173.243334,38.32 C173.136666,38.32 173.030001,38.3466664 172.923334,38.4 C172.389998,38.6933348 171.916669,39.1599968 171.503334,39.8 C171.089998,40.4400032 170.743335,41.3199944 170.463334,42.44 C170.396667,42.7333348 170.363334,42.9666658 170.363334,43.14 C170.363334,43.273334 170.373333,43.3799996 170.393334,43.46 C170.413334,43.5400004 170.436667,43.5866666 170.463334,43.6 C170.530001,43.6266668 170.669999,43.64 170.883334,43.64 C171.376669,43.64 171.723333,43.5800006 171.923334,43.46 C172.350002,43.2333322 172.823331,42.9266686 173.343334,42.54 C173.396667,42.4999998 173.476666,42.4300005 173.583334,42.33 C173.690001,42.2299995 173.79,42.1600002 173.883334,42.12 C173.976667,41.9733326 174.063333,41.8833335 174.143334,41.85 C174.223334,41.8166665 174.349999,41.8 174.523334,41.8 C174.696668,41.8533336 174.836666,41.9233329 174.943334,42.01 C175.050001,42.0966671 175.050001,42.1666664 174.943334,42.22 C174.903333,42.22 174.876667,42.2333332 174.863334,42.26 C174.85,42.2866668 174.843334,42.3066666 174.843334,42.32 C174.87,42.386667 174.763335,42.553332 174.523334,42.82 C174.283332,43.086668 174.016668,43.3366655 173.723334,43.57 C173.429999,43.8033345 173.230001,43.92 173.123334,43.92 C173.07,43.92 173.023334,43.9266666 172.983334,43.94 C172.943333,43.9533334 172.923334,43.9866664 172.923334,44.04 C172.923334,44.0933336 172.720002,44.2166657 172.313334,44.41 C171.906665,44.6033343 171.576668,44.7266664 171.323334,44.78 Z M181.666667,37.9 C181.813334,37.8199996 181.96,37.78 182.106667,37.78 C182.293335,37.78 182.456666,37.8366661 182.596667,37.95 C182.736668,38.0633339 182.806667,38.2066658 182.806667,38.38 C182.806667,38.4066668 182.793334,38.4733328 182.766667,38.58 C182.806667,38.4066658 182.666669,38.6933296 182.346667,39.44 C182.026665,40.1866704 181.853334,40.5866664 181.826667,40.64 L181.826667,40.7 C182.013335,40.7 182.136667,40.7566661 182.196667,40.87 C182.256667,40.9833339 182.28,41.1333324 182.266667,41.32 C182.146666,41.3466668 182.033334,41.393333 181.926667,41.46 C181.82,41.526667 181.733334,41.56 181.666667,41.56 C181.626667,41.56 181.580001,41.5799998 181.526667,41.62 C181.473333,41.6600002 181.44,41.7066664 181.426667,41.76 C181.4,41.8133336 181.353334,42.0199982 181.286667,42.38 L180.926667,43.82 C180.9,43.9133338 180.853334,43.993333 180.786667,44.06 C180.72,44.126667 180.660001,44.1666666 180.606667,44.18 C180.553333,44.1666666 180.450001,44.1300003 180.296667,44.07 C180.143333,44.0099997 180.040001,43.9633335 179.986667,43.93 C179.933333,43.8966665 179.880001,43.8600002 179.826667,43.82 L179.826667,43.7 C179.826667,43.5133324 179.86,43.320001 179.926667,43.12 C180.033334,42.7999984 180.14,42.3533362 180.246667,41.78 C180.14,41.7399998 179.873336,41.7566663 179.446667,41.83 C179.019998,41.9033337 178.786667,41.94 178.746667,41.94 C178.666667,41.9800002 178.506668,42 178.266667,42 C177.879998,42 177.606668,41.966667 177.446667,41.9 L177.326667,41.96 C177.3,42.0800006 177.260001,42.2133326 177.206667,42.36 C177.06,42.7733354 176.986667,43.079999 176.986667,43.28 C176.96,43.4666676 176.933334,43.6199994 176.906667,43.74 C176.88,43.873334 176.853334,44.073332 176.826667,44.34 C176.813334,44.7133352 176.686668,44.9 176.446667,44.9 C176.3,44.9 176.140001,44.8466672 175.966667,44.74 C175.873333,44.6866664 175.746668,44.5800008 175.586667,44.42 L175.906667,42.88 C175.946667,42.7599994 175.99,42.5933344 176.036667,42.38 C176.083334,42.1666656 176.133333,41.993334 176.186667,41.86 L176.406667,41.24 C176.566668,40.773331 176.713333,40.3933348 176.846667,40.1 L177.266667,38.92 C177.306667,38.8266662 177.396666,38.5700021 177.536667,38.15 C177.676668,37.7299979 177.76,37.486667 177.786667,37.42 C177.840001,37.2733326 177.946666,37.2 178.106667,37.2 C178.320001,37.1866666 178.503333,37.2366661 178.656667,37.35 C178.810001,37.4633339 178.893334,37.5999992 178.906667,37.76 C178.906667,37.8000002 178.9,37.8633329 178.886667,37.95 C178.873334,38.0366671 178.86,38.0999998 178.846667,38.14 L177.806667,40.68 L177.806667,40.84 C177.860001,40.8800002 177.953333,40.9 178.086667,40.9 C178.193334,40.9 178.356666,40.8800002 178.576667,40.84 C178.796668,40.7999998 178.933333,40.78 178.986667,40.78 C179.106668,40.7666666 179.286666,40.7533334 179.526667,40.74 C179.766668,40.7266666 180.006666,40.72 180.246667,40.72 C180.433335,40.72 180.533334,40.7266666 180.546667,40.74 L180.766667,40.1 C180.980001,39.4466634 181.206666,38.920002 181.446667,38.52 C181.46,38.4799998 181.486667,38.4033339 181.526667,38.29 C181.566667,38.1766661 181.613333,38.0466674 181.666667,37.9 Z M184.53,44.7 C184.369999,44.7 184.243334,44.6733336 184.15,44.62 C184.056666,44.5666664 183.923334,44.4666674 183.75,44.32 C183.309998,43.853331 183.09,43.4266686 183.09,43.04 C183.09,42.9466662 183.096667,42.8800002 183.11,42.84 C183.15,42.7466662 183.166667,42.6533338 183.16,42.56 C183.153334,42.4666662 183.15,42.4066668 183.15,42.38 C183.096667,42.3266664 183.07,42.2900001 183.07,42.27 C183.07,42.2499999 183.083333,42.2300001 183.11,42.21 C183.136667,42.1899999 183.156667,42.1666668 183.17,42.14 C183.250001,42.14 183.276667,42.0666674 183.25,41.92 C183.223333,41.8133328 183.276666,41.5766685 183.41,41.21 C183.543334,40.8433315 183.709999,40.5066682 183.91,40.2 C184.056668,39.9599988 184.273332,39.6600018 184.56,39.3 C184.846668,38.9399982 185.103332,38.6666676 185.33,38.48 C185.650002,38.1999986 185.936666,37.993334 186.19,37.86 C186.443335,37.726666 186.723332,37.626667 187.03,37.56 C187.296668,37.493333 187.476666,37.46 187.57,37.46 C187.663334,37.46 187.746667,37.4833331 187.82,37.53 C187.893334,37.5766669 187.99,37.6599994 188.11,37.78 C188.470002,37.9400008 188.72,38.1433321 188.86,38.39 C189.000001,38.6366679 189.07,39.0199974 189.07,39.54 C189.07,40.406671 188.71667,41.3466616 188.01,42.36 C187.703332,42.8000022 187.416668,43.1366655 187.15,43.37 C186.883332,43.6033345 186.530002,43.853332 186.09,44.12 C185.809999,44.320001 185.553335,44.4633329 185.32,44.55 C185.086666,44.6366671 184.823335,44.6866666 184.53,44.7 Z M186.45,42.58 C186.770002,42.2199982 187.026666,41.8800016 187.22,41.56 C187.413335,41.2399984 187.596666,40.8333358 187.77,40.34 C187.836667,40.1133322 187.87,39.8400016 187.87,39.52 C187.87,39.119998 187.816667,38.8933336 187.71,38.84 C187.576666,38.773333 187.443334,38.74 187.31,38.74 C187.016665,38.74 186.710002,38.873332 186.39,39.14 C186.003332,39.473335 185.656668,39.8833309 185.35,40.37 C185.043332,40.8566691 184.730002,41.4599964 184.41,42.18 C184.276666,42.4600014 184.21,42.733332 184.21,43 C184.21,43.200001 184.26,43.3599994 184.36,43.48 C184.460001,43.6000006 184.596666,43.66 184.77,43.66 C185.210002,43.66 185.769997,43.3000036 186.45,42.58 Z M191.973334,44.78 C191.786666,44.8066668 191.646667,44.82 191.553334,44.82 C191.059998,44.82 190.653335,44.6666682 190.333334,44.36 C190.013332,44.0533318 189.853334,43.6266694 189.853334,43.08 C189.8,42.4933304 189.929999,41.766671 190.243334,40.9 C190.556669,40.033329 190.953331,39.3066696 191.433334,38.72 C191.766669,38.3333314 192.053332,38.0200012 192.293334,37.78 C192.533335,37.5399988 192.753333,37.3800004 192.953334,37.3 C193.233335,37.1799994 193.546665,37.12 193.893334,37.12 C194.133335,37.1733336 194.369999,37.2733326 194.603334,37.42 C194.836668,37.5666674 194.953334,37.7133326 194.953334,37.86 L195.053334,37.96 C195.133334,37.96 195.206667,38.0566657 195.273334,38.25 C195.340001,38.4433343 195.373334,38.6533322 195.373334,38.88 C195.373334,39.0666676 195.340001,39.226666 195.273334,39.36 C195.22,39.6133346 195.130001,39.8333324 195.003334,40.02 C194.876666,40.2066676 194.753334,40.3 194.633334,40.3 C194.486666,40.3 194.413334,40.3399996 194.413334,40.42 C194.413334,40.4733336 194.386667,40.5 194.333334,40.5 C194.266667,40.5 194.186667,40.4600004 194.093334,40.38 C194,40.2999996 193.933334,40.2066672 193.893334,40.1 C193.893334,40.0599998 193.92,39.9466676 193.973334,39.76 C194.026667,39.5733324 194.08,39.3666678 194.133334,39.14 C194.173334,38.9799992 194.193334,38.8400006 194.193334,38.72 C194.193334,38.453332 194.093335,38.32 193.893334,38.32 C193.786666,38.32 193.680001,38.3466664 193.573334,38.4 C193.039998,38.6933348 192.566669,39.1599968 192.153334,39.8 C191.739998,40.4400032 191.393335,41.3199944 191.113334,42.44 C191.046667,42.7333348 191.013334,42.9666658 191.013334,43.14 C191.013334,43.273334 191.023334,43.3799996 191.043334,43.46 C191.063334,43.5400004 191.086667,43.5866666 191.113334,43.6 C191.180001,43.6266668 191.319999,43.64 191.533334,43.64 C192.026669,43.64 192.373333,43.5800006 192.573334,43.46 C193.000002,43.2333322 193.473331,42.9266686 193.993334,42.54 C194.046667,42.4999998 194.126666,42.4300005 194.233334,42.33 C194.340001,42.2299995 194.44,42.1600002 194.533334,42.12 C194.626667,41.9733326 194.713333,41.8833335 194.793334,41.85 C194.873334,41.8166665 194.999999,41.8 195.173334,41.8 C195.346668,41.8533336 195.486666,41.9233329 195.593334,42.01 C195.700001,42.0966671 195.700001,42.1666664 195.593334,42.22 C195.553333,42.22 195.526667,42.2333332 195.513334,42.26 C195.5,42.2866668 195.493334,42.3066666 195.493334,42.32 C195.52,42.386667 195.413335,42.553332 195.173334,42.82 C194.933332,43.086668 194.666668,43.3366655 194.373334,43.57 C194.079999,43.8033345 193.880001,43.92 193.773334,43.92 C193.72,43.92 193.673334,43.9266666 193.633334,43.94 C193.593333,43.9533334 193.573334,43.9866664 193.573334,44.04 C193.573334,44.0933336 193.370002,44.2166657 192.963334,44.41 C192.556665,44.6033343 192.226668,44.7266664 191.973334,44.78 Z M205.656667,43.26 C205.710001,43.3000002 205.736667,43.3599996 205.736667,43.44 C205.736667,43.5333338 205.706667,43.6233329 205.646667,43.71 C205.586667,43.7966671 205.530001,43.84 205.476667,43.84 C205.223332,43.84 204.980001,43.7700007 204.746667,43.63 C204.513332,43.4899993 204.396667,43.2666682 204.396667,42.96 L204.396667,41.72 C204.396667,41.0933302 204.350001,40.7400004 204.256667,40.66 C204.056666,40.5533328 203.713336,40.7733306 203.226667,41.32 C202.739998,41.8666694 202.270003,42.5133296 201.816667,43.26 C201.67,43.5000012 201.550001,43.686666 201.456667,43.82 C201.363333,43.953334 201.290001,44.02 201.236667,44.02 C201.196667,44.02 201.130001,43.986667 201.036667,43.92 C200.623332,43.7999994 200.416667,43.5666684 200.416667,43.22 C200.416667,43.1799998 200.43,43.093334 200.456667,42.96 C200.590001,42.5199978 200.723333,42.0300027 200.856667,41.49 C200.990001,40.9499973 201.096667,40.4933352 201.176667,40.12 C201.136667,40.0399996 201.070001,40 200.976667,40 C200.843333,40 200.690001,40.066666 200.516667,40.2 C200.183332,40.4266678 199.75667,40.9666624 199.236667,41.82 C198.58333,42.820005 198.130002,43.4266656 197.876667,43.64 C197.783333,43.8000008 197.700001,43.9233329 197.626667,44.01 C197.553333,44.0966671 197.483334,44.14 197.416667,44.14 C197.363333,44.14 197.263334,44.1000004 197.116667,44.02 C196.729998,43.7933322 196.536667,43.4733354 196.536667,43.06 C196.536667,42.859999 196.596666,42.460003 196.716667,41.86 C196.836668,41.259997 196.97,40.7000026 197.116667,40.18 C197.236668,39.9533322 197.346666,39.7166679 197.446667,39.47 C197.546667,39.2233321 197.596667,39.0733336 197.596667,39.02 C197.650001,38.7399986 197.716667,38.4400016 197.796667,38.12 C197.876667,37.7999984 197.936667,37.6200002 197.976667,37.58 C198.070001,37.4866662 198.176666,37.44 198.296667,37.44 C198.496668,37.44 198.643333,37.5466656 198.736667,37.76 C198.883334,37.9066674 198.956667,38.0933322 198.956667,38.32 C198.956667,38.5733346 198.883334,38.899998 198.736667,39.3 C198.509999,39.7933358 198.263335,40.5133286 197.996667,41.46 C198.276668,41.1533318 198.476666,40.9133342 198.596667,40.74 C198.916669,40.2866644 199.329998,39.7800028 199.836667,39.22 C200.250002,38.7666644 200.716664,38.54 201.236667,38.54 C201.850003,38.6466672 202.203333,39.1599954 202.296667,40.08 C202.296667,40.2400008 202.283334,40.4366655 202.256667,40.67 C202.23,40.9033345 202.21,41.053333 202.196667,41.12 C202.250001,41.0399996 202.386666,40.866668 202.606667,40.6 C202.826668,40.333332 203.096665,40.0600014 203.416667,39.78 C203.710002,39.5533322 203.983332,39.44 204.236667,39.44 C204.450001,39.44 204.636666,39.5266658 204.796667,39.7 C205.076668,39.8600008 205.276666,40.0833319 205.396667,40.37 C205.516668,40.6566681 205.576667,41.0199978 205.576667,41.46 C205.576667,41.6866678 205.57,41.866666 205.556667,42 C205.53,42.266668 205.516667,42.433333 205.516667,42.5 C205.516667,42.7533346 205.563333,43.0066654 205.656667,43.26 Z M211.02,44.96 C210.699999,44.6533318 210.460001,44.200003 210.3,43.6 C210.273333,43.5199996 210.26,43.380001 210.26,43.18 L210.26,42.76 C210.18,42.960001 210.033335,43.1399992 209.82,43.3 C209.513332,43.6066682 209.206668,43.8333326 208.9,43.98 C208.433331,44.2866682 208.053335,44.44 207.76,44.44 C207.493332,44.44 207.240001,44.2933348 207,44 C206.826666,43.8533326 206.696667,43.7066674 206.61,43.56 C206.523333,43.4133326 206.48,43.2333344 206.48,43.02 C206.48,42.8733326 206.5,42.7133342 206.54,42.54 C206.566667,42.0466642 206.636666,41.5733356 206.75,41.12 C206.863334,40.6666644 207.079999,40.0866702 207.4,39.38 C207.826669,38.5399958 208.133333,37.9800014 208.32,37.7 C208.386667,37.6733332 208.473333,37.66 208.58,37.66 C208.713334,37.66 208.823333,37.6999996 208.91,37.78 C208.996667,37.8600004 209.046667,37.966666 209.06,38.1 C209.1,38.1533336 209.12,38.2266662 209.12,38.32 C209.12,38.653335 208.920002,39.1999962 208.52,39.96 C207.999998,41.2133396 207.74,42.0799976 207.74,42.56 C207.74,42.8400014 207.819999,43.0066664 207.98,43.06 C208.046667,43.1000002 208.12,43.12 208.2,43.12 C208.533335,43.12 208.933331,42.8933356 209.4,42.44 C209.866669,41.9866644 210.313331,41.260005 210.74,40.26 C210.926668,39.8066644 211.04,39.3400024 211.08,38.86 C211.066667,38.8199998 211.06,38.7600004 211.06,38.68 C211.06,38.4399988 211.179999,38.2466674 211.42,38.1 C211.473334,38.0199996 211.546666,37.9566669 211.64,37.91 C211.733334,37.8633331 211.793333,37.8666664 211.82,37.92 L212.14,37.9 C212.18,37.8866666 212.22,37.9233329 212.26,38.01 C212.3,38.0966671 212.34,38.1533332 212.38,38.18 C212.473334,38.2600004 212.52,38.4066656 212.52,38.62 C212.52,39.0600022 212.326669,39.7333288 211.94,40.64 C211.686666,41.173336 211.516667,41.5833319 211.43,41.87 C211.343333,42.1566681 211.293334,42.433332 211.28,42.7 C211.28,43.2066692 211.473332,43.626665 211.86,43.96 C211.993334,44.0533338 212.073333,44.1533328 212.1,44.26 C212.126667,44.3666672 212.133334,44.5133324 212.12,44.7 C212.093333,44.8200006 212.016668,44.9166663 211.89,44.99 C211.763333,45.0633337 211.626668,45.1 211.48,45.1 C211.306666,45.1 211.153334,45.0533338 211.02,44.96 Z" id="----"></path>
                    <path d="M43.1122823,0.932825237 C48.9428464,1.00911333 55.0802823,1.77199421 60.7574105,3.29775598 C61.9848977,3.67932108 61.52459,5.51011056 60.2203849,5.20508285 C55.1570003,3.98447344 50.0168977,3.22159255 44.7999518,2.99272828 C39.5832567,2.76373936 32.601798,2.68757593 28.5358721,6.42569227 C26.4644874,8.33289449 26.5412054,11.7658585 26.3876441,14.3595288 C26.1574903,18.1740579 26.2342082,22.0646258 26.4643621,25.8790302 C26.617798,29.6934347 24.5464134,28.3202491 24.3162595,23.7429637 C24.0861057,18.1740579 22.9352111,9.47721582 27.1548236,5.05250668 C30.8374105,1.00911333 38.0488977,0.932825237 43.1122823,0.932825237 Z M67.2784362,2.61116319 C68.0456156,3.14517981 67.8921797,4.06063687 67.0482823,4.44207731 C64.4398721,5.5099859 62.0616156,7.18832385 59.4532054,8.25648175 C58.6860259,8.5616341 58.3024362,7.41731277 58.9161797,7.03587233 C60.9108464,5.81526291 62.9055131,4.67094158 64.9001797,3.45033216 C64.2864362,3.14517981 63.6726926,2.84002745 63.058949,2.53475044 C62.0616156,2.15331 61.0642823,2.07702191 60.1436669,1.61929338 C59.4532054,1.31426568 59.7600772,0.398683963 60.2971028,0.169819697 C62.4452054,-0.592936536 65.5139233,1.39055377 67.2784362,2.61116319 Z" id="Combined-Shape" fill-rule="nonzero"></path>
                </g>
            </g>
        </g>
    </g>
</svg>