<?xml version="1.0" encoding="UTF-8"?>
<svg width="20px" height="20px" viewBox="0 0 20 20" version="1.1" xmlns="http://www.w3.org/2000/svg" xmlns:xlink="http://www.w3.org/1999/xlink">
    <!-- Generator: sketchtool 41 (35326) - http://www.bohemiancoding.com/sketch -->
    <title>27D68ED5-CA26-4435-8180-2B03B3CC3488</title>
    <desc>Created with sketchtool.</desc>
    <defs></defs>
    <g id="nav-popups" stroke="none" stroke-width="1" fill="none" fill-rule="evenodd">
        <g id="user-cabinet-notifications" transform="translate(-1135.000000, -91.000000)" fill="#4F5467">
            <g id="message" transform="translate(805.000000, 63.000000)">
                <g id="ic_close" transform="translate(330.000000, 28.000000)">
                    <path d="M10.7855684,10.0000111 L15.837133,4.94844655 C16.0542446,4.73133496 16.0542446,4.3795564 15.837133,4.16266703 C15.6202436,3.94577766 15.2686873,3.94577766 15.0515757,4.16266703 L10.0000111,9.21423159 L4.94822433,4.16266703 C4.73133496,3.94577766 4.37977862,3.94577766 4.16266703,4.16266703 C3.94577766,4.3795564 3.94577766,4.73133496 4.16266703,4.94844655 L9.21445381,10.0000111 L4.16266703,15.0515757 C3.94577766,15.268465 3.94577766,15.6202436 4.16266703,15.8373552 C4.37977862,16.0542446 4.73133496,16.0542446 4.94822433,15.8373552 L10.0000111,10.7857906 L15.0515757,15.8373552 C15.1602426,15.9457999 15.3022429,16.0000222 15.4444654,16.0000222 C15.5864657,16.0000222 15.7286883,15.9457999 15.837133,15.8373552 C16.0542446,15.6202436 16.0542446,15.268465 15.837133,15.0515757 L10.7855684,10.0000111 Z"></path>
                </g>
            </g>
        </g>
    </g>
</svg>