<?xml version="1.0" encoding="UTF-8"?>
<svg width="60px" height="60px" viewBox="0 0 60 60" version="1.1" xmlns="http://www.w3.org/2000/svg" xmlns:xlink="http://www.w3.org/1999/xlink">
    <!-- Generator: sketchtool 41.2 (35397) - http://www.bohemiancoding.com/sketch -->
    <title>6C170295-3A71-4993-B14B-E2FE4D8AE354</title>
    <desc>Created with sketchtool.</desc>
    <defs></defs>
    <g id="login/register" stroke="none" stroke-width="1" fill="none" fill-rule="evenodd" opacity="0.5">
        <g id="uplata_landing_first_look" transform="translate(-155.000000, -1035.000000)" fill="#F97332">
            <g id="tools" transform="translate(0.000000, 900.000000)">
                <g transform="translate(135.000000, 90.000000)" id="tool_1-copy">
                    <g>
                        <g id="card" transform="translate(20.000000, 45.000000)">
                            <path d="M57.1006387,16.9575142 L2.8558191,16.9575142 L2.8558191,15.1184235 C2.8558191,13.8629998 3.88246288,12.8417247 5.14378441,12.8417247 L54.8126734,12.8417247 C56.0739949,12.8417247 57.1006387,13.8629998 57.1006387,15.1184235 L57.1006387,16.9575142 Z M2.85639009,24.292849 L57.1006387,24.292849 L57.1006387,19.7991253 L2.85639009,19.7991253 L2.85639009,24.292849 Z M57.1006387,44.7456289 C57.1006387,46.0010526 56.0739949,47.0223277 54.8126734,47.0223277 L5.14378441,47.0223277 C3.88246288,47.0223277 2.8558191,46.0010526 2.8558191,44.7456289 L2.8558191,27.1344601 L57.1006387,27.1344601 L57.1006387,44.7456289 Z M54.8126734,10.0001137 L5.14378441,10.0001137 C2.30766669,10.0001137 0.000858646896,12.2961354 0.000858646896,15.1184235 L0.000858646896,44.7456289 C0.000858646896,47.567917 2.30766669,49.8639387 5.14378441,49.8639387 L54.8126734,49.8639387 C57.6487911,49.8639387 59.9555992,47.567917 59.9555992,44.7456289 L59.9555992,15.1184235 C59.9555992,12.2961354 57.6487911,10.0001137 54.8126734,10.0001137 L54.8126734,10.0001137 Z" id="Fill-1"></path>
                            <path d="M8.14920128,34.4700222 L24.5178315,34.4700222 C25.3058006,34.4700222 25.9453118,33.8340697 25.9453118,33.0492167 C25.9453118,32.2643637 25.3058006,31.6284112 24.5178315,31.6284112 L8.14920128,31.6284112 C7.3606612,31.6284112 6.72172105,32.2643637 6.72172105,33.0492167 C6.72172105,33.8340697 7.3606612,34.4700222 8.14920128,34.4700222" id="Fill-4"></path>
                            <path d="M8.14920128,41.8049592 L24.5178315,41.8049592 C25.3058006,41.8049592 25.9453118,41.1690067 25.9453118,40.3841537 C25.9453118,39.5993007 25.3058006,38.9633482 24.5178315,38.9633482 L8.14920128,38.9633482 C7.3606612,38.9633482 6.72172105,39.5993007 6.72172105,40.3841537 C6.72172105,41.1690067 7.3606612,41.8049592 8.14920128,41.8049592" id="Fill-6"></path>
                        </g>
                    </g>
                </g>
            </g>
        </g>
    </g>
</svg>