<?xml version="1.0" encoding="UTF-8"?>
<svg width="50px" height="50px" viewBox="0 0 50 50" version="1.1" xmlns="http://www.w3.org/2000/svg" xmlns:xlink="http://www.w3.org/1999/xlink">
    <!-- Generator: sketchtool 49.2 (51160) - http://www.bohemiancoding.com/sketch -->
    <title>EBB11F58-9606-4C43-8621-405A335C16C7</title>
    <desc>Created with sketchtool.</desc>
    <defs></defs>
    <g id="IndexPage(MainLanding)" stroke="none" stroke-width="1" fill="none" fill-rule="evenodd">
        <g id="IndexPage" transform="translate(-1055.000000, -573.000000)" fill="#FEC0A3">
            <path d="M1076.47272,613.881532 C1066.3241,613.881532 1058.06753,605.417168 1058.06753,595.013132 C1058.06753,584.609097 1066.3241,576.144733 1076.47272,576.144733 C1086.62134,576.144733 1094.87791,584.609097 1094.87791,595.013132 C1094.87791,605.417168 1086.62134,613.881532 1076.47272,613.881532 M1104.55045,620.316285 L1093.24844,608.72983 C1096.18407,604.964326 1097.94544,600.196911 1097.94544,595.013132 C1097.94544,582.875091 1088.31278,573 1076.47272,573 C1064.63266,573 1055,582.875091 1055,595.013132 C1055,607.151174 1064.63266,617.026265 1076.47272,617.026265 C1082.15379,617.026265 1087.32258,614.748849 1091.16681,611.042466 L1102.38171,622.539611 C1102.6811,622.846537 1103.07374,623 1103.46577,623 C1103.85842,623 1104.25106,622.846537 1104.55045,622.539611 C1105.14985,621.925759 1105.14985,620.930137 1104.55045,620.316285" id="icons/search"></path>
        </g>
    </g>
</svg>