<?xml version="1.0" encoding="UTF-8"?>
<svg width="20px" height="20px" viewBox="0 0 20 20" version="1.1" xmlns="http://www.w3.org/2000/svg" xmlns:xlink="http://www.w3.org/1999/xlink">
    <!-- Generator: sketchtool 50 (54983) - http://www.bohemiancoding.com/sketch -->
    <title>145CDB52-C1A4-4778-A05C-87754B3FACB2</title>
    <desc>Created with sketchtool.</desc>
    <defs></defs>
    <g id="Symbols" stroke="none" stroke-width="1" fill="none" fill-rule="evenodd">
        <g id="Bars/Footer" transform="translate(-1285.000000, -25.000000)" fill="#FCFDFF" fill-rule="nonzero">
            <g id="icons/Instagram">
                <path d="M1295,25 C1300.52286,25 1305,29.4771355 1305,35 C1305,40.5228645 1300.52286,45 1295,45 C1289.47714,45 1285,40.5228645 1285,35 C1285,29.4771355 1289.47714,25 1295,25 Z M1300.47724,42.3690026 C1301.51765,42.3690026 1302.369,41.5986701 1302.369,40.4776471 L1302.369,29.5227621 C1302.369,28.4013299 1301.51785,27.631202 1300.47724,27.631202 L1289.52297,27.631202 C1288.48215,27.631202 1287.6312,28.4013299 1287.6312,29.5227621 L1287.6312,40.4776471 C1287.6312,41.5986701 1288.48215,42.3690026 1289.52297,42.3690026 L1300.47724,42.3690026 Z M1295.01412,37.8360102 C1293.37958,37.8360102 1292.05453,36.551995 1292.05453,34.9680818 C1292.05453,33.3841687 1293.37958,32.1001535 1295.01412,32.1001535 C1296.64865,32.1001535 1297.97371,33.3841687 1297.97371,34.9680818 C1297.97371,36.551995 1296.64865,37.8360102 1295.01412,37.8360102 Z M1299.59499,35.1280818 C1299.59499,34.688798 1299.52849,34.2644501 1299.40593,33.8636317 L1300.70332,33.8636317 L1300.70332,40.0891049 C1300.70332,40.4115601 1300.43959,40.6748849 1300.11714,40.6748849 L1289.85442,40.6748849 C1289.53217,40.6748849 1289.26864,40.4115601 1289.26864,40.0891049 L1289.26864,33.8636317 L1290.6223,33.8636317 C1290.49954,34.2644501 1290.43325,34.688798 1290.43325,35.1280818 C1290.43325,37.5794373 1292.48419,39.5663427 1295.01412,39.5663427 C1297.54404,39.5663427 1299.59499,37.5794373 1299.59499,35.1280818 Z M1298.36716,32.1836317 C1298.00194,32.1836317 1297.70343,31.8851151 1297.70363,31.5203069 L1297.70363,29.9321739 C1297.70363,29.5669565 1298.00194,29.2686445 1298.36716,29.2686445 L1300.03284,29.2686445 C1300.39785,29.2686445 1300.69616,29.5669565 1300.69616,29.9321739 L1300.69616,31.5203069 C1300.69616,31.8853197 1300.39785,32.1836317 1300.03284,32.1836317 L1298.36716,32.1836317 Z"></path>
            </g>
        </g>
    </g>
</svg>