<?xml version="1.0" encoding="UTF-8"?>
<svg width="316px" height="113px" viewBox="0 0 316 113" version="1.1" xmlns="http://www.w3.org/2000/svg" xmlns:xlink="http://www.w3.org/1999/xlink">
    <!-- Generator: Sketch 49.2 (51160) - http://www.bohemiancoding.com/sketch -->
    <title>img/YouNeedIt</title>
    <desc>Created with Sketch.</desc>
    <defs></defs>
    <g id="IndexPage(MainLanding)" stroke="none" stroke-width="1" fill="none" fill-rule="evenodd">
        <g id="IndexPage" transform="translate(-509.000000, -85.000000)" fill="#FCFDFF">
            <g id="img/YouNeedIt" transform="translate(509.000000, 85.000000)">
                <path d="M22.832,26.824 C22.9600006,26.9200005 23.024,27.063999 23.024,27.256 C23.024,27.4800011 22.9520007,27.695999 22.808,27.904 C22.6639993,28.112001 22.5280006,28.216 22.4,28.216 C21.791997,28.216 21.2080028,28.0480017 20.648,27.712 C20.0879972,27.3759983 19.808,26.8400037 19.808,26.104 L19.808,23.128 C19.808,21.6239925 19.6960011,20.776001 19.472,20.584 C18.9919976,20.3279987 18.1680058,20.8559934 17,22.168 C15.8319942,23.4800066 14.7040054,25.031991 13.616,26.824 C13.2639982,27.4000029 12.9760011,27.8479984 12.752,28.168 C12.5279989,28.4880016 12.3520006,28.648 12.224,28.648 C12.1279995,28.648 11.9680011,28.5680008 11.744,28.408 C10.751995,28.1199986 10.256,27.5600042 10.256,26.728 C10.256,26.6319995 10.2879997,26.4240016 10.352,26.104 C10.6720016,25.0479947 10.9919984,23.8720065 11.312,22.576 C11.6320016,21.2799935 11.887999,20.1840045 12.08,19.288 C11.9839995,19.095999 11.8240011,19 11.6,19 C11.2799984,19 10.9120021,19.1599984 10.496,19.48 C9.695996,20.0240027 8.67200624,21.3199898 7.424,23.368 C5.85599216,25.768012 4.76800304,27.2239974 4.16,27.736 C3.93599888,28.1200019 3.73600088,28.415999 3.56,28.624 C3.38399912,28.832001 3.2160008,28.936 3.056,28.936 C2.92799936,28.936 2.68800176,28.840001 2.336,28.648 C1.40799536,28.1039973 0.944,27.336005 0.944,26.344 C0.944,25.8639976 1.08799856,24.9040072 1.376,23.464 C1.66400144,22.0239928 1.98399824,20.6800062 2.336,19.432 C2.62400144,18.8879973 2.8879988,18.320003 3.128,17.728 C3.3680012,17.135997 3.488,16.7760006 3.488,16.648 C3.61600064,15.9759966 3.77599904,15.2560038 3.968,14.488 C4.16000096,13.7199962 4.30399952,13.2880005 4.4,13.192 C4.62400112,12.9679989 4.87999856,12.856 5.168,12.856 C5.6480024,12.856 5.99999888,13.1119974 6.224,13.624 C6.57600176,13.9760018 6.752,14.4239973 6.752,14.968 C6.752,15.576003 6.57600176,16.3599952 6.224,17.32 C5.67999728,18.5040059 5.0880032,20.2319886 4.448,22.504 C5.12000336,21.7679963 5.59999856,21.1920021 5.888,20.776 C6.65600384,19.6879946 7.64799392,18.4720067 8.864,17.128 C9.85600496,16.0399946 10.9759938,15.496 12.224,15.496 C13.6960074,15.7520013 14.5439989,16.983989 14.768,19.192 C14.768,19.5760019 14.7360003,20.0479972 14.672,20.608 C14.6079997,21.1680028 14.5600002,21.5279992 14.528,21.688 C14.6560006,21.495999 14.9839974,21.0800032 15.512,20.44 C16.0400026,19.7999968 16.6879962,19.1440034 17.456,18.472 C18.1600035,17.9279973 18.815997,17.656 19.424,17.656 C19.9360026,17.656 20.3839981,17.8639979 20.768,18.28 C21.4400034,18.6640019 21.9199986,19.1999966 22.208,19.888 C22.4960014,20.5760034 22.64,21.4479947 22.64,22.504 C22.64,23.0480027 22.6240002,23.4799984 22.592,23.8 C22.5279997,24.4400032 22.496,24.8399992 22.496,25 C22.496,25.608003 22.6079989,26.215997 22.832,26.824 Z M32.68,29.32 C31.879996,30.0240035 30.9200056,30.376 29.8,30.376 C28.999996,30.376 28.2400036,30.1840019 27.52,29.8 C26.7999964,29.4159981 26.2000024,28.8880034 25.72,28.216 C25.3039979,27.7039974 25.000001,27.1280032 24.808,26.488 C24.615999,25.8479968 24.52,25.0640046 24.52,24.136 C24.52,23.8159984 24.5519997,23.1760048 24.616,22.216 C24.7120005,21.0319941 25.1039966,19.8000064 25.792,18.52 C26.4800034,17.2399936 27.3359949,16.096005 28.36,15.088 C29.3840051,14.079995 30.391995,13.3840019 31.384,13 C31.8960026,12.6799984 32.3599979,12.52 32.776,12.52 C33.0000011,12.52 33.2239989,12.5359998 33.448,12.568 C33.6720011,12.6000002 33.9119987,12.6319998 34.168,12.664 C34.8720035,12.7600005 35.4079982,12.8959991 35.776,13.072 C36.1440018,13.2480009 36.4559987,13.5119982 36.712,13.864 C37.512004,14.664004 37.912,15.5919947 37.912,16.648 C37.7839994,17.4160038 37.2880043,18.295995 36.424,19.288 C35.5599957,20.280005 34.5200061,21.079997 33.304,21.688 C32.7279971,21.880001 32.0720037,21.976 31.336,21.976 C30.343995,21.976 29.544003,21.7680021 28.936,21.352 C28.6479986,21.2559995 28.4240008,21.208 28.264,21.208 C27.9759986,21.208 27.7600007,21.3999981 27.616,21.784 C27.4719993,22.1680019 27.3360006,22.8719949 27.208,23.896 C27.1759998,24.1200011 27.16,24.4399979 27.16,24.856 C27.16,26.4880082 27.7039946,27.3839992 28.792,27.544 C29.5280037,27.7040008 30.0559984,27.784 30.376,27.784 C30.7600019,27.784 31.1919976,27.6560013 31.672,27.4 L32.584,26.872 C32.776001,26.7759995 32.9519992,26.6480008 33.112,26.488 L33.544,26.056 C33.6080003,25.9919997 33.7039994,25.8880007 33.832,25.744 C33.9600006,25.5999993 34.0799994,25.5040002 34.192,25.456 C34.3040006,25.4079998 34.4079995,25.384 34.504,25.384 C34.6320006,25.384 34.7759992,25.4559993 34.936,25.6 C35.0960008,25.7440007 35.2239995,25.8479997 35.32,25.912 C35.6080014,25.912 35.6720008,26.111998 35.512,26.512 C35.3519992,26.912002 35.0080026,27.3759974 34.48,27.904 C33.9519974,28.4320026 33.3520034,28.9039979 32.68,29.32 Z M32.632,19.144 C33.1760027,18.9199989 33.7279972,18.5200029 34.288,17.944 C34.8480028,17.3679971 35.128,16.8880019 35.128,16.504 C35.128,16.1199981 34.9840014,15.8000013 34.696,15.544 C34.4079986,15.2879987 34.0080026,15.16 33.496,15.16 C33.1119981,15.16 32.824001,15.1919997 32.632,15.256 C32.1839978,15.3840006 31.656003,15.7279972 31.048,16.288 C30.439997,16.8480028 29.9120022,17.4159971 29.464,17.992 C29.0159978,18.5680029 28.8399995,18.9039995 28.936,19 C29.0960008,19.2880014 29.7199946,19.432 30.808,19.432 C31.5440037,19.432 32.1519976,19.336001 32.632,19.144 Z M45.648,15.544 C45.8080008,15.7680011 45.888,15.975999 45.888,16.168 C45.888,16.2640005 45.8560003,16.4399987 45.792,16.696 C45.599999,17.2720029 45.4240008,17.6719989 45.264,17.896 C44.8799981,18.2480018 44.5520014,18.6399978 44.28,19.072 C44.0079986,19.5040022 43.7520012,19.9519977 43.512,20.416 C43.2719988,20.8800023 43.0880006,21.2399987 42.96,21.496 C42.96,21.688001 42.8400012,21.9279986 42.6,22.216 C42.3599988,22.5040014 42.24,22.743999 42.24,22.936 C42.24,23.2240014 42.144001,23.6879968 41.952,24.328 C41.759999,24.7440021 41.664,25.2719968 41.664,25.912 L41.712,27.304 C42.0320016,27.4320006 42.2399995,27.496 42.336,27.496 C42.5920013,27.496 42.8639986,27.3520014 43.152,27.064 C43.7920032,26.5519974 44.2479986,26.0880021 44.52,25.672 C44.7920014,25.2559979 45.0399989,24.744003 45.264,24.136 C45.3600005,23.9759992 45.4479996,23.792001 45.528,23.584 C45.6080004,23.375999 45.7119994,23.1600011 45.84,22.936 C46.1920018,22.2639966 46.5039986,21.3760055 46.776,20.272 C47.0480014,19.1679945 47.184,18.2640035 47.184,17.56 C47.184,17.2719986 47.1680002,17.0800005 47.136,16.984 L47.136,16.888 L47.184,16.312 C47.184,16.0879989 47.088001,15.8960008 46.896,15.736 C47.0240006,15.6079994 47.088,15.3360021 47.088,14.92 C47.088,14.5999984 47.0480004,14.2560018 46.968,13.888 C46.8879996,13.5199982 46.8000005,13.2560008 46.704,13.096 C46.6079995,11.495992 46.56,10.200005 46.56,9.208 C46.56,7.86399328 46.655999,6.69600496 46.848,5.704 C46.8800002,5.57599936 47.0879981,5.2320028 47.472,4.672 C47.8560019,4.1119972 48.1919986,3.68800144 48.48,3.4 C49.0240027,2.95199776 49.7599954,2.58400144 50.688,2.296 C51.6160046,2.00799856 52.4319965,1.89599968 53.136,1.96 C53.1039998,1.99200016 53.2639982,2.008 53.616,2.008 C54.416004,2.008 55.3439947,1.96000048 56.4,1.864 C56.7520018,1.79999968 57.0479988,1.7280004 57.288,1.648 C57.5280012,1.5679996 57.9199973,1.3680016 58.464,1.048 C58.5920006,0.95199952 58.6959996,0.89600008 58.776,0.88 C58.8560004,0.86399992 58.9599994,0.87199984 59.088,0.904 L60.384,2.008 C60.3519998,2.93600464 60.1200022,3.60799792 59.688,4.024 C59.2559978,4.44000208 58.4640058,4.71199936 57.312,4.84 L56.592,4.792 C56.4639994,4.792 56.2720013,4.82399968 56.016,4.888 C55.9519997,4.92000016 55.8720005,4.936 55.776,4.936 C55.6479994,4.936 55.5040008,4.91200024 55.344,4.864 C55.1839992,4.81599976 55.0400006,4.792 54.912,4.792 C54.6559987,4.792 54.3840014,4.81599976 54.096,4.864 C53.8079986,4.91200024 53.5200014,4.936 53.232,4.936 C52.9439986,4.936 52.7360006,4.92000016 52.608,4.888 C51.3279936,5.27200192 50.4000029,5.73599728 49.824,6.28 C49.2479971,6.82400272 48.96,7.68799408 48.96,8.872 C49.0240003,9.5120032 49.151999,10.3759946 49.344,11.464 C49.6320014,12.9040072 49.776,14.119995 49.776,15.112 C49.8080002,15.304001 49.8559997,15.4879991 49.92,15.664 C49.9840003,15.8400009 50.016,15.9759995 50.016,16.072 C50.016,16.2320008 49.9680005,16.3599995 49.872,16.456 C50.0320008,17.256004 50.112,17.9439971 50.112,18.52 C50.112,19.2240035 50.016001,19.7679981 49.824,20.152 C49.7919998,20.344001 49.7520002,20.7599968 49.704,21.4 C49.6559998,22.0400032 49.4880014,22.6479971 49.2,23.224 C48.3359957,24.9840088 47.5280038,26.3999946 46.776,27.472 C46.0239962,28.5440054 45.1040054,29.4479963 44.016,30.184 C43.823999,30.3120006 43.5200021,30.4239995 43.104,30.52 C42.6879979,30.6160005 42.3520013,30.6959997 42.096,30.76 C41.903999,30.6639995 41.5920022,30.4960012 41.16,30.256 C40.7279978,30.0159988 40.4000011,29.800001 40.176,29.608 C39.1519949,28.6799954 38.64,27.4640075 38.64,25.96 C38.64,25.351997 38.7199992,24.6880036 38.88,23.968 C39.0400008,23.2479964 39.12,22.8400005 39.12,22.744 C39.0879998,22.4879987 39.1519992,22.2080015 39.312,21.904 C39.4720008,21.5999985 39.5839997,21.3840006 39.648,21.256 C40.3200034,19.9439934 40.8959976,18.9040038 41.376,18.136 C41.8560024,17.3679962 42.5439955,16.488005 43.44,15.496 C43.5360005,15.4319997 43.6959989,15.304001 43.92,15.112 C44.1440011,14.919999 44.351999,14.7920003 44.544,14.728 L45.648,15.544 Z M61.064,29.32 C60.263996,30.0240035 59.3040056,30.376 58.184,30.376 C57.383996,30.376 56.6240036,30.1840019 55.904,29.8 C55.1839964,29.4159981 54.5840024,28.8880034 54.104,28.216 C53.6879979,27.7039974 53.384001,27.1280032 53.192,26.488 C52.999999,25.8479968 52.904,25.0640046 52.904,24.136 C52.904,23.8159984 52.9359997,23.1760048 53,22.216 C53.0960005,21.0319941 53.4879966,19.8000064 54.176,18.52 C54.8640034,17.2399936 55.7199949,16.096005 56.744,15.088 C57.7680051,14.079995 58.775995,13.3840019 59.768,13 C60.2800026,12.6799984 60.7439979,12.52 61.16,12.52 C61.3840011,12.52 61.6079989,12.5359998 61.832,12.568 C62.0560011,12.6000002 62.2959987,12.6319998 62.552,12.664 C63.2560035,12.7600005 63.7919982,12.8959991 64.16,13.072 C64.5280018,13.2480009 64.8399987,13.5119982 65.096,13.864 C65.896004,14.664004 66.296,15.5919947 66.296,16.648 C66.1679994,17.4160038 65.6720043,18.295995 64.808,19.288 C63.9439957,20.280005 62.9040061,21.079997 61.688,21.688 C61.1119971,21.880001 60.4560037,21.976 59.72,21.976 C58.727995,21.976 57.928003,21.7680021 57.32,21.352 C57.0319986,21.2559995 56.8080008,21.208 56.648,21.208 C56.3599986,21.208 56.1440007,21.3999981 56,21.784 C55.8559993,22.1680019 55.7200006,22.8719949 55.592,23.896 C55.5599998,24.1200011 55.544,24.4399979 55.544,24.856 C55.544,26.4880082 56.0879946,27.3839992 57.176,27.544 C57.9120037,27.7040008 58.4399984,27.784 58.76,27.784 C59.1440019,27.784 59.5759976,27.6560013 60.056,27.4 L60.968,26.872 C61.160001,26.7759995 61.3359992,26.6480008 61.496,26.488 L61.928,26.056 C61.9920003,25.9919997 62.0879994,25.8880007 62.216,25.744 C62.3440006,25.5999993 62.4639994,25.5040002 62.576,25.456 C62.6880006,25.4079998 62.7919995,25.384 62.888,25.384 C63.0160006,25.384 63.1599992,25.4559993 63.32,25.6 C63.4800008,25.7440007 63.6079995,25.8479997 63.704,25.912 C63.9920014,25.912 64.0560008,26.111998 63.896,26.512 C63.7359992,26.912002 63.3920026,27.3759974 62.864,27.904 C62.3359974,28.4320026 61.7360034,28.9039979 61.064,29.32 Z M61.016,19.144 C61.5600027,18.9199989 62.1119972,18.5200029 62.672,17.944 C63.2320028,17.3679971 63.512,16.8880019 63.512,16.504 C63.512,16.1199981 63.3680014,15.8000013 63.08,15.544 C62.7919986,15.2879987 62.3920026,15.16 61.88,15.16 C61.4959981,15.16 61.208001,15.1919997 61.016,15.256 C60.5679978,15.3840006 60.040003,15.7279972 59.432,16.288 C58.823997,16.8480028 58.2960022,17.4159971 57.848,17.992 C57.3999978,18.5680029 57.2239995,18.9039995 57.32,19 C57.4800008,19.2880014 58.1039946,19.432 59.192,19.432 C59.9280037,19.432 60.5359976,19.336001 61.016,19.144 Z M91.848,13.96 C92.2000018,13.767999 92.5519982,13.672 92.904,13.672 C93.3520022,13.672 93.7439983,13.8079986 94.08,14.08 C94.4160017,14.3520014 94.584,14.6959979 94.584,15.112 C94.584,15.1760003 94.5520003,15.3359987 94.488,15.592 C94.5840005,15.1759979 94.2480038,15.863991 93.48,17.656 C92.7119962,19.448009 92.2960003,20.4079994 92.232,20.536 L92.232,20.68 C92.6800022,20.68 92.9759993,20.8159986 93.12,21.088 C93.2640007,21.3600014 93.3200002,21.7199978 93.288,22.168 C92.9999986,22.2320003 92.7280013,22.3439992 92.472,22.504 C92.2159987,22.6640008 92.0080008,22.744 91.848,22.744 C91.7519995,22.744 91.6400006,22.7919995 91.512,22.888 C91.3839994,22.9840005 91.3040002,23.0959994 91.272,23.224 C91.2079997,23.3520006 91.0960008,23.8479957 90.936,24.712 L90.072,28.168 C90.0079997,28.3920011 89.8960008,28.5839992 89.736,28.744 C89.5759992,28.9040008 89.4320006,28.9999998 89.304,29.032 C89.1759994,28.9999998 88.9280018,28.9120007 88.56,28.768 C88.1919982,28.6239993 87.9440006,28.5120004 87.816,28.432 C87.6879994,28.3519996 87.5600006,28.2640005 87.432,28.168 L87.432,27.88 C87.432,27.4319978 87.5119992,26.9680024 87.672,26.488 C87.9280013,25.7199962 88.1839987,24.6480069 88.44,23.272 C88.1839987,23.1759995 87.5440051,23.2159991 86.52,23.392 C85.4959949,23.5680009 84.9360005,23.656 84.84,23.656 C84.647999,23.7520005 84.2640029,23.8 83.688,23.8 C82.7599954,23.8 82.1040019,23.7200008 81.72,23.56 L81.432,23.704 C81.3679997,23.9920014 81.2720006,24.3119982 81.144,24.664 C80.7919982,25.656005 80.616,26.3919976 80.616,26.872 C80.5519997,27.3200022 80.4880003,27.6879986 80.424,27.976 C80.3599997,28.2960016 80.2960003,28.7759968 80.232,29.416 C80.1999998,30.3120045 79.8960029,30.76 79.32,30.76 C78.9679982,30.76 78.5840021,30.6320013 78.168,30.376 C77.9439989,30.2479994 77.6400019,29.9920019 77.256,29.608 L78.024,25.912 C78.1200005,25.6239986 78.2239994,25.2240026 78.336,24.712 C78.4480006,24.1999974 78.5679994,23.7840016 78.696,23.464 L79.224,21.976 C79.6080019,20.8559944 79.9599984,19.9440035 80.28,19.24 L81.288,16.408 C81.3840005,16.1839989 81.5999983,15.568005 81.936,14.56 C82.2720017,13.551995 82.4719997,12.9680008 82.536,12.808 C82.6640006,12.4559982 82.9199981,12.28 83.304,12.28 C83.8160026,12.2479998 84.2559982,12.3679986 84.624,12.64 C84.9920018,12.9120014 85.1919998,13.2399981 85.224,13.624 C85.224,13.7200005 85.2080002,13.871999 85.176,14.08 C85.1439998,14.288001 85.1120002,14.4399995 85.08,14.536 L82.584,20.632 L82.584,21.016 C82.7120006,21.1120005 82.9359984,21.16 83.256,21.16 C83.5120013,21.16 83.9039974,21.1120005 84.432,21.016 C84.9600026,20.9199995 85.2879994,20.872 85.416,20.872 C85.7040014,20.8399998 86.1359971,20.8080002 86.712,20.776 C87.2880029,20.7439998 87.8639971,20.728 88.44,20.728 C88.8880022,20.728 89.1279998,20.7439998 89.16,20.776 L89.688,19.24 C90.2000026,17.6719922 90.7439971,16.4080048 91.32,15.448 C91.3520002,15.3519995 91.4159995,15.1680014 91.512,14.896 C91.6080005,14.6239986 91.7199994,14.3120018 91.848,13.96 Z M109.424,13.288 C109.936003,13.8000026 110.192,14.3279973 110.192,14.872 C110.192,15.4480029 109.808004,16.4559928 109.04,17.896 C108.783999,18.6320037 108.504002,19.3199968 108.2,19.96 C107.895998,20.6000032 107.664001,21.015999 107.504,21.208 L106.4,23.752 C105.919998,24.8080053 105.328004,26.039993 104.624,27.448 C103.759996,29.240009 103.152002,30.5679957 102.8,31.432 L102.176,32.44 C100.575992,35.0000128 99.3440043,36.7919949 98.48,37.816 C96.7199912,39.3840078 95.3600048,40.2959987 94.4,40.552 C93.9839979,40.6800006 93.4880029,40.744 92.912,40.744 C91.8559947,40.744 90.8560047,40.5120023 89.912,40.048 C88.9679953,39.5839977 88.4320006,39.048003 88.304,38.44 C88.2719998,38.2159989 88.351999,37.9760013 88.544,37.72 C88.736001,37.4639987 88.9439989,37.336 89.168,37.336 C89.3280008,37.336 89.4559995,37.3999994 89.552,37.528 C89.8080013,37.720001 90.1839975,37.9039991 90.68,38.08 C91.1760025,38.2560009 91.7119971,38.344 92.288,38.344 C92.5120011,38.344 92.8159981,38.3120003 93.2,38.248 C93.8400032,38.1199994 94.5119965,37.7360032 95.216,37.096 C95.9200035,36.4559968 96.5599971,35.7520038 97.136,34.984 C98.2240054,33.383992 99.3919938,31.384012 100.64,28.984 C100.191998,28.8559994 99.7600021,28.5440025 99.344,28.048 C98.9279979,27.5519975 98.6000012,27.0320027 98.36,26.488 C98.1199988,25.9439973 98.0319997,25.5440013 98.096,25.288 L98.096,24.76 C97.8079986,24.76 97.5760009,24.2160054 97.4,23.128 C97.2239991,22.0399946 97.136,20.7760072 97.136,19.336 C97.136,18.7919973 97.1679997,18.1040042 97.232,17.272 C97.3600006,16.7599974 97.4319999,16.1280038 97.448,15.376 C97.4640001,14.6239962 97.472,14.1360011 97.472,13.912 L97.472,13.72 C97.472,13.3359981 97.5119996,13.0640008 97.592,12.904 C97.6720004,12.7439992 97.807999,12.6000006 98,12.472 C98.2560013,12.3439994 98.5119987,12.28 98.768,12.28 C99.6640045,12.28 100.112,13.4639882 100.112,15.832 C100.112,16.1840018 100.08,16.8719949 100.016,17.896 C99.9839998,18.3440022 99.968,19.0159955 99.968,19.912 C99.968,21.5760083 100.111999,23.0479936 100.4,24.328 C100.688001,25.6080064 101.119997,26.4879976 101.696,26.968 L101.984,26.296 C102.336002,25.3679954 102.607999,24.7760013 102.8,24.52 C103.248002,23.5919954 103.504,23.0000013 103.568,22.744 C103.632,22.5199989 103.807999,22.1520026 104.096,21.64 L104.72,20.344 C104.784,20.151999 104.991998,19.5360052 105.344,18.496 C105.696002,17.4559948 106.047998,16.6160032 106.4,15.976 C106.528001,15.7199987 106.719999,15.3440025 106.976,14.848 C107.232001,14.3519975 107.439999,13.9920011 107.6,13.768 C107.760001,13.5439989 107.935999,13.4000003 108.128,13.336 C108.384001,13.1119989 108.591999,13 108.752,13 C108.880001,13 109.103998,13.095999 109.424,13.288 Z M135.304,16.456 C134.759997,16.9040022 133.904006,17.631995 132.736,18.64 C131.567994,19.648005 130.728003,20.3919976 130.216,20.872 L126.664,23.752 C126.664,24.1040018 126.704,24.383999 126.784,24.592 C126.864,24.800001 126.991999,25.0399986 127.168,25.312 C127.344001,25.5840014 127.464,25.7839994 127.528,25.912 C128.040003,26.8080045 128.743996,27.6719958 129.64,28.504 C130.536004,29.3360042 131.063999,29.8319992 131.224,29.992 C131.32,30.184001 131.368,30.3279995 131.368,30.424 C131.368,30.5840008 131.304001,30.6959997 131.176,30.76 C131.047999,30.8240003 130.888001,30.8799998 130.696,30.928 C130.503999,30.9760002 130.36,31.0159998 130.264,31.048 C129.751997,30.9839997 129.120004,30.6640029 128.368,30.088 C127.615996,29.5119971 126.928003,28.8720035 126.304,28.168 C125.679997,27.4639965 125.288001,26.8880022 125.128,26.44 C124.647998,25.831997 124.304001,25.3360019 124.096,24.952 C123.887999,24.5679981 123.656001,23.9920038 123.4,23.224 C123.047998,23.6080019 122.728001,24.1359966 122.44,24.808 C122.311999,25.2560022 122.104001,25.8159966 121.816,26.488 C121.399998,27.480005 121.24,27.976 121.336,27.976 L121.384,28.456 C121.384,28.7120013 121.344,28.9119993 121.264,29.056 C121.184,29.2000007 121.000001,29.4159986 120.712,29.704 L119.416,29.752 C118.871997,29.3999982 118.520001,29.0320019 118.36,28.648 C118.199999,28.2639981 118.12,27.8320024 118.12,27.352 C118.248001,27.0959987 118.519998,26.5440042 118.936,25.696 C119.352002,24.8479958 119.655999,24.0080042 119.848,23.176 C119.655999,23.176 119.192004,23.2559992 118.456,23.416 C118.135998,23.7360016 117.840001,24.0239987 117.568,24.28 C117.295999,24.5360013 117.032001,24.7759989 116.776,25 C115.591994,26.0240051 114.600004,26.935996 113.8,27.736 C112.455993,28.9520061 111.480003,30.0079955 110.872,30.904 C110.679999,31.1600013 110.392002,31.288 110.008,31.288 C109.783999,31.288 109.400003,31.2080008 108.856,31.048 L107.8,29.416 C107.8,28.8719973 108.039998,28.4880011 108.52,28.264 C108.936002,27.9439984 109.527996,27.4320035 110.296,26.728 C111.064004,26.0239965 111.799996,25.3360034 112.504,24.664 C112.792001,24.4079987 113.191997,24.0720021 113.704,23.656 C114.216003,23.2399979 114.615999,22.936001 114.904,22.744 C115.256002,22.3919982 115.671998,22.0400018 116.152,21.688 C116.856004,21.1119971 117.335999,20.6960013 117.592,20.44 L116.872,19.192 C116.776,19.0639994 116.592001,18.7520025 116.32,18.256 C116.047999,17.7599975 115.752002,17.3360018 115.432,16.984 C115.271999,16.7599989 114.840004,16.0240062 114.136,14.776 C114.072,14.6479994 113.984001,14.4960009 113.872,14.32 C113.759999,14.1439991 113.640001,13.9440011 113.512,13.72 C113.672001,13.2399976 114.039997,13 114.616,13 C115.000002,13 115.383998,13.095999 115.768,13.288 C116.536004,13.9920035 117.127998,14.9039944 117.544,16.024 C117.960002,16.6640032 118.303999,17.183998 118.576,17.584 C118.848001,17.984002 119.063999,18.3119987 119.224,18.568 C119.480001,18.9200018 119.959996,19.6559944 120.664,20.776 C120.824001,19.9439958 121.047999,18.9200061 121.336,17.704 C121.528001,16.9679963 121.735999,16.0400056 121.96,14.92 C122.088001,14.4079974 122.152,14.0080014 122.152,13.72 L122.104,13.336 L122.104,13.192 C122.104,12.8719984 122.152,12.6480006 122.248,12.52 C122.28,12.3919994 122.344,12.2800005 122.44,12.184 C122.536,12.0879995 122.663999,12.04 122.824,12.04 C122.92,12.04 123.063999,12.1039994 123.256,12.232 C124.664007,13.1600046 125.256001,14.0879954 125.032,15.016 L124.408,17.608 C123.863997,20.1680128 123.56,21.4799997 123.496,21.544 L123.976,21.64 C125.608008,20.5839947 126.775996,19.7680029 127.48,19.192 C128.056003,18.7439978 128.895994,18.0080051 130,16.984 C131.104006,15.9599949 131.975997,15.1120034 132.616,14.44 C132.936002,14.1519986 133.144,13.9760003 133.24,13.912 C133.336,13.8479997 133.559998,13.7840003 133.912,13.72 C134.296002,13.9760013 134.647998,14.2879982 134.968,14.656 C135.288002,15.0240018 135.48,15.3679984 135.544,15.688 L135.544,15.832 C135.544,16.0880013 135.464001,16.2959992 135.304,16.456 Z M150,13.96 C150.352002,13.767999 150.703998,13.672 151.056,13.672 C151.504002,13.672 151.895998,13.8079986 152.232,14.08 C152.568002,14.3520014 152.736,14.6959979 152.736,15.112 C152.736,15.1760003 152.704,15.3359987 152.64,15.592 C152.736,15.1759979 152.400004,15.863991 151.632,17.656 C150.863996,19.448009 150.448,20.4079994 150.384,20.536 L150.384,20.68 C150.832002,20.68 151.127999,20.8159986 151.272,21.088 C151.416001,21.3600014 151.472,21.7199978 151.44,22.168 C151.151999,22.2320003 150.880001,22.3439992 150.624,22.504 C150.367999,22.6640008 150.160001,22.744 150,22.744 C149.904,22.744 149.792001,22.7919995 149.664,22.888 C149.535999,22.9840005 149.456,23.0959994 149.424,23.224 C149.36,23.3520006 149.248001,23.8479957 149.088,24.712 L148.224,28.168 C148.16,28.3920011 148.048001,28.5839992 147.888,28.744 C147.727999,28.9040008 147.584001,28.9999998 147.456,29.032 C147.327999,28.9999998 147.080002,28.9120007 146.712,28.768 C146.343998,28.6239993 146.096001,28.5120004 145.968,28.432 C145.839999,28.3519996 145.712001,28.2640005 145.584,28.168 L145.584,27.88 C145.584,27.4319978 145.663999,26.9680024 145.824,26.488 C146.080001,25.7199962 146.335999,24.6480069 146.592,23.272 C146.335999,23.1759995 145.696005,23.2159991 144.672,23.392 C143.647995,23.5680009 143.088,23.656 142.992,23.656 C142.799999,23.7520005 142.416003,23.8 141.84,23.8 C140.911995,23.8 140.256002,23.7200008 139.872,23.56 L139.584,23.704 C139.52,23.9920014 139.424001,24.3119982 139.296,24.664 C138.943998,25.656005 138.768,26.3919976 138.768,26.872 C138.704,27.3200022 138.64,27.6879986 138.576,27.976 C138.512,28.2960016 138.448,28.7759968 138.384,29.416 C138.352,30.3120045 138.048003,30.76 137.472,30.76 C137.119998,30.76 136.736002,30.6320013 136.32,30.376 C136.095999,30.2479994 135.792002,29.9920019 135.408,29.608 L136.176,25.912 C136.272,25.6239986 136.375999,25.2240026 136.488,24.712 C136.600001,24.1999974 136.719999,23.7840016 136.848,23.464 L137.376,21.976 C137.760002,20.8559944 138.111998,19.9440035 138.432,19.24 L139.44,16.408 C139.536,16.1839989 139.751998,15.568005 140.088,14.56 C140.424002,13.551995 140.624,12.9680008 140.688,12.808 C140.816001,12.4559982 141.071998,12.28 141.456,12.28 C141.968003,12.2479998 142.407998,12.3679986 142.776,12.64 C143.144002,12.9120014 143.344,13.2399981 143.376,13.624 C143.376,13.7200005 143.36,13.871999 143.328,14.08 C143.296,14.288001 143.264,14.4399995 143.232,14.536 L140.736,20.632 L140.736,21.016 C140.864001,21.1120005 141.087998,21.16 141.408,21.16 C141.664001,21.16 142.055997,21.1120005 142.584,21.016 C143.112003,20.9199995 143.439999,20.872 143.568,20.872 C143.856001,20.8399998 144.287997,20.8080002 144.864,20.776 C145.440003,20.7439998 146.015997,20.728 146.592,20.728 C147.040002,20.728 147.28,20.7439998 147.312,20.776 L147.84,19.24 C148.352003,17.6719922 148.895997,16.4080048 149.472,15.448 C149.504,15.3519995 149.568,15.1680014 149.664,14.896 C149.76,14.6239986 149.871999,14.3120018 150,13.96 Z M153.896,29.272 C153.8,29.079999 153.648001,28.880001 153.44,28.672 C153.231999,28.463999 153.128,28.3280003 153.128,28.264 C153.128,27.9119982 153.048001,27.640001 152.888,27.448 C152.824,27.3839997 152.792,27.2400011 152.792,27.016 C152.792,26.5039974 153.039998,25.6320062 153.536,24.4 C154.032002,23.1679938 154.679996,21.8320072 155.48,20.392 C155.672001,20.199999 155.919998,19.8640024 156.224,19.384 C156.528002,18.9039976 156.728,18.6320003 156.824,18.568 C156.824,18.4399994 156.872,18.3200006 156.968,18.208 C157.064,18.0959994 157.175999,18.04 157.304,18.04 L157.304,17.752 C157.304,17.4639986 157.831995,16.7680055 158.888,15.664 C159.944005,14.5599945 160.807997,13.8000021 161.48,13.384 C162.280004,12.8399973 163.095996,12.568 163.928,12.568 C164.504003,12.568 164.999998,12.7279984 165.416,13.048 C165.576001,13.240001 166.311993,13.9279941 167.624,15.112 L169.4,16.696 L168.536,19.096 C168.247999,19.9600043 168.104,20.7439965 168.104,21.448 C168.104,22.6640061 168.455996,23.8319944 169.16,24.952 C169.320001,25.3040018 169.639998,25.6399984 170.12,25.96 C170.600002,26.2800016 171.079998,26.4719997 171.56,26.536 C172.264004,26.6640006 172.616,27.0159971 172.616,27.592 C172.616,28.2320032 172.328003,28.6159994 171.752,28.744 C171.623999,28.7760002 171.432001,28.792 171.176,28.792 C169.287991,28.792 167.656007,27.4640133 166.28,24.808 C166.151999,24.615999 165.984001,24.2640026 165.776,23.752 C165.567999,23.2399974 165.448,22.888001 165.416,22.696 C165.223999,22.9520013 164.984001,23.2559982 164.696,23.608 C164.407999,23.9600018 164.136001,24.2639987 163.88,24.52 C160.391983,28.0080174 157.64001,29.752 155.624,29.752 C154.983997,29.752 154.408003,29.5920016 153.896,29.272 Z M155.624,26.584 C155.624,26.7440008 155.791998,26.7920003 156.128,26.728 C156.464002,26.6639997 156.879998,26.5040013 157.376,26.248 C157.872002,25.9919987 158.375997,25.6560021 158.888,25.24 C161.640014,22.8719882 163.623994,20.8080088 164.84,19.048 L165.896,17.32 C165.575998,16.6479966 165.240002,16.1600015 164.888,15.856 C164.535998,15.5519985 164.216001,15.4 163.928,15.4 C163.255997,15.4 162.200007,16.2399916 160.76,17.92 C159.319993,19.6000084 158.008006,21.5759886 156.824,23.848 C156.535999,24.3920027 156.280001,24.9439972 156.056,25.504 L155.624,26.584 Z M187.464,30.28 C187.079998,30.28 186.776001,30.2160006 186.552,30.088 C186.327999,29.9599994 186.008002,29.7200018 185.592,29.368 C184.535995,28.2479944 184.008,27.2240046 184.008,26.296 C184.008,26.0719989 184.024,25.9120005 184.056,25.816 C184.152,25.5919989 184.192,25.3680011 184.176,25.144 C184.16,24.9199989 184.152,24.7760003 184.152,24.712 C184.023999,24.5839994 183.96,24.4960002 183.96,24.448 C183.96,24.3999998 183.992,24.3520002 184.056,24.304 C184.12,24.2559998 184.168,24.2000003 184.2,24.136 C184.392001,24.136 184.456,23.9600018 184.392,23.608 C184.328,23.3519987 184.455998,22.7840044 184.776,21.904 C185.096002,21.0239956 185.495998,20.2160037 185.976,19.48 C186.328002,18.9039971 186.847997,18.1840043 187.536,17.32 C188.224003,16.4559957 188.839997,15.8000022 189.384,15.352 C190.152004,14.6799966 190.839997,14.1840016 191.448,13.864 C192.056003,13.5439984 192.727996,13.3040008 193.464,13.144 C194.104003,12.9839992 194.535999,12.904 194.76,12.904 C194.984001,12.904 195.183999,12.9599994 195.36,13.072 C195.536001,13.1840006 195.767999,13.3839986 196.056,13.672 C196.920004,14.0560019 197.519998,14.543997 197.856,15.136 C198.192002,15.728003 198.36,16.6479938 198.36,17.896 C198.36,19.9760104 197.512008,22.2319878 195.816,24.664 C195.079996,25.7200053 194.392003,26.5279972 193.752,27.088 C193.111997,27.6480028 192.264005,28.2479968 191.208,28.888 C190.535997,29.3680024 189.920003,29.711999 189.36,29.92 C188.799997,30.128001 188.168004,30.2479998 187.464,30.28 Z M192.072,25.192 C192.840004,24.3279957 193.455998,23.5120038 193.92,22.744 C194.384002,21.9759962 194.823998,21.0000059 195.24,19.816 C195.400001,19.2719973 195.48,18.6160038 195.48,17.848 C195.48,16.8879952 195.352001,16.3440006 195.096,16.216 C194.775998,16.0559992 194.456002,15.976 194.136,15.976 C193.431996,15.976 192.696004,16.2959968 191.928,16.936 C190.999995,17.736004 190.168004,18.7199942 189.432,19.888 C188.695996,21.0560058 187.944004,22.5039914 187.176,24.232 C186.855998,24.9040034 186.696,25.5599968 186.696,26.2 C186.696,26.6800024 186.815999,27.0639986 187.056,27.352 C187.296001,27.6400014 187.623998,27.784 188.04,27.784 C189.096005,27.784 190.439992,26.9200086 192.072,25.192 Z M214.112,13.96 C214.464002,13.767999 214.815998,13.672 215.168,13.672 C215.616002,13.672 216.007998,13.8079986 216.344,14.08 C216.680002,14.3520014 216.848,14.6959979 216.848,15.112 C216.848,15.1760003 216.816,15.3359987 216.752,15.592 C216.848,15.1759979 216.512004,15.863991 215.744,17.656 C214.975996,19.448009 214.56,20.4079994 214.496,20.536 L214.496,20.68 C214.944002,20.68 215.239999,20.8159986 215.384,21.088 C215.528001,21.3600014 215.584,21.7199978 215.552,22.168 C215.263999,22.2320003 214.992001,22.3439992 214.736,22.504 C214.479999,22.6640008 214.272001,22.744 214.112,22.744 C214.016,22.744 213.904001,22.7919995 213.776,22.888 C213.647999,22.9840005 213.568,23.0959994 213.536,23.224 C213.472,23.3520006 213.360001,23.8479957 213.2,24.712 L212.336,28.168 C212.272,28.3920011 212.160001,28.5839992 212,28.744 C211.839999,28.9040008 211.696001,28.9999998 211.568,29.032 C211.439999,28.9999998 211.192002,28.9120007 210.824,28.768 C210.455998,28.6239993 210.208001,28.5120004 210.08,28.432 C209.951999,28.3519996 209.824001,28.2640005 209.696,28.168 L209.696,27.88 C209.696,27.4319978 209.775999,26.9680024 209.936,26.488 C210.192001,25.7199962 210.447999,24.6480069 210.704,23.272 C210.447999,23.1759995 209.808005,23.2159991 208.784,23.392 C207.759995,23.5680009 207.2,23.656 207.104,23.656 C206.911999,23.7520005 206.528003,23.8 205.952,23.8 C205.023995,23.8 204.368002,23.7200008 203.984,23.56 L203.696,23.704 C203.632,23.9920014 203.536001,24.3119982 203.408,24.664 C203.055998,25.656005 202.88,26.3919976 202.88,26.872 C202.816,27.3200022 202.752,27.6879986 202.688,27.976 C202.624,28.2960016 202.56,28.7759968 202.496,29.416 C202.464,30.3120045 202.160003,30.76 201.584,30.76 C201.231998,30.76 200.848002,30.6320013 200.432,30.376 C200.207999,30.2479994 199.904002,29.9920019 199.52,29.608 L200.288,25.912 C200.384,25.6239986 200.487999,25.2240026 200.6,24.712 C200.712001,24.1999974 200.831999,23.7840016 200.96,23.464 L201.488,21.976 C201.872002,20.8559944 202.223998,19.9440035 202.544,19.24 L203.552,16.408 C203.648,16.1839989 203.863998,15.568005 204.2,14.56 C204.536002,13.551995 204.736,12.9680008 204.8,12.808 C204.928001,12.4559982 205.183998,12.28 205.568,12.28 C206.080003,12.2479998 206.519998,12.3679986 206.888,12.64 C207.256002,12.9120014 207.456,13.2399981 207.488,13.624 C207.488,13.7200005 207.472,13.871999 207.44,14.08 C207.408,14.288001 207.376,14.4399995 207.344,14.536 L204.848,20.632 L204.848,21.016 C204.976001,21.1120005 205.199998,21.16 205.52,21.16 C205.776001,21.16 206.167997,21.1120005 206.696,21.016 C207.224003,20.9199995 207.551999,20.872 207.68,20.872 C207.968001,20.8399998 208.399997,20.8080002 208.976,20.776 C209.552003,20.7439998 210.127997,20.728 210.704,20.728 C211.152002,20.728 211.392,20.7439998 211.424,20.776 L211.952,19.24 C212.464003,17.6719922 213.007997,16.4080048 213.584,15.448 C213.616,15.3519995 213.68,15.1680014 213.776,14.896 C213.872,14.6239986 213.983999,14.3120018 214.112,13.96 Z M218.008,29.272 C217.912,29.079999 217.760001,28.880001 217.552,28.672 C217.343999,28.463999 217.24,28.3280003 217.24,28.264 C217.24,27.9119982 217.160001,27.640001 217,27.448 C216.936,27.3839997 216.904,27.2400011 216.904,27.016 C216.904,26.5039974 217.151998,25.6320062 217.648,24.4 C218.144002,23.1679938 218.791996,21.8320072 219.592,20.392 C219.784001,20.199999 220.031998,19.8640024 220.336,19.384 C220.640002,18.9039976 220.84,18.6320003 220.936,18.568 C220.936,18.4399994 220.984,18.3200006 221.08,18.208 C221.176,18.0959994 221.287999,18.04 221.416,18.04 L221.416,17.752 C221.416,17.4639986 221.943995,16.7680055 223,15.664 C224.056005,14.5599945 224.919997,13.8000021 225.592,13.384 C226.392004,12.8399973 227.207996,12.568 228.04,12.568 C228.616003,12.568 229.111998,12.7279984 229.528,13.048 C229.688001,13.240001 230.423993,13.9279941 231.736,15.112 L233.512,16.696 L232.648,19.096 C232.359999,19.9600043 232.216,20.7439965 232.216,21.448 C232.216,22.6640061 232.567996,23.8319944 233.272,24.952 C233.432001,25.3040018 233.751998,25.6399984 234.232,25.96 C234.712002,26.2800016 235.191998,26.4719997 235.672,26.536 C236.376004,26.6640006 236.728,27.0159971 236.728,27.592 C236.728,28.2320032 236.440003,28.6159994 235.864,28.744 C235.735999,28.7760002 235.544001,28.792 235.288,28.792 C233.399991,28.792 231.768007,27.4640133 230.392,24.808 C230.263999,24.615999 230.096001,24.2640026 229.888,23.752 C229.679999,23.2399974 229.56,22.888001 229.528,22.696 C229.335999,22.9520013 229.096001,23.2559982 228.808,23.608 C228.519999,23.9600018 228.248001,24.2639987 227.992,24.52 C224.503983,28.0080174 221.75201,29.752 219.736,29.752 C219.095997,29.752 218.520003,29.5920016 218.008,29.272 Z M219.736,26.584 C219.736,26.7440008 219.903998,26.7920003 220.24,26.728 C220.576002,26.6639997 220.991998,26.5040013 221.488,26.248 C221.984002,25.9919987 222.487997,25.6560021 223,25.24 C225.752014,22.8719882 227.735994,20.8080088 228.952,19.048 L230.008,17.32 C229.687998,16.6479966 229.352002,16.1600015 229,15.856 C228.647998,15.5519985 228.328001,15.4 228.04,15.4 C227.367997,15.4 226.312007,16.2399916 224.872,17.92 C223.431993,19.6000084 222.120006,21.5759886 220.936,23.848 C220.647999,24.3920027 220.392001,24.9439972 220.168,25.504 L219.736,26.584 Z M251.576,30.28 C251.191998,30.28 250.888001,30.2160006 250.664,30.088 C250.439999,29.9599994 250.120002,29.7200018 249.704,29.368 C248.647995,28.2479944 248.12,27.2240046 248.12,26.296 C248.12,26.0719989 248.136,25.9120005 248.168,25.816 C248.264,25.5919989 248.304,25.3680011 248.288,25.144 C248.272,24.9199989 248.264,24.7760003 248.264,24.712 C248.135999,24.5839994 248.072,24.4960002 248.072,24.448 C248.072,24.3999998 248.104,24.3520002 248.168,24.304 C248.232,24.2559998 248.28,24.2000003 248.312,24.136 C248.504001,24.136 248.568,23.9600018 248.504,23.608 C248.44,23.3519987 248.567998,22.7840044 248.888,21.904 C249.208002,21.0239956 249.607998,20.2160037 250.088,19.48 C250.440002,18.9039971 250.959997,18.1840043 251.648,17.32 C252.336003,16.4559957 252.951997,15.8000022 253.496,15.352 C254.264004,14.6799966 254.951997,14.1840016 255.56,13.864 C256.168003,13.5439984 256.839996,13.3040008 257.576,13.144 C258.216003,12.9839992 258.647999,12.904 258.872,12.904 C259.096001,12.904 259.295999,12.9599994 259.472,13.072 C259.648001,13.1840006 259.879999,13.3839986 260.168,13.672 C261.032004,14.0560019 261.631998,14.543997 261.968,15.136 C262.304002,15.728003 262.472,16.6479938 262.472,17.896 C262.472,19.9760104 261.624008,22.2319878 259.928,24.664 C259.191996,25.7200053 258.504003,26.5279972 257.864,27.088 C257.223997,27.6480028 256.376005,28.2479968 255.32,28.888 C254.647997,29.3680024 254.032003,29.711999 253.472,29.92 C252.911997,30.128001 252.280004,30.2479998 251.576,30.28 Z M256.184,25.192 C256.952004,24.3279957 257.567998,23.5120038 258.032,22.744 C258.496002,21.9759962 258.935998,21.0000059 259.352,19.816 C259.512001,19.2719973 259.592,18.6160038 259.592,17.848 C259.592,16.8879952 259.464001,16.3440006 259.208,16.216 C258.887998,16.0559992 258.568002,15.976 258.248,15.976 C257.543996,15.976 256.808004,16.2959968 256.04,16.936 C255.111995,17.736004 254.280004,18.7199942 253.544,19.888 C252.807996,21.0560058 252.056004,22.5039914 251.288,24.232 C250.967998,24.9040034 250.808,25.5599968 250.808,26.2 C250.808,26.6800024 250.927999,27.0639986 251.168,27.352 C251.408001,27.6400014 251.735998,27.784 252.152,27.784 C253.208005,27.784 254.551992,26.9200086 256.184,25.192 Z M270.112,0.328 C270.752003,0.19999936 271.215999,0.136 271.504,0.136 C272.048003,0.136 272.527998,0.26399872 272.944,0.52 C274.544008,1.03200256 275.775996,1.7679952 276.64,2.728 C277.504004,3.6880048 278.103998,4.82399344 278.44,6.136 C278.776002,7.44800656 278.976,9.09599008 279.04,11.08 C279.072,11.3680014 279.088,11.7519976 279.088,12.232 C279.088,12.6480021 279.04,13.3839947 278.944,14.44 C278.751999,14.6960013 278.64,15.0159981 278.608,15.4 C278.576,15.7840019 278.56,16.0079997 278.56,16.072 C278.56,16.7120032 278.496001,17.1759986 278.368,17.464 C278.336,17.8800021 278.208001,18.3279976 277.984,18.808 C277.759999,19.2880024 277.648,19.623999 277.648,19.816 C276.719995,22.4400131 275.376009,24.7919896 273.616,26.872 C271.855991,28.9520104 269.95201,30.2319976 267.904,30.712 C267.743999,30.7760003 267.328003,30.6400017 266.656,30.304 C265.983997,29.9679983 265.488002,29.6240018 265.168,29.272 C264.847998,28.8879981 264.600001,28.5360016 264.424,28.216 C264.247999,27.8959984 264.16,27.5280021 264.16,27.112 C263.967999,26.6639978 263.848,26.2080023 263.8,25.744 C263.752,25.2799977 263.728,24.6800037 263.728,23.944 C263.728,23.2719966 263.855999,22.6160032 264.112,21.976 C264.368001,21.3359968 264.719998,20.5680045 265.168,19.672 C265.456001,18.871996 266.103995,17.8880058 267.112,16.72 C268.120005,15.5519942 269.183994,14.6960027 270.304,14.152 C271.200004,13.6719976 271.967997,13.432 272.608,13.432 C272.992002,13.432 273.359998,13.4959994 273.712,13.624 C274.096002,13.7200005 274.383999,13.871999 274.576,14.08 C274.768001,14.288001 274.912,14.4239997 275.008,14.488 C275.264001,14.2319987 275.495999,13.6480046 275.704,12.736 C275.912001,11.8239954 276.016,10.8400053 276.016,9.784 C276.016,7.79999008 275.680003,6.36000448 275.008,5.464 C273.951995,3.95999248 272.720007,3.208 271.312,3.208 C270.767997,3.208 270.096004,3.3679984 269.296,3.688 C268.879998,3.49599904 268.528001,3.17600224 268.24,2.728 C267.951999,2.27999776 267.871999,1.84800208 268,1.432 C268.736004,0.82399696 269.439997,0.45600064 270.112,0.328 Z M274.768,16.36 C274.511999,16.1039987 274.176002,15.976 273.76,15.976 C272.959996,15.976 271.984006,16.375996 270.832,17.176 C270.447998,17.4640014 270.072002,17.8559975 269.704,18.352 C269.335998,18.8480025 269.104,19.1599994 269.008,19.288 C268.687998,19.8000026 268.432001,20.1679989 268.24,20.392 L268.24,20.488 C268.24,20.7120011 268.152001,20.9039992 267.976,21.064 C267.799999,21.2240008 267.68,21.3519995 267.616,21.448 C267.263998,22.1200034 267.008001,22.7999966 266.848,23.488 C266.687999,24.1760034 266.608,24.6639986 266.608,24.952 C266.608,25.5280029 266.695999,26.0719974 266.872,26.584 C267.048001,27.0960026 267.295998,27.4319992 267.616,27.592 C268.064002,27.784001 268.839994,27.4240046 269.944,26.512 C271.048006,25.5999954 271.967996,24.6160053 272.704,23.56 C272.896001,23.2719986 273.199998,22.7200041 273.616,21.904 C274.032002,21.0879959 274.335999,20.4720021 274.528,20.056 C274.880002,19.0959952 275.056,18.2320038 275.056,17.464 C275.056,16.9199973 274.960001,16.552001 274.768,16.36 Z M293.208,13.96 C293.560002,13.767999 293.911998,13.672 294.264,13.672 C294.712002,13.672 295.103998,13.8079986 295.44,14.08 C295.776002,14.3520014 295.944,14.6959979 295.944,15.112 C295.944,15.1760003 295.912,15.3359987 295.848,15.592 C295.944,15.1759979 295.608004,15.863991 294.84,17.656 C294.071996,19.448009 293.656,20.4079994 293.592,20.536 L293.592,20.68 C294.040002,20.68 294.335999,20.8159986 294.48,21.088 C294.624001,21.3600014 294.68,21.7199978 294.648,22.168 C294.359999,22.2320003 294.088001,22.3439992 293.832,22.504 C293.575999,22.6640008 293.368001,22.744 293.208,22.744 C293.112,22.744 293.000001,22.7919995 292.872,22.888 C292.743999,22.9840005 292.664,23.0959994 292.632,23.224 C292.568,23.3520006 292.456001,23.8479957 292.296,24.712 L291.432,28.168 C291.368,28.3920011 291.256001,28.5839992 291.096,28.744 C290.935999,28.9040008 290.792001,28.9999998 290.664,29.032 C290.535999,28.9999998 290.288002,28.9120007 289.92,28.768 C289.551998,28.6239993 289.304001,28.5120004 289.176,28.432 C289.047999,28.3519996 288.920001,28.2640005 288.792,28.168 L288.792,27.88 C288.792,27.4319978 288.871999,26.9680024 289.032,26.488 C289.288001,25.7199962 289.543999,24.6480069 289.8,23.272 C289.543999,23.1759995 288.904005,23.2159991 287.88,23.392 C286.855995,23.5680009 286.296,23.656 286.2,23.656 C286.007999,23.7520005 285.624003,23.8 285.048,23.8 C284.119995,23.8 283.464002,23.7200008 283.08,23.56 L282.792,23.704 C282.728,23.9920014 282.632001,24.3119982 282.504,24.664 C282.151998,25.656005 281.976,26.3919976 281.976,26.872 C281.912,27.3200022 281.848,27.6879986 281.784,27.976 C281.72,28.2960016 281.656,28.7759968 281.592,29.416 C281.56,30.3120045 281.256003,30.76 280.68,30.76 C280.327998,30.76 279.944002,30.6320013 279.528,30.376 C279.303999,30.2479994 279.000002,29.9920019 278.616,29.608 L279.384,25.912 C279.48,25.6239986 279.583999,25.2240026 279.696,24.712 C279.808001,24.1999974 279.927999,23.7840016 280.056,23.464 L280.584,21.976 C280.968002,20.8559944 281.319998,19.9440035 281.64,19.24 L282.648,16.408 C282.744,16.1839989 282.959998,15.568005 283.296,14.56 C283.632002,13.551995 283.832,12.9680008 283.896,12.808 C284.024001,12.4559982 284.279998,12.28 284.664,12.28 C285.176003,12.2479998 285.615998,12.3679986 285.984,12.64 C286.352002,12.9120014 286.552,13.2399981 286.584,13.624 C286.584,13.7200005 286.568,13.871999 286.536,14.08 C286.504,14.288001 286.472,14.4399995 286.44,14.536 L283.944,20.632 L283.944,21.016 C284.072001,21.1120005 284.295998,21.16 284.616,21.16 C284.872001,21.16 285.263997,21.1120005 285.792,21.016 C286.320003,20.9199995 286.647999,20.872 286.776,20.872 C287.064001,20.8399998 287.495997,20.8080002 288.072,20.776 C288.648003,20.7439998 289.223997,20.728 289.8,20.728 C290.248002,20.728 290.488,20.7439998 290.52,20.776 L291.048,19.24 C291.560003,17.6719922 292.103997,16.4080048 292.68,15.448 C292.712,15.3519995 292.776,15.1680014 292.872,14.896 C292.968,14.6239986 293.079999,14.3120018 293.208,13.96 Z M297.104,29.272 C297.008,29.079999 296.856001,28.880001 296.648,28.672 C296.439999,28.463999 296.336,28.3280003 296.336,28.264 C296.336,27.9119982 296.256001,27.640001 296.096,27.448 C296.032,27.3839997 296,27.2400011 296,27.016 C296,26.5039974 296.247998,25.6320062 296.744,24.4 C297.240002,23.1679938 297.887996,21.8320072 298.688,20.392 C298.880001,20.199999 299.127998,19.8640024 299.432,19.384 C299.736002,18.9039976 299.936,18.6320003 300.032,18.568 C300.032,18.4399994 300.08,18.3200006 300.176,18.208 C300.272,18.0959994 300.383999,18.04 300.512,18.04 L300.512,17.752 C300.512,17.4639986 301.039995,16.7680055 302.096,15.664 C303.152005,14.5599945 304.015997,13.8000021 304.688,13.384 C305.488004,12.8399973 306.303996,12.568 307.136,12.568 C307.712003,12.568 308.207998,12.7279984 308.624,13.048 C308.784001,13.240001 309.519993,13.9279941 310.832,15.112 L312.608,16.696 L311.744,19.096 C311.455999,19.9600043 311.312,20.7439965 311.312,21.448 C311.312,22.6640061 311.663996,23.8319944 312.368,24.952 C312.528001,25.3040018 312.847998,25.6399984 313.328,25.96 C313.808002,26.2800016 314.287998,26.4719997 314.768,26.536 C315.472004,26.6640006 315.824,27.0159971 315.824,27.592 C315.824,28.2320032 315.536003,28.6159994 314.96,28.744 C314.831999,28.7760002 314.640001,28.792 314.384,28.792 C312.495991,28.792 310.864007,27.4640133 309.488,24.808 C309.359999,24.615999 309.192001,24.2640026 308.984,23.752 C308.775999,23.2399974 308.656,22.888001 308.624,22.696 C308.431999,22.9520013 308.192001,23.2559982 307.904,23.608 C307.615999,23.9600018 307.344001,24.2639987 307.088,24.52 C303.599983,28.0080174 300.84801,29.752 298.832,29.752 C298.191997,29.752 297.616003,29.5920016 297.104,29.272 Z M298.832,26.584 C298.832,26.7440008 298.999998,26.7920003 299.336,26.728 C299.672002,26.6639997 300.087998,26.5040013 300.584,26.248 C301.080002,25.9919987 301.583997,25.6560021 302.096,25.24 C304.848014,22.8719882 306.831994,20.8080088 308.048,19.048 L309.104,17.32 C308.783998,16.6479966 308.448002,16.1600015 308.096,15.856 C307.743998,15.5519985 307.424001,15.4 307.136,15.4 C306.463997,15.4 305.408007,16.2399916 303.968,17.92 C302.527993,19.6000084 301.216006,21.5759886 300.032,23.848 C299.743999,24.3920027 299.488001,24.9439972 299.264,25.504 L298.832,26.584 Z" id="тебе-нужна-она-одна"></path>
                <path d="M140.58808,34.2059195 C141.649278,33.4401971 141.649278,31.2961746 140.13328,31.1430301 C136.040085,30.3773078 131.037291,32.8276192 127.853694,35.1247863 C126.640896,36.0436531 126.792496,37.4219533 127.853694,38.3408201 C130.279292,40.1785537 132.856489,42.1694318 135.282086,44.0071654 C136.494884,45.0791767 137.556083,45.844899 138.010883,46.151188 C139.678481,47.2231992 141.649278,44.6197433 140.13328,43.3945875 C138.162482,41.8631429 136.191685,40.1785537 134.220887,38.647109 C133.614488,38.0345312 133.159688,37.2688088 132.553537,36.6562309 C133.614488,36.1967975 134.675687,35.8905086 135.737133,35.5842197 C135.433933,36.5030865 136.040333,37.7282422 137.404731,37.7282422 C147.561919,37.7282422 156.960861,40.1785537 164.3895,47.5294882 C172.121091,55.339856 173.637089,67.1319801 173.18229,77.6989484 C172.72749,88.4190611 169.240694,98.6797405 162.418702,106.949542 C156.051509,114.453621 146.95552,118.89481 138.466178,123.489395 C137.101531,124.101722 138.01113,126.399139 139.527129,125.939706 C162.570302,118.129338 175.911086,100.058041 176.972285,75.5549258 C177.730284,52.2769667 162.873254,35.2779307 140.58808,34.2059195 Z" id="Shape" fill-rule="nonzero" transform="translate(152.000000, 78.500000) scale(1, -1) rotate(-45.000000) translate(-152.000000, -78.500000) "></path>
            </g>
        </g>
    </g>
</svg>