<svg width="1032" height="2064" viewBox="0 0 1032 2064" xmlns="http://www.w3.org/2000/svg"><title>A6C0C2D9-C236-4F5B-B90A-CDABC2E8AD93</title><path d="M0 2064h2c1 0 2-1 2-2s-1-2-2-2H0c-1 0-2 1-2 2s1 2 2 2zm12 0h2c1.2 0 2-1 2-2 0-1.2-1-2-2-2h-2c-1 0-2 .8-2 2 0 1 1 2 2 2zm12-.3h2c1.2 0 2-1 2-2 0-1.2-1-2-2-2h-2c-1 0-2 1-2 2 0 1.2 1 2 2 2zm12-.3h2c1 0 2-1 2-2.2 0-1-1-2-2.2-2l-2 .2c-1 0-2 1-2 2 .2 1.2 1 2 2.2 2zm12-.5l2-.2c1.2 0 2-1 2-2 0-1.2-1-2-2-2h-2c-1.2.2-2 1-2 2.2 0 1 1 2 2 2zm12-.7h2c1.2-.2 2-1 2-2.3 0-1-1-2-2-1.8h-2.2c-1 .2-2 1-2 2.2.2 1 1.2 2 2.3 2zm12-.8h2c1.2-.2 2-1.2 2-2.3 0-1-1-2-2.2-1.8h-2c-1 .2-2 1.2-2 2.3.2 1 1.2 2 2.3 1.8zm12-1h2c1 0 2-1 2-2.2-.2-1-1.2-2-2.3-1.8h-2c-1 .2-2 1.2-1.8 2.3 0 1 1 2 2 1.8zm12-1h2c1.2-.2 2-1.2 2-2.3-.2-1-1.2-2-2.3-1.8-.7 0-1.3 0-2 .2-1 0-2 1-1.8 2.2 0 1 1 2 2 1.8zm12-1l2-.3c1 0 1.8-1 1.7-2.2 0-1-1-2-2.2-1.8l-2 .2c-1 .2-1.8 1-1.7 2.2 0 1 1 2 2.2 1.8zm12-1.4h2c1-.3 2-1.3 1.7-2.4 0-1-1-1.8-2.2-1.7h-2c-1 .3-2 1.2-1.7 2.3 0 1 1 2 2.2 1.8zm12-1.3l2-.3c1 0 1.8-1.2 1.6-2.2 0-1-1-2-2.2-1.8-.7 0-1.4.2-2 .3-1 0-2 1-1.7 2.2 0 1 1 1.8 2.2 1.7zm12-1.6c.5 0 1.2 0 1.8-.2 1-.2 2-1.2 1.7-2.3 0-1-1-1.8-2.2-1.7-.7 0-1.3.2-2 .3-1 .2-1.8 1.3-1.7 2.3.2 1 1.2 2 2.3 1.8zm11.7-1.7c.7 0 1.3-.2 2-.3 1 0 1.8-1.2 1.6-2.2 0-1-1.2-2-2.2-1.7l-2 .4c-1 0-1.7 1.2-1.6 2.3.2 1 1.2 1.8 2.3 1.6zm12-1.8l2-.4c1 0 1.7-1 1.6-2.2-.2-1-1.2-1.8-2.3-1.6-.7 0-1.4.2-2 .3-1 .2-2 1.2-1.7 2.3.2 1 1.2 1.8 2.3 1.7zm11.8-2l2-.4c1 0 1.8-1 1.6-2.2 0-1-1.2-1.8-2.3-1.6l-2 .3c-1 .2-1.8 1.2-1.6 2.3.3 1 1.4 1.8 2.5 1.7zm11.8-2.2c.6 0 1.3-.2 2-.4 1-.3 1.7-1.3 1.5-2.4-.2-1-1.2-1.8-2.3-1.6-.7 0-1.3.3-2 .4-1 .2-1.8 1.2-1.6 2.3 0 1 1.2 1.8 2.3 1.6zm11.8-2.3c.8 0 1.4-.2 2-.4 1-.2 1.8-1.2 1.6-2.3-.2-1-1.3-1.8-2.3-1.6-.7 0-1.3.3-2 .4-1 .3-1.8 1.4-1.5 2.4.2 1 1.2 1.8 2.3 1.6zm12-2.4c.6 0 1.2-.3 1.8-.4 1-.2 1.8-1.3 1.6-2.4-.3-1-1.3-1.8-2.4-1.5-.6 0-1.3.2-2 .4-1 .2-1.7 1.3-1.5 2.3.3 1 1.3 1.8 2.4 1.6zm11.7-2.6c.6 0 1.3-.3 2-.4 1-.3 1.7-1.3 1.5-2.4-.3-1-1.4-1.8-2.4-1.5-.7 0-1.3.3-2 .4-1 .4-1.8 1.4-1.5 2.5.2 1 1.3 1.8 2.4 1.5zm11.7-2.7c.6 0 1.3-.3 2-.4 1-.4 1.7-1.5 1.4-2.5-.2-1-1.3-1.8-2.4-1.5-.6 0-1.3.3-2 .4-1 .3-1.7 1.4-1.4 2.4.2 1 1.3 1.8 2.4 1.5zm11.6-2.8l2-.5c1-.2 1.7-1.3 1.4-2.4-.3-1-1.3-1.7-2.4-1.5-.7.3-1.3.5-2 .6-1 .3-1.7 1.4-1.4 2.4.3 1 1.4 1.8 2.4 1.5zm11.6-3c.7 0 1.3-.3 2-.5 1-.2 1.6-1.3 1.4-2.4-.3-1-1.4-1.7-2.5-1.4-.6 0-1.2.3-2 .5-1 .3-1.6 1.3-1.3 2.4.3 1.2 1.4 1.8 2.4 1.5zm11.7-3l2-.6c1-.4 1.6-1.5 1.3-2.6-.3-1-1.4-1.7-2.4-1.4l-2 .6c-1 .3-1.7 1.4-1.4 2.4.3 1 1.4 1.7 2.5 1.4zm11.6-3.3l1.8-.6c1-.3 1.7-1.4 1.4-2.5-.3-1-1.4-1.5-2.5-1.2l-2 .5c-1 .3-1.6 1.4-1.3 2.5.3 1 1.4 1.7 2.5 1.4zm11.4-3.4l2-.6c1-.3 1.6-1.4 1.2-2.5-.3-1-1.4-1.6-2.4-1.3l-2 .6c-1 .3-1.6 1.4-1.3 2.5.2 1 1.3 1.6 2.4 1.3zm11.5-3.5l1.8-.6c1-.3 1.6-1.4 1.3-2.5-.3-1-1.4-1.6-2.4-1.3-.7 0-1.3.3-2 .5-1 .3-1.6 1.4-1.2 2.5.3 1 1.4 1.6 2.5 1.3zm11.4-3.7l2-.6c1-.3 1.5-1.5 1.2-2.5-.3-1-1.5-1.7-2.5-1.3l-1.8.6c-1 .4-1.7 1.5-1.3 2.5.2 1 1.3 1.7 2.4 1.3zm11.4-3.7c.6-.4 1.2-.6 2-.8 1-.3 1.5-1.5 1-2.5-.2-1-1.4-1.6-2.4-1.3l-2 .7c-1 .4-1.5 1.6-1.2 2.6.4 1 1.5 1.6 2.6 1.3zm11.4-4l1.8-.7c1-.4 1.6-1.5 1.3-2.6-.4-1-1.6-1.6-2.6-1.2l-2 .7c-1 .3-1.5 1.5-1 2.5.3 1 1.4 1.6 2.5 1.2zm11.3-4c.6-.4 1.2-.6 1.8-.8 1-.4 1.6-1.5 1.2-2.6-.4-1-1.5-1.5-2.5-1.2l-2 .7c-1 .5-1.4 1.6-1 2.7.3 1 1.5 1.5 2.5 1.2zm11.3-4.3l2-.7c1-.4 1.4-1.6 1-2.6-.4-1-1.5-1.6-2.6-1.2l-1.8.7c-1 .3-1.6 1.5-1.2 2.5.4 1 1.5 1.6 2.6 1.2zm11.2-4.3l1.8-.8c1-.4 1.6-1.5 1.2-2.6-.4-1-1.6-1.5-2.6-1l-2 .6c-1 .4-1.4 1.6-1 2.6.4 1 1.6 1.6 2.6 1.2zm11-4.5l2-.8c1-.4 1.5-1.6 1-2.6-.4-1-1.5-1.5-2.5-1-.7 0-1.3.4-2 .6-1 .4-1.4 1.6-1 2.6.4 1 1.6 1.5 2.6 1zm11.3-4.7l2-.8c1-.4 1.4-1.6 1-2.6-.5-1-1.7-1.6-2.7-1-.6 0-1.2.4-1.8.6-1 .5-1.5 1.6-1 2.7.3 1 1.5 1.5 2.5 1zm11-4.7l2-.8c1-.4 1.3-1.6 1-2.6-.5-1-1.7-1.5-2.7-1l-2 .8c-1 .4-1.3 1.6-1 2.6.5 1 1.7 1.5 2.7 1zm11-4.8l2-.8c1-.5 1.3-1.7 1-2.7-.6-1-1.7-1.4-2.8-1l-1.8.8c-1 .6-1.4 1.8-1 2.8.5 1 1.7 1.4 2.7 1zm11-5l1.8-.8c1-.5 1.5-1.7 1-2.7-.4-1-1.6-1.4-2.6-1l-1.8 1c-1 .4-1.5 1.6-1 2.6s1.7 1.3 2.7.8zm11-5l1.7-1c1-.4 1.4-1.6 1-2.6-.5-1-1.7-1.4-2.7-1l-2 1c-.8.4-1.3 1.6-.8 2.6s1.7 1.4 2.7 1zm10.7-5.3l1.8-1c1-.3 1.4-1.5 1-2.5-.6-1-1.8-1.4-2.8-1l-1.8 1c-1 .4-1.4 1.6-1 2.6.6 1 1.8 1.4 2.8 1zm10.8-5.3l1.7-1c1-.4 1.4-1.6 1-2.6-.6-1-1.8-1.4-2.8-1l-1.7 1c-1 .5-1.4 1.7-1 2.7.6 1 1.8 1.4 2.8 1zm10.8-5.5l1.7-1c1-.5 1.4-1.7 1-2.7-.6-1-1.8-1.3-2.8-.8l-1.8 1c-1 .4-1.4 1.6-.8 2.6.4 1 1.6 1.4 2.6 1zm10.6-5.6c.6-.2 1-.6 1.7-1 1-.4 1.3-1.6.7-2.6-.5-1-1.7-1.3-2.7-.8l-1.7 1c-1 .5-1.4 1.7-.8 2.6.5 1 1.7 1.4 2.7 1zm10.5-5.6l1.8-1c1-.6 1.3-1.8.8-2.7-.5-1-1.8-1.4-2.7-.8-.6.2-1.2.5-1.8 1-1 .4-1.3 1.6-.8 2.6s1.8 1.3 2.7.8zm10.5-6c.6-.2 1.2-.5 1.7-1 1-.4 1.2-1.6.7-2.6s-1.8-1.3-2.7-.7l-1.8 1c-1 .6-1.3 1.8-.7 2.8.5 1 1.7 1.3 2.7.7zm10.4-5.8l1.7-1c1-.6 1.3-1.8.7-2.7-.5-1-1.7-1.4-2.7-1-.6.5-1 .8-1.7 1-1 .7-1.3 2-.7 3 .4.8 1.6 1 2.6.6zm10.4-6l1.7-1.2c1-.5 1.3-1.8.7-2.7-.5-1-1.8-1.3-2.7-.7l-1.7 1c-1 .6-1.3 1.8-.7 2.8.5 1 1.8 1.2 2.7.7zm10.3-6.3l1.7-1c1-.7 1.3-2 .7-2.8-.6-1-1.8-1.3-2.8-.7l-1.8 1c-1 .6-1.2 1.8-.6 2.8.6 1 1.8 1.2 2.7.7zm10.2-6.3l1.7-1c1-.7 1.2-2 .6-3-.6-.8-1.8-1-2.8-.5l-1.6 1c-1 .7-1.2 2-.7 2.8.6 1 2 1.2 2.8.7zm10.2-6.5l1.7-1c1-.7 1.2-2 .6-3-.6-.8-2-1-2.8-.5-.6.4-1 .8-1.7 1-1 .7-1.2 2-.6 3 .5.8 1.7 1 2.7.5zm10-6.6l1.7-1.2c1-.6 1.2-1.8.6-2.7-.6-1-2-1-2.8-.5l-1.6 1c-1 .7-1.2 2-.6 3 .6.8 1.8 1 2.8.4zm10-6.8l1.7-1c1-.7 1.2-2 .6-3-.6-.8-2-1-2.8-.4l-1.7 1c-1 .7-1 2-.5 3 .6.8 2 1 2.8.4zm10-6.8l1.6-1c1-.7 1.2-2 .5-3-.6-.8-1.8-1-2.8-.4-.5.4-1 .8-1.6 1-1 .8-1 2-.5 3 .5.8 1.8 1 2.7.4zm9.8-7l1.6-1c1-.7 1.3-2 .6-2.8-.6-1-2-1-2.8-.5-.5.5-1 1-1.6 1.3-1 .6-1 1.8-.5 2.7.7 1 2 1.2 2.8.5zm9.8-7l1.6-1c.8-.7 1-2 .3-3-.6-.8-2-1-2.7-.3-.6.5-1 1-1.7 1.3-1 .6-1.2 2-.5 2.8.6 1 2 1 2.8.5zm9.7-7l1.5-1.2c1-.7 1-2 .4-2.8-.7-1-2-1-3-.4l-1.4 1c-1 .8-1 2-.4 3 .6.8 2 1 2.8.4zm9.5-7.3l1.6-1c1-.8 1.2-2 .5-3-.7-.8-2-1-2.8-.3l-1.6 1.2c-.8.6-1 2-.3 2.7.7 1 2 1 2.8.4zm9.5-7.2c.6-.5 1-1 1.6-1.3 1-.7 1-2 .3-2.8-.7-1-2-1-3-.3l-1.4 1.2c-1 .7-1 2-.4 2.8.7 1 2 1 2.8.4zm9.4-7.5l1.6-1.3c1-.7 1-2 .3-2.8-.7-.8-2-1-2.8-.3l-1.6 1.2c-1 .7-1 2-.4 2.8.7.8 2 1 2.8.3zm9.4-7.6l1.5-1.2c1-.7 1-2 .3-3-.7-.7-2-.8-2.8 0l-1.6 1c-.8.8-1 2-.2 3 .7.8 2 1 2.8.2zm9.3-7.7c.6-.4 1-1 1.6-1.3 1-.7 1-2 .3-2.8-1-1-2-1-3-.4-.5.5-1 1-1.5 1.3-1 .6-1 2-.2 2.7.7 1 2 1 2.8.3zm9.2-7.8c.5-.4 1-1 1.5-1.3 1-.8 1-2 .2-3-.8-.7-2-.8-3 0-.4.3-1 .7-1.4 1.2-.8.7-1 2-.2 2.8.7.8 2 1 2.8.2zm9-8c.6-.3 1-.8 1.6-1.2.8-.7 1-2 0-2.8-.6-1-2-1-2.7-.2l-1.4 1.3c-.8.8-1 2-.2 2.8.8 1 2 1 3 .3zm9-8l1.5-1.2c.8-.7 1-2 0-2.8-.6-.8-2-1-2.7-.2l-1.5 1.4c-.8.7-1 2 0 2.8.6.8 2 1 2.7 0zm9-8l1.4-1.4c.8-.7 1-2 0-2.8-.6-.8-2-1-2.7 0-.6.3-1 .8-1.6 1.2-.8.8-.8 2 0 3 .7.7 2 .7 2.7 0zm8.7-8.2l1.3-1.4c.8-.7 1-2 0-2.8-.7-.8-2-.8-2.7 0l-1.5 1.3c-.7.8-.7 2 0 3 .8.7 2 .8 3 0zm8.6-8.3l1.4-1.4c.8-.8.8-2 0-2.8-.7-.8-2-.8-2.8 0l-1.4 1.3c-.8.8-.8 2 0 3 .7.7 2 .7 2.8 0zm8.6-8.5l1.4-1.4c.8-.8.8-2 0-2.8-.7-.8-2-.8-2.8 0l-1.4 1.4c-.8.8-.8 2 0 2.8.8.8 2 .8 2.8 0zm8.5-8.4l1.4-1.5c.8-.7.8-2 0-2.8-.7-.8-2-.7-2.8 0l-1.4 1.4c-.7.7-.7 2 0 2.8.8.8 2 .7 3 0zm8.3-8.6l1.4-1.5c.8-.8.8-2 0-2.8-.8-1-2-.8-2.8 0l-1.4 1.4c-.8.8-.8 2 0 2.8.8.8 2 .8 2.8 0zm8.4-8.8l1.4-1.5c.7-1 .7-2 0-3-1-.6-2.2-.6-3 .2-.4.5-1 1-1.3 1.5-.8.8-.7 2 0 2.8 1 .8 2 .7 3 0zm8.2-8.8l1.3-1.4c.7-.8.6-2-.2-3-.8-.6-2-.5-2.8.3l-1.4 1.4c-.7.7-.7 2 0 2.8 1 .7 2.2.7 3-.2zm8-8.8l1.4-1.5c.7-.8.6-2-.2-2.8-.8-.8-2-.7-2.8 0-.5.6-1 1-1.3 1.6-.8 1-.7 2.2 0 3 1 .7 2.2.6 3-.2zm8-9l1.4-1.6c.7-.8.6-2-.2-2.8-.8-.7-2-.7-2.8.2-.5.5-1 1-1.3 1.5-.8 1-.7 2.2 0 3 1 .6 2.2.6 3-.3zm8-9l1.3-1.7c.6-.7.5-2-.4-2.7-.8-.7-2-.6-2.8.2-.4.5-1 1-1.3 1.6-.7 1-.6 2.2.2 3 1 .6 2 .5 2.8-.3zm7.7-9.3l1.3-1.5c.7-1 .6-2-.3-2.8-.8-.7-2-.6-2.8.2l-1.3 1.5c-.7.8-.6 2 .3 2.8.8.7 2 .6 2.8-.3zm7.7-9.3c.4-.5 1-1 1.3-1.6.7-.8.5-2-.3-2.8-1-.7-2-.5-2.8.3-.4.6-1 1-1.3 1.7-.8.8-.7 2 .2 2.8 1 .7 2 .6 2.8-.3zm7.6-9.3l1.2-1.7c.7-1 .6-2-.3-2.8-1-.7-2-.6-2.8.3l-1.3 1.6c-.6.8-.5 2 .4 2.8.8.7 2 .5 2.8-.3zm7.4-9.6l1.2-1.5c.7-1 .6-2.3-.3-3-1-.6-2.2-.5-3 .4l-1 1.6c-.8.8-.7 2 .2 2.8 1 .7 2 .5 2.8-.4zm7.3-9.5c.5-.6 1-1 1.3-1.7.6-1 .5-2-.4-2.8-1-.6-2.2-.5-2.8.4l-1.2 1.5c-.7 1-.5 2 .3 2.8 1 .7 2.2.5 2.8-.4zm7.3-9.7l1.2-1.6c.6-1 .4-2-.4-2.8-1-.7-2.2-.6-2.8.3l-1.2 1.6c-.7.8-.5 2 .4 2.7 1 .7 2 .5 2.8-.4zm7-9.7c.5-.5 1-1 1.3-1.6.5-1 .3-2-.6-2.8-1-.6-2-.4-2.8.5-.4.5-.8 1-1 1.6-.8 1-.6 2 .3 2.8.8.7 2 .5 2.7-.4zm7-9.7c.5-.7 1-1.2 1.3-1.8.5-1 .3-2-.6-2.8-1-.6-2.2-.4-2.8.5l-1.2 1.6c-.6 1-.4 2 .5 2.7.8.7 2 .5 2.7-.4zm7-10c.4-.5.8-1 1-1.6.8-1 .5-2.2-.4-2.8-1-.7-2-.4-2.8.5l-1 1.7c-.7 1-.5 2.2.4 2.8 1 .7 2.2.4 2.8-.5zm6.8-10l1-1.6c.7-1 .5-2.2-.4-2.8-1-.6-2.2-.3-2.8.6-.4.5-.8 1-1 1.6-.8 1-.5 2.2.4 2.8 1 .6 2.2.4 2.8-.5zm6.6-10c.4-.5.8-1 1-1.6.8-1 .5-2.2-.4-2.8-1-.6-2.2-.3-2.8.6l-1 1.7c-.7.8-.4 2 .5 2.6 1 .6 2 .4 2.7-.5zm6.6-10l1-1.7c.7-1 .4-2.2-.5-2.8-1-.6-2-.3-2.7.6l-1 1.8c-.7 1-.4 2.2.5 2.8 1 .6 2.2.3 2.8-.6zm6.4-10l1-1.8c.6-1 .3-2.2-.6-2.8-1-.6-2.2-.3-2.8.6l-1 1.7c-.6 1-.3 2.2.6 2.8 1 .6 2.2.3 2.8-.6zm6.3-10.3l1-1.7c.6-1 .3-2.2-.7-2.8-1-.6-2.2-.2-2.7.7-.5.5-.8 1-1.2 1.6-.5 1-.2 2.2.7 2.7 1 .6 2.2.3 2.8-.6zm6.2-10.4l1-1.7c.6-1 .2-2.2-.7-2.7-1-.7-2.2-.4-2.7.6l-1 1.7c-.5 1-.2 2.2.7 2.7 1 .6 2.2.3 2.8-.7zm6-10.3l1-1.7c.6-1 .2-2.2-.7-2.8-1-.5-2.2-.2-2.8.8l-1 1.7c-.5 1-.2 2.2.8 2.7 1 .6 2.2.3 2.7-.7zm6-10.5l1-1.7c.5-1 .2-2.2-.8-2.8-1-.5-2.2-.2-2.7.8l-1 1.7c-.5 1-.2 2.2.8 2.8 1 .5 2.2.2 2.7-.8zm5.8-10.5l1-1.7c.5-1 0-2.2-.8-2.8-1-.5-2.2 0-2.8.8l-1 1.8c-.4 1 0 2.3 1 2.8s2 .2 2.6-.8zm5.7-10.6l1-1.8c.5-1 0-2.2-1-2.7-.8-.6-2-.3-2.6.7l-1 1.8c-.4 1 0 2.2 1 2.7s2 0 2.6-.8zm5.6-10.7l1-1.7c.4-1 0-2.2-1-2.7s-2-.2-2.6.8l-1 2c-.5 1 0 2 1 2.6 1 .5 2 0 2.6-1zm5.5-10.7l1-1.8c.4-1 0-2.2-1-2.7-1-.4-2 0-2.6 1l-1 1.7c-.4 1 0 2.2 1 2.7 1 .4 2.2 0 2.7-1zm5.4-10.8l1-1.8c.3-1 0-2.2-1-2.6-1-.5-2.3 0-2.7 1l-1 1.7c-.4 1 0 2.2 1 2.7s2.2 0 2.7-1zm5.2-10.8l.8-1.8c.5-1 0-2.2-1-2.7-1-.6-2 0-2.6 1l-.8 1.7c-.5 1 0 2.2 1 2.6 1 .5 2 0 2.6-1zm5-11l1-1.8c.4-1 0-2-1-2.6-1-.5-2.3 0-2.7 1l-1 1.8c-.4 1 0 2.2 1 2.7 1 .4 2.2 0 2.7-1zm5-10.8l.8-2c.4-1 0-2-1-2.5-1-.3-2.2 0-2.7 1l-.8 2c-.5 1 0 2 1 2.6 1 .4 2 0 2.6-1zm4.8-11l.8-2c.4-1 0-2-1-2.5-1-.4-2.2 0-2.7 1l-.8 2c-.4 1 0 2 1 2.6 1 .4 2.3 0 2.7-1zm4.7-11l1-2c.3-1-.2-2-1.2-2.6-1-.4-2.2 0-2.6 1l-.8 2c-.4 1 0 2 1 2.6 1 .4 2.3 0 2.7-1zm4.7-11.3l.7-2c.4-1 0-2-1-2.5-1-.4-2.3 0-2.7 1.2l-.7 1.8c-.5 1 0 2.2 1 2.6 1 .4 2.3 0 2.7-1zm4.4-11.2c.3-.5.6-1 .8-1.7.4-1 0-2.2-1-2.6-1.2-.4-2.3 0-2.7 1l-.6 2c-.4 1 0 2.2 1 2.6 1 .4 2.3 0 2.7-1.2zm4.4-11l.7-2c.5-1 0-2-1-2.5-1-.4-2.3 0-2.7 1.2l-.7 1.8c-.4 1 .2 2.2 1.2 2.6 1 .5 2.2 0 2.6-1zm4-11.4c.4-.6.6-1.2.8-1.8.4-1 0-2.2-1.2-2.6-1-.4-2.2.2-2.5 1.2l-.7 2c-.4 1 0 2 1.2 2.4 1 .4 2.2 0 2.5-1.2zm4.2-11.3l.6-2c.4-1-.2-2-1.2-2.4-1-.5-2.2 0-2.5 1l-.7 2c-.4 1 .2 2.2 1.2 2.5 1 .4 2.2-.2 2.6-1.2zm4-11.4c0-.8.3-1.4.5-2 .5-1 0-2.2-1-2.5-1.2-.4-2.3.2-2.7 1.2l-.6 2c-.4 1 .2 2 1.3 2.4 1 .5 2 0 2.5-1zm3.6-11.5l.7-2c.2-1-.4-2-1.4-2.4-1-.3-2.2.3-2.6 1.4l-.6 2c-.3 1 .3 2 1.3 2.4 1 .3 2.2-.2 2.5-1.3zm3.7-11.4c0-.6.2-1.2.4-1.8.4-1-.2-2.2-1.3-2.5-1-.4-2 .2-2.4 1.3l-.6 2c-.3 1 .3 2 1.4 2.4 1 .3 2-.3 2.5-1.3zm3.4-11.5l.5-2c.3-1-.4-2-1.4-2.4-1-.2-2.2.4-2.5 1.4 0 .7-.3 1.3-.5 2-.3 1 .3 2 1.4 2.4 1 .4 2-.2 2.4-1.3zm3.3-11.5l.6-2c.3-1-.3-2.2-1.4-2.5-1.2-.3-2.3.4-2.6 1.4l-.5 2c-.4 1 .2 2 1.3 2.3 1 .3 2-.3 2.4-1.3zm3.3-11.6c0-.7.3-1.3.5-2 .3-1-.4-2.2-1.4-2.4-1-.3-2 .3-2.4 1.4l-.5 2c-.2 1 .4 2 1.5 2.4 1 .2 2.2-.4 2.5-1.4zm3-11.6l.5-2c.3-1-.3-2-1.4-2.4-1-.3-2 .4-2.3 1.5-.2.5-.4 1-.5 1.8-.3 1 .3 2.2 1.4 2.4 1 .3 2-.3 2.4-1.4zm3-11.7c0-.6.3-1.2.5-2 .2-1-.4-2-1.5-2.3-1-.2-2.2.4-2.4 1.5l-.5 2c-.2 1 .5 2 1.6 2.3 1 .3 2-.3 2.4-1.4zm2.8-11.6c0-.6.3-1.3.4-2 .3-1-.4-2-1.4-2.3-1-.2-2.2.5-2.4 1.6l-.5 2c-.4 1 .3 2 1.4 2.3 1 .2 2-.5 2.4-1.6zm2.7-11.7c0-.6.3-1.3.4-2 0-1-.5-2-1.6-2.3-1-.3-2.2.4-2.4 1.5l-.4 1.8c-.3 1 .4 2.2 1.5 2.4 1.2.3 2.2-.4 2.5-1.5zm2.5-11.8c0-.7.3-1.4.4-2 .2-1-.5-2.2-1.5-2.4-1.2-.2-2.3.5-2.5 1.6 0 .6-.3 1.3-.4 2 0 1 .6 2 1.6 2.3 1 .2 2.2-.5 2.4-1.6zm2.4-12c0-.5.3-1.2.4-1.8.2-1-.5-2.2-1.6-2.4-1-.2-2 .5-2.3 1.6-.3.6-.4 1.3-.5 2-.2 1 .5 2 1.6 2.3 1 .2 2.2-.5 2.4-1.6zm2.3-11.6c0-.7.2-1.3.3-2 .2-1-.5-2-1.6-2.3-1 0-2 .6-2.3 1.7 0 .6 0 1.3-.3 2-.2 1 .5 2 1.6 2.3 1 .2 2.2-.5 2.4-1.6zm2-12l.4-2c.3-1-.4-2-1.5-2.2-1-.2-2 .5-2.3 1.6 0 .7-.2 1.3-.3 2-.3 1 .4 2 1.5 2.3 1 .3 2-.4 2.3-1.5zm2-11.8l.4-2c.3-1-.5-2-1.6-2.3-1 0-2 .6-2.3 1.7 0 .7 0 1.3-.2 2 0 1 .6 2 1.7 2.3 1 0 2-.6 2.3-1.7zm2-11.8c0-.7 0-1.3.2-2 0-1-.7-2-1.8-2.2-1-.2-2 .5-2.2 1.6 0 .7-.2 1.4-.3 2-.2 1 .6 2 1.6 2.3 1 .2 2.2-.6 2.3-1.7zm1.6-12l.3-2c0-1-.6-2-1.7-2.2-1.2 0-2.2.6-2.4 1.7 0 .7 0 1.4-.2 2-.2 1 .6 2 1.7 2.3 1.2 0 2.2-.6 2.3-1.7zm1.6-11.8v-2c.3-1-.5-2-1.6-2.2-1-.2-2 .6-2.2 1.7 0 .7-.2 1.3-.3 2-.2 1 .6 2 1.7 2.2 1 0 2-.6 2.2-1.7zm1.3-12c0-.7.2-1.4.3-2 0-1-.7-2-1.8-2.3-1 0-2 .7-2.2 1.8l-.2 2c-.2 1 .6 2 1.7 2.2 1.2 0 2.2-.7 2.3-1.8zm1.3-12l.2-2c0-1-.7-2-1.8-2-1-.2-2 .6-2.2 1.7 0 .6 0 1.3-.2 2 0 1 .7 2 1.8 2.2 1 0 2-.8 2.2-2zm1.2-12v-2c.2-1-.6-2-1.7-2-1-.2-2 .6-2 1.7l-.2 2c0 1 .7 2 1.8 2.2 1 0 2-.8 2.2-2zm1-12v-2c.2-1-.6-2-1.7-2-1 0-2 .7-2 1.8l-.2 2c0 1 .7 2 1.8 2 1 .2 2-.6 2.2-1.7zm1-12v-2c0-1-.8-2-2-2-1 0-2 .8-2 2v2c-.2 1 .6 2 1.7 2 1 0 2-.8 2.2-2zm.6-12v-2c.2-1-.7-2-1.8-2-1 0-2 .8-2 2l-.2 2c0 1 .8 2 2 2 1 0 2-.8 2-2zm.6-12v-2c0-1-.7-2-1.8-2-1 0-2 .8-2 2l-.2 2c0 1 .8 2 2 2 1 0 2-1 2-2zm.4-12v-2c0-1-.7-2-1.8-2-1 0-2 .8-2 2v2c-.2 1 .7 2 1.8 2 1 0 2-1 2-2zm.4-12v-2c0-1-.8-2-2-2-1 0-2 .8-2 2v2c0 1 .8 2 2 2 1 0 2-1 2-2zm.2-12v-2c0-1.2-1-2-2-2s-2 .8-2 2v2c0 1 .8 2 2 2 1 0 2-1 2-2zm0-12v-2c0-1.2-1-2-2-2s-2 .8-2 2v2c0 1 1 2 2 2s2-1 2-2zm0-12v-2c0-1-1-2-2.2-2-1 0-2 1-2 2v2c0 1 1 2 2 2 1.2 0 2-1 2-2zm-.3-12v-2c0-1.2-1-2-2-2-1.2 0-2 1-2 2v2c0 1 1 2 2 2s2-1 2-2zm-.4-12v-2c0-1.2-1-2-2-2-1.2 0-2 1-2 2v2c0 1.2 1 2 2 2 1.2 0 2-1 2-2zm-.5-12v-2c0-1-1-2-2.2-2-1 0-2 1-2 2.2l.2 2c0 1 1 2 2 1.8 1.2 0 2-1 2-2zm-.6-12c0-.8 0-1.5-.2-2 0-1.2-1-2-2-2-1.2 0-2 1-2 2 0 .8 0 1.5.2 2 0 1.2 1 2 2 2 1.2 0 2-1 2-2zm-.8-12c0-.8 0-1.5-.2-2 0-1.2-1-2-2-2-1.2 0-2 1-2 2.2 0 .6 0 1.3.2 2 0 1 1 2 2 1.8 1.2 0 2-1 2-2zm-1-12v-2c-.2-1.2-1.2-2-2.3-2-1 .2-1.8 1-1.7 2.2 0 .7 0 1.4.2 2 0 1 1 2 2 2 1.2-.2 2-1.2 2-2.3zm-1-12c0-.7 0-1.3-.2-2 0-1-1-2-2.2-1.8-1 0-2 1-1.8 2.2l.2 2c0 1 1 1.8 2.2 1.7 1 0 2-1 1.8-2zm-1.2-12c0-.7 0-1.4-.2-2 0-1.2-1-2-2.2-1.8-1 0-2 1-1.8 2.2l.2 2c0 1 1 2 2.2 1.8 1-.2 2-1 1.8-2.2zm-1.3-12l-.4-2c0-1-1-2-2.2-1.8-1 .2-2 1.2-1.7 2.3 0 .6 0 1.3.2 2 0 1 1 2 2 1.7 1.2 0 2-1 2-2.2zm-1.6-12l-.3-2c0-1-1-1.8-2-1.6-1.2 0-2 1-1.8 2.2 0 .7 0 1.3.2 2 .2 1 1.2 2 2.3 1.7 1 0 1.8-1 1.7-2.2zm-1.6-11.8l-.3-2c-.2-1-1.2-1.8-2.3-1.6-1 0-1.8 1-1.7 2.2 0 .7.2 1.3.3 2 .2 1 1.2 1.8 2.3 1.7 1.2-.2 2-1.2 1.8-2.3zm-1.8-12l-.3-2c0-1-1.2-1.7-2.3-1.5-1 0-1.8 1.2-1.6 2.3l.3 2c.2 1 1.3 1.7 2.4 1.6 1-.2 1.8-1.2 1.6-2.3zm-2-11.8c0-.7 0-1.3-.2-2-.2-1-1.2-1.8-2.3-1.7-1 .2-1.8 1.3-1.6 2.3 0 .7 0 1.4.2 2 .2 1 1.2 2 2.3 1.7 1-.2 1.8-1.2 1.6-2.3zm-2-11.8c0-.7 0-1.4-.3-2 0-1-1.2-1.8-2.3-1.6-1 .2-1.8 1.2-1.6 2.3 0 .6.2 1.3.4 2 .2 1 1.2 1.8 2.3 1.6 1-.3 1.8-1.4 1.6-2.4zm-2-11.8l-.4-2c-.2-1-1.3-1.8-2.4-1.6-1 .2-1.8 1.3-1.6 2.4l.4 2c.2 1 1.3 1.7 2.3 1.5 1 0 1.8-1 1.6-2.2zm-2.4-12c0-.5-.2-1.2-.4-1.8-.2-1-1.2-1.8-2.3-1.6-1.2.2-2 1.3-1.7 2.4 0 .6.3 1.3.4 2 .2 1 1.3 1.7 2.4 1.5 1-.2 1.8-1.3 1.6-2.4zm-2.4-11.7l-.4-1.8c-.3-1-1.3-1.8-2.4-1.5-1 .2-1.8 1.3-1.5 2.4 0 .7 0 1.3.3 2 .2 1 1.3 1.7 2.3 1.5 1-.2 1.8-1.3 1.6-2.4zm-2.6-11.6l-.5-2c0-1-1.2-1.8-2.3-1.5-1 0-1.7 1.2-1.5 2.3l.5 2c.2 1 1.3 1.7 2.4 1.5 1.2-.3 1.8-1.3 1.6-2.4zm-2.7-11.7l-.6-2c-.3-1-1.3-1.7-2.4-1.4-1 .2-1.7 1.3-1.5 2.4l.5 2c.2 1 1.3 1.6 2.4 1.4 1-.2 1.7-1.2 1.5-2.3zm-3-11.7c0-.6-.3-1.2-.5-2-.2-1-1.3-1.6-2.4-1.3-1 .2-1.6 1.3-1.3 2.4 0 .7.3 1.4.4 2 .4 1 1.5 1.7 2.6 1.5 1-.3 1.7-1.4 1.4-2.5zm-3-11.7l-.5-2c-.3-1-1.4-1.6-2.4-1.3-1 .3-1.6 1.4-1.4 2.5l.5 2c.4 1 1.5 1.6 2.6 1.3 1-.3 1.7-1.4 1.4-2.5zm-3-11.5c-.3-.6-.5-1.3-.6-2-.3-1-1.4-1.6-2.5-1.3-1.2.3-1.8 1.4-1.5 2.4l.5 2c.3 1 1.4 1.6 2.5 1.3 1-.3 1.7-1.4 1.4-2.5zm-3.4-11.6l-.5-2c-.2-1-1.3-1.6-2.4-1.3-1 .2-1.7 1.4-1.4 2.4l.6 2c.3 1 1.4 1.6 2.5 1.3 1-.3 1.6-1.4 1.3-2.5zm-3.4-11.5l-.5-2c-.4-1-1.5-1.6-2.5-1.2-1 .3-1.7 1.4-1.4 2.5l.6 2c.3 1 1.4 1.5 2.5 1.2 1-.3 1.6-1.4 1.2-2.5zm-3.5-11.6l-.6-1.7c-.3-1-1.4-1.7-2.4-1.3-1 .3-1.7 1.4-1.3 2.5l.6 1.8c.2 1 1.3 1.7 2.4 1.3 1-.3 1.6-1.4 1.3-2.5zm-3.7-11.3l-.6-2c-.4-1-1.5-1.5-2.5-1.2-1.2.4-1.8 1.5-1.4 2.5l.6 2c.4 1 1.5 1.6 2.5 1.2 1-.3 1.7-1.4 1.3-2.5zm-3.8-11.4l-.7-2c-.3-1-1.5-1.5-2.5-1.2-1 .5-1.6 1.6-1.2 2.7l.6 2c.4 1 1.5 1.5 2.5 1 1-.2 1.5-1.4 1.2-2.4zm-4-11.3l-.6-2c-.4-1-1.5-1.5-2.5-1-1 .3-1.5 1.4-1.2 2.5l.7 1.8c.4 1 1.5 1.6 2.6 1.2 1-.3 1.6-1.5 1.3-2.5zm-4-11.3l-.7-2c-.4-1-1.5-1.5-2.6-1-1 .2-1.6 1.4-1.3 2.4l.7 2c.4 1 1.6 1.6 2.6 1.2 1-.4 1.6-1.5 1.2-2.5zm-4.2-11.3l-.7-2c-.4-1-1.6-1.4-2.6-1-1 .3-1.6 1.5-1.2 2.5l.7 1.8c.4 1 1.6 1.6 2.6 1.2 1-.4 1.6-1.6 1.2-2.6zm-4.3-11.2l-.8-2c-.5-1-1.7-1.4-2.7-1-1 .4-1.5 1.6-1 2.6 0 .6.4 1.2.6 2 .3 1 1.5 1.4 2.5 1 1-.4 1.6-1.6 1.2-2.6zm-4.5-11.2l-.8-2c-.4-1-1.6-1.4-2.6-1-1 .5-1.5 1.6-1 2.6l.6 2c.5 1 1.6 1.4 2.7 1 1-.5 1.6-1.6 1.2-2.6zm-4.6-11l-.8-2c-.5-1-1.6-1.5-2.6-1-1 .4-1.5 1.6-1 2.6l.7 1.8c.3 1 1.5 1.5 2.5 1 1-.3 1.5-1.5 1-2.5zm-4.8-11.2l-.8-2c-.4-1-1.6-1.3-2.6-1-1 .6-1.5 1.7-1 2.7l.7 2c.6 1 1.8 1.4 2.8 1 1-.5 1.5-1.7 1-2.7zm-4.8-11l-.8-1.8c-.5-1-1.7-1.4-2.7-1-1 .5-1.4 1.7-1 2.7l.8 1.8c.5 1 1.7 1.4 2.7 1 1-.5 1.4-1.7 1-2.7zm-5-11l-1-1.8c-.3-1-1.5-1.4-2.5-1-1 .5-1.5 1.7-1 2.7l1 2c.3 1 1.5 1.3 2.5.8 1-.4 1.4-1.6 1-2.6zm-5-10.8l-1-1.8c-.5-1-1.7-1.4-2.7-1-1 .5-1.4 1.7-1 2.7l1 1.7c.4 1 1.6 1.4 2.6 1 1-.5 1.3-1.7 1-2.7zm-5.4-10.8l-1-1.8c-.4-1-1.6-1.4-2.5-1-1 .6-1.3 1.8-.8 2.7l.8 2c.5 1 1.7 1.3 2.7.8 1-.5 1.4-1.7 1-2.6zm-5.4-10.8l-1-1.8c-.4-1-1.6-1.4-2.6-1-1 .6-1.3 1.8-.8 2.8l1 1.8c.4 1 1.6 1.4 2.6 1 1-.6 1.3-1.8.8-2.8zm-5.4-10.7l-1-1.8c-.5-1-1.7-1.4-2.7-1-.8.6-1.2 1.8-.7 2.8l1 1.8c.4 1 1.6 1.3 2.6.8s1.3-1.7.8-2.7zm-5.6-10.6l-1-1.6c-.5-1-1.7-1.4-2.7-1-1 .7-1.3 2-.8 3l1 1.6c.4 1 1.7 1.3 2.6.8 1-.5 1.4-1.7 1-2.7zm-5.8-10.4l-1-1.8c-.5-1-1.7-1.3-2.7-.8-1 .5-1.3 1.8-.8 2.7l1 1.8c.5 1 1.7 1.3 2.6.8 1-.5 1.4-1.8.8-2.7zm-6-10.6c-.2-.6-.5-1-1-1.7-.4-1-1.6-1.3-2.6-.8-1 .6-1.3 1.8-.7 2.8l1 1.7c.6 1 1.8 1.3 2.8.7 1-.5 1.3-1.7.7-2.7zm-5.8-10.4l-1-1.7c-.6-1-1.8-1.4-2.8-.8-1 .6-1.2 1.8-.7 2.7.4.5.8 1 1 1.6.7 1 2 1.3 2.8.8 1-.6 1.3-1.8.8-2.8zm-6.2-10.4l-1-1.7c-.6-1-1.8-1.2-2.8-.7-1 .6-1.2 1.8-.6 2.8l1 1.7c.6 1 1.8 1.3 2.7.7 1-.6 1.3-1.8.7-2.8zm-6.2-10.2l-1-1.7c-.6-1-1.8-1.2-2.8-.6-1 .5-1.2 1.8-.6 2.7l1 1.7c.6 1 1.8 1.3 2.8.8 1-.6 1.2-1.8.6-2.8zm-6.3-10.2l-1.2-1.7c-.6-.8-1.8-1-2.7-.5-1 .6-1.2 1.8-.6 2.7l1 1.7c.7.8 2 1 2.8.5 1-.6 1.3-1.8.7-2.7zm-6.6-10.2l-1-1.7c-.7-1-2-1.3-3-.7-.8.6-1 2-.5 2.8l1 1.8c.6 1 2 1.2 2.8.6 1-.6 1.2-2 .6-2.8zm-6.6-10l-1-1.7c-.7-1-2-1.3-3-.7-.8.6-1 2-.4 2.8l1 1.8c.7 1 2 1 2.8.5 1-.6 1.2-1.8.6-2.8zm-6.7-10l-1-1.6c-.6-1-2-1.2-2.8-.6-1 .7-1 2-.5 2.8.4.6.8 1 1 1.7.8.8 2 1 3 .4.8-.6 1-2 .4-2.8zm-6.7-10c-.4-.4-.7-1-1-1.5-.8-.8-2-1-3-.4-.8.6-1 2-.4 2.8l1 1.6c.7 1 2 1 2.8.5 1-.6 1.2-2 .5-2.8zm-7-9.7l-1-1.7c-.7-1-2-1-2.8-.5-1 .7-1.2 2-.5 2.8.4.5.8 1 1 1.6.8 1 2 1 3 .5.8-.7 1-2 .4-2.8zm-7-10l-1-1.5c-.8-1-2-1-3-.4-.8.8-1 2-.4 3l1 1.5c.8 1 2 1 3 .4.8-.7 1-2 .3-3zm-7.2-9.6l-1-1.6c-.7-1-2-1-3-.4-.7.7-1 2-.3 2.8l1.2 1.6c.6 1 2 1 2.7.4 1-.7 1-2 .4-2.8zm-7-9.6l-1.4-1.6c-.6-.8-2-1-2.8-.3-.8.6-1 1.8-.3 2.7l1.2 1.6c.7 1 2 1 2.8.3 1-.6 1-2 .4-2.8zm-7.5-9.4l-1.2-1.6c-.7-1-2-1-2.8-.3-1 .7-1 2-.4 2.8l1.4 1.5c.6 1 2 1 2.8.4.8-.7 1-2 .3-2.8zM804 385l-1.2-1.6c-.7-1-2-1-3-.3-.7.8-1 2-.2 3 .5.4 1 1 1.3 1.5.6.8 2 1 2.7.3 1-.7 1-2 .3-2.8zm-7.6-9.3l-1.2-1.6c-.7-.7-2-.8-2.8 0-1 .6-1 1.8-.3 2.7.5.5 1 1 1.3 1.5.8 1 2 1 3 .3.7-.7.8-2 0-2.8zm-7.7-9.3l-1.3-1.5c-.7-1-2-1-2.8-.3-.8.7-1 2-.2 2.8.4.5 1 1 1.3 1.5.7 1 2 1 2.8.3.8-.7 1-2 .2-3zm-7.8-9l-1.4-1.6c-.7-1-2-1-2.8-.2-1 .7-1 2-.2 2.8l1.3 1.5c.6.7 1.8.8 2.7 0 .8-.6 1-2 .2-2.7zm-8-9.2l-1.4-1.5c-.7-.8-2-1-2.8 0-.8.6-1 2 0 2.7l1.2 1.5c.7.7 2 .8 2.8 0 .8-.7 1-2 .2-2.8zm-8-9l-1.4-1.4c-.7-.8-2-1-2.8 0-.8.6-1 2 0 2.7l1.2 1.5c.8.8 2 1 2.8 0 1-.6 1-2 .2-2.7zm-8.2-8.8l-1.4-1.5c-.7-1-2-1-2.8-.2-.8.8-.8 2 0 2.8l1.3 1.5c.6 1 2 1 2.7.2.8-.7 1-2 0-2.8zm-8.2-8.8l-1.4-1.4c-.8-.8-2-1-2.8 0-.8.7-1 2 0 2.7l1.3 1.4c.8.8 2 .8 2.8 0 .8-.7 1-2 0-2.8zm-8.3-8.6l-1.4-1.5c-1-.7-2-.8-3 0-.7.8-.7 2 0 2.8l1.4 1.5c.8.8 2 .8 3 0 .6-.8.7-2 0-2.8zm-8.5-8.6l-1.4-1.5c-.8-1-2-1-2.8 0-.8.7-.8 2 0 2.8l1.4 1.4c.8.8 2 .8 2.8 0 .8-.8.8-2 0-2.8zm-8.5-8.5l-1.4-1.5c-1-.8-2.2-.7-3 0-.7.8-.7 2 0 3 .6.3 1 .8 1.5 1.3.8.7 2 .7 2.8 0 .8-1 .8-2 0-3zm-8.6-8.5l-1.4-1.3c-.8-.8-2-.8-3 0-.6.8-.6 2 .2 2.8l1.4 1.4c.7.8 2 .8 2.8 0 .7-.8.7-2 0-3zm-8.8-8.3c-.6-.4-1-1-1.5-1.4-.8-.7-2-.7-3 0-.6 1-.6 2.2.2 3 .5.4 1 1 1.5 1.3.8 1 2 1 2.8 0 .8-.8.7-2 0-2.8zm-9-8c-.3-.6-.8-1-1.3-1.5-.8-.7-2-.7-2.8.2-1 .7-.8 2 0 2.7l1.4 1.3c1 .8 2 .7 3 0 .6-1 .6-2.2-.3-3zm-8.7-8.2c-.5-.4-1-1-1.5-1.3-1-.8-2-.7-3 0-.6 1-.5 2.2.3 3l1.6 1.3c.8.7 2 .7 2.8-.2.7-.8.7-2 0-2.8zm-9-8c-.6-.4-1-1-1.6-1.3-.8-.8-2-.7-2.8.2-1 .7-.8 2 0 2.7.6.4 1 1 1.6 1.3.8.7 2 .6 2.8-.2.7-.8.6-2-.2-2.8zm-9.2-8c-.4-.3-1-.7-1.4-1.2-1-.7-2-.6-2.8.3-.7 1-.6 2.2.2 3l1.5 1.2c1 .7 2 .6 2.8-.2.8-1 .7-2-.2-3zm-9-7.6l-1.6-1.3c-.8-.6-2-.5-2.8.4-.7.8-.6 2 .3 2.8l1.4 1.3c.8.7 2 .6 2.8-.3.7-.8.6-2-.2-2.8zm-9.3-7.6c-.5-.5-1-1-1.6-1.3-.7-.7-2-.6-2.7.3-.7 1-.5 2 .3 2.8l1.6 1.3c.8.6 2 .4 2.8-.4.7-1 .6-2-.3-2.8zm-9.4-7.6c-.6-.4-1-1-1.6-1.3-1-.8-2-.6-2.8.2-.8 1-.6 2.2.2 3l1.6 1c.8.8 2 .6 2.8-.2.7-1 .5-2-.3-2.8zm-9.5-7.5l-1.6-1.2c-.8-.7-2-.5-2.8.4-.6.7-.5 2 .4 2.7l1.6 1.2c.8.6 2 .4 2.8-.5.7-.8.5-2-.4-2.8zm-9.5-7.3l-1.6-1.2c-1-.7-2-.5-2.8.4-.8 1-.6 2 .3 2.8l1.6 1.2c.8.7 2 .5 2.7-.4.7-1 .5-2-.4-2.8zm-9.6-7.2L612 201c-.8-.6-2-.4-2.7.4-.7 1-.5 2.2.4 2.8l1.6 1.2c1 .7 2.2.5 2.8-.4.8-1 .6-2-.3-2.8zm-9.7-7c-.6-.5-1-1-1.6-1.3-1-.7-2.2-.5-2.8.4-.7 1-.5 2 .4 2.8l1.6 1.2c1 .6 2.2.4 2.8-.5.7-1 .5-2.2-.4-3zm-9.8-7c-.5-.5-1-.8-1.6-1.2-1-.7-2.2-.4-2.8.5-.7 1-.4 2 .5 2.7l1.6 1.2c.8.6 2 .4 2.7-.5.6-1 .4-2.2-.5-3zm-10-7l-1.5-1c-1-.7-2.2-.5-2.8.4-.7 1-.5 2.2.4 2.8.6.4 1 .8 1.7 1 1 .8 2.2.5 3-.4.5-1 .2-2-.7-2.7zm-9.8-6.7c-.6-.4-1-.8-1.7-1-1-.7-2-.5-2.8.4-.7.8-.4 2 .5 2.7l1.7 1c1 .7 2 .5 2.7-.4.5-1 .3-2.2-.6-2.8zm-10-6.7l-1.7-1c-1-.7-2.2-.4-2.8.5-.7 1-.4 2.2.5 2.8.5.5 1 .8 1.7 1.2 1 .6 2 .3 2.7-.6.5-1 .3-2.2-.6-2.8zm-10-6.4c-.6-.4-1.2-.8-1.8-1-1-.7-2-.4-2.7.5-.7.8-.4 2 .5 2.7l1.7 1c1 .6 2 .3 2.7-.6.5-.8.2-2-.7-2.6zM544 155l-1.7-1c-1-.6-2.2-.4-2.7.6-.6 1-.3 2.2.6 2.7l1.7 1c1 .7 2.3.4 2.8-.6.6-1 .3-2-.6-2.7zm-10.3-6.3l-1.8-1c-1-.6-2.2-.3-2.7.6-.6 1-.3 2.2.6 2.8.7.4 1.3.8 2 1 .8.7 2 .4 2.6-.6.6-1 .3-2.2-.7-2.7zm-10.4-6.2l-1.8-1c-1-.6-2-.3-2.7.7-.5 1 0 2.2.8 2.7l1.7 1c1 .5 2.2.2 2.8-.8.5-1 .2-2.2-.7-2.7zm-10.4-6l-1.7-1c-1-.6-2.2-.2-2.7.7-.6 1-.3 2.2.7 2.7l1.7 1c1 .5 2.2.2 2.8-.8.5-1 .2-2.2-.8-2.7zm-10.5-6l-1.7-1c-1-.5-2.2-.2-2.8.8-.5 1-.2 2.2.8 2.7l1.8 1c1 .5 2 .2 2.7-.8.5-1 .2-2.2-.8-2.7zm-10.5-5.8l-1.7-1c-1-.5-2.2 0-2.8 1-.5.8 0 2 1 2.6l1.6 1c1 .5 2.2 0 2.7-1 .5-.8.2-2-.8-2.6zm-10.6-5.6l-1.7-1c-1-.4-2.3 0-2.8 1-.6 1-.2 2 .8 2.7l1.8 1c1 .4 2.2 0 2.7-1s0-2-1-2.6zm-10.7-5.5l-2-1c-.8-.5-2 0-2.6 1-.5 1 0 2 1 2.6l1.7 1c1 .5 2.3 0 2.8-.8.5-1 0-2.2-1-2.7zM460 108l-1.8-1c-1-.4-2.2 0-2.7 1s0 2.2 1 2.7l1.7 1c1 .4 2.2 0 2.7-1 .6-1 .2-2.2-.8-2.7zm-10.8-5.3l-1.8-.8c-1-.6-2.2-.2-2.7.8-.6 1 0 2.2 1 2.7l1.7.8c1 .5 2 0 2.6-1 .5-1 0-2-1-2.6zm-11-5.2l-1.7-.8c-1-.5-2.2 0-2.6 1-.4 1 0 2 1 2.6l1.8 1c1 .3 2.2 0 2.7-1s0-2.3-1-2.8zm-10.7-5l-1.8-.8c-1-.5-2.3 0-2.8 1-.4 1 0 2.2 1 2.6l1.8 1c1 .3 2.2 0 2.7-1 .4-1 0-2.3-1-2.8zm-11-5L415 87c-1-.5-2.3 0-2.8 1-.4 1 0 2.2 1 2.6l2 .8c1 .5 2 0 2.5-1s0-2.2-1-2.6zm-11-4.7l-2-.8c-1-.4-2 0-2.5 1s0 2.2 1 2.7l2 .7c1 .5 2 0 2.5-1 .4-1 0-2.2-1-2.6zm-11-4.7c-.7 0-1.4-.4-2-.6-1-.5-2.2 0-2.6 1-.3 1 .2 2.2 1.2 2.7.6.3 1.2.6 2 .8 1 .4 2 0 2.5-1 .4-1 0-2.3-1-2.7zm-11.2-4.4l-2-.7c-1-.6-2 0-2.5 1-.4 1 0 2.2 1 2.6l2 .7c1 .4 2.2 0 2.6-1 .4-1 0-2.3-1-2.7zm-11.3-4.4l-2-.8c-1-.4-2 .2-2.4 1.2-.4 1 0 2.2 1 2.6l2 .7c1 .3 2.2-.2 2.6-1.2.4-1 0-2.2-1.2-2.6zM361 65l-2-.8c-1-.4-2 0-2.5 1.2-.4 1 .2 2.2 1.2 2.5l2 .6c1 .4 2 0 2.5-1 .3-1.2-.2-2.3-1.2-2.7zm-11.3-4.2l-2-.7c-1-.3-2 .2-2.5 1.3-.3 1 .2 2.2 1.3 2.5l1.8.7c1 .4 2.2 0 2.6-1.2.3-1-.3-2.2-1.3-2.5zm-11.3-4l-2-.7c-1-.2-2 .3-2.4 1.4-.4 1 .2 2 1.2 2.5.7 0 1.3.3 2 .6 1 .3 2-.2 2.5-1.3.3-1-.2-2.2-1.3-2.5zm-11.4-4c-.6 0-1.3-.3-2-.6-1-.3-2 .3-2.4 1.3-.4 1 .2 2.2 1.2 2.5l2 .7c1 .3 2-.2 2.5-1.3.3-1-.2-2.2-1.3-2.5zm-11.5-3.7c-.6 0-1.2-.3-2-.5-1-.3-2 .3-2.4 1.3-.2 1 .4 2.2 1.4 2.5l2 .6c1 .3 2-.3 2.4-1.4.4-1-.2-2-1.3-2.5zM304 45.6l-1.8-.6c-1-.4-2.2.2-2.5 1.3-.3 1 .3 2 1.3 2.5l2 .6c1 .3 2-.3 2.4-1.4.3-1-.3-2-1.3-2.5zM292.7 42c-.7 0-1.3-.3-2-.5-1-.3-2 .3-2.4 1.4-.3 1 .3 2 1.3 2.3l2 .6c1 .2 2-.4 2.4-1.5.3-1-.3-2-1.4-2.4zM281 38.8l-2-.5c-1-.3-2 .3-2.4 1.4-.2 1 .4 2 1.4 2.4l2 .6c1 .3 2-.3 2.4-1.4.3-1-.3-2.2-1.4-2.5zm-11.6-3.2c-.6 0-1.3-.3-2-.5-1-.3-2 .4-2.4 1.4-.2 1 .4 2.2 1.5 2.5.6 0 1.2.2 2 .4 1 .3 2-.4 2.3-1.4.3-1-.3-2.2-1.4-2.5zm-11.6-3l-2-.5c-1-.3-2 .3-2.4 1.4-.3 1 .4 2.2 1.4 2.4l2 .5c1 .3 2-.3 2.4-1.4.3-1.2-.4-2.3-1.4-2.5zm-11.7-3c-.5 0-1-.3-1.8-.4-1-.2-2.2.5-2.4 1.5-.3 1 .4 2.2 1.5 2.5.6 0 1.3.3 2 .4 1 .3 2-.4 2.3-1.4.3-1-.4-2.2-1.5-2.5zm-11.5-2.7l-2-.5c-1-.2-2 .4-2.4 1.5 0 1 .5 2.2 1.6 2.4.7 0 1.3.3 2 .5 1 .2 2-.5 2.4-1.5.2-1-.4-2.2-1.5-2.4zM222.8 24c-.7 0-1.3-.2-2-.3-1-.3-2 .4-2.4 1.5-.2 1 .5 2 1.6 2.4.6 0 1.2.3 2 .4 1 .2 2-.4 2.3-1.5.2-1-.5-2.2-1.5-2.4zM211 21.7l-2-.4c-1-.2-2 .5-2.3 1.5-.3 1 .4 2.2 1.5 2.4l2 .5c1 .2 2-.5 2.3-1.5.3-1-.4-2.2-1.5-2.4zm-11.8-2.4c-.7 0-1.3-.3-2-.4-1-.2-2 .5-2.3 1.6-.4 1 .4 2 1.4 2.3l2 .4c1 .3 2-.4 2.3-1.5.3-1-.5-2-1.5-2.3zM187.4 17c-.7 0-1.3-.3-2-.4-1-.2-2 .5-2.3 1.6 0 1 .6 2 1.7 2.3l2 .4c1 0 2-.6 2.3-1.7.2-1-.5-2-1.6-2.3zm-12-2c-.6-.3-1.2-.4-2-.5-1-.2-2 .6-2.2 1.7-.2 1 .5 2 1.6 2.3.7 0 1.3.2 2 .3 1 .2 2-.5 2.3-1.6.3-1-.4-2.2-1.5-2.3zm-11.8-2l-2-.4c-1-.2-2 .6-2.3 1.6 0 1 .6 2.2 1.7 2.3.7 0 1.3.2 2 .3 1 .2 2-.5 2.3-1.6 0-1-.6-2-1.7-2.3zm-11.8-2c-.7 0-1.3 0-2-.2-1-.2-2 .6-2.2 1.7-.2 1 .6 2 1.6 2.3.7 0 1.4 0 2 .2 1 .2 2-.6 2.3-1.6 0-1-.6-2.2-1.7-2.3zm-12-1.6l-2-.3c-1 0-2 .8-2.2 1.8 0 1 .6 2 1.7 2.3l2 .4c1 0 2-.7 2.3-1.8 0-1-.7-2-1.8-2.2zM128 8l-2-.4c-1 0-2 .7-2.3 1.8 0 1 .7 2 1.8 2.2.6 0 1.3 0 2 .2 1 .2 2-.6 2.2-1.7 0-1-.6-2-1.7-2zm-12-1.6c-.6 0-1.3 0-2-.2-1 0-2 .7-2.2 1.8 0 1 .7 2 1.8 2.2l2 .2c1 0 2-.6 2.2-1.7 0-1-.7-2-1.8-2.3zm-12-1.2l-2-.2c-1 0-2 .7-2 1.8-.3 1 .6 2 1.7 2.2.6 0 1.3 0 2 .2 1 0 2-.7 2-1.8.2-1-.6-2-1.7-2.2zM92 4h-2c-1-.2-2 .6-2 1.7-.2 1 .6 2 1.7 2.2h2c1 0 2-.7 2-1.8.2-1-.6-2-1.7-2.2zM80 3h-2c-1-.2-2 .7-2 1.8-.2 1 .7 2 1.8 2l2 .2c1 0 2-.7 2-1.8.2-1-.6-2-1.7-2zm-12-.8h-2c-1-.2-2 .6-2 1.8 0 1 .7 2 1.8 2l2 .2c1 0 2-.8 2-2 .2-1-.6-2-1.7-2zm-12-.7h-2c-1-.2-2 .7-2 1.8 0 1 .7 2 1.8 2l2 .2c1 0 2-.8 2-2 .2-1-.7-2-1.8-2zM44 1c-.6 0-1.3 0-2-.2-1 0-2 1-2 2s.8 2 2 2h2c1 .2 2-.7 2-1.8 0-1-.8-2-2-2zM32 .4h-2c-1 0-2 .8-2 2 0 1 1 2 2 2h2c1 0 2-.8 2-2 0-1-.8-2-2-2zM20 .2h-2c-1 0-2 .8-2 2 0 1 1 2 2 2h2c1 0 2-1 2-2s-1-2-2-2zM8 0c1 0 2 1 2 2S9 4 8 4H6C4.7 4 4 3 4 2s1-2 2-2h2z" fill-rule="nonzero" fill="#FD8247"/></svg>