<?xml version="1.0" encoding="UTF-8"?>
<svg width="40px" height="40px" viewBox="0 0 40 40" version="1.1" xmlns="http://www.w3.org/2000/svg" xmlns:xlink="http://www.w3.org/1999/xlink">
    <!-- Generator: sketchtool 49.2 (51160) - http://www.bohemiancoding.com/sketch -->
    <title>3EF65ABF-B927-4423-B9DE-4EB66767BA85</title>
    <desc>Created with sketchtool.</desc>
    <defs></defs>
    <g id="IndexPage(MainLanding)" stroke="none" stroke-width="1" fill="none" fill-rule="evenodd">
        <g id="IndexPage" transform="translate(-310.000000, -677.000000)">
            <g id="icons/maestro" transform="translate(310.000000, 677.000000)">
                <g id="card_logo_maestro" transform="translate(0.000000, 8.000000)">
                    <path d="M39.7451407,12.2571234 C39.7451407,18.7429207 34.5086389,24 28.0475012,24 C21.5876576,24 16.3504163,18.7429207 16.3504163,12.2571234 C16.3504163,5.7711405 21.5876576,0.513875591 28.0475012,0.513875591 C34.5086389,0.513875591 39.7451407,5.7711405 39.7451407,12.2571234" id="Fill-356" fill="#CC0000"></path>
                    <path d="M19.0113742,19.7144263 C18.6883912,19.3211845 18.3909216,18.9056734 18.1204441,18.4706764 L22.2661621,18.4706764 C22.5150087,18.0720529 22.7396363,17.6567273 22.9402295,17.2271121 L17.4467465,17.2271121 C17.2594645,16.8247771 17.0930737,16.4098226 16.9514567,15.983919 L23.434595,15.983919 C23.8250586,14.8129161 24.0360051,13.5602585 24.0360051,12.2571234 C24.0360051,11.4038316 23.9454146,10.5716957 23.7734774,9.77036599 L16.6134986,9.77036599 C16.7040891,9.34668934 16.8183441,8.93210606 16.9529357,8.52680172 L23.4338554,8.52680172 C23.2916838,8.10089813 23.1262174,7.68612927 22.9391203,7.28379419 L17.4478558,7.28379419 C17.6484491,6.85417902 17.8736312,6.43959573 18.1217383,6.04004434 L22.264868,6.04004434 C21.9945754,5.60616085 21.6963662,5.19139199 21.3739379,4.79759355 L19.0128532,4.79759355 C19.3761397,4.35498785 19.7708555,3.93947667 20.193488,3.55477159 C18.1173012,1.66502156 15.3616855,0.513875591 12.3391051,0.513875591 C5.87833715,0.513875591 0.641095849,5.7711405 0.641095849,12.2571234 C0.641095849,18.7429207 5.87833715,24 12.3391051,24 C15.3618704,24 18.117671,22.848854 20.193488,20.9598463 C20.6166752,20.5743989 21.0119456,20.1579598 21.3752321,19.7144263 L19.0113742,19.7144263" id="Fill-357" fill="#0066CC"></path>
                    <path d="M20.0267275,15.4305227 C19.5268157,15.5633972 19.0433582,15.6283498 18.5323537,15.6272364 C16.9019092,15.6257517 16.0527618,14.8802813 16.0527618,13.4546641 C16.0527618,11.7890934 17.133747,10.564087 18.6011285,10.564087 C19.8013605,10.564087 20.5674974,11.2509145 20.5674974,12.3270866 C20.5674974,12.6841404 20.5157314,13.0321009 20.3887198,13.523885 L17.4892686,13.523885 C17.3861063,14.2201771 17.8924888,14.5258255 18.7545778,14.5258255 C19.2709437,14.5258255 19.7377622,14.4326649 20.2550526,14.2238887 L20.0267275,15.4305227 L20.0267275,15.4305227 Z M19.2470944,12.5416158 C19.2470944,12.4365782 19.4083086,11.6890663 18.5691445,11.672921 C18.1058387,11.672921 17.7736119,11.9820954 17.6392051,12.5416158 L19.2470944,12.5416158 L19.2470944,12.5416158 Z" id="Fill-359" fill="#000066"></path>
                    <path d="M21.0089876,12.214997 C21.0089876,12.830191 21.3539711,13.2553523 22.138411,13.5717644 C22.7379723,13.8182132 22.8322604,13.889661 22.8322604,14.1099432 C22.8322604,14.4152205 22.5675143,14.555147 21.9792305,14.5514354 C21.5375555,14.5482806 21.1343353,14.4942771 20.6586426,14.3619594 L20.4480659,15.484155 C20.8710681,15.5826974 21.4639738,15.6149882 21.9895837,15.6272364 C23.5553207,15.6272364 24.2781961,15.112626 24.2781961,14.0002661 C24.2781961,13.3314397 23.976659,12.938198 23.2330773,12.6449833 C22.6115154,12.3955652 22.5386732,12.3419329 22.5386732,12.1160834 C22.5386732,11.8510767 22.7849315,11.7170887 23.2650613,11.7170887 C23.5562451,11.7170887 23.9546585,11.7438121 24.3329201,11.7898357 L24.5449759,10.6615159 C24.1596889,10.6078836 23.5752876,10.5648293 23.2367748,10.5648293 C21.5780439,10.5648293 21.0039958,11.3143825 21.0089876,12.214997" id="Fill-360" fill="#000066"></path>
                    <path d="M15.2579686,15.5468807 L14.0416522,15.5468807 L14.0706782,15.0354252 C13.6998117,15.4388738 13.2056311,15.6268652 12.5352613,15.6268652 C11.7417623,15.6268652 11.1982192,15.0821911 11.1982192,14.2988625 C11.1982192,13.1081883 12.1431338,12.4213607 13.767847,12.4213607 C13.9347924,12.4213607 14.1472179,12.4339801 14.3653747,12.4586621 C14.4104851,12.2992498 14.422687,12.2305856 14.422687,12.1441058 C14.422687,11.8182293 14.1669999,11.6981597 13.4833188,11.6981597 C12.8092514,11.7007578 12.35445,11.801156 11.9323722,11.9149159 L12.1401757,10.8225984 C12.8700765,10.6362772 13.3478028,10.564087 13.8885727,10.564087 C15.1466717,10.564087 15.8111254,11.0595827 15.8111254,11.9900753 C15.8216635,12.2385655 15.7356949,12.7370304 15.6922485,12.9552712 C15.6430708,13.2724256 15.2943897,15.112626 15.2579686,15.5468807 L15.2579686,15.5468807 Z M14.1902946,13.374494 C14.0362907,13.3592765 13.9691798,13.354637 13.8636141,13.354637 C13.0340638,13.354637 12.613465,13.6025705 12.613465,14.091942 C12.613465,14.3992607 12.8186802,14.5913349 13.1387051,14.5913349 C13.7347537,14.5913349 14.1651511,14.0908286 14.1902946,13.374494 L14.1902946,13.374494 Z" id="Fill-361" fill="#000066"></path>
                    <path d="M26.8409834,15.4696799 C26.4420153,15.579357 26.1308646,15.6272364 25.7945704,15.6272364 C25.0495096,15.6272364 24.6425918,15.2449438 24.6425918,14.5642404 C24.6191122,14.3771768 24.8012176,13.5131214 24.8426305,13.2724256 C24.8836735,13.0309874 25.5290847,9.51129784 25.5290847,9.51129784 L26.9766843,9.51129784 L26.757788,10.6759911 L27.5002605,10.6759911 L27.2985579,11.8642528 L26.5527576,11.8642528 C26.5527576,11.8642528 26.1436212,13.9273336 26.1436212,14.0850756 C26.1436212,14.3350504 26.2944822,14.4437997 26.6411296,14.4437997 C26.8067808,14.4437997 26.9349017,14.428211 27.0338118,14.3985184 L26.8409834,15.4696799" id="Fill-362" fill="#000066"></path>
                    <path d="M33.3093313,10.564087 C32.248313,10.564087 31.4193173,11.0029811 30.9377085,11.7349043 L31.355719,10.6488965 C30.5855148,10.3651464 30.0889308,10.7702652 29.6402304,11.3459309 C29.6402304,11.3459309 29.5649848,11.4415041 29.4899241,11.5289117 L29.4899241,10.6754343 L28.1306966,10.6754343 C27.9465575,12.1817783 27.6209862,13.7094639 27.3664084,15.2191483 L27.3048438,15.5474374 L28.7670487,15.5474374 C28.9058926,14.7813677 29.0197778,14.1596783 29.1332933,13.6638115 C29.4438893,12.3035181 29.966726,11.8878213 30.7515357,12.0719156 C30.5703547,12.4625592 30.4710749,12.9153718 30.4710749,13.4162492 C30.4710749,14.6323478 31.1285032,15.6272364 32.7619058,15.6272364 C34.4099137,15.6272364 35.6033051,14.7435096 35.6033051,12.7283082 C35.6033051,11.5129519 34.8079574,10.564087 33.3093313,10.564087 L33.3093313,10.564087 Z M32.8837408,14.4452843 C32.3673748,14.4532642 32.0541904,14.0182672 32.0541904,13.3672564 C32.0541904,12.5959905 32.5110255,11.7243263 33.2451785,11.7243263 C33.8375295,11.7243263 34.0403414,12.1958823 34.0403414,12.6982444 C34.0403414,13.795387 33.5923805,14.4452843 32.8837408,14.4452843 L32.8837408,14.4452843 Z" id="Fill-363" fill="#000066"></path>
                    <polyline id="Fill-364" fill="#000066" points="10.5169415 15.5474374 9.06065268 15.5474374 9.92606946 10.9703192 7.93363267 15.5474374 6.60620424 15.5474374 6.3636435 10.9972282 5.49545354 15.5474374 4.17431099 15.5474374 5.29948222 9.59369487 7.57515304 9.59369487 7.76465362 12.9127737 9.20633703 9.59369487 11.6646679 9.59369487 10.5169415 15.5474374"></polyline>
                    <path d="M20.3920476,15.0636332 C19.8925056,15.1966933 19.4088632,15.2616459 18.8980436,15.2605324 C17.2675991,15.2590478 16.4184517,14.5133918 16.4184517,13.0879602 C16.4184517,11.4223894 17.499252,10.1973831 18.9664487,10.1973831 C20.1668655,10.1973831 20.9331873,10.8842106 20.9331873,11.9601971 C20.9331873,12.3172509 20.8812365,12.6644691 20.7544097,13.1571811 L17.8551433,13.1571811 C17.7517962,13.8527308 18.257809,14.158936 19.1198979,14.158936 C19.6362639,14.158936 20.1034521,14.0657754 20.6205576,13.856628 L20.3920476,15.0636332 L20.3920476,15.0636332 Z M19.6124145,12.1749119 C19.6124145,12.0696887 19.7736287,11.3223624 18.9348344,11.3060315 C18.4715286,11.3060315 18.1393018,11.6152059 18.0045253,12.1749119 L19.6124145,12.1749119 L19.6124145,12.1749119 Z" id="Fill-366" fill="#FCFDFF"></path>
                    <path d="M21.3746775,11.8479219 C21.3746775,12.4633015 21.7194761,12.8880917 22.5037311,13.2048749 C23.1036622,13.4515092 23.1977654,13.5227715 23.1977654,13.742497 C23.1977654,14.048331 22.9328344,14.1882575 22.3451053,14.1847315 C21.9028757,14.1813911 21.4996554,14.1273876 21.0243325,13.9950699 L20.813386,15.1168944 C21.2365731,15.2158079 21.8298486,15.2480987 22.3549039,15.2605324 C23.9206408,15.2605324 24.6438859,14.7457365 24.6438859,13.6330054 C24.6438859,12.9645502 24.3421641,12.5709373 23.5985823,12.2780938 C22.9770204,12.0288613 22.9039933,11.9744867 22.9039933,11.7493795 C22.9039933,11.4843728 23.1506214,11.3498281 23.6305663,11.3498281 C23.9217501,11.3498281 24.3199786,11.3771082 24.6984251,11.4231318 L24.9104809,10.294812 C24.5251939,10.2404374 23.9407926,10.1979398 23.6026496,10.1979398 C21.943549,10.1979398 21.3695009,10.9471219 21.3746775,11.8479219" id="Fill-367" fill="#FCFDFF"></path>
                    <path d="M15.6236585,15.1799912 L14.4069724,15.1799912 L14.4363681,14.6685357 C14.0653167,15.0716131 13.5715059,15.259419 12.9009512,15.259419 C12.1076371,15.259419 11.5635393,14.7149304 11.5635393,13.9316019 C11.5635393,12.7412987 12.5086388,12.0544712 14.133352,12.0544712 C14.3002974,12.0544712 14.5125381,12.0672762 14.7310646,12.0910303 C14.776175,11.9319891 14.7881921,11.8638817 14.7881921,11.7772163 C14.7881921,11.4505974 14.5326898,11.3310846 13.8491936,11.3310846 C13.1749413,11.3338683 12.7201399,11.4342665 12.2982469,11.5482119 L12.5054958,10.4557089 C13.2355815,10.2693877 13.7131229,10.1973831 14.2542626,10.1973831 C15.5123616,10.1973831 16.1766304,10.692322 16.1766304,11.6231858 C16.1875383,11.8718616 16.1010151,12.3693986 16.0581232,12.5883817 C16.0083909,12.9055361 15.6598947,14.7457365 15.6236585,15.1799912 L15.6236585,15.1799912 Z M14.5557996,13.0077901 C14.4019806,12.9918303 14.3346848,12.9877475 14.2289343,12.9877475 C13.3997537,12.9877475 12.97897,13.2353098 12.97897,13.7243102 C12.97897,14.0321856 13.184555,14.224631 13.5040252,14.224631 C14.1004436,14.224631 14.530841,13.7235679 14.5557996,13.0077901 L14.5557996,13.0077901 Z" id="Fill-368" fill="#FCFDFF"></path>
                    <path d="M27.2064884,15.1027904 C26.8073355,15.2126531 26.4963696,15.2605324 26.1598906,15.2605324 C25.4148298,15.2605324 25.0082817,14.8780543 25.0082817,14.1973509 C24.9846172,14.0102873 25.1667227,13.1462319 25.2079506,12.9055361 C25.2493634,12.6640979 25.8947746,9.14440833 25.8947746,9.14440833 L27.3421893,9.14440833 L27.1234779,10.3087304 L27.8659504,10.3087304 L27.6640629,11.4973633 L26.9184475,11.4973633 C26.9184475,11.4973633 26.5089414,13.5604441 26.5089414,13.7174438 C26.5089414,13.9683465 26.6599872,14.0763534 27.0066346,14.0763534 C27.1722858,14.0763534 27.3002218,14.0615071 27.3996865,14.0314433 L27.2064884,15.1027904" id="Fill-369" fill="#FCFDFF"></path>
                    <path d="M34.4062161,12.3306126 C34.4062161,13.428683 33.9577006,14.0785804 33.2490609,14.0785804 C32.7326949,14.0860035 32.4196955,13.6515633 32.4196955,13.0005525 C32.4196955,12.2292865 32.8765305,11.3574368 33.6104986,11.3574368 C34.2030345,11.3574368 34.4062161,11.8289928 34.4062161,12.3306126 L34.4062161,12.3306126 Z M35.9688102,12.3614187 C35.9688102,11.146248 35.1732775,10.1973831 33.6750212,10.1973831 C31.9513979,10.1973831 30.8365799,11.3505704 30.8365799,13.0495453 C30.8365799,14.2654583 31.4940083,15.2605324 33.1275957,15.2605324 C34.7756036,15.2605324 35.9688102,14.3768057 35.9688102,12.3614187 L35.9688102,12.3614187 Z" id="Fill-370" fill="#FCFDFF"></path>
                    <path d="M28.4960167,10.3081737 C28.3120625,11.8148888 27.9863064,13.3423888 27.7319134,14.8518877 L27.6705337,15.1807335 L29.1325537,15.1807335 C29.6594578,12.2651033 29.8363866,11.4346376 30.9406666,11.7269244 L31.4718228,10.3475164 C30.7014336,10.0637662 30.2057741,10.4690706 29.7570737,11.0451075 C29.7975621,10.7858538 29.8737321,10.5355078 29.8554291,10.3081737 L28.4960167,10.3081737" id="Fill-371" fill="#FCFDFF"></path>
                    <polyline id="Fill-372" fill="#FCFDFF" points="10.8824465 15.1807335 9.42652746 15.1807335 10.2917594 10.6036153 8.29913768 15.1807335 6.97170926 15.1807335 6.72896364 10.6303387 5.86077368 15.1807335 4.539816 15.1807335 5.66480235 9.22680537 7.94065806 9.22680537 8.06082915 12.9127737 9.66280232 9.22680537 12.0301729 9.22680537 10.8824465 15.1807335"></polyline>
                </g>
            </g>
        </g>
    </g>
</svg>