<?xml version="1.0" encoding="UTF-8"?>
<svg width="40px" height="13px" viewBox="0 0 40 13" version="1.1" xmlns="http://www.w3.org/2000/svg" xmlns:xlink="http://www.w3.org/1999/xlink">
    <!-- Generator: sketchtool 49.2 (51160) - http://www.bohemiancoding.com/sketch -->
    <title>BE6FEC97-CBF6-49E3-A247-AE1B042C831C</title>
    <desc>Created with sketchtool.</desc>
    <defs></defs>
    <g id="IndexPage(MainLanding)" stroke="none" stroke-width="1" fill="none" fill-rule="evenodd">
        <g id="IndexPage" transform="translate(-190.000000, -690.000000)">
            <g id="icons/visa" transform="translate(190.000000, 677.000000)">
                <polyline id="Fill-1" fill="#26337A" points="14.0917972 25.7053944 16.1080184 13.3072394 19.3308756 13.3072394 17.3148387 25.7053944 14.0917972 25.7053944"></polyline>
                <path d="M29.0051613,13.6115493 C28.3679263,13.3627183 27.3657143,13.0913662 26.117235,13.0913662 C22.9308756,13.0913662 20.6879263,14.7738592 20.6693088,17.1830704 C20.6490323,18.965169 22.2698618,19.9590282 23.4917972,20.5513521 C24.7476498,21.158507 25.1695853,21.5470423 25.1646083,22.0899296 C25.1559447,22.9202817 24.162212,23.3007606 23.235576,23.3007606 C21.9452535,23.3007606 21.2597235,23.1134507 20.1998157,22.6505775 L19.7852535,22.4531972 L19.3345622,25.2284225 C20.0860829,25.5737465 21.4792627,25.8734789 22.9251613,25.8892254 C26.3115207,25.8892254 28.5118894,24.2270563 28.5376959,21.654338 C28.5493088,20.2411831 27.6905069,19.1700563 25.8305991,18.2856901 C24.7043318,17.7107606 24.0130876,17.3299155 24.0210138,16.7480282 C24.0217512,16.2327887 24.604977,15.6811127 25.8672811,15.6811127 C26.9214747,15.6642676 27.6846083,15.9055915 28.2792627,16.1575352 L28.5686636,16.2992535 L29.0051613,13.6115493" id="Fill-2" fill="#26337A"></path>
                <path d="M33.2965899,21.3097465 C33.5636866,20.5971268 34.5804608,17.8442394 34.5804608,17.8442394 C34.561659,17.8770141 34.8460829,17.1261268 35.0088479,16.6614225 L35.2263594,17.7307183 C35.2263594,17.7307183 35.8447926,20.6899577 35.9721659,21.3097465 L33.2965899,21.3097465 L33.2965899,21.3097465 Z M37.2726267,13.3198732 L34.7819355,13.3198732 C34.0094009,13.3198732 33.4311521,13.5392254 33.0927189,14.3476056 L28.3065438,25.7097887 L31.6916129,25.7097887 C31.6916129,25.7097887 32.243871,24.1812817 32.3692166,23.8458451 C32.7384332,23.8458451 36.0276498,23.8522535 36.4971429,23.8522535 C36.5937327,24.2849155 36.8895853,25.7097887 36.8895853,25.7097887 L39.8809217,25.7097887 L37.2726267,13.3198732 L37.2726267,13.3198732 Z" id="Fill-3" fill="#26337A"></path>
                <path d="M11.3880184,13.3176761 L8.23354839,21.7702394 L7.8956682,20.0520423 C7.3078341,18.0723803 5.47797235,15.9266479 3.43115207,14.851493 L6.31705069,25.6945915 L9.72792627,25.6925775 L14.803318,13.3176761 L11.3880184,13.3176761" id="Fill-4" fill="#26337A"></path>
                <path d="M5.30525346,13.3092535 L0.108018433,13.3092535 L0.0652534562,13.5661408 C4.10930876,14.5931408 6.78506912,17.0721127 7.8956682,20.0520423 L6.76626728,14.3552958 C6.57142857,13.5696197 6.00516129,13.3367183 5.30525346,13.3092535" id="Fill-5" fill="#EC982D"></path>
            </g>
        </g>
    </g>
</svg>