<?xml version="1.0" encoding="UTF-8"?>
<svg width="101px" height="53px" viewBox="0 0 101 53" version="1.1" xmlns="http://www.w3.org/2000/svg" xmlns:xlink="http://www.w3.org/1999/xlink">
    <!-- Generator: sketchtool 49.3 (51167) - http://www.bohemiancoding.com/sketch -->
    <title>55B8FC08-4E43-4CB7-BFD7-C09201AED5C0</title>
    <desc>Created with sketchtool.</desc>
    <defs></defs>
    <g id="IndexPage(MainLanding)" stroke="none" stroke-width="1" fill="none" fill-rule="evenodd">
        <g id="IndexPage" transform="translate(-1142.000000, -2171.000000)" fill="#FD8247">
            <g id="Group-9" transform="translate(795.000000, 1950.000000)">
                <g id="img/Not4Spam" transform="translate(347.000000, 221.000000)">
                    <path d="M6.84,5.9 C6.9866674,5.8199996 7.1333326,5.78 7.28,5.78 C7.4666676,5.78 7.6299993,5.8366661 7.77,5.95 C7.9100007,6.0633339 7.98,6.2066658 7.98,6.38 C7.98,6.4066668 7.9666668,6.4733328 7.94,6.58 C7.9800002,6.4066658 7.8400016,6.6933296 7.52,7.44 C7.1999984,8.1866704 7.0266668,8.5866664 7,8.64 L7,8.7 C7.1866676,8.7 7.3099997,8.7566661 7.37,8.87 C7.4300003,8.9833339 7.4533334,9.1333324 7.44,9.32 C7.3199994,9.3466668 7.2066672,9.393333 7.1,9.46 C6.9933328,9.526667 6.906667,9.56 6.84,9.56 C6.7999998,9.56 6.7533336,9.5799998 6.7,9.62 C6.6466664,9.6600002 6.6133334,9.7066664 6.6,9.76 C6.5733332,9.8133336 6.526667,10.0199982 6.46,10.38 L6.1,11.82 C6.0733332,11.9133338 6.026667,11.993333 5.96,12.06 C5.893333,12.126667 5.8333336,12.1666666 5.78,12.18 C5.7266664,12.1666666 5.6233341,12.1300003 5.47,12.07 C5.3166659,12.0099997 5.2133336,11.9633335 5.16,11.93 C5.1066664,11.8966665 5.0533336,11.8600002 5,11.82 L5,11.7 C5,11.5133324 5.033333,11.320001 5.1,11.12 C5.2066672,10.7999984 5.3133328,10.3533362 5.42,9.78 C5.3133328,9.7399998 5.0466688,9.7566663 4.62,9.83 C4.1933312,9.9033337 3.9600002,9.94 3.92,9.94 C3.8399996,9.9800002 3.6800012,10 3.44,10 C3.0533314,10 2.7800008,9.966667 2.62,9.9 L2.5,9.96 C2.4733332,10.0800006 2.4333336,10.2133326 2.38,10.36 C2.2333326,10.7733354 2.16,11.079999 2.16,11.28 C2.1333332,11.4666676 2.1066668,11.6199994 2.08,11.74 C2.0533332,11.873334 2.0266668,12.073332 2,12.34 C1.9866666,12.7133352 1.8600012,12.9 1.62,12.9 C1.4733326,12.9 1.3133342,12.8466672 1.14,12.74 C1.0466662,12.6866664 0.9200008,12.5800008 0.76,12.42 L1.08,10.88 C1.1200002,10.7599994 1.1633331,10.5933344 1.21,10.38 C1.2566669,10.1666656 1.3066664,9.993334 1.36,9.86 L1.58,9.24 C1.7400008,8.773331 1.886666,8.3933348 2.02,8.1 L2.44,6.92 C2.4800002,6.8266662 2.5699993,6.5700021 2.71,6.15 C2.8500007,5.7299979 2.9333332,5.486667 2.96,5.42 C3.0133336,5.2733326 3.1199992,5.2 3.28,5.2 C3.4933344,5.1866666 3.6766659,5.2366661 3.83,5.35 C3.9833341,5.4633339 4.0666666,5.5999992 4.08,5.76 C4.08,5.8000002 4.0733334,5.8633329 4.06,5.95 C4.0466666,6.0366671 4.0333334,6.0999998 4.02,6.14 L2.98,8.68 L2.98,8.84 C3.0333336,8.8800002 3.126666,8.9 3.26,8.9 C3.3666672,8.9 3.5299989,8.8800002 3.75,8.84 C3.9700011,8.7999998 4.1066664,8.78 4.16,8.78 C4.2800006,8.7666666 4.4599988,8.7533334 4.7,8.74 C4.9400012,8.7266666 5.1799988,8.72 5.42,8.72 C5.6066676,8.72 5.7066666,8.7266666 5.72,8.74 L5.94,8.1 C6.1533344,7.4466634 6.3799988,6.920002 6.62,6.52 C6.6333334,6.4799998 6.6599998,6.4033339 6.7,6.29 C6.7400002,6.1766661 6.7866664,6.0466674 6.84,5.9 Z M11.8433333,12.3 C11.5099983,12.5933348 11.1100023,12.74 10.6433333,12.74 C10.3099983,12.74 9.99333484,12.6600008 9.69333334,12.5 C9.39333184,12.3399992 9.14333434,12.1200014 8.94333334,11.84 C8.76999914,11.6266656 8.64333374,11.386668 8.56333334,11.12 C8.48333294,10.853332 8.44333334,10.5266686 8.44333334,10.14 C8.44333334,10.006666 8.45666654,9.740002 8.48333334,9.34 C8.52333354,8.8466642 8.68666524,8.333336 8.97333334,7.8 C9.26000144,7.266664 9.61666454,6.7900021 10.0433333,6.37 C10.4700021,5.9499979 10.8899979,5.6600008 11.3033333,5.5 C11.5166677,5.366666 11.7099991,5.3 11.8833333,5.3 C11.9766671,5.3 12.0699995,5.3066666 12.1633333,5.32 C12.2566671,5.3333334 12.3566661,5.3466666 12.4633333,5.36 C12.7566681,5.4000002 12.9799992,5.4566663 13.1333333,5.53 C13.2866674,5.6033337 13.4166661,5.7133326 13.5233333,5.86 C13.8566683,6.193335 14.0233333,6.5799978 14.0233333,7.02 C13.9699997,7.3400016 13.7633351,7.7066646 13.4033333,8.12 C13.0433315,8.5333354 12.6100025,8.8666654 12.1033333,9.12 C11.8633321,9.2000004 11.5900015,9.24 11.2833333,9.24 C10.8699979,9.24 10.5366679,9.1533342 10.2833333,8.98 C10.1633327,8.9399998 10.0700003,8.92 10.0033333,8.92 C9.88333274,8.92 9.79333364,8.9999992 9.73333334,9.16 C9.67333304,9.3200008 9.61666694,9.6133312 9.56333334,10.04 C9.54999994,10.1333338 9.54333334,10.2666658 9.54333334,10.44 C9.54333334,11.1200034 9.76999774,11.493333 10.2233333,11.56 C10.5300015,11.626667 10.7499993,11.66 10.8833333,11.66 C11.0433341,11.66 11.2233323,11.6066672 11.4233333,11.5 L11.8033333,11.28 C11.8833337,11.2399998 11.9566663,11.186667 12.0233333,11.12 L12.2033333,10.94 C12.2300001,10.9133332 12.2699997,10.8700003 12.3233333,10.81 C12.3766669,10.7499997 12.4266664,10.7100001 12.4733333,10.69 C12.5200002,10.6699999 12.5633331,10.66 12.6033333,10.66 C12.6566669,10.66 12.7166663,10.6899997 12.7833333,10.75 C12.8500003,10.8100003 12.9033331,10.8533332 12.9433333,10.88 C13.0633339,10.88 13.0900003,10.9633325 13.0233333,11.13 C12.9566663,11.2966675 12.8133344,11.4899989 12.5933333,11.71 C12.3733322,11.9300011 12.1233347,12.1266658 11.8433333,12.3 Z M11.8233333,8.06 C12.0500011,7.9666662 12.2799988,7.8000012 12.5133333,7.56 C12.7466678,7.3199988 12.8633333,7.1200008 12.8633333,6.96 C12.8633333,6.7999992 12.8033339,6.6666672 12.6833333,6.56 C12.5633327,6.4533328 12.3966677,6.4 12.1833333,6.4 C12.0233325,6.4 11.9033337,6.4133332 11.8233333,6.44 C11.6366657,6.4933336 11.4166679,6.6366655 11.1633333,6.87 C10.9099987,7.1033345 10.6900009,7.3399988 10.5033333,7.58 C10.3166657,7.8200012 10.2433331,7.9599998 10.2833333,8 C10.3500003,8.1200006 10.6099977,8.18 11.0633333,8.18 C11.3700015,8.18 11.6233323,8.1400004 11.8233333,8.06 Z M21.69,0.22 C21.956668,0.1666664 22.1499994,0.14 22.27,0.14 C22.4966678,0.14 22.6966658,0.1933328 22.87,0.3 C23.53667,0.5133344 24.0499982,0.819998 24.41,1.22 C24.7700018,1.620002 25.0199993,2.0933306 25.16,2.64 C25.3000007,3.1866694 25.3833332,3.8733292 25.41,4.7 C25.4233334,4.8200006 25.43,4.979999 25.43,5.18 C25.43,5.3533342 25.4100002,5.6599978 25.37,6.1 C25.2899996,6.2066672 25.2433334,6.3399992 25.23,6.5 C25.2166666,6.6600008 25.21,6.7533332 25.21,6.78 C25.21,7.046668 25.1833336,7.2399994 25.13,7.36 C25.1166666,7.5333342 25.0633338,7.719999 24.97,7.92 C24.8766662,8.120001 24.83,8.2599996 24.83,8.34 C24.4433314,9.4333388 23.883337,10.413329 23.15,11.28 C22.416663,12.146671 21.6233376,12.679999 20.77,12.88 C20.703333,12.9066668 20.5300014,12.8500007 20.25,12.71 C19.9699986,12.5699993 19.763334,12.4266674 19.63,12.28 C19.496666,12.1199992 19.3933337,11.973334 19.32,11.84 C19.2466663,11.706666 19.21,11.5533342 19.21,11.38 C19.1299996,11.1933324 19.0800001,11.0033343 19.06,10.81 C19.0399999,10.6166657 19.03,10.3666682 19.03,10.06 C19.03,9.7799986 19.0833328,9.506668 19.19,9.24 C19.2966672,8.973332 19.4433324,8.6533352 19.63,8.28 C19.7500006,7.946665 20.0199979,7.5366691 20.44,7.05 C20.8600021,6.5633309 21.303331,6.2066678 21.77,5.98 C22.1433352,5.779999 22.463332,5.68 22.73,5.68 C22.8900008,5.68 23.0433326,5.7066664 23.19,5.76 C23.3500008,5.8000002 23.4699996,5.8633329 23.55,5.95 C23.6300004,6.0366671 23.6899998,6.0933332 23.73,6.12 C23.8366672,6.0133328 23.9333329,5.7700019 24.02,5.39 C24.1066671,5.0099981 24.15,4.6000022 24.15,4.16 C24.15,3.3333292 24.0100014,2.7333352 23.73,2.36 C23.2899978,1.7333302 22.7766696,1.42 22.19,1.42 C21.9633322,1.42 21.683335,1.486666 21.35,1.62 C21.1766658,1.5399996 21.0300006,1.4066676 20.91,1.22 C20.7899994,1.0333324 20.7566664,0.8533342 20.81,0.68 C21.1166682,0.4266654 21.4099986,0.2733336 21.69,0.22 Z M23.63,6.9 C23.5233328,6.7933328 23.3833342,6.74 23.21,6.74 C22.876665,6.74 22.4700024,6.906665 21.99,7.24 C21.8299992,7.3600006 21.6733341,7.5233323 21.52,7.73 C21.3666659,7.9366677 21.2700002,8.0666664 21.23,8.12 C21.096666,8.3333344 20.9900004,8.4866662 20.91,8.58 L20.91,8.62 C20.91,8.7133338 20.8733337,8.793333 20.8,8.86 C20.7266663,8.926667 20.6766668,8.9799998 20.65,9.02 C20.5033326,9.3000014 20.396667,9.5833319 20.33,9.87 C20.263333,10.1566681 20.23,10.3599994 20.23,10.48 C20.23,10.7200012 20.2666663,10.9466656 20.34,11.16 C20.4133337,11.3733344 20.516666,11.513333 20.65,11.58 C20.8366676,11.6600004 21.1599977,11.5100019 21.62,11.13 C22.0800023,10.7499981 22.4633318,10.3400022 22.77,9.9 C22.8500004,9.7799994 22.9766658,9.5500017 23.15,9.21 C23.3233342,8.8699983 23.4499996,8.6133342 23.53,8.44 C23.6766674,8.039998 23.75,7.6800016 23.75,7.36 C23.75,7.1333322 23.7100004,6.9800004 23.63,6.9 Z M25.9933334,12.84 C25.913333,12.906667 25.7700011,12.9366667 25.5633334,12.93 C25.3566657,12.9233333 25.2200004,12.92 25.1533334,12.92 C25.073333,12.8933332 24.9633341,12.8033341 24.8233334,12.65 C24.6833327,12.4966659 24.586667,12.3933336 24.5333334,12.34 C24.5333334,12.2466662 24.5633331,12.1733336 24.6233334,12.12 C24.6833337,12.0666664 24.7266666,12.0266668 24.7533334,12 C24.7933336,11.9466664 24.8833327,11.9066668 25.0233334,11.88 C25.1633341,11.8533332 25.2533332,11.8200002 25.2933334,11.78 C25.346667,11.7399998 25.479999,11.6466674 25.6933334,11.5 C25.9066678,11.3533326 26.0966659,11.2033341 26.2633334,11.05 C26.4300009,10.8966659 26.5666662,10.7400008 26.6733334,10.58 C27.0200018,10.0866642 27.3866648,9.5000034 27.7733334,8.82 C27.893334,8.5933322 28.0499991,8.2833353 28.2433334,7.89 C28.4366677,7.4966647 28.5466666,7.2400006 28.5733334,7.12 L27.9533334,6.92 C27.9266666,6.8933332 27.886667,6.8400004 27.8333334,6.76 C27.7799998,6.6799996 27.7500001,6.6133336 27.7433334,6.56 C27.7366667,6.5066664 27.7333334,6.446667 27.7333334,6.38 C27.7333334,6.2199992 27.7499999,6.106667 27.7833334,6.04 C27.8166669,5.973333 27.8866662,5.9333334 27.9933334,5.92 C28.4066688,5.8399996 28.7466654,5.7800002 29.0133334,5.74 C29.4133354,5.6866664 29.7133324,5.6333336 29.9133334,5.58 C30.0733342,5.5399998 30.2533324,5.52 30.4533334,5.52 C30.8000018,5.52 31.113332,5.5799994 31.3933334,5.7 C31.5933344,5.7800004 31.766666,5.9399988 31.9133334,6.18 C32.100001,6.4333346 32.1933334,6.6866654 32.1933334,6.94 C32.1933334,7.0333338 32.1866668,7.1233329 32.1733334,7.21 C32.16,7.2966671 32.1533334,7.3866662 32.1533334,7.48 C32.1533334,7.6000006 32.1733332,7.7199994 32.2133334,7.84 C32.0399992,8.4800032 31.8533344,9.066664 31.6533334,9.6 C31.6133332,9.7066672 31.5533338,9.8866654 31.4733334,10.14 C31.393333,10.3933346 31.3333336,10.6133324 31.2933334,10.8 C31.2533332,11.000001 31.1933338,11.1866658 31.1133334,11.36 C31.0066662,11.6666682 30.9400002,11.9133324 30.9133334,12.1 C30.8866666,12.2466674 30.8300005,12.3566663 30.7433334,12.43 C30.6566663,12.5033337 30.5633339,12.5633331 30.4633334,12.61 C30.3633329,12.6566669 30.3000002,12.6866666 30.2733334,12.7 C30.2199998,12.7266668 30.1266674,12.7133336 29.9933334,12.66 C29.8599994,12.6066664 29.7466672,12.5333338 29.6533334,12.44 C29.6266666,12.3599996 29.6133334,12.253334 29.6133334,12.12 C29.6133334,12.0133328 29.6399998,11.8666676 29.6933334,11.68 C29.9333346,10.9066628 30.259998,9.786674 30.6733334,8.32 L30.8933334,7.56 C30.9333336,7.4399994 30.9533334,7.3000008 30.9533334,7.14 C30.9533334,7.0199994 30.9333336,6.9000006 30.8933334,6.78 C30.679999,6.6999996 30.513334,6.66 30.3933334,6.66 C30.3266664,6.66 30.2533338,6.6733332 30.1733334,6.7 C30.093333,6.7266668 30.0200004,6.7466666 29.9533334,6.76 C29.8199994,6.8533338 29.7400002,6.9799992 29.7133334,7.14 C29.4599988,7.80667 29.2000014,8.3933308 28.9333334,8.9 C28.6666654,9.4066692 28.4600008,9.8199984 28.3133334,10.14 C28.2599998,10.273334 28.106668,10.5266648 27.8533334,10.9 C27.6933326,11.1400012 27.5800004,11.3199994 27.5133334,11.44 L27.2933334,11.72 C27.2266664,11.786667 27.1133342,11.8933326 26.9533334,12.04 C26.7933326,12.1866674 26.6800004,12.293333 26.6133334,12.36 L25.9933334,12.84 Z M37.0366667,8.94 C37.2100009,8.9800002 37.3866658,9.0099999 37.5666667,9.03 C37.7466676,9.0500001 37.8699997,9.0666666 37.9366667,9.08 C38.0966675,9.1200002 38.2499993,9.1999994 38.3966667,9.32 C38.5433341,9.4400006 38.6433331,9.5199998 38.6966667,9.56 L38.6966667,9.64 C38.6966667,9.7200004 38.6700003,9.8066662 38.6166667,9.9 C38.4566659,10.2200016 38.3300005,10.4599992 38.2366667,10.62 C38.1699997,10.7400006 38.0900005,10.8899991 37.9966667,11.07 C37.9033329,11.2500009 37.8033339,11.4599988 37.6966667,11.7 C37.6566665,11.7800004 37.6100003,11.9399988 37.5566667,12.18 C37.4633329,12.4733348 37.4100001,12.6399998 37.3966667,12.68 C37.2499993,12.8266674 37.1566669,12.9 37.1166667,12.9 C37.1033333,12.9 37.0766669,12.8900001 37.0366667,12.87 C36.9966665,12.8499999 36.9366671,12.84 36.8566667,12.84 C36.6699991,12.7999998 36.5433337,12.7000008 36.4766667,12.54 C36.4633333,12.4866664 36.4333336,12.4166671 36.3866667,12.33 C36.3399998,12.2433329 36.3166667,12.166667 36.3166667,12.1 C36.3166667,11.9533326 36.3833327,11.7733344 36.5166667,11.56 C36.5833337,11.426666 36.6699995,11.226668 36.7766667,10.96 C36.8300003,10.8133326 36.9233327,10.5933348 37.0566667,10.3 C37.0833335,10.2733332 37.1033333,10.2400002 37.1166667,10.2 C37.1300001,10.1599998 37.1366667,10.1200002 37.1366667,10.08 L36.9966667,10.08 L36.3966667,9.98 C36.3566665,10.0066668 36.2833339,10.0566663 36.1766667,10.13 C36.0699995,10.2033337 35.9900003,10.3133326 35.9366667,10.46 C35.8833331,10.5133336 35.7566677,10.673332 35.5566667,10.94 C35.4233327,11.1533344 35.2633343,11.3533324 35.0766667,11.54 C34.6366645,12.006669 34.2833347,12.3533322 34.0166667,12.58 C33.7233319,12.7933344 33.4500013,12.9 33.1966667,12.9 C32.8899985,12.9 32.6633341,12.8133342 32.5166667,12.64 C32.3966661,12.4533324 32.2966671,12.2466678 32.2166667,12.02 C32.2433335,11.9266662 32.2899997,11.8366671 32.3566667,11.75 C32.4233337,11.6633329 32.5033329,11.62 32.5966667,11.62 C32.6500003,11.62 32.7099997,11.6399998 32.7766667,11.68 C32.8033335,11.68 32.8299999,11.6933332 32.8566667,11.72 C32.8833335,11.7466668 32.9166665,11.7733332 32.9566667,11.8 C33.3966689,11.599999 33.7666652,11.3400016 34.0666667,11.02 C34.3666682,10.6999984 34.7033315,10.2533362 35.0766667,9.68 C34.8499989,9.613333 34.6266678,9.5066674 34.4066667,9.36 C34.1866656,9.2133326 34.0300005,9.0600008 33.9366667,8.9 C33.8166661,8.699999 33.7300003,8.4533348 33.6766667,8.16 C33.6233331,7.8666652 33.5900001,7.7000002 33.5766667,7.66 C33.6300003,7.5399994 33.7099995,7.2933352 33.8166667,6.92 C33.8700003,6.7066656 33.9299997,6.5200008 33.9966667,6.36 C34.0633337,6.1999992 34.1766659,6.0133344 34.3366667,5.8 C34.5366677,5.533332 34.8166649,5.2833345 35.1766667,5.05 C35.5366685,4.8166655 35.7899993,4.7 35.9366667,4.7 C36.0433339,4.7400002 36.1866658,4.7366669 36.3666667,4.69 C36.5466676,4.6433331 36.6766663,4.6333332 36.7566667,4.66 C36.8100003,4.6733334 36.8566665,4.6766667 36.8966667,4.67 C36.9366669,4.6633333 36.9766665,4.6666666 37.0166667,4.68 C37.4166687,4.7600004 37.7299989,4.8633327 37.9566667,4.99 C38.1833345,5.1166673 38.3299997,5.3266652 38.3966667,5.62 C38.3699999,5.7133338 38.3300003,5.8766655 38.2766667,6.11 C38.2233331,6.3433345 38.1633337,6.5533324 38.0966667,6.74 C38.0299997,6.9266676 37.9500005,7.0999992 37.8566667,7.26 L37.6166667,7.76 C37.3766655,8.2400024 37.1700009,8.5933322 36.9966667,8.82 L37.0366667,8.94 Z M36.6166667,5.48 C35.6166617,5.7733348 34.9766681,6.3999952 34.6966667,7.36 C34.6566665,7.5333342 34.6366667,7.6999992 34.6366667,7.86 C34.6366667,8.126668 34.6966661,8.3499991 34.8166667,8.53 C34.9366673,8.7100009 35.1033323,8.8 35.3166667,8.8 C35.4100005,8.8 35.5033329,8.7800002 35.5966667,8.74 C35.7166673,8.7133332 35.9433317,8.466669 36.2766667,8 C36.6100017,7.533331 36.7966665,7.2400006 36.8366667,7.12 C36.8900003,6.9999994 36.9833327,6.7600018 37.1166667,6.4 C37.2500007,6.0399982 37.3499997,5.7666676 37.4166667,5.58 C37.2433325,5.4599994 37.0900007,5.4 36.9566667,5.4 C36.9166665,5.4 36.8033343,5.4266664 36.6166667,5.48 Z M46.3233334,12.78 C46.1366658,12.8066668 45.9966672,12.82 45.9033334,12.82 C45.4099976,12.82 45.003335,12.6666682 44.6833334,12.36 C44.3633318,12.0533318 44.2033334,11.6266694 44.2033334,11.08 C44.1499998,10.4933304 44.2799985,9.766671 44.5933334,8.9 C44.9066683,8.033329 45.303331,7.3066696 45.7833334,6.72 C46.1166684,6.3333314 46.4033322,6.0200012 46.6433334,5.78 C46.8833346,5.5399988 47.1033324,5.3800004 47.3033334,5.3 C47.5833348,5.1799994 47.896665,5.12 48.2433334,5.12 C48.4833346,5.1733336 48.7199989,5.2733326 48.9533334,5.42 C49.1866679,5.5666674 49.3033334,5.7133326 49.3033334,5.86 L49.4033334,5.96 C49.4833338,5.96 49.5566664,6.0566657 49.6233334,6.25 C49.6900004,6.4433343 49.7233334,6.6533322 49.7233334,6.88 C49.7233334,7.0666676 49.6900004,7.226666 49.6233334,7.36 C49.5699998,7.6133346 49.4800007,7.8333324 49.3533334,8.02 C49.2266661,8.2066676 49.103334,8.3 48.9833334,8.3 C48.836666,8.3 48.7633334,8.3399996 48.7633334,8.42 C48.7633334,8.4733336 48.736667,8.5 48.6833334,8.5 C48.6166664,8.5 48.5366672,8.4600004 48.4433334,8.38 C48.3499996,8.2999996 48.2833336,8.2066672 48.2433334,8.1 C48.2433334,8.0599998 48.2699998,7.9466676 48.3233334,7.76 C48.376667,7.5733324 48.4299998,7.3666678 48.4833334,7.14 C48.5233336,6.9799992 48.5433334,6.8400006 48.5433334,6.72 C48.5433334,6.453332 48.4433344,6.32 48.2433334,6.32 C48.1366662,6.32 48.0300006,6.3466664 47.9233334,6.4 C47.3899974,6.6933348 46.9166688,7.1599968 46.5033334,7.8 C46.089998,8.4400032 45.7433348,9.3199944 45.4633334,10.44 C45.3966664,10.7333348 45.3633334,10.9666658 45.3633334,11.14 C45.3633334,11.273334 45.3733333,11.3799996 45.3933334,11.46 C45.4133335,11.5400004 45.4366666,11.5866666 45.4633334,11.6 C45.5300004,11.6266668 45.669999,11.64 45.8833334,11.64 C46.3766692,11.64 46.7233324,11.5800006 46.9233334,11.46 C47.3500022,11.2333322 47.8233308,10.9266686 48.3433334,10.54 C48.396667,10.4999998 48.4766662,10.4300005 48.5833334,10.33 C48.6900006,10.2299995 48.7899996,10.1600002 48.8833334,10.12 C48.9766672,9.9733326 49.063333,9.8833335 49.1433334,9.85 C49.2233338,9.8166665 49.3499992,9.8 49.5233334,9.8 C49.6966676,9.8533336 49.8366662,9.9233329 49.9433334,10.01 C50.0500006,10.0966671 50.0500006,10.1666664 49.9433334,10.22 C49.9033332,10.22 49.8766668,10.2333332 49.8633334,10.26 C49.85,10.2866668 49.8433334,10.3066666 49.8433334,10.32 C49.8700002,10.386667 49.7633346,10.553332 49.5233334,10.82 C49.2833322,11.086668 49.0166682,11.3366655 48.7233334,11.57 C48.4299986,11.8033345 48.2300006,11.92 48.1233334,11.92 C48.0699998,11.92 48.0233336,11.9266666 47.9833334,11.94 C47.9433332,11.9533334 47.9233334,11.9866664 47.9233334,12.04 C47.9233334,12.0933336 47.7200021,12.2166657 47.3133334,12.41 C46.9066647,12.6033343 46.576668,12.7266664 46.3233334,12.78 Z M55.1666667,5.42 C55.3000007,5.4066666 55.4866655,5.4266664 55.7266667,5.48 C55.9666679,5.5333336 56.1466661,5.56 56.2666667,5.56 C56.7333357,5.7466676 57.0799989,5.9366657 57.3066667,6.13 C57.5333345,6.3233343 57.6333335,6.5933316 57.6066667,6.94 C57.5799999,7.073334 57.5566668,7.2666654 57.5366667,7.52 C57.5166666,7.7733346 57.4533339,7.9866658 57.3466667,8.16 C57.3333333,8.2533338 57.2800005,8.4199988 57.1866667,8.66 C57.0933329,8.9000012 57.0333335,9.0599996 57.0066667,9.14 C56.7266653,9.8200034 56.5600003,10.293332 56.5066667,10.56 C56.4933333,10.6133336 56.456667,10.6999994 56.3966667,10.82 C56.3366664,10.9400006 56.3066667,11.0399996 56.3066667,11.12 C56.3200001,11.253334 56.296667,11.419999 56.2366667,11.62 C56.1766664,11.820001 56.1066671,11.9666662 56.0266667,12.06 C55.9199995,12.1666672 55.8000007,12.22 55.6666667,12.22 C55.4799991,12.22 55.3166674,12.1500007 55.1766667,12.01 C55.036666,11.8699993 54.9733333,11.7133342 54.9866667,11.54 C54.9866667,11.2199984 55.0266663,10.8200024 55.1066667,10.34 C55.2000005,10.2466662 55.2533333,10.1433339 55.2666667,10.03 C55.2800001,9.9166661 55.2933333,9.8400002 55.3066667,9.8 C55.5066677,9.333331 55.6966658,8.800003 55.8766667,8.2 C56.0566676,7.599997 56.1466667,7.1400016 56.1466667,6.82 C56.1466667,6.7266662 56.1400001,6.6600002 56.1266667,6.62 C55.8066651,6.62 55.3666695,6.6399998 54.8066667,6.68 C54.2466639,6.7200002 53.9333337,6.74 53.8666667,6.74 C53.8133331,6.7533334 53.7666669,6.7833331 53.7266667,6.83 C53.6866665,6.8766669 53.6666667,6.9199998 53.6666667,6.96 C53.6399999,7.1333342 53.5866671,7.319999 53.5066667,7.52 L53.3466667,7.92 C53.1866659,8.2800018 53.0733337,8.6066652 53.0066667,8.9 C52.9933333,9.033334 52.8800011,9.333331 52.6666667,9.8 C52.3199983,10.6400042 52.1400001,11.1866654 52.1266667,11.44 C52.0066661,11.6133342 51.9400001,11.8733316 51.9266667,12.22 C51.9133333,12.3266672 51.8666671,12.3999998 51.7866667,12.44 C51.7066663,12.4800002 51.5600011,12.5199998 51.3466667,12.56 C51.2533329,12.5466666 51.1666671,12.506667 51.0866667,12.44 C51.0066663,12.373333 50.9333337,12.3000004 50.8666667,12.22 C50.7999997,12.1399996 50.7266671,12.0600004 50.6466667,11.98 C50.6466667,11.7666656 50.7333325,11.3733362 50.9066667,10.8 C51.0800009,10.2266638 51.2333327,9.8200012 51.3666667,9.58 C51.4333337,9.2199982 51.5599991,8.8200022 51.7466667,8.38 C51.7866669,8.2733328 51.8733327,8.0266686 52.0066667,7.64 C52.1666675,7.0666638 52.3133327,6.580002 52.4466667,6.18 C52.5000003,6.0599994 52.5366666,5.9466672 52.5566667,5.84 C52.5766668,5.7333328 52.6033332,5.6600002 52.6366667,5.62 C52.6700002,5.5799998 52.7599993,5.5200004 52.9066667,5.44 C53.0800009,5.506667 53.2266661,5.54 53.3466667,5.54 C53.4533339,5.54 53.5599995,5.506667 53.6666667,5.44 C53.7066669,5.4266666 53.763333,5.4233333 53.8366667,5.43 C53.9100004,5.4366667 53.9933329,5.44 54.0866667,5.44 L54.5466667,5.44 C54.8666683,5.44 55.0733329,5.4333334 55.1666667,5.42 Z M58.0700001,12.28 C58.0299999,12.1999996 57.9666672,12.1166671 57.8800001,12.03 C57.793333,11.9433329 57.7500001,11.8866668 57.7500001,11.86 C57.7500001,11.7133326 57.7166671,11.6000004 57.6500001,11.52 C57.6233333,11.4933332 57.6100001,11.4333338 57.6100001,11.34 C57.6100001,11.1266656 57.7133324,10.7633359 57.9200001,10.25 C58.1266678,9.7366641 58.3966651,9.180003 58.7300001,8.58 C58.8100005,8.4999996 58.9133328,8.360001 59.0400001,8.16 C59.1666674,7.959999 59.2499999,7.8466668 59.2900001,7.82 C59.2900001,7.7666664 59.3099999,7.7166669 59.3500001,7.67 C59.3900003,7.6233331 59.4366665,7.6 59.4900001,7.6 L59.4900001,7.48 C59.4900001,7.3599994 59.7099979,7.0700023 60.1500001,6.61 C60.5900023,6.1499977 60.9499987,5.8333342 61.2300001,5.66 C61.5633351,5.4333322 61.9033317,5.32 62.2500001,5.32 C62.4900013,5.32 62.6966659,5.386666 62.8700001,5.52 C62.9366671,5.6000004 63.2433307,5.8866642 63.7900001,6.38 L64.5300001,7.04 L64.1700001,8.04 C64.0499995,8.4000018 63.9900001,8.7266652 63.9900001,9.02 C63.9900001,9.5266692 64.1366653,10.013331 64.4300001,10.48 C64.4966671,10.6266674 64.6299991,10.766666 64.8300001,10.9 C65.0300011,11.033334 65.2299991,11.1133332 65.4300001,11.14 C65.7233349,11.1933336 65.8700001,11.3399988 65.8700001,11.58 C65.8700001,11.846668 65.7500013,12.0066664 65.5100001,12.06 C65.4566665,12.0733334 65.3766673,12.08 65.2700001,12.08 C64.4833295,12.08 63.8033363,11.5266722 63.2300001,10.42 C63.1766665,10.3399996 63.1066672,10.1933344 63.0200001,9.98 C62.933333,9.7666656 62.8833335,9.6200004 62.8700001,9.54 C62.7899997,9.6466672 62.6900007,9.7733326 62.5700001,9.92 C62.4499995,10.0666674 62.3366673,10.1933328 62.2300001,10.3 C60.7766595,11.7533406 59.6300043,12.48 58.7900001,12.48 C58.5233321,12.48 58.2833345,12.413334 58.0700001,12.28 Z M58.7900001,11.16 C58.7900001,11.226667 58.8599994,11.2466668 59.0000001,11.22 C59.1400008,11.1933332 59.3133324,11.1266672 59.5200001,11.02 C59.7266678,10.9133328 59.9366657,10.7733342 60.1500001,10.6 C61.2966725,9.6133284 62.1233309,8.753337 62.6300001,8.02 L63.0700001,7.3 C62.9366661,7.0199986 62.7966675,6.8166673 62.6500001,6.69 C62.5033327,6.5633327 62.3700007,6.5 62.2500001,6.5 C61.9699987,6.5 61.5300031,6.8499965 60.9300001,7.55 C60.3299971,8.2500035 59.7833359,9.0733286 59.2900001,10.02 C59.1699995,10.2466678 59.0633339,10.4766655 58.9700001,10.71 L58.7900001,11.16 Z M71.6133334,10.28 C71.5599998,10.3600004 71.4600008,10.4966657 71.3133334,10.69 C71.166666,10.8833343 71.0600004,11.079999 70.9933334,11.28 C70.9533332,11.3866672 70.8900005,11.4766663 70.8033334,11.55 C70.7166663,11.6233337 70.6666668,11.6666666 70.6533334,11.68 C70.5866664,11.6533332 70.5100005,11.6266668 70.4233334,11.6 C70.3366663,11.5733332 70.266667,11.5366669 70.2133334,11.49 C70.1599998,11.4433331 70.0933338,11.3800004 70.0133334,11.3 C69.7466654,11.0466654 69.6399998,10.8066678 69.6933334,10.58 C69.68,10.446666 69.6766667,10.313334 69.6833334,10.18 C69.6900001,10.046666 69.6933334,9.9266672 69.6933334,9.82 C69.7066668,9.6599992 69.7133334,9.4200016 69.7133334,9.1 C69.7133334,8.4866636 69.6800004,8.1066674 69.6133334,7.96 C69.466666,7.9733334 69.366667,7.9933332 69.3133334,8.02 C69.2599998,8.0466668 69.1933338,8.126666 69.1133334,8.26 C69.0866666,8.3133336 69.0100007,8.4366657 68.8833334,8.63 C68.7566661,8.8233343 68.5933344,9.0599986 68.3933334,9.34 C68.1933324,9.6466682 67.9366683,10.0399976 67.6233334,10.52 C67.3099985,11.0000024 67.16,11.2333334 67.1733334,11.22 C67.0133326,11.4066676 66.8800006,11.6466652 66.7733334,11.94 C66.626666,12.273335 66.4800008,12.3666674 66.3333334,12.22 C66.053332,12.0733326 65.8466674,11.9466672 65.7133334,11.84 C65.5933328,11.6266656 65.5266668,11.4133344 65.5133334,11.2 C65.5533336,11.1866666 65.5999998,11.1633335 65.6533334,11.13 C65.706667,11.0966665 65.7466666,11.0666668 65.7733334,11.04 C65.8000002,11.0133332 65.82,10.9800002 65.8333334,10.94 L67.3533334,8.72 L67.6133334,8.34 C67.6800004,8.206666 67.8599986,7.9533352 68.1533334,7.58 C68.1800002,7.513333 68.3099989,7.3333348 68.5433334,7.04 C68.7766679,6.7466652 68.933333,6.5800002 69.0133334,6.54 C69.0800004,6.4999998 69.1366665,6.4300005 69.1833334,6.33 C69.2300003,6.2299995 69.26,6.1666668 69.2733334,6.14 C69.3133336,5.9266656 69.4533322,5.82 69.6933334,5.82 C69.7733338,5.82 69.8333332,5.8266666 69.8733334,5.84 L70.6533334,6.44 C70.64,6.4933336 70.6333334,6.5799994 70.6333334,6.7 C70.6333334,6.8866676 70.6866662,7.1666648 70.7933334,7.54 C70.78,7.5800002 70.7733334,7.6399996 70.7733334,7.72 C70.7733334,7.8266672 70.7833333,7.9299995 70.8033334,8.03 C70.8233335,8.1300005 70.8333334,8.2333328 70.8333334,8.34 C70.8333334,8.4200004 70.8266668,8.4799998 70.8133334,8.52 C70.8133334,8.7733346 70.8799994,8.9 71.0133334,8.9 C71.1066672,8.9 71.2199994,8.833334 71.3533334,8.7 C71.7266686,8.233331 72.4333282,7.4800052 73.4733334,6.44 C73.860002,6.0533314 74.0666666,5.8400002 74.0933334,5.8 C74.1333336,5.733333 74.1999996,5.7 74.2933334,5.7 C74.3600004,5.7 74.4133332,5.7133332 74.4533334,5.74 C74.640001,5.8333338 74.7833329,5.913333 74.8833334,5.98 C74.9833339,6.046667 75.106666,6.1533326 75.2533334,6.3 C75.3333338,6.3933338 75.3733334,6.4933328 75.3733334,6.6 C75.3733334,6.666667 75.3533336,6.733333 75.3133334,6.8 C75.1933328,7.0800014 75.0333344,7.6299959 74.8333334,8.45 C74.6333324,9.2700041 74.5266668,9.846665 74.5133334,10.18 C74.5133334,10.2733338 74.5033335,10.4166657 74.4833334,10.61 C74.4633333,10.8033343 74.4533334,10.9733326 74.4533334,11.12 C74.4533334,11.4133348 74.4799998,11.6733322 74.5333334,11.9 C74.6000004,12.1533346 74.6333334,12.3666658 74.6333334,12.54 C74.6333334,12.673334 74.6033337,12.7666664 74.5433334,12.82 C74.4833331,12.8733336 74.3733342,12.9133332 74.2133334,12.94 C74.133333,12.8999998 74.033334,12.8300005 73.9133334,12.73 C73.7933328,12.6299995 73.6800006,12.546667 73.5733334,12.48 C73.5466666,12.3733328 73.4966671,12.2033345 73.4233334,11.97 C73.3499997,11.7366655 73.32,11.5266676 73.3333334,11.34 C73.3333334,11.273333 73.3166669,11.1633341 73.2833334,11.01 C73.2499999,10.8566659 73.2533332,10.7400004 73.2933334,10.66 L73.2733334,10.42 C73.2733334,9.9399976 73.3866656,9.1933384 73.6133334,8.18 C73.5733332,8.1266664 73.5366669,8.0933334 73.5033334,8.08 C73.4699999,8.0666666 73.426667,8.0866664 73.3733334,8.14 C73.1999992,8.3000008 72.9466684,8.5733314 72.6133334,8.96 C72.5866666,8.9866668 72.5333338,9.0299997 72.4533334,9.09 C72.373333,9.1500003 72.3333334,9.2266662 72.3333334,9.32 L71.6133334,10.28 Z M76.4166668,12.28 C76.3766666,12.1999996 76.3133339,12.1166671 76.2266668,12.03 C76.1399997,11.9433329 76.0966668,11.8866668 76.0966668,11.86 C76.0966668,11.7133326 76.0633338,11.6000004 75.9966668,11.52 C75.97,11.4933332 75.9566668,11.4333338 75.9566668,11.34 C75.9566668,11.1266656 76.0599991,10.7633359 76.2666668,10.25 C76.4733345,9.7366641 76.7433318,9.180003 77.0766668,8.58 C77.1566672,8.4999996 77.2599995,8.360001 77.3866668,8.16 C77.5133341,7.959999 77.5966666,7.8466668 77.6366668,7.82 C77.6366668,7.7666664 77.6566666,7.7166669 77.6966668,7.67 C77.736667,7.6233331 77.7833332,7.6 77.8366668,7.6 L77.8366668,7.48 C77.8366668,7.3599994 78.0566646,7.0700023 78.4966668,6.61 C78.936669,6.1499977 79.2966654,5.8333342 79.5766668,5.66 C79.9100018,5.4333322 80.2499984,5.32 80.5966668,5.32 C80.836668,5.32 81.0433326,5.386666 81.2166668,5.52 C81.2833338,5.6000004 81.5899974,5.8866642 82.1366668,6.38 L82.8766668,7.04 L82.5166668,8.04 C82.3966662,8.4000018 82.3366668,8.7266652 82.3366668,9.02 C82.3366668,9.5266692 82.483332,10.013331 82.7766668,10.48 C82.8433338,10.6266674 82.9766658,10.766666 83.1766668,10.9 C83.3766678,11.033334 83.5766658,11.1133332 83.7766668,11.14 C84.0700016,11.1933336 84.2166668,11.3399988 84.2166668,11.58 C84.2166668,11.846668 84.096668,12.0066664 83.8566668,12.06 C83.8033332,12.0733334 83.723334,12.08 83.6166668,12.08 C82.8299962,12.08 82.150003,11.5266722 81.5766668,10.42 C81.5233332,10.3399996 81.4533339,10.1933344 81.3666668,9.98 C81.2799997,9.7666656 81.2300002,9.6200004 81.2166668,9.54 C81.1366664,9.6466672 81.0366674,9.7733326 80.9166668,9.92 C80.7966662,10.0666674 80.683334,10.1933328 80.5766668,10.3 C79.1233262,11.7533406 77.976671,12.48 77.1366668,12.48 C76.8699988,12.48 76.6300012,12.413334 76.4166668,12.28 Z M77.1366668,11.16 C77.1366668,11.226667 77.2066661,11.2466668 77.3466668,11.22 C77.4866675,11.1933332 77.6599991,11.1266672 77.8666668,11.02 C78.0733345,10.9133328 78.2833324,10.7733342 78.4966668,10.6 C79.6433392,9.6133284 80.4699976,8.753337 80.9766668,8.02 L81.4166668,7.3 C81.2833328,7.0199986 81.1433342,6.8166673 80.9966668,6.69 C80.8499994,6.5633327 80.7166674,6.5 80.5966668,6.5 C80.3166654,6.5 79.8766698,6.8499965 79.2766668,7.55 C78.6766638,8.2500035 78.1300026,9.0733286 77.6366668,10.02 C77.5166662,10.2466678 77.4100006,10.4766655 77.3166668,10.71 L77.1366668,11.16 Z" id="не-для-спама"></path>
                    <path d="M86.8558275,8.02346427 C103.451969,11.1710649 106.864259,41.4955098 89.4150455,45.7179008 C88.6395249,45.8714423 88.4068687,44.8734226 89.1048373,44.5662142 C104.382593,38.8853044 101.590719,13.550958 86.4680672,9.55900465 C85.4598904,9.32856697 85.8476507,7.79315204 86.8558275,8.02346427 Z M83.1569383,46.3771704 C85.1734186,43.3831113 87.4224284,40.4658229 90.7571671,38.930408 C91.8428959,38.4697835 92.6959686,39.8516569 91.6877918,40.5427191 C89.1285738,42.0780086 87.2673243,44.074048 85.4836269,46.4540666 C89.438782,47.83594 93.4714892,49.524771 97.1164361,51.5209358 C97.3490923,51.6744773 97.5041965,51.9815603 97.5041965,52.2118726 C97.4266444,52.2886433 97.4266444,52.2886433 97.5041965,52.2886433 C97.7368526,52.4421848 97.5817485,52.8260385 97.3490923,52.672497 C97.3490923,52.672497 97.2715403,52.672497 97.2715403,52.7492678 C97.0388841,52.9028093 96.7286758,53.0563508 96.4960196,52.97958 C92.1531042,51.4441651 88.0428449,49.2945842 83.6999295,47.7591693 C83.1569383,47.6055023 82.769178,46.9145656 83.1569383,46.3771704 Z" id="Combined-Shape" fill-rule="nonzero"></path>
                </g>
            </g>
        </g>
    </g>
</svg>