<svg xmlns="http://www.w3.org/2000/svg" width="67" height="40" viewBox="0 0 67 40">
    <g fill="#B5B6BA" fill-rule="evenodd">
        <path d="M32.083 19.18c.744.583 1.468 1.038 2.477 1.038 1.087 0 1.64-.361 1.64-.91 0-.85-.907-1.145-2.165-1.602-1.738-.614-2.878-1.482-2.878-3.026 0-1.811 1.604-3.14 3.94-3.14 1.181 0 2.346.588 3.07 1.322l-1.135 1.45c-.469-.332-1.264-.86-2.043-.86-1.184 0-1.592.423-1.592.975 0 .677.6.867 1.95 1.387 1.848.693 3.116 1.344 3.116 3.134 0 1.78-1.166 3.186-4.038 3.186-1.196 0-2.742-.662-3.674-1.42l1.332-1.535zM40.008 19.18c.745.583 1.468 1.038 2.478 1.038 1.086 0 1.639-.361 1.639-.91 0-.85-.906-1.145-2.164-1.602-1.739-.614-2.879-1.482-2.879-3.026 0-1.811 1.604-3.14 3.941-3.14 1.18 0 2.345.588 3.069 1.322l-1.135 1.45c-.468-.332-1.264-.86-2.042-.86-1.185 0-1.593.423-1.593.975 0 .677.6.867 1.95 1.387 1.848.693 3.116 1.344 3.116 3.134 0 1.78-1.165 3.186-4.038 3.186-1.195 0-2.742-.662-3.673-1.42l1.331-1.535zM47.257 11.695h2.318v8.366H54v1.935h-6.743zM31.048 27.098c.26.252.612.495 1.124.495.457 0 1.124-.048 1.124-.758 0-.548-.626-.7-1.216-.93-.713-.257-1.113-.59-1.113-1.215 0-.69.518-1.175 1.367-1.175.448 0 .934.155 1.368.477l-.283.364c-.306-.239-.712-.412-1.108-.412-.597 0-.863.379-.863.681 0 .415.308.625.912.862.739.289 1.458.573 1.458 1.328 0 .848-.625 1.219-1.652 1.219-.549 0-1.179-.328-1.415-.594l.297-.342zM37.419 25.92h-1.85v1.637h2.184V28h-2.691v-4.435h2.69v.444H35.57v1.438h1.849zM53.6 25.92h-1.85v1.637h2.183V28h-2.69v-4.435h2.69v.444H51.75v1.438h1.85zM42.001 27.463s-.438.603-1.313.603c-1.028 0-1.942-.79-1.942-2.244 0-1.388.71-2.33 2.066-2.33.708 0 1.101.523 1.101.523l-.31.298s-.306-.377-.775-.377c-1.025 0-1.52.702-1.52 1.866 0 1.086.5 1.783 1.454 1.783.535 0 .95-.415.95-.415l.29.293zM43.434 23.565v2.626c0 .993.397 1.414.93 1.414.593 0 .973-.434.973-1.414v-2.626h.522v2.586c0 1.362-.647 1.921-1.512 1.921-.819 0-1.435-.52-1.435-1.895v-2.612h.522zM47.628 25.719h.84c.121 0 .242-.012.362-.035a.878.878 0 0 0 .32-.127.652.652 0 0 0 .225-.266c.057-.115.085-.266.085-.45 0-.185-.028-.335-.085-.45a.652.652 0 0 0-.225-.267.878.878 0 0 0-.32-.127 1.912 1.912 0 0 0-.363-.034h-.84v1.756zm-.509-2.154h1.45c.28 0 .511.04.692.12.181.079.324.18.43.302.104.122.177.26.219.412.04.153.061.3.061.442a1.219 1.219 0 0 1-.626 1.066 1.148 1.148 0 0 1-.448.138L50.137 28h-.61l-1.111-1.884h-.788V28h-.509v-4.435zM20.038 26.535l-.989 1.004-.989-1.004-1.349-1.368.99-1.004 1.348 1.369 3.103-3.148.989 1.004-3.103 3.147zM12.667 30H26.91V19.871H12.667v10.13zM19.789 10c-2.95 0-5.342 2.426-5.342 5.42v2.978h2.416V15.42c0-1.64 1.31-2.968 2.925-2.968 1.616 0 2.925 1.329 2.925 2.968v2.978h2.417v-2.979c0-2.993-2.392-5.419-5.341-5.419"/>
    </g>
</svg>
