<?xml version="1.0" encoding="UTF-8"?>
<svg width="55px" height="18px" viewBox="0 0 55 18" version="1.1" xmlns="http://www.w3.org/2000/svg" xmlns:xlink="http://www.w3.org/1999/xlink">
    <!-- Generator: Sketch 43.1 (39012) - http://www.bohemiancoding.com/sketch -->
    <title>paysystem-logo-visa</title>
    <desc>Created with Sketch.</desc>
    <defs>
        <linearGradient x1="3.96%" y1="50%" x2="99.3779297%" y2="50%" id="linearGradient-1">
            <stop stop-color="#BDBEC2" offset="0%"></stop>
            <stop stop-color="#DFDFDF" offset="100%"></stop>
        </linearGradient>
    </defs>
    <g id="ф" stroke="none" stroke-width="1" fill="none" fill-rule="evenodd">
        <g id="Desktop-HD" transform="translate(-868.000000, -575.000000)" fill="url(#linearGradient-1)">
            <g id="paysystem-logo-visa" transform="translate(868.000000, 575.000000)">
                <g id="Shape">
                    <path d="M35.953,0 C31.56,0 28.468,2.367 28.443,5.755 C28.413,8.262 30.65,9.659 32.334,10.493 C34.065,11.346 34.646,11.893 34.639,12.656 C34.626,13.825 33.259,14.34 31.979,14.36 C29.745,14.396 28.448,13.748 27.415,13.26 L26.61,17.075 C27.647,17.558 29.564,17.979 31.552,18 C36.222,18 39.275,15.664 39.289,12.043 C39.309,7.449 33.019,7.195 33.063,5.143 C33.077,4.518 33.663,3.855 34.948,3.684 C35.584,3.6 37.34,3.535 39.33,4.464 L40.11,0.772 C39.04,0.378 37.665,2.84217094e-14 35.953,2.84217094e-14 L35.953,0 Z M47.619,0.318 C46.766,0.318 46.046,0.821 45.727,1.595 L39.058,17.728 L43.724,17.728 L44.651,15.127 L50.352,15.127 L50.89,17.727 L55,17.727 L51.412,0.318 L47.619,0.318 Z M48.27,5.022 L49.617,11.559 L45.93,11.559 L48.27,5.022 Z M22.79,0.318 L19.113,17.728 L23.557,17.728 L27.232,0.318 L22.789,0.318 L22.79,0.318 Z M16.214,0.318 L11.588,12.168 L9.717,2.093 C9.497,0.968 8.631,0.318 7.667,0.318 L0.105,0.318 L0,0.823 C1.552,1.166 3.316,1.717 4.384,2.305 C5.038,2.665 5.224,2.978 5.44,3.834 L8.984,17.728 L13.681,17.728 L20.881,0.318 L16.214,0.318 Z"></path>
                </g>
            </g>
        </g>
    </g>
</svg>