<?xml version="1.0" encoding="UTF-8"?>
<svg width="37px" height="29px" viewBox="0 0 37 29" version="1.1" xmlns="http://www.w3.org/2000/svg" xmlns:xlink="http://www.w3.org/1999/xlink">
    <!-- Generator: Sketch 43.1 (39012) - http://www.bohemiancoding.com/sketch -->
    <title>paysystem-logo-master-card</title>
    <desc>Created with Sketch.</desc>
    <defs>
        <polygon id="path-1" points="0.031 4.462 34.741 4.462 34.741 0.035 0.03 0.035"></polygon>
        <polygon id="path-3" points="0 28.833 37 28.833 37 0 0 0"></polygon>
        <polygon id="path-5" points="0 28.833 37 28.833 37 0 0 0"></polygon>
        <polygon id="path-7" points="0 28.833 37 28.833 37 0 0 0"></polygon>
    </defs>
    <g id="ф" stroke="none" stroke-width="1" fill="none" fill-rule="evenodd">
        <g id="Desktop-HD" transform="translate(-981.000000, -569.000000)">
            <g id="paysystem-logo-master-card" transform="translate(981.000000, 569.000000)">
                <g>
                    <g id="Group" transform="translate(1.884000, 24.371000)">
                        <g id="Clipped">
                            <mask id="mask-2" fill="white">
                                <use xlink:href="#path-1"></use>
                            </mask>
                            <g id="a"></g>
                            <path d="M34.382,4.07 L34.382,4.145 L34.451,4.145 C34.4643747,4.14547875 34.4775934,4.14200016 34.489,4.135 C34.498,4.13 34.503,4.12 34.503,4.107 C34.5035288,4.09586529 34.4982251,4.08525779 34.489,4.079 C34.4774436,4.072456 34.464264,4.06933451 34.451,4.07 L34.382,4.07 Z M34.452,4.018 C34.488,4.018 34.515,4.026 34.535,4.042 C34.5546773,4.05773397 34.5657931,4.08181816 34.565,4.107 C34.5657304,4.12888826 34.5569831,4.15002767 34.541,4.165 C34.5227442,4.18144199 34.4995096,4.19129912 34.475,4.193 L34.566,4.299 L34.495,4.299 L34.41,4.193 L34.382,4.193 L34.382,4.3 L34.322,4.3 L34.322,4.019 L34.452,4.019 L34.452,4.018 Z M34.434,4.395 C34.4963451,4.39564667 34.5561388,4.37027965 34.599,4.325 C34.6429126,4.28095948 34.6673961,4.22119107 34.667,4.159 C34.667074,4.06509573 34.611238,3.9801621 34.525,3.943 C34.4365411,3.9053594 34.3340915,3.92513731 34.266,3.993 C34.2219924,4.03697734 34.1974919,4.09678729 34.198,4.159 C34.1974613,4.22175468 34.2221525,4.28209571 34.2665284,4.32647161 C34.3109043,4.37084751 34.3712453,4.3955387 34.434,4.395 L34.434,4.395 Z M34.434,3.857 C34.5152676,3.85572685 34.5935739,3.8874824 34.651,3.945 C34.7078546,4.00180315 34.7401675,4.07863615 34.741,4.159 C34.7418278,4.23940705 34.7092329,4.31654819 34.651,4.372 C34.5929782,4.42885943 34.5152325,4.46110416 34.434,4.462 C34.3322124,4.46234224 34.2369177,4.41204838 34.1797635,4.32782116 C34.1226094,4.24359395 34.1110784,4.13646043 34.149,4.042 C34.19789,3.92840958 34.3103453,3.8554123 34.434,3.857 L34.434,3.857 Z M6.11,2.777 C6.11,2.242 6.46,1.804 7.03,1.804 C7.577,1.804 7.945,2.224 7.945,2.777 C7.945,3.331 7.577,3.75 7.031,3.75 C6.459,3.75 6.11,3.311 6.11,2.777 Z M8.568,2.777 L8.568,1.257 L7.908,1.257 L7.908,1.625 C7.698,1.352 7.38,1.18 6.948,1.18 C6.098,1.18 5.43,1.848 5.43,2.777 C5.43,3.706 6.097,4.374 6.948,4.374 C7.38,4.374 7.698,4.202 7.908,3.929 L7.908,4.298 L8.568,4.298 L8.568,2.777 Z M30.875,2.777 C30.875,2.242 31.225,1.804 31.795,1.804 C32.342,1.804 32.71,2.224 32.71,2.777 C32.71,3.331 32.342,3.75 31.796,3.75 C31.224,3.75 30.875,3.311 30.875,2.777 Z M33.333,2.777 L33.333,0.035 L32.673,0.035 L32.673,1.625 C32.463,1.352 32.145,1.18 31.713,1.18 C30.862,1.18 30.195,1.848 30.195,2.777 C30.195,3.706 30.862,4.374 31.713,4.374 C32.145,4.374 32.463,4.202 32.673,3.929 L32.673,4.298 L33.333,4.298 L33.333,2.777 Z M16.76,1.772 C17.186,1.772 17.46,2.039 17.529,2.51 L15.954,2.51 C16.024,2.07 16.291,1.772 16.76,1.772 L16.76,1.772 Z M16.773,1.18 C15.884,1.18 15.262,1.829 15.262,2.777 C15.262,3.744 15.909,4.374 16.818,4.374 C17.275,4.374 17.694,4.259 18.063,3.948 L17.739,3.458 C17.488247,3.65929348 17.1775168,3.77119857 16.856,3.776 C16.43,3.776 16.043,3.579 15.947,3.031 L18.202,3.031 C18.209,2.949 18.215,2.866 18.215,2.777 C18.209,1.829 17.625,1.18 16.773,1.18 L16.773,1.18 Z M24.744,2.777 C24.744,2.242 25.094,1.804 25.665,1.804 C26.212,1.804 26.58,2.224 26.58,2.777 C26.58,3.331 26.212,3.75 25.665,3.75 C25.094,3.75 24.745,3.311 24.745,2.777 L24.744,2.777 Z M27.202,2.777 L27.202,1.257 L26.542,1.257 L26.542,1.625 C26.332,1.352 26.015,1.18 25.582,1.18 C24.732,1.18 24.065,1.848 24.065,2.777 C24.065,3.706 24.732,4.374 25.583,4.374 C26.015,4.374 26.333,4.202 26.542,3.929 L26.542,4.298 L27.202,4.298 L27.202,2.777 Z M21.016,2.777 C21.016,3.7 21.658,4.374 22.636,4.374 C23.093,4.374 23.398,4.272 23.728,4.011 L23.411,3.477 C23.1826849,3.65121757 22.9041766,3.74697675 22.617,3.75 C22.089,3.744 21.702,3.362 21.702,2.777 C21.702,2.192 22.089,1.81 22.617,1.804 C22.903,1.804 23.163,1.899 23.411,2.077 L23.728,1.543 C23.398,1.282 23.093,1.18 22.636,1.18 C21.658,1.18 21.016,1.854 21.016,2.777 L21.016,2.777 Z M29.527,1.18 C29.146,1.18 28.898,1.358 28.727,1.625 L28.727,1.256 L28.073,1.256 L28.073,4.298 L28.733,4.298 L28.733,2.593 C28.733,2.09 28.949,1.81 29.381,1.81 C29.514,1.81 29.654,1.829 29.794,1.886 L29.997,1.263 C29.8461981,1.20878865 29.6872484,1.1807188 29.527,1.18 L29.527,1.18 Z M11.832,1.498 C11.514,1.288 11.076,1.18 10.593,1.18 C9.825,1.18 9.329,1.549 9.329,2.153 C9.329,2.65 9.698,2.955 10.377,3.051 L10.688,3.095 C11.05,3.146 11.222,3.241 11.222,3.413 C11.222,3.649 10.981,3.783 10.53,3.783 C10.072,3.783 9.742,3.636 9.52,3.464 L9.208,3.98 C9.57,4.247 10.028,4.374 10.523,4.374 C11.4,4.374 11.908,3.96 11.908,3.381 C11.908,2.847 11.508,2.567 10.848,2.471 L10.536,2.427 C10.25,2.389 10.021,2.332 10.021,2.128 C10.021,1.905 10.237,1.772 10.599,1.772 C10.987,1.772 11.362,1.918 11.546,2.032 L11.832,1.498 L11.832,1.498 Z M20.349,1.18 C19.969,1.18 19.72,1.358 19.549,1.625 L19.549,1.256 L18.895,1.256 L18.895,4.298 L19.555,4.298 L19.555,2.593 C19.555,2.09 19.771,1.81 20.203,1.81 C20.336,1.81 20.476,1.829 20.616,1.886 L20.819,1.263 C20.6681981,1.20878865 20.5092484,1.1807188 20.349,1.18 L20.349,1.18 Z M14.715,1.256 L13.635,1.256 L13.635,0.334 L12.969,0.334 L12.969,1.256 L12.352,1.256 L12.352,1.861 L12.969,1.861 L12.969,3.248 C12.969,3.954 13.242,4.374 14.023,4.374 C14.309,4.374 14.639,4.285 14.849,4.139 L14.659,3.572 C14.4817375,3.67800644 14.2804293,3.73719449 14.074,3.744 C13.744,3.744 13.635,3.54 13.635,3.235 L13.635,1.861 L14.715,1.861 L14.715,1.256 L14.715,1.256 Z M4.845,4.298 L4.845,2.388 C4.845,1.67 4.388,1.186 3.651,1.18 C3.263,1.174 2.863,1.294 2.584,1.72 C2.374,1.384 2.044,1.18 1.58,1.18 C1.256,1.18 0.939,1.275 0.691,1.632 L0.691,1.256 L0.031,1.256 L0.031,4.298 L0.697,4.298 L0.697,2.61 C0.697,2.082 0.99,1.803 1.441,1.803 C1.879,1.803 2.101,2.089 2.101,2.604 L2.101,4.297 L2.768,4.297 L2.768,2.61 C2.768,2.082 3.073,1.803 3.511,1.803 C3.962,1.803 4.178,2.089 4.178,2.604 L4.178,4.297 L4.845,4.297 L4.845,4.298 Z" id="Shape" fill="#BDBEC2" fill-rule="nonzero" mask="url(#mask-2)"></path>
                        </g>
                    </g>
                    <g id="Clipped">
                        <mask id="mask-4" fill="white">
                            <use xlink:href="#path-3"></use>
                        </mask>
                        <g id="c"></g>
                        <polygon id="Shape" fill="#C5C6C9" fill-rule="nonzero" mask="url(#mask-4)" points="13.497 20.46 23.503 20.46 23.503 2.45 13.497 2.45"></polygon>
                    </g>
                    <g id="Clipped">
                        <mask id="mask-6" fill="white">
                            <use xlink:href="#path-5"></use>
                        </mask>
                        <g id="c"></g>
                        <path d="M14.133,11.455 C14.133,7.801 15.841,4.546 18.5,2.449 C16.4881115,0.859416466 13.9980706,-0.00360507175 11.434,1.78332877e-14 C5.119,1.90958343e-14 0,5.128 0,11.455 C0,17.781 5.119,22.909 11.434,22.909 C14.101,22.909 16.555,21.994 18.5,20.46 C15.7391698,18.2878563 14.1291415,14.9678872 14.133,11.455" id="Shape" fill="#BDBEC2" fill-rule="nonzero" mask="url(#mask-6)"></path>
                    </g>
                    <g id="Clipped">
                        <mask id="mask-8" fill="white">
                            <use xlink:href="#path-7"></use>
                        </mask>
                        <g id="c"></g>
                        <path d="M37,11.455 C37,17.781 31.881,22.909 25.566,22.909 C22.899,22.909 20.445,21.994 18.5,20.46 C21.2608302,18.2878563 22.8708585,14.9678872 22.867,11.455 C22.867,7.801 21.16,4.546 18.5,2.449 C20.5118885,0.859416466 23.0019294,-0.00360507175 25.566,1.82076559e-14 C31.881,1.82076559e-14 37,5.128 37,11.455" id="Shape" fill="#DFDFDF" fill-rule="nonzero" mask="url(#mask-8)"></path>
                    </g>
                </g>
            </g>
        </g>
    </g>
</svg>