<?xml version="1.0" encoding="UTF-8" standalone="no"?>
<svg xmlns="http://www.w3.org/2000/svg" height="60px" width="100px" version="1.1" xmlns:xlink="http://www.w3.org/1999/xlink" viewBox="0 0 100 60"><!-- Generator: sketchtool 41.2 (35397) - http://www.bohemiancoding.com/sketch -->
 <title>FB8A9CB5-2CD4-4D5A-80F1-33172D0A779B</title>
 <desc>Created with sketchtool.</desc>
 <g id="landing" fill-rule="evenodd" fill="none">
  <g id="uplata_landing_1-2" transform="translate(-830 -1586)">
   <g id="tools" transform="translate(0 900)">
    <g id="paysystem_logo_platon" transform="translate(830 686)">
     <g id="Group-3" transform="translate(0 17)">
      <path id="Fill-1" fill="#B5B6BA" d="m70.007 12.612h-1.389l-0.106-0.427 3.993-5.1055h0.491v3.2255h2.581c0.039 0.191 0.068 0.383 0.086 0.577 0.014 0.171 0.021 0.35 0.021 0.534 0 0.185-0.007 0.378-0.021 0.578-0.018 0.207-0.047 0.412-0.086 0.616h-2.579v4.337c-0.009 0.359 0.027 0.718 0.107 1.068 0.054 0.235 0.16 0.454 0.311 0.641 0.131 0.155 0.305 0.266 0.501 0.321 0.229 0.061 0.467 0.09 0.704 0.086 0.212 0.001 0.423-0.017 0.631-0.053l0.545-0.097c0.097 0.274 0.166 0.557 0.205 0.845 0.04 0.258 0.061 0.519 0.064 0.78 0 0.156 0 0.288-0.011 0.395-0.01 0.106-0.018 0.205-0.032 0.31-0.665 0.157-1.347 0.236-2.03 0.234-1.296 0-2.285-0.303-2.969-0.908-0.683-0.605-1.026-1.592-1.027-2.958l0.01-4.999zm-5.935 3.674c-0.171-0.029-0.356-0.054-0.555-0.074-0.177-0.021-0.355-0.032-0.534-0.033-0.576-0.029-1.148 0.1-1.656 0.374-0.414 0.256-0.652 0.722-0.616 1.208-0.02 0.303 0.062 0.604 0.234 0.854 0.147 0.193 0.342 0.343 0.565 0.438 0.225 0.093 0.462 0.151 0.705 0.17 0.249 0.022 0.466 0.033 0.651 0.033 0.215 0 0.429-0.018 0.641-0.053l0.555-0.097 0.01-2.82zm0-2.201c0.012-0.287-0.047-0.573-0.171-0.832-0.108-0.207-0.27-0.38-0.47-0.501-0.227-0.131-0.478-0.215-0.738-0.247-0.322-0.044-0.646-0.066-0.971-0.063-0.841 0.011-1.675 0.162-2.466 0.448-0.183-0.333-0.333-0.684-0.448-1.046-0.107-0.383-0.157-0.778-0.15-1.175 0.612-0.211 1.241-0.368 1.88-0.471 0.58-0.096 1.166-0.146 1.753-0.15 1.48 0 2.638 0.356 3.472 1.069 0.834 0.712 1.25 1.851 1.249 3.418v6.408c-0.597 0.181-1.203 0.331-1.816 0.448-0.796 0.147-1.605 0.216-2.414 0.205-0.671 0.006-1.34-0.058-1.997-0.191-0.557-0.108-1.087-0.326-1.56-0.641-0.428-0.291-0.774-0.688-1.004-1.152-0.251-0.542-0.372-1.134-0.354-1.73-0.021-0.603 0.131-1.2 0.438-1.72 0.284-0.455 0.672-0.836 1.132-1.111 0.48-0.284 1.003-0.486 1.549-0.598 0.562-0.12 1.135-0.18 1.709-0.181 0.411 0 0.867 0.021 1.367 0.064l0.01-0.251zm-12.52-8.3511c0.501-0.0842 1.008-0.1268 1.516-0.1274 0.502 0.0012 1.002 0.0438 1.496 0.1274v11.215c-0.007 0.358 0.018 0.715 0.074 1.068 0.032 0.225 0.111 0.44 0.234 0.631 0.1 0.145 0.244 0.254 0.411 0.31 0.208 0.063 0.424 0.092 0.641 0.087 0.125-0.001 0.25-0.008 0.374-0.021 0.132-0.013 0.264-0.035 0.394-0.064 0.153 0.557 0.232 1.132 0.235 1.71v0.31c-0.002 0.105-0.017 0.209-0.044 0.31-0.267 0.079-0.543 0.129-0.821 0.15-0.321 0.029-0.616 0.043-0.886 0.043-1.095 0-1.975-0.302-2.638-0.908-0.663-0.605-0.993-1.591-0.992-2.958l0.006-11.883zm-9.078 8.0941c0.158 0.028 0.319 0.043 0.48 0.044h0.545c0.354 0 0.706-0.047 1.047-0.14 0.332-0.088 0.642-0.245 0.909-0.46 0.273-0.228 0.49-0.517 0.63-0.845 0.168-0.409 0.248-0.85 0.234-1.292 0.014-0.456-0.066-0.911-0.234-1.3354-0.138-0.3373-0.354-0.6371-0.63-0.8752-0.265-0.2212-0.575-0.3819-0.909-0.4704-0.341-0.0927-0.693-0.1397-1.047-0.1397-0.158 0-0.304 0.0035-0.438 0.0102-0.134 0.0068-0.33 0.0247-0.587 0.0535v5.45zm-3.119-7.903c0.655-0.0561 1.317-0.1028 1.987-0.1398 0.669-0.0369 1.346-0.0548 2.029-0.0534 0.728-0.001 1.453 0.0678 2.168 0.2055 0.709 0.1327 1.384 0.4051 1.986 0.8012 0.611 0.4175 1.106 0.9829 1.439 1.6436 0.369 0.6985 0.554 1.603 0.554 2.7139 0 1.111-0.185 2.011-0.554 2.702-0.338 0.657-0.832 1.221-1.439 1.643-0.588 0.405-1.253 0.684-1.953 0.822-0.701 0.138-1.413 0.207-2.127 0.205-0.185 0-0.359-0.003-0.524-0.01-0.164-0.007-0.317-0.018-0.46-0.033v4.931c-0.262 0.042-0.526 0.071-0.791 0.086-0.256 0.014-0.505 0.021-0.748 0.021-0.242 0-0.491-0.007-0.747-0.021-0.274-0.015-0.552-0.044-0.834-0.086l0.014-15.431z"/>
      <path id="Fill-3" fill="#DADADA" d="m90.067 10.305c0.197-0.043 0.397-0.075 0.598-0.097 0.219-0.022 0.44-0.033 0.661-0.032 0.214-0.002 0.428 0.009 0.641 0.032 0.185 0.022 0.378 0.054 0.577 0.097 0.053 0.098 0.093 0.202 0.118 0.31 0.034 0.136 0.067 0.278 0.096 0.428s0.054 0.295 0.074 0.437c0.021 0.142 0.039 0.263 0.053 0.364 0.154-0.228 0.326-0.442 0.514-0.641 0.207-0.22 0.44-0.414 0.694-0.577 0.277-0.175 0.574-0.313 0.886-0.411 0.352-0.111 0.72-0.165 1.089-0.161 1.253 0 2.197 0.343 2.831 1.028 0.634 0.684 0.951 1.76 0.951 3.225v7.049c-1.004 0.171-2.03 0.171-3.034 0v-6.246c0-0.768-0.117-1.359-0.352-1.773-0.234-0.413-0.645-0.619-1.232-0.616-0.253 0.002-0.505 0.038-0.748 0.107-0.264 0.074-0.503 0.216-0.695 0.411-0.23 0.247-0.401 0.542-0.501 0.865-0.142 0.47-0.208 0.961-0.193 1.452v5.79c-1.004 0.17-2.029 0.17-3.032 0l0.004-11.041zm-7.505 8.992c0.797 0 1.37-0.295 1.719-0.885 0.35-0.59 0.524-1.442 0.524-2.554 0-1.111-0.174-1.962-0.524-2.553-0.349-0.592-0.922-0.887-1.719-0.886-0.783 0-1.35 0.295-1.699 0.886-0.349 0.59-0.524 1.441-0.524 2.553 0 1.111 0.175 1.962 0.524 2.554s0.916 0.887 1.699 0.885zm0 2.307c-0.802 0.019-1.599-0.13-2.34-0.437-0.636-0.273-1.198-0.69-1.644-1.218-0.444-0.539-0.778-1.159-0.982-1.827-0.225-0.732-0.337-1.494-0.33-2.26-0.006-0.774 0.105-1.545 0.33-2.286 0.201-0.676 0.535-1.305 0.982-1.849 0.447-0.531 1.009-0.953 1.644-1.233 0.739-0.313 1.537-0.466 2.34-0.446 0.806-0.018 1.607 0.135 2.35 0.448 0.642 0.28 1.211 0.701 1.666 1.233 0.453 0.541 0.787 1.171 0.982 1.849 0.218 0.742 0.326 1.513 0.321 2.286 0.006 0.765-0.102 1.527-0.321 2.26-0.198 0.67-0.532 1.292-0.982 1.827-0.454 0.529-1.024 0.946-1.666 1.218-0.745 0.305-1.545 0.454-2.35 0.435z"/>
      <path id="Fill-5" fill="#DADADA" d="m4.0205 26.928c0.1802-0.008 0.3567-0.055 0.5178-0.136l7.3957-3.394c0.797-0.366 1.482-1.422 1.482-2.299v-4.041c0-0.583-5.0914-2.2-5.0914-2.2l-3.6076 1.643c-0.7971 0.366-1.4833 1.416-1.4833 2.295v7.16c-0.0117 0.262 0.0707 0.52 0.2321 0.727 0.1367 0.158 0.3359 0.247 0.5445 0.245h0.0102z"/>
      <path id="Fill-7" fill="#DADADA" d="m13.42 16.567v2.646l-11.452-5.259c-1.0661-0.489-1.968-1.894-1.968-3.068v-0.472l13.42 6.153z"/>
      <path id="Fill-9" fill="#DADADA" d="m3.9322 4.6841c0 0.4766-0.3616 0.7067-0.7951 0.5074l-1.4196-0.643c-0.4645-0.2408-0.76629-0.71-0.793-1.2327v-0.945c0-0.4767 0.3595-0.7068 0.7951-0.5095l1.4196 0.643c0.4643 0.2412 0.7659 0.7102 0.793 1.2327v0.9471zm9.4878 9.4509v-6.2563c0-1.1731-0.902-2.5783-1.969-3.0673l-9.676-4.4355c-0.2206-0.10704-0.4616-0.16518-0.7067-0.17052-0.65947 0-1.0683 0.50129-1.0683 1.3107v6.4695l13.42 6.1494z"/>
      <path id="Fill-12" fill="#DADADA" d="m24.97 26.928c-0.18-0.008-0.357-0.055-0.518-0.136l-7.396-3.394c-0.797-0.366-1.481-1.422-1.481-2.299v-4.041c0-0.583 5.091-2.2 5.091-2.2l3.607 1.643c0.797 0.366 1.484 1.416 1.484 2.295v7.16c0.011 0.26-0.071 0.517-0.231 0.723-0.136 0.158-0.335 0.247-0.544 0.244l-0.012 0.005z"/>
      <path id="Fill-14" fill="#DADADA" d="m15.569 16.567v2.646l11.451-5.257c1.066-0.489 1.968-1.894 1.968-3.068v-0.472l-13.419 6.151z"/>
      <path id="Fill-16" fill="#DADADA" d="m25.054 3.7329c0.027-0.5225 0.329-0.9915 0.793-1.2327l1.42-0.643c0.433-0.2055 0.795 0.0308 0.795 0.5095v0.9471c-0.027 0.5226-0.329 0.9918-0.793 1.2326l-1.41 0.641c-0.433 0.2055-0.795-0.0308-0.795-0.5074l-0.01-0.9471zm3.934 4.2527v-6.4695c0-0.80738-0.411-1.3107-1.068-1.3107-0.245 0.00532-0.486 0.06346-0.707 0.1705l-9.676 4.4355c-1.067 0.489-1.968 1.8942-1.968 3.0673v6.2563l13.419-6.1494z"/>
     </g>
    </g>
   </g>
  </g>
 </g>
</svg>
