<?xml version="1.0" encoding="UTF-8"?>
<svg width="70px" height="23px" viewBox="0 0 70 23" version="1.1" xmlns="http://www.w3.org/2000/svg" xmlns:xlink="http://www.w3.org/1999/xlink">
    <!-- Generator: sketchtool 41.2 (35397) - http://www.bohemiancoding.com/sketch -->
    <title>0F190593-4D47-4B2B-9625-1A78D418FA89</title>
    <desc>Created with sketchtool.</desc>
    <defs></defs>
    <g id="landing" stroke="none" stroke-width="1" fill="none" fill-rule="evenodd">
        <g id="uplata_landing_1-2" transform="translate(-135.000000, -6394.000000)" fill="#FFFFFF">
            <g id="footer" transform="translate(0.000000, 6300.000000)">
                <g id="additional" transform="translate(0.000000, 64.000000)">
                    <g id="logo" transform="translate(135.000000, 30.000000)">
                        <g id="uplata_logo_footer" transform="translate(0.000000, 0.269231)">
                            <path d="M21.913584,13.2875927 C20.3787339,13.2875927 19.1346291,12.0434879 19.1346291,10.5086378 C19.1346291,8.97443667 20.3787339,7.73033194 21.913584,7.73033194 C23.4484341,7.73033194 24.6925388,8.97443667 24.6925388,10.5086378 C24.6925388,12.0434879 23.4484341,13.2875927 21.913584,13.2875927 M21.913584,4.02527512 C18.3324833,4.02527512 15.4302213,6.92818616 15.4302213,10.5086378 L15.4302213,22.5499102 C17.4758228,22.5499102 19.1346291,20.8911039 19.1346291,18.8448534 L19.1346291,16.3676767 C19.977012,16.7681006 20.9193386,16.9926495 21.913584,16.9926495 C25.4946846,16.9926495 28.3969467,14.0897385 28.3969467,10.5086378 C28.3969467,6.92818616 25.4946846,4.02527512 21.913584,4.02527512" id="Fill-1"></path>
                            <path d="M63.5087425,13.2875927 C61.9738924,13.2875927 60.7297876,12.0434879 60.7297876,10.5086378 C60.7297876,8.97443667 61.9738924,7.73033194 63.5087425,7.73033194 C65.0435926,7.73033194 66.2876974,8.97443667 66.2876974,10.5086378 C66.2876974,12.0434879 65.0435926,13.2875927 63.5087425,13.2875927 L63.5087425,13.2875927 Z M69.9921052,10.5086378 C69.9921052,6.92818616 67.0898431,4.02527512 63.5087425,4.02527512 C59.9276419,4.02527512 57.0247308,6.92818616 57.0247308,10.5086378 C57.0247308,14.0897385 59.9276419,16.9926495 63.5087425,16.9926495 C64.9099017,16.9926495 66.2065742,16.5467966 67.2663671,15.7907288 C67.9439077,16.5279761 68.9128427,16.9926495 69.9921052,16.9926495 L69.9921052,10.5086378 Z" id="Fill-3"></path>
                            <path d="M42.7108387,13.2875927 C41.1759886,13.2875927 39.9318839,12.0434879 39.9318839,10.5086378 C39.9318839,8.97443667 41.1759886,7.73033194 42.7108387,7.73033194 C44.2456889,7.73033194 45.4897936,8.97443667 45.4897936,10.5086378 C45.4897936,12.0434879 44.2456889,13.2875927 42.7108387,13.2875927 L42.7108387,13.2875927 Z M49.1942014,10.5086378 C49.1942014,6.92818616 46.2919394,4.02527512 42.7108387,4.02527512 C39.1297381,4.02527512 36.2274761,6.92818616 36.2274761,10.5086378 C36.2274761,14.0897385 39.1297381,16.9926495 42.7108387,16.9926495 C44.1119979,16.9926495 45.4086705,16.5467966 46.4684634,15.7907288 C47.146004,16.5279761 48.114939,16.9926495 49.1942014,16.9926495 L49.1942014,10.5086378 Z" id="Fill-5"></path>
                            <path d="M11.1151705,0 L11.1151705,9.26231756 C11.1151705,11.3085681 9.45636415,12.9673744 7.41011364,12.9673744 C5.36386313,12.9673744 3.70505682,11.3085681 3.70505682,9.26231756 L3.70505682,0 L0,0 L0,9.26231756 C0,13.3548186 3.31761262,16.6724312 7.41011364,16.6724312 C11.5026147,16.6724312 14.8202273,13.3548186 14.8202273,9.26231756 L14.8202273,0 L11.1151705,0 Z" id="Fill-7"></path>
                            <path d="M35.9275852,12.9031248 C35.7270487,12.9485538 35.5096386,12.9673744 35.3318167,12.9673744 C33.7969666,12.9673744 32.5528618,11.7232697 32.5528618,10.1884195 L32.5528618,0 L28.847805,0 L28.847805,10.1786847 C28.847805,13.7695202 31.750716,16.6724312 35.3318167,16.6724312 C36.5129699,16.6724312 37.6194897,16.3544284 38.573498,15.802791 C37.3962388,15.1213564 36.4863615,14.1530704 35.9275852,12.9031248" id="Fill-10"></path>
                            <path d="M56.7248399,12.9031248 C56.5243035,12.9485538 56.3068934,12.9673744 56.1290715,12.9673744 C54.5942213,12.9673744 53.3501166,11.7232697 53.3501166,10.1884195 L53.3501166,7.40946466 L53.8134921,7.40946466 C55.8597426,7.40946466 57.5185489,5.75130733 57.5185489,3.70505682 L53.3501166,3.70505682 L53.3501166,0 L49.6450598,0 L49.6450598,10.1786847 C49.6450598,13.7695202 52.5479708,16.6724312 56.1290715,16.6724312 C57.3102246,16.6724312 58.4167445,16.3544284 59.3707528,15.802791 C58.1934936,15.1213564 57.2836162,14.1530704 56.7248399,12.9031248" id="Fill-12"></path>
                        </g>
                    </g>
                </g>
            </g>
        </g>
    </g>
</svg>