<?xml version="1.0" encoding="UTF-8" standalone="no"?>
<svg xmlns="http://www.w3.org/2000/svg" height="60px" width="100px" version="1.1" xmlns:xlink="http://www.w3.org/1999/xlink" viewBox="0 0 100 60"><!-- Generator: sketchtool 41.2 (35397) - http://www.bohemiancoding.com/sketch -->
 <title>804F2C6E-6928-4A5E-B0AA-77A29DA98784</title>
 <desc>Created with sketchtool.</desc>
 <g id="landing" fill-rule="evenodd" fill="none">
  <g id="uplata_landing_1-2" transform="translate(-350 -1586)">
   <g id="tools" transform="translate(0 900)">
    <g id="paysystem_logo_verified_by_visa" transform="translate(350 686)">
     <g id="Group-2" transform="translate(13 8)">
      <path id="Fill-1" fill="#B5B6BA" d="m63.903 28.119c-0.104 0.831-0.24 1.63-0.409 2.395-0.711-0.231-1.531-0.603-2.689-0.525-0.691 0.046-1.508 0.311-1.519 0.934-0.012 0.691 1.122 1.101 1.753 1.403 1.138 0.544 2.359 1.27 2.455 2.747 0.073 1.135-0.454 2.122-1.052 2.688-1.593 1.505-5.127 1.665-7.539 0.701 0.15-0.804 0.287-1.622 0.409-2.454 0.934 0.397 2.216 0.933 3.623 0.76 0.641-0.08 1.426-0.453 1.403-1.111-0.028-0.802-1.525-1.279-2.279-1.695-0.877-0.483-1.874-1.286-1.929-2.513-0.036-0.817 0.282-1.582 0.701-2.103 1.246-1.548 4.446-2.098 7.072-1.227"/>
      <polygon id="Fill-3" points="35.261 12.467 38.483 12.467 36.499 24.971 33.277 24.971" fill="#B5B6BA"/>
      <path id="Fill-5" fill="#B5B6BA" d="m26.924 14.953l-0.498 3.137h0.932c0.906 0 1.762-0.705 1.905-1.568 0.142-0.863-0.483-1.569-1.388-1.569h-0.951zm-2.827-2.486h4.933c3.139 0 3.954 1.808 3.611 3.966-0.286 1.804-1.581 3.006-3.264 3.434l3.125 5.104h-4.045l-2.343-4.911-0.779 4.911h-3.223l1.985-12.504z"/>
      <polygon id="Fill-7" points="49.976 12.467 53.198 12.467 51.215 24.971 47.992 24.971" fill="#B5B6BA"/>
      <polygon id="Fill-9" points="55.646 12.467 62.72 12.467 62.289 15.186 58.437 15.186 58.098 17.322 61.76 17.322 61.329 20.041 57.666 20.041 57.316 22.252 61.168 22.252 60.737 24.971 53.662 24.971" fill="#B5B6BA"/>
      <polygon id="Fill-11" points="15.106 12.467 22.18 12.467 21.749 15.186 17.897 15.186 17.558 17.322 21.22 17.322 20.789 20.041 17.127 20.041 16.776 22.252 20.628 22.252 20.197 24.971 13.122 24.971" fill="#B5B6BA"/>
      <polygon id="Fill-13" points="40.923 12.467 48.077 12.467 47.646 15.186 43.714 15.186 43.369 17.322 46.947 17.322 46.514 20.041 42.938 20.041 42.156 24.971 38.939 24.971" fill="#B5B6BA"/>
      <path id="Fill-15" fill="#B5B6BA" d="m67.408 15.186h0.665c2.463 0 3.426 1.737 3.161 3.413-0.358 2.248-1.974 3.653-4.086 3.653h-0.862l1.122-7.066zm-2.791-2.719h4.199c5.003 0 6.143 3.784 5.751 6.255-0.56 3.53-3.708 6.248-7.735 6.248h-4.199l1.984-12.503z"/>
      <path id="Fill-18" fill="#B5B6BA" d="m0 10.764h5.9609l0.7079 9.083c3.9442-6.826 7.9522-13.395 11.99-19.847l1.944-0.000036232c-4.275 8.2434-8.495 16.54-12.583 24.971h-4.3758l-1.0667-10.018c-0.2648-2.486-0.767-3.542-2.5775-3.809v-0.38z"/>
      <path id="Fill-23" fill="#B5B6BA" d="m23.15 27.911h2.086l-0.703 4.928c0.596-0.575 1.324-0.931 2.138-0.931 1.674 0 2.771 1.612 2.475 3.603-0.296 1.989-1.873 3.603-3.546 3.603-0.825 0-1.417-0.372-1.82-0.997l-0.111 0.782h-2.086l1.567-10.988zm2.603 6.015c0.771 0 1.294 0.707 1.169 1.577-0.124 0.87-0.85 1.576-1.621 1.576-0.77 0-1.294-0.706-1.169-1.576s0.851-1.577 1.621-1.577z"/>
      <polygon id="Fill-25" points="29.325 32.076 31.828 32.076 32.947 35.569 35.121 32.076 37.539 32.076 31.192 42.27 28.774 42.27 31.45 37.971" fill="#B5B6BA"/>
      <polygon id="Fill-28" points="49.975 38.895 51.808 27.907 54.807 27.907 52.974 38.895" fill="#B5B6BA"/>
      <path id="Fill-30" fill="#B5B6BA" d="m47.468 27.885c-1.034 2.433-1.915 5.019-2.98 7.421l-0.313-1.441c-0.001-0.005-0.004-0.012-0.005-0.017l0.053 0.256c-0.231-0.758-0.624-1.474-1.127-2.13-0.014-0.017-0.027-0.034-0.04-0.051-0.088-0.113-0.182-0.222-0.276-0.332-0.057-0.066-0.116-0.133-0.176-0.199-0.726-0.794-1.606-1.479-2.535-2.023l2.666 9.502h3.214c1.513-3.707 3.146-7.295 4.675-10.986h-3.156z"/>
      <path id="Fill-34" fill="#B5B6BA" d="m69.462 30.929l-1.527 4.085h2.469l-0.942-4.085zm4.551 8.001h-2.747c-0.178-0.524-0.227-1.176-0.409-1.695h-3.74l-0.701 1.695h-3.156l4.09-9.409c0.181-0.413 0.506-0.976 0.643-1.227 0.208-0.381 1.012-0.409 1.354-0.409h2.269l2.397 11.045z"/>
      <polygon id="Fill-21" points="2.2571 5.598 7.3393 7.7524 7.781 13.412 8.1563 13.412 12.77 5.6017 12.77 5.2096 2.256 5.2096" fill="#E7E7E7"/>
      <path id="Fill-32" fill="#E7E7E7" d="m41.808 27.886h-4.903v0.24c2.823 0.55 6.386 2.917 7.318 5.978l-1.052-5.118c-0.144-0.789-0.693-1.1-1.363-1.1"/>
     </g>
    </g>
   </g>
  </g>
 </g>
</svg>
