<?xml version="1.0" encoding="UTF-8"?>
<svg width="30px" height="30px" viewBox="0 0 30 30" version="1.1" xmlns="http://www.w3.org/2000/svg" xmlns:xlink="http://www.w3.org/1999/xlink">
    <!-- Generator: sketchtool 48.1 (47250) - http://www.bohemiancoding.com/sketch -->
    <title>CFAE879C-55FE-4AE3-BA04-B9EEC7FFE42C</title>
    <desc>Created with sketchtool.</desc>
    <defs></defs>
    <g id="326_card_landing" stroke="none" stroke-width="1" fill="none" fill-rule="evenodd" transform="translate(-148.000000, -465.000000)">
        <g id="btn_scroll" transform="translate(148.000000, 465.000000)">
            <circle id="Combined-Shape" fill="#FD8247" cx="15" cy="15" r="15"></circle>
            <g id="Page-1" transform="translate(8.000000, 11.000000)" fill="#FFFFFF">
                <path d="M0,0.573956633 C0,0.427017857 0.0563076923,0.280079082 0.168923077,0.168038265 C0.394153846,-0.0560433673 0.759692308,-0.0560433673 0.984923077,0.168038265 L7.5,6.649875 L14.0150769,0.168038265 C14.2403077,-0.0560433673 14.6058462,-0.0560433673 14.8310769,0.168038265 C15.0563077,0.392119898 15.0563077,0.755793367 14.8310769,0.979875 L7.908,7.8676301 C7.68276923,8.09171173 7.31723077,8.09171173 7.092,7.8676301 L0.168923077,0.979875 C0.0563076923,0.867834184 0,0.720895408 0,0.573956633" id="Fill-1"></path>
                <path d="M0,3.67927806 C0,3.53233929 0.0563076923,3.38540051 0.168923077,3.27335969 C0.394153846,3.04927806 0.759692308,3.04927806 0.984923077,3.27335969 L7.5,9.75519643 L14.0150769,3.27335969 C14.2403077,3.04927806 14.6058462,3.04927806 14.8310769,3.27335969 C15.0563077,3.49744133 15.0563077,3.8611148 14.8310769,4.08519643 L7.908,10.9729515 C7.68276923,11.1970332 7.31723077,11.1970332 7.092,10.9729515 L0.168923077,4.08519643 C0.0563076923,3.97315561 0,3.82621684 0,3.67927806" id="Fill-4"></path>
            </g>
        </g>
    </g>
</svg>