<?xml version="1.0" encoding="UTF-8"?>
<svg width="170px" height="170px" viewBox="0 0 170 170" version="1.1" xmlns="http://www.w3.org/2000/svg" xmlns:xlink="http://www.w3.org/1999/xlink">
    <!-- Generator: sketchtool 41.2 (35397) - http://www.bohemiancoding.com/sketch -->
    <title>C0982034-A3D3-43D9-B055-3F35C473F9A8</title>
    <desc>Created with sketchtool.</desc>
    <defs></defs>
    <g id="about" stroke="none" stroke-width="1" fill="none" fill-rule="evenodd">
        <g id="uplata_about" transform="translate(-335.000000, -1500.000000)">
            <g id="Group-2-Copy-3" transform="translate(235.000000, 1460.000000)">
                <g id="ic_about_1" transform="translate(100.000000, 40.000000)">
                    <polyline id="Stroke-1" stroke="#727789" stroke-linecap="round" stroke-linejoin="round" points="85 65.6966189 85 89.9847649 108.746721 56.1430946"></polyline>
                    <path d="M63.2840328,36.7605373 L85.0005902,89.9837319" id="Stroke-2" stroke="#727789" stroke-linecap="round" stroke-linejoin="round"></path>
                    <g id="Group-75" transform="translate(40.000000, 3.081324)">
                        <path d="M77.4590164,160.686486 L68.6065574,160.686486 C67.7921311,160.686486 67.1311475,160.025384 67.1311475,159.210811 L67.1311475,154.783784 L78.9344262,154.783784 L78.9344262,159.210811 C78.9344262,160.025384 78.2734426,160.686486 77.4590164,160.686486" id="Fill-3" fill="#ACB8CF"></path>
                        <path d="M77.4590164,160.686486 L68.6065574,160.686486 C67.7921311,160.686486 67.1311475,160.025384 67.1311475,159.210811 L67.1311475,154.783784 L78.9344262,154.783784 L78.9344262,159.210811 C78.9344262,160.025384 78.2734426,160.686486 77.4590164,160.686486 Z" id="Stroke-5" stroke="#727789" stroke-linecap="round" stroke-linejoin="round"></path>
                        <path d="M21.3934426,160.686486 L12.5409836,160.686486 C11.7265574,160.686486 11.0655738,160.025384 11.0655738,159.210811 L11.0655738,154.783784 L22.8688525,154.783784 L22.8688525,159.210811 C22.8688525,160.025384 22.2078689,160.686486 21.3934426,160.686486" id="Fill-7" fill="#ACB8CF"></path>
                        <path d="M21.3934426,160.686486 L12.5409836,160.686486 C11.7265574,160.686486 11.0655738,160.025384 11.0655738,159.210811 L11.0655738,154.783784 L22.8688525,154.783784 L22.8688525,159.210811 C22.8688525,160.025384 22.2078689,160.686486 21.3934426,160.686486 Z" id="Stroke-9" stroke="#727789" stroke-linecap="round" stroke-linejoin="round"></path>
                        <path d="M84.8360656,154.783784 L5.16393443,154.783784 C2.71918033,154.783784 0.737704918,152.801951 0.737704918,150.356757 L0.737704918,91.3297297 C0.737704918,88.8845351 2.71918033,86.9027027 5.16393443,86.9027027 L84.8360656,86.9027027 C87.2808197,86.9027027 89.2622951,88.8845351 89.2622951,91.3297297 L89.2622951,150.356757 C89.2622951,152.801951 87.2808197,154.783784 84.8360656,154.783784" id="Fill-11" fill="#C3CEE7"></path>
                        <path d="M0.737704918,120.843243 L0.737704918,150.356757 C0.737704918,152.801951 2.71918033,154.783784 5.16393443,154.783784 L84.8360656,154.783784 C87.2808197,154.783784 89.2622951,152.801951 89.2622951,150.356757 L89.2622951,120.843243 L0.737704918,120.843243 Z" id="Fill-13" fill="#ACB8CF"></path>
                        <path d="M80.4098361,140.027765 L80.4098361,142.526084 C80.4098361,144.406095 78.8857377,145.928992 77.0060656,145.928992 L12.9939344,145.928992 C11.1142623,145.928992 9.59016393,144.406095 9.59016393,142.526084 L9.59016393,99.1604027 C9.59016393,97.2803919 11.1142623,95.7560189 12.9939344,95.7560189 L77.0060656,95.7560189 C78.8857377,95.7560189 80.4098361,97.2803919 80.4098361,99.1604027 L80.4098361,101.660197" id="Stroke-15" stroke="#727789" stroke-linecap="round" stroke-linejoin="round"></path>
                        <path d="M15.3689016,113.464865 L15.3689016,128.221622" id="Stroke-17" stroke="#727789" stroke-linecap="round" stroke-linejoin="round"></path>
                        <path d="M81.8852459,114.940541 L78.9344262,114.940541 C78.12,114.940541 77.4590164,114.279438 77.4590164,113.464865 L77.4590164,107.562162 C77.4590164,106.747589 78.12,106.086486 78.9344262,106.086486 L81.8852459,106.086486 C82.6996721,106.086486 83.3606557,106.747589 83.3606557,107.562162 L83.3606557,113.464865 C83.3606557,114.279438 82.6996721,114.940541 81.8852459,114.940541" id="Fill-19" fill="#FFCF88"></path>
                        <path d="M81.8852459,114.940541 L78.9344262,114.940541 C78.12,114.940541 77.4590164,114.279438 77.4590164,113.464865 L77.4590164,107.562162 C77.4590164,106.747589 78.12,106.086486 78.9344262,106.086486 L81.8852459,106.086486 C82.6996721,106.086486 83.3606557,106.747589 83.3606557,107.562162 L83.3606557,113.464865 C83.3606557,114.279438 82.6996721,114.940541 81.8852459,114.940541 Z" id="Stroke-21" stroke="#727789" stroke-linecap="round" stroke-linejoin="round"></path>
                        <path d="M81.8852459,135.6 L78.9344262,135.6 C78.12,135.6 77.4590164,134.938897 77.4590164,134.124324 L77.4590164,128.221622 C77.4590164,127.407049 78.12,126.745946 78.9344262,126.745946 L81.8852459,126.745946 C82.6996721,126.745946 83.3606557,127.407049 83.3606557,128.221622 L83.3606557,134.124324 C83.3606557,134.938897 82.6996721,135.6 81.8852459,135.6" id="Fill-23" fill="#FFCF88"></path>
                        <path d="M81.8852459,135.6 L78.9344262,135.6 C78.12,135.6 77.4590164,134.938897 77.4590164,134.124324 L77.4590164,128.221622 C77.4590164,127.407049 78.12,126.745946 78.9344262,126.745946 L81.8852459,126.745946 C82.6996721,126.745946 83.3606557,127.407049 83.3606557,128.221622 L83.3606557,134.124324 C83.3606557,134.938897 82.6996721,135.6 81.8852459,135.6 Z" id="Stroke-25" stroke="#727789" stroke-linecap="round" stroke-linejoin="round"></path>
                        <path d="M58.2786885,120.843243 C58.2786885,113.507659 52.3342623,107.562162 45,107.562162 C37.6657377,107.562162 31.7213115,113.507659 31.7213115,120.843243 C31.7213115,128.178827 37.6657377,134.124324 45,134.124324 C52.3342623,134.124324 58.2786885,128.178827 58.2786885,120.843243" id="Fill-27" fill="#E4B673"></path>
                        <path d="M58.2786885,120.843243 C58.2786885,113.507659 52.3342623,107.562162 45,107.562162 C37.6657377,107.562162 31.7213115,113.507659 31.7213115,120.843243 C31.7213115,128.178827 37.6657377,134.124324 45,134.124324 C52.3342623,134.124324 58.2786885,128.178827 58.2786885,120.843243 Z" id="Stroke-29" stroke="#727789" stroke-linecap="round" stroke-linejoin="round"></path>
                        <path d="M53.852459,120.843243 C53.852459,115.952854 49.8895082,111.989189 45,111.989189 C40.1104918,111.989189 36.147541,115.952854 36.147541,120.843243 C36.147541,125.733632 40.1104918,129.697297 45,129.697297 C49.8895082,129.697297 53.852459,125.733632 53.852459,120.843243" id="Fill-31" fill="#FFDEAC"></path>
                        <path d="M45,111.251204 L45,112.726879" id="Stroke-33" stroke="#727789" stroke-linecap="round" stroke-linejoin="round"></path>
                        <path d="M51.7814262,114.060595 L50.7383115,115.103898" id="Stroke-35" stroke="#727789" stroke-linecap="round" stroke-linejoin="round"></path>
                        <path d="M54.5903115,120.843243 L53.1149016,120.843243" id="Stroke-37" stroke="#727789" stroke-linecap="round" stroke-linejoin="round"></path>
                        <path d="M51.7814262,127.625891 L50.7383115,126.582589" id="Stroke-39" stroke="#727789" stroke-linecap="round" stroke-linejoin="round"></path>
                        <path d="M45,130.435283 L45,128.959607" id="Stroke-41" stroke="#727789" stroke-linecap="round" stroke-linejoin="round"></path>
                        <path d="M38.2185738,127.625891 L39.2616885,126.582589" id="Stroke-43" stroke="#727789" stroke-linecap="round" stroke-linejoin="round"></path>
                        <path d="M35.4096885,120.843243 L36.8850984,120.843243" id="Stroke-45" stroke="#727789" stroke-linecap="round" stroke-linejoin="round"></path>
                        <path d="M38.2185738,114.060595 L39.2616885,115.103898" id="Stroke-47" stroke="#727789" stroke-linecap="round" stroke-linejoin="round"></path>
                        <path d="M84.8360656,154.783784 L5.16393443,154.783784 C2.71918033,154.783784 0.737704918,152.801951 0.737704918,150.356757 L0.737704918,91.3297297 C0.737704918,88.8845351 2.71918033,86.9027027 5.16393443,86.9027027 L84.8360656,86.9027027 C87.2808197,86.9027027 89.2622951,88.8845351 89.2622951,91.3297297 L89.2622951,150.356757 C89.2622951,152.801951 87.2808197,154.783784 84.8360656,154.783784 Z" id="Stroke-49" stroke="#727789" stroke-linecap="round" stroke-linejoin="round"></path>
                        <path d="M85.4200328,36.3857497 C85.4200328,45.5954416 77.9559344,53.0623605 68.7464262,53.0623605 C59.5383934,53.0623605 52.0742951,45.5954416 52.0742951,36.3857497 C52.0742951,27.1760578 59.5383934,19.7091389 68.7464262,19.7091389 C77.9559344,19.7091389 85.4200328,27.1760578 85.4200328,36.3857497" id="Fill-51" fill="#C5E4F9"></path>
                        <path d="M85.4200328,36.3857497 C85.4200328,45.5954416 77.9559344,53.0623605 68.7464262,53.0623605 C59.5383934,53.0623605 52.0742951,45.5954416 52.0742951,36.3857497 C52.0742951,27.1760578 59.5383934,19.7091389 68.7464262,19.7091389 C77.9559344,19.7091389 85.4200328,27.1760578 85.4200328,36.3857497 Z" id="Stroke-53" stroke="#727789" stroke-linecap="round" stroke-linejoin="round"></path>
                        <path d="M38.5155738,17.0083573 C38.5155738,26.2180492 31.7965574,33.6849681 23.5091803,33.6849681 C15.2218033,33.6849681 8.5042623,26.2180492 8.5042623,17.0083573 C8.5042623,7.79866541 15.2218033,0.331746486 23.5091803,0.331746486 C31.7965574,0.331746486 38.5155738,7.79866541 38.5155738,17.0083573" id="Fill-55" fill="#76C2A6"></path>
                        <path d="M38.5155738,17.0083573 C38.5155738,26.2180492 31.7965574,33.6849681 23.5091803,33.6849681 C15.2218033,33.6849681 8.5042623,26.2180492 8.5042623,17.0083573 C8.5042623,7.79866541 15.2218033,0.331746486 23.5091803,0.331746486 C31.7965574,0.331746486 38.5155738,7.79866541 38.5155738,17.0083573 Z" id="Stroke-57" stroke="#727789" stroke-linecap="round" stroke-linejoin="round"></path>
                        <path d="M61.6730164,36.3857497 C61.6730164,49.2802038 54.208918,59.7324146 44.9994098,59.7324146 C35.791377,59.7324146 28.3272787,49.2802038 28.3272787,36.3857497 C28.3272787,23.4912957 35.791377,13.0390849 44.9994098,13.0390849 C54.208918,13.0390849 61.6730164,23.4912957 61.6730164,36.3857497" id="Fill-59" fill="#E9A2B7"></path>
                        <path d="M61.6730164,36.3857497 C61.6730164,49.2802038 54.208918,59.7324146 44.9994098,59.7324146 C35.791377,59.7324146 28.3272787,49.2802038 28.3272787,36.3857497 C28.3272787,23.4912957 35.791377,13.0390849 44.9994098,13.0390849 C54.208918,13.0390849 61.6730164,23.4912957 61.6730164,36.3857497 Z" id="Stroke-61" stroke="#727789" stroke-linecap="round" stroke-linejoin="round"></path>
                        <polygon id="Fill-63" fill="#E9A2B7" points="47.8823607 62.615147 44.9994098 59.7316768 42.1179344 62.615147"></polygon>
                        <polygon id="Stroke-65" stroke="#727789" stroke-linecap="round" stroke-linejoin="round" points="47.8823607 62.615147 44.9994098 59.7316768 42.1179344 62.615147"></polygon>
                        <polygon id="Fill-67" fill="#C5E4F9" points="71.6292295 55.9446503 68.7462787 53.06118 65.8648033 55.9446503"></polygon>
                        <polygon id="Stroke-69" stroke="#727789" stroke-linecap="round" stroke-linejoin="round" points="71.6292295 55.9446503 68.7462787 53.06118 65.8648033 55.9446503"></polygon>
                        <polygon id="Fill-71" fill="#76C2A6" points="26.3921311 36.5672578 23.5091803 33.6837876 20.6277049 36.5672578"></polygon>
                        <polygon id="Stroke-73" stroke="#727789" stroke-linecap="round" stroke-linejoin="round" points="26.3921311 36.5672578 23.5091803 33.6837876 20.6277049 36.5672578"></polygon>
                    </g>
                </g>
            </g>
        </g>
    </g>
</svg>