<?xml version="1.0" encoding="UTF-8"?>
<svg width="170px" height="170px" viewBox="0 0 170 170" version="1.1" xmlns="http://www.w3.org/2000/svg" xmlns:xlink="http://www.w3.org/1999/xlink">
    <!-- Generator: sketchtool 41.2 (35397) - http://www.bohemiancoding.com/sketch -->
    <title>69E8D6C5-F6E9-42E3-B6E3-56BA615AA2F4</title>
    <desc>Created with sketchtool.</desc>
    <defs></defs>
    <g id="about" stroke="none" stroke-width="1" fill="none" fill-rule="evenodd">
        <g id="uplata_about" transform="translate(-335.000000, -2200.000000)">
            <g id="Group-2-Copy-9" transform="translate(235.000000, 2160.000000)">
                <g id="ic_about_3" transform="translate(100.000000, 40.000000)">
                    <path d="M60.6133267,20.6613314 L145.131505,20.6613314 C148.17105,20.6613314 150.634792,23.1189906 150.634792,26.1510301 L150.634792,76.0506449 C150.634792,79.0826844 148.17105,81.5403437 145.131505,81.5403437 L60.6133267,81.5403437 C57.5737822,81.5403437 55.1100396,79.0826844 55.1100396,76.0506449 L55.1100396,26.1510301 C55.1100396,23.1189906 57.5737822,20.6613314 60.6133267,20.6613314 Z" id="Fill-1" fill="#C4E3F8"></path>
                    <path d="M60.6133267,20.6613314 L145.131505,20.6613314 C148.17105,20.6613314 150.634792,23.1189906 150.634792,26.1510301 L150.634792,76.0506449 C150.634792,79.0826844 148.17105,81.5403437 145.131505,81.5403437 L60.6133267,81.5403437 C57.5737822,81.5403437 55.1100396,79.0826844 55.1100396,76.0506449 L55.1100396,26.1510301 C55.1100396,23.1189906 57.5737822,20.6613314 60.6133267,20.6613314 Z" id="Stroke-3" stroke="#727789"></path>
                    <path d="M148.800584,22.0861649 L89.1997723,81.5398143 L145.132168,81.5398143 C148.171713,81.5398143 150.635455,79.0821551 150.635455,76.051439 L150.635455,26.1505007 C150.635455,24.5319131 149.91902,23.0906686 148.800584,22.0861649" id="Fill-5" fill="#AED8F3"></path>
                    <polygon id="Fill-7" fill="#75BAE6" points="130.733802 73.5986765 142.674396 73.5986765 142.674396 61.6875654 130.733802 61.6875654"></polygon>
                    <path d="M121.780214,56.3938706 L97.8990257,56.3938706" id="Stroke-9" stroke="#727789" stroke-linecap="round" stroke-linejoin="round"></path>
                    <path d="M113.819818,62.3494262 L97.8990257,62.3494262" id="Stroke-10" stroke="#727789" stroke-linecap="round" stroke-linejoin="round"></path>
                    <polygon id="Fill-11" fill="#727789" points="55.1100396 44.4839506 150.634792 44.4839506 150.634792 31.2493827 55.1100396 31.2493827"></polygon>
                    <path d="M60.6133267,20.6613314 L145.131505,20.6613314 C148.17105,20.6613314 150.634792,23.1189906 150.634792,26.1510301 L150.634792,76.0506449 C150.634792,79.0826844 148.17105,81.5403437 145.131505,81.5403437 L60.6133267,81.5403437 C57.5737822,81.5403437 55.1100396,79.0826844 55.1100396,76.0506449 L55.1100396,26.1510301 C55.1100396,23.1189906 57.5737822,20.6613314 60.6133267,20.6613314 Z" id="Stroke-12" stroke="#727789"></path>
                    <polygon id="Fill-13" fill="#F7B6C9" points="49.369002 92.5161679 70.1456356 84.2961778 89.4336752 139.913126 75.5998337 135.888494 69.6255564 148.081501"></polygon>
                    <path d="M71.345798,81.6849975 L46.8383921,91.3819654 L69.355699,153.151664 L76.6527287,138.262775 L92.5735208,142.894874 L71.345798,81.6849975 Z M68.9444119,86.9060346 L86.294095,136.932701 L77.7671842,134.45122 L74.5498574,133.515536 L73.0771842,136.518459 L69.8943525,143.012662 L51.8998772,93.6503704 L68.9444119,86.9060346 Z" id="Fill-14" fill="#E9A2B7"></path>
                    <polygon id="Stroke-15" stroke="#727789" stroke-linecap="round" stroke-linejoin="round" points="71.345798 81.6849975 92.5735208 142.894874 76.6527287 138.262775 69.355699 153.151664 46.8383921 91.3819654"></polygon>
                    <polygon id="Fill-16" fill="#F7B6C9" points="35.6359921 135.889023 21.8034772 139.913655 41.0915168 84.2967072 61.8668238 92.5166973 41.611596 148.082031"></polygon>
                    <path d="M39.8910891,81.6849975 L18.6633663,142.894874 L34.5841584,138.262775 L41.8811881,153.151664 L64.398495,91.3819654 L39.8910891,81.6849975 Z M42.2924752,86.9060346 L59.3370099,93.6503704 L41.3425347,143.012662 L38.159703,136.518459 L36.6870297,133.515536 L33.469703,134.45122 L24.9427921,136.932701 L42.2924752,86.9060346 Z" id="Fill-17" fill="#E9A2B7"></path>
                    <polygon id="Stroke-18" stroke="#727789" stroke-linecap="round" stroke-linejoin="round" points="39.8910891 81.6849975 18.6633663 142.894874 34.5841584 138.262775 41.8811881 153.151664 64.398495 91.3819654"></polygon>
                    <path d="M66.790196,99.6853333 C66.2754238,99.6853333 65.7712653,99.5860741 65.2909881,99.3902025 L58.1292851,96.4719802 C57.3305921,96.1464099 56.4881168,95.9809778 55.6244139,95.9809778 C54.7620376,95.9809778 53.9195624,96.1464099 53.1208693,96.4719802 L45.9578396,99.3902025 C45.4788891,99.5860741 44.973404,99.6853333 44.4586317,99.6853333 C42.9806515,99.6853333 41.6353446,98.8753778 40.9467703,97.5704494 L37.3393842,90.7427358 C36.526097,89.2035556 35.1648693,88.0627358 33.5038,87.5307062 L26.1364535,85.1736296 C24.1808495,84.5476346 23.0345525,82.5677432 23.4697208,80.5666765 L25.1069089,73.0229728 C25.4744139,71.3223309 25.1652851,69.5753679 24.2352455,68.103684 L20.1117604,61.5737481 C19.0172059,59.8413432 19.4152257,57.5874963 21.0378198,56.3328593 L27.1527307,51.6054716 C28.5312059,50.5387654 29.4201168,49.0022321 29.6562752,47.2790914 L30.7043941,39.632158 C30.9710673,37.6800593 32.6613248,36.2083753 34.635503,36.2083753 L42.521602,36.5101235 L42.7803149,36.5154173 C44.4281168,36.5154173 46.0069287,35.9066272 47.2275228,34.8015407 L52.9576812,29.616237 C53.6900376,28.9545086 54.6373248,28.5892346 55.6244139,28.5892346 C56.6128297,28.5892346 57.5601168,28.9545086 58.2924733,29.616237 L64.0226317,34.8015407 C65.2432257,35.9066272 66.8220376,36.5154173 68.4698396,36.5154173 L68.7285525,36.5101235 L76.6146515,36.2083753 C78.587503,36.2083753 80.2777604,37.6800593 80.5457604,39.632158 L81.5925525,47.2790914 C81.8287109,49.0022321 82.7176218,50.5387654 84.096097,51.6054716 L90.2110079,56.3328593 C91.833602,57.5874963 92.2329485,59.8413432 91.1383941,61.5737481 L87.0135822,68.103684 C86.0835426,69.5740444 85.7744139,71.3210074 86.1432455,73.0229728 L87.7804337,80.5666765 C88.215602,82.5677432 87.069305,84.5476346 85.1150277,85.1736296 L77.7463545,87.5307062 C76.0852851,88.0627358 74.7227307,89.2035556 73.9107703,90.7427358 L70.3033842,97.5704494 C69.6148099,98.8753778 68.2681762,99.6853333 66.790196,99.6853333" id="Fill-19" fill="#FFCF88"></path>
                    <path d="M55.6248119,27.2652484 C54.3498218,27.2652484 53.0761584,27.721841 52.0665149,28.6350262 L46.3363564,33.8216533 C45.3598812,34.704399 44.0915248,35.1914311 42.7780594,35.1914311 C42.710396,35.1914311 42.6414059,35.1901077 42.5724158,35.1874607 L34.8415446,34.889683 C34.7725545,34.887036 34.7035644,34.8857126 34.6345743,34.8857126 C31.9996832,34.8857126 29.7495446,36.8272237 29.39,39.452962 L28.3418812,47.0998953 C28.1548119,48.4696731 27.4357228,49.712399 26.3398416,50.5594114 L20.2249307,55.2881225 C18.0703168,56.9530311 17.5356436,59.9784533 18.9884158,62.2786212 L23.1132277,68.808557 C23.8535446,69.9784928 24.1029703,71.3919447 23.8097624,72.7431941 L22.1725743,80.2855743 C21.5954455,82.9430756 23.1344554,85.6045472 25.7308713,86.4343546 L33.0982178,88.7914311 C34.4183168,89.2136138 35.519505,90.1360632 36.1656238,91.3589373 L39.7716832,98.1879743 C40.7136634,99.9706706 42.5458812,101.008261 44.4590297,101.008261 C45.127703,101.008261 45.8056634,100.882532 46.4597426,100.615194 L53.6227723,97.6969719 C54.2635842,97.4362509 54.944198,97.3052286 55.6248119,97.3052286 C56.3054257,97.3052286 56.9860396,97.4362509 57.6268515,97.6969719 L64.7898812,100.615194 C65.4439604,100.882532 66.1219208,101.008261 66.7905941,101.008261 C68.7024158,101.008261 70.5359604,99.9706706 71.4779406,98.1879743 L75.084,91.3589373 C75.7301188,90.1360632 76.8313069,89.2136138 78.1514059,88.7914311 L85.5187525,86.4343546 C88.1151683,85.6045472 89.6541782,82.9430756 89.0770495,80.2855743 L87.4398614,72.7431941 C87.1466535,71.3919447 87.3960792,69.9784928 88.136396,68.808557 L92.2612079,62.2786212 C93.7139802,59.9784533 93.1793069,56.9530311 91.0246931,55.2881225 L84.9097822,50.5594114 C83.813901,49.712399 83.0948119,48.4696731 82.9077426,47.0998953 L81.8596238,39.452962 C81.5000792,36.8272237 79.2512673,34.8857126 76.6150495,34.8857126 C76.5460594,34.8857126 76.4770693,34.887036 76.4080792,34.889683 L68.6772079,35.1874607 C68.6082178,35.1901077 68.5405545,35.1914311 68.4715644,35.1914311 C67.158099,35.1914311 65.8897426,34.704399 64.9132673,33.8216533 L59.1831089,28.6350262 C58.1734653,27.721841 56.899802,27.2652484 55.6248119,27.2652484 M55.6248119,29.912162 C56.2828713,29.912162 56.9130693,30.1543546 57.3999802,30.5963891 L63.1301386,35.7816928 C64.5961782,37.1077965 66.4934059,37.8383447 68.4715644,37.8383447 C68.5737228,37.8383447 68.6772079,37.8370212 68.7793663,37.8330509 L76.5102376,37.5339496 L76.6150495,37.5326262 C77.9285149,37.5326262 79.0522574,38.5119842 79.2300396,39.8116188 L80.2781584,47.4585521 C80.5620792,49.5271151 81.630099,51.3720138 83.2845347,52.6517965 L89.3994455,57.3791842 C90.4794059,58.2156089 90.7447525,59.7150854 90.0150495,60.8678163 L85.8902376,67.3977521 C84.7744554,69.1645669 84.404297,71.2622459 84.8474257,73.3030163 L86.4846139,80.84672 C86.7738416,82.179441 86.0096436,83.497604 84.7081188,83.9144928 L77.3407723,86.2715694 C75.3480198,86.9094756 73.7121584,88.2779299 72.7370099,90.1254756 L69.1296238,96.9531891 C68.6705743,97.8227002 67.7750297,98.3613472 66.7905941,98.3613472 C66.448297,98.3613472 66.1139604,98.2951743 65.7928911,98.1654756 L58.6298614,95.2472533 C57.6719604,94.8568336 56.6609901,94.6583151 55.6248119,94.6583151 C54.5886337,94.6583151 53.5776634,94.8568336 52.6184356,95.2472533 L45.4567327,98.1654756 C45.1356634,98.2951743 44.8013267,98.3613472 44.4590297,98.3613472 C43.4745941,98.3613472 42.5790495,97.8227002 42.12,96.9531891 L38.5126139,90.1254756 C37.5374653,88.2779299 35.901604,86.9094756 33.9088515,86.2715694 L26.541505,83.9144928 C25.2399802,83.497604 24.4757822,82.179441 24.7650099,80.84672 L26.402198,73.3030163 C26.8453267,71.2622459 26.4751683,69.1645669 25.3593861,67.3977521 L21.2345743,60.8678163 C20.5048713,59.7150854 20.7702178,58.2156089 21.8501782,57.3791842 L27.9650891,52.6517965 C29.6195248,51.3720138 30.6875446,49.5271151 30.9714653,47.4585521 L32.0195842,39.8116188 C32.1973663,38.5119842 33.3211089,37.5326262 34.6345743,37.5326262 L34.7393861,37.5339496 L42.4702574,37.8330509 C42.5724158,37.8370212 42.675901,37.8383447 42.7780594,37.8383447 C44.7562178,37.8383447 46.6534455,37.1077965 48.1194851,35.7816928 L53.8496436,30.5963891 C54.3365545,30.1543546 54.9667525,29.912162 55.6248119,29.912162" id="Fill-20" fill="#E4B673"></path>
                    <path d="M55.6248119,82.8645946 C60.021604,82.8645946 63.5852079,79.3097896 63.5852079,74.9238538 L47.6644158,74.9238538 C47.6644158,79.3097896 51.2280198,82.8645946 55.6248119,82.8645946" id="Fill-21" fill="#AF7C86"></path>
                    <path d="M73.3145366,62.2407704 C73.3145366,60.5957136 71.9785168,59.2629926 70.3293881,59.2629926 C68.6802594,59.2629926 67.3442396,60.5957136 67.3442396,62.2407704 C67.3442396,63.8858272 68.6802594,65.2185481 70.3293881,65.2185481 C71.9785168,65.2185481 73.3145366,63.8858272 73.3145366,62.2407704" id="Fill-22" fill="#AF7C86"></path>
                    <path d="M37.9350871,62.2407704 C37.9350871,60.5957136 39.2711069,59.2629926 40.9202356,59.2629926 C42.5693644,59.2629926 43.9053842,60.5957136 43.9053842,62.2407704 C43.9053842,63.8858272 42.5693644,65.2185481 40.9202356,65.2185481 C39.2711069,65.2185481 37.9350871,63.8858272 37.9350871,62.2407704" id="Fill-23" fill="#AF7C86"></path>
                </g>
            </g>
        </g>
    </g>
</svg>