<?xml version="1.0" encoding="UTF-8"?>
<svg width="200px" height="70px" viewBox="0 0 200 70" version="1.1" xmlns="http://www.w3.org/2000/svg" xmlns:xlink="http://www.w3.org/1999/xlink">
    <!-- Generator: Sketch 50.2 (55047) - http://www.bohemiancoding.com/sketch -->
    <title>UplataLogo</title>
    <desc>Created with Sketch.</desc>
    <defs></defs>
    <g id="UplataLogo" stroke="none" stroke-width="1" fill="none" fill-rule="evenodd">
        <g id="UplataBetaLogo">
            <polygon id="bg" fill="#FD8247" fill-rule="nonzero" points="0 0 200 0 200 70 0 70"></polygon>
            <g id="UplataLogo" transform="translate(38.000000, 17.000000)" fill="#FFFFFF">
                <path d="M39.1358138,23.7601845 C36.3947009,23.7601845 34.1728347,21.5355409 34.1728347,18.7910014 C34.1728347,16.0476225 36.3947009,13.8229789 39.1358138,13.8229789 C41.8769268,13.8229789 44.0987929,16.0476225 44.0987929,18.7910014 C44.0987929,21.5355409 41.8769268,23.7601845 39.1358138,23.7601845 M39.1358138,7.19778832 C45.5313577,7.19778832 50.7145531,12.3886234 50.7145531,18.7910014 C50.7145531,25.19454 45.5313577,30.385375 39.1358138,30.385375 C37.3601753,30.385375 35.6772595,29.9838483 34.1728347,29.2678311 L34.1728347,33.6973901 C34.1728347,37.3563892 31.2103464,40.3225806 27.5570745,40.3225806 L27.5570745,18.7910014 C27.5570745,12.3886234 32.7402699,7.19778832 39.1358138,7.19778832 Z M125,18.7910014 L125,30.385375 C123.072528,30.385375 121.342092,29.5544701 120.132062,28.2361628 C118.239361,29.5881241 115.923613,30.385375 113.421261,30.385375 C107.025717,30.385375 101.841362,25.19454 101.841362,18.7910014 C101.841362,12.3886234 107.025717,7.19778832 113.421261,7.19778832 C119.816805,7.19778832 125,12.3886234 125,18.7910014 Z M87.856697,18.7910014 L87.856697,30.385375 C85.9292252,30.385375 84.198789,29.5544701 82.9887586,28.2361628 C81.0960578,29.5881241 78.7803099,30.385375 76.2779578,30.385375 C69.8824139,30.385375 64.6992185,25.19454 64.6992185,18.7910014 C64.6992185,12.3886234 69.8824139,7.19778832 76.2779578,7.19778832 C82.6735016,7.19778832 87.856697,12.3886234 87.856697,18.7910014 Z M113.421261,23.7601845 C116.162374,23.7601845 118.38424,21.5355409 118.38424,18.7910014 C118.38424,16.0476225 116.162374,13.8229789 113.421261,13.8229789 C110.680148,13.8229789 108.458282,16.0476225 108.458282,18.7910014 C108.458282,21.5355409 110.680148,23.7601845 113.421261,23.7601845 Z M76.2779578,23.7601845 C79.0190707,23.7601845 81.2409369,21.5355409 81.2409369,18.7910014 C81.2409369,16.0476225 79.0190707,13.8229789 76.2779578,13.8229789 C73.5368448,13.8229789 71.3149786,16.0476225 71.3149786,18.7910014 C71.3149786,21.5355409 73.5368448,23.7601845 76.2779578,23.7601845 Z M19.8507575,0 L26.4676767,0 L26.4676767,16.5623962 C26.4676767,23.8803944 20.5427002,29.8127773 13.2338383,29.8127773 C5.92497649,29.8127773 0,23.8803944 0,16.5623962 L0,0 L6.61691917,0 L6.61691917,16.5623962 C6.61691917,20.2213953 9.57940742,23.1875867 13.2338383,23.1875867 C16.8882693,23.1875867 19.8507575,20.2213953 19.8507575,16.5623962 L19.8507575,0 Z M64.1636386,23.072699 C65.161566,25.307787 66.7865302,27.0392258 68.889016,28.2577317 C67.1852375,29.2441412 65.2090863,29.8127773 63.0996464,29.8127773 C56.7041025,29.8127773 51.519748,24.6219422 51.519748,18.2009965 L51.519748,0 L58.1366672,0 L58.1366672,18.2184037 C58.1366672,20.9629431 60.3585334,23.1875867 63.0996464,23.1875867 C63.4172214,23.1875867 63.8054974,23.1539328 64.1636386,23.072699 Z M101.305783,23.072699 C102.30371,25.307787 103.928674,27.0392258 106.03116,28.2577317 C104.327381,29.2441412 102.35123,29.8127773 100.24179,29.8127773 C93.8462464,29.8127773 88.661892,24.6219422 88.661892,18.2009965 L88.661892,0 L95.2788112,0 L95.2788112,6.62519056 L102.72328,6.62519056 C102.72328,10.2841897 99.7607916,13.2492206 96.1063607,13.2492206 L95.2788112,13.2492206 L95.2788112,18.2184037 C95.2788112,20.9629431 97.5006773,23.1875867 100.24179,23.1875867 C100.559365,23.1875867 100.947641,23.1539328 101.305783,23.072699 Z"></path>
            </g>
        </g>
    </g>
</svg>