<svg width="200" height="200" viewBox="0 0 200 200" xmlns="http://www.w3.org/2000/svg"><title>BA0CE3F0-2551-424E-8C5F-85DFD81BDBC5</title><desc>Created with sketchtool.</desc><g fill="none"><path d="M106.78 2.293c5.596-3.136 12.613-2.025 16.966 2.686 3.275 3.547 8.161 5.134 12.896 4.19 6.291-1.254 12.621 1.971 15.304 7.798 2.019 4.384 6.175 7.403 10.97 7.97 6.371.751 11.394 5.774 12.145 12.145.566 4.794 3.586 8.95 7.971 10.969 5.826 2.683 9.052 9.013 7.798 15.305-.944 4.734.644 9.619 4.191 12.895 4.712 4.353 5.823 11.369 2.687 16.965-2.361 4.212-2.361 9.348 0 13.559 3.137 5.595 2.025 12.612-2.687 16.965-3.547 3.276-5.134 8.16-4.191 12.896 1.254 6.29-1.971 12.62-7.798 15.304-4.386 2.019-7.405 6.175-7.971 10.969-.751 6.371-5.774 11.394-12.145 12.146-4.795.565-8.951 3.584-10.97 7.97-2.684 5.826-9.014 9.051-15.304 7.797-4.735-.944-9.621.644-12.896 4.19-4.353 4.712-11.37 5.823-16.966 2.686-4.212-2.36-9.348-2.36-13.56 0-5.596 3.136-12.613 2.025-16.966-2.686-3.276-3.547-8.161-5.134-12.896-4.19-6.291 1.254-12.621-1.971-15.304-7.797-2.019-4.385-6.175-7.404-10.97-7.97-6.371-.752-11.394-5.775-12.146-12.146-.565-4.794-3.585-8.95-7.97-10.969-5.826-2.683-9.052-9.013-7.798-15.304.944-4.735-.644-9.619-4.191-12.896-4.712-4.353-5.823-11.369-2.687-16.965 2.361-4.211 2.361-9.347 0-13.559-3.137-5.595-2.025-12.612 2.687-16.965 3.547-3.275 5.134-8.16 4.191-12.895-1.254-6.291 1.971-12.621 7.798-15.305 4.386-2.019 7.405-6.175 7.97-10.969.752-6.371 5.775-11.394 12.146-12.145 4.795-.566 8.951-3.585 10.97-7.97 2.684-5.827 9.014-9.052 15.304-7.798 4.735.944 9.62-.644 12.896-4.19 4.353-4.712 11.37-5.823 16.966-2.686 4.212 2.361 9.348 2.361 13.56 0" fill="#FDBE29"/><path d="M66.032 190.047c3.973 0 7.861 1.654 10.597 4.617 4.209 4.557 10.93 5.622 16.341 2.587 4.334-2.429 9.724-2.429 14.059 0 5.411 3.033 12.13 1.968 16.341-2.587 3.373-3.653 8.499-5.316 13.371-4.343 6.088 1.214 12.146-1.876 14.741-7.511 2.079-4.515 6.437-7.681 11.374-8.262 6.161-.727 10.972-5.538 11.698-11.699.583-4.936 3.749-9.294 8.264-11.373 5.635-2.595 8.724-8.656 7.511-14.741-.971-4.873.693-9.997 4.345-13.369 4.558-4.21 5.622-10.928 2.588-16.34-2.43-4.335-2.43-9.722 0-14.057 3.035-5.412 1.969-12.131-2.588-16.341-3.651-3.373-5.316-8.495-4.345-13.37 1.213-6.084-1.875-12.147-7.511-14.741-4.515-2.078-7.681-6.435-8.264-11.372-.726-6.161-5.537-10.971-11.698-11.699-4.937-.582-9.295-3.749-11.374-8.263-2.595-5.633-8.653-8.726-14.741-7.51-4.874.973-9.997-.692-13.371-4.344-4.209-4.557-10.929-5.621-16.341-2.586-4.334 2.429-9.724 2.429-14.059 0-5.412-3.035-12.131-1.97-16.341 2.586-3.373 3.654-8.499 5.316-13.371 4.344-6.087-1.213-12.146 1.876-14.741 7.51-2.078 4.515-6.437 7.682-11.374 8.263-6.161.727-10.971 5.537-11.699 11.699-.582 4.937-3.748 9.294-8.263 11.372-5.635 2.596-8.725 8.657-7.511 14.741.971 4.875-.694 9.997-4.345 13.37-4.557 4.21-5.622 10.93-2.588 16.341 2.43 4.334 2.43 9.721 0 14.057-3.035 5.412-1.97 12.13 2.588 16.34 3.652 3.372 5.316 8.496 4.345 13.369-1.214 6.085 1.875 12.146 7.511 14.741 4.515 2.079 7.681 6.438 8.263 11.373.729 6.162 5.539 10.971 11.699 11.699 4.937.582 9.294 3.748 11.374 8.262 2.595 5.634 8.655 8.725 14.741 7.511.92-.184 1.85-.273 2.773-.273m20.395 9.942c-3.901 0-7.742-1.596-10.547-4.633-3.133-3.393-7.894-4.938-12.421-4.035-6.553 1.306-13.076-2.02-15.868-8.085-1.933-4.193-5.981-7.135-10.567-7.677-6.631-.782-11.81-5.96-12.593-12.592-.541-4.585-3.482-8.634-7.676-10.565-6.066-2.794-9.391-9.318-8.085-15.868.903-4.528-.644-9.288-4.036-12.421-4.906-4.531-6.052-11.763-2.787-17.587 2.258-4.029 2.258-9.034 0-13.061-3.265-5.825-2.119-13.058 2.787-17.588 3.392-3.134 4.939-7.893 4.036-12.421-1.306-6.549 2.019-13.075 8.085-15.868 4.194-1.931 7.135-5.979 7.676-10.565.784-6.632 5.962-11.811 12.593-12.592 4.587-.543 8.635-3.483 10.567-7.678 2.793-6.065 9.315-9.39 15.868-8.085 4.527.903 9.288-.642 12.421-4.035 4.531-4.905 11.765-6.049 17.59-2.785 4.029 2.258 9.031 2.258 13.061 0 5.822-3.265 13.059-2.12 17.59 2.785 3.134 3.394 7.892 4.938 12.422 4.035 6.552-1.305 13.074 2.021 15.867 8.085 1.932 4.194 5.98 7.135 10.567 7.678 6.632.781 11.81 5.96 12.592 12.592.542 4.586 3.484 8.634 7.677 10.565 6.065 2.793 9.39 9.318 8.085 15.868-.903 4.528.644 9.287 4.036 12.421 4.907 4.53 6.053 11.763 2.787 17.588-2.258 4.027-2.258 9.032 0 13.061 3.266 5.824 2.12 13.056-2.787 17.587-3.392 3.133-4.939 7.893-4.036 12.421 1.305 6.549-2.02 13.074-8.085 15.868-4.194 1.931-7.135 5.98-7.677 10.565-.783 6.632-5.96 11.81-12.592 12.592-4.585.542-8.634 3.483-10.567 7.677-2.793 6.066-9.314 9.387-15.867 8.085-4.529-.903-9.288.643-12.422 4.035-4.53 4.907-11.764 6.051-17.59 2.786-4.029-2.258-9.031-2.258-13.061 0-2.218 1.243-4.642 1.847-7.043 1.847" fill="#72778A"/><path d="M100 13.738c-47.564 0-86.26 38.695-86.26 86.257 0 47.561 38.696 86.256 86.26 86.256 47.564 0 86.26-38.694 86.26-86.256 0-47.561-38.696-86.257-86.26-86.257m0 173.532c-48.126 0-87.281-39.152-87.281-87.276 0-48.125 39.154-87.277 87.281-87.277 48.126 0 87.281 39.152 87.281 87.277 0 48.124-39.154 87.276-87.281 87.276" fill="#72778A"/><path d="M100 16.631c-45.97 0-83.368 37.396-83.368 83.364 0 45.967 37.398 83.363 83.368 83.363 45.97 0 83.368-37.396 83.368-83.363 0-45.968-37.398-83.364-83.368-83.364m0 167.747c-46.532 0-84.389-37.853-84.389-84.383 0-46.529 37.856-84.384 84.389-84.384 46.532 0 84.389 37.855 84.389 84.384 0 46.53-37.856 84.383-84.389 84.383" fill="#72778A"/><path fill="#fff" d="M67.818 41.602l-1.51.966-2.656-4.148-4.242 2.716 2.654 4.147-1.504.964-5.891-9.203 1.505-.962 2.409 3.764 4.242-2.716-2.408-3.763 1.511-.967z"/><path fill="#fff" d="M75.724 37.952l-5.633 2.542-4.494-9.959 5.634-2.542.62 1.376-4.006 1.807 1.224 2.712 3.752-1.695.615 1.362-3.753 1.695 1.41 3.126 4.006-1.807z"/><path fill="#fff" d="M81.234 36.151l-1.707.526-2.766-8.978-3.071.946-.45-1.464 7.849-2.418.452 1.464-3.071.946z"/><path d="M97.488 33.396l-1.777.174-.92-9.348-3.094.305c-.08 3.211-.182 5.401-.304 6.57-.122 1.168-.375 1.998-.757 2.489-.383.491-.926.763-1.632.817-.362.035-.713.007-1.053-.085l-.145-1.479c.295.096.575.131.844.105.356-.036.614-.278.773-.725.158-.449.286-1.419.383-2.911.095-1.491.183-3.544.261-6.16l6.351-.624 1.07 10.872z" fill="#fff"/><path d="M105.451 29.088l-.864-3.024c-.063-.203-.15-.522-.259-.956-.108-.436-.183-.754-.221-.956-.166.605-.4 1.263-.697 1.976l-1.137 2.791 3.178.169zm1.315 4.652l-.928-3.089-4.171-.222-1.23 2.973-1.881-.101 4.668-10.737 1.941.104 3.496 11.172-1.896-.1z" fill="#fff"/><path fill="#fff" d="M117.9 35.771l-1.755-.369 1.938-9.192-4.717-.995-1.938 9.192-1.748-.368 2.254-10.691 8.219 1.732z"/><path fill="#fff" d="M127.764 37.837l3.609 1.557 3.722-8.625 1.661.716-4.33 10.032-12.179-5.256 4.329-10.032 1.64.707-3.722 8.626 3.609 1.557 3.723-8.624 1.659.716z"/><path fill="#fff" d="M139.549 46.396l-5.148-3.42 6.046-9.1 5.148 3.419-.836 1.258-3.66-2.431-1.646 2.476 3.43 2.279-.828 1.245-3.429-2.278-1.899 2.857 3.661 2.431z"/><path d="M65.771 159.591c-.655.928-1.547 1.931-2.673 3.006-1.129 1.075-2.217 1.956-3.266 2.643l4.111 2.34 3.88-6.82-2.052-1.168zm-8.312 4.3l.735.417c1.281-.79 2.54-1.778 3.777-2.966 1.238-1.188 2.326-2.465 3.266-3.834l4.903 2.79-4.646 8.164 1.229.699-2.248 3.95-1.493-.85 1.489-2.617-6.275-3.57-1.489 2.617-1.495-.85 2.247-3.95z" fill="#fff"/><path d="M76.228 174.514l-1.671-.632 3.321-8.787-2.907-1.1c-1.496 2.845-2.558 4.762-3.186 5.755-.63.994-1.223 1.625-1.784 1.895-.56.27-1.168.273-1.825.009-.34-.129-.642-.308-.905-.542l.525-1.391c.221.217.459.372.71.468.336.127.674.023 1.015-.308.341-.332.885-1.144 1.633-2.439.748-1.294 1.736-3.096 2.966-5.407l5.97 2.257-3.863 10.22z" fill="#fff"/><path d="M87.125 167.472l-1.388-.3c-.736-.158-1.327-.149-1.775.026-.448.177-.736.558-.863 1.148-.123.574-.032 1.063.279 1.467.311.403.865.692 1.664.864l1.33.288.754-3.493zm-2.849 4.554l-3.569 3.709-1.995-.431 4.021-4.032c-1.261-.766-1.728-1.908-1.401-3.422.211-.979.712-1.653 1.5-2.023.788-.37 1.841-.413 3.155-.129l3.207.692-2.307 10.68-1.754-.379.925-4.28-1.783-.385z" fill="#fff"/><path d="M103.541 167.24l-3.595 7.703c-.442.944-.845 1.625-1.206 2.044-.362.419-.778.723-1.248.913-.469.191-1.035.28-1.698.266-.578-.011-1.112-.096-1.602-.255l.032-1.606c.485.203.993.31 1.525.32.454.009.836-.095 1.146-.309.311-.216.596-.611.857-1.185l-3.872-8.08 1.927.038 2.562 5.528c.229.522.368.872.42 1.048l.074.001c.032-.129.11-.334.236-.616l2.573-5.846 1.867.036z" fill="#fff"/><path fill="#fff" d="M113.194 175.425l3.881-.626-1.5-9.274 1.786-.289 1.744 10.786-13.095 2.116-1.744-10.785 1.764-.286 1.498 9.273 3.881-.626-1.5-9.274 1.786-.289z"/><path fill="#fff" d="M128.805 172.676l-5.838 2.028-3.585-10.32 5.837-2.027.496 1.425-4.152 1.442.976 2.81 3.89-1.352.491 1.412-3.89 1.352 1.125 3.239 4.152-1.442z"/><path d="M126.88 161.74l1.451-.755 2.623 5.036c.274.526.539 1.064.792 1.615.253.55.422.924.508 1.121l.059-.031.929-10.301 1.85-.962 5.047 9.69-1.458.759-2.602-4.997c-.399-.765-.841-1.714-1.324-2.85l-.053.029-.918 10.369-1.856.966-5.047-9.69zm3.752-2.939c-.937.489-1.711.675-2.322.565-.611-.112-1.148-.55-1.608-1.316l1.412-.735c.192.304.382.52.569.647.187.128.39.184.609.167.219-.016.511-.119.88-.31.432-.225.711-.493.837-.803.126-.31.097-.697-.085-1.164l1.439-.75c.33.794.352 1.491.067 2.088-.284.598-.884 1.135-1.798 1.611z" fill="#fff"/><path d="M100 40.491c-32.812 0-59.506 26.693-59.506 59.503 0 32.811 26.695 59.503 59.506 59.503 32.812 0 59.505-26.692 59.505-59.503 0-32.81-26.694-59.503-59.505-59.503m0 120.027c-33.375 0-60.527-27.151-60.527-60.523 0-33.373 27.152-60.523 60.527-60.523 33.374 0 60.526 27.15 60.526 60.523 0 33.372-27.152 60.523-60.526 60.523" fill="#72778A"/><path d="M143.121 85.525c-9.467-12.006-24.764-20.936-43.121-20.936-18.357 0-33.655 8.93-43.121 20.936-6.724 8.528-11.808 56.414 43.121 56.414s49.846-47.886 43.121-56.414" fill="#FECD48"/><path d="M100 65.099c-16.756 0-32.328 7.559-42.72 20.741-3.507 4.448-6.699 20.595-.038 34.326 4.705 9.7 15.942 21.262 42.758 21.262 26.816 0 38.053-11.562 42.758-21.262 6.661-13.731 3.469-29.879-.038-34.326-10.393-13.181-25.965-20.741-42.72-20.741m0 77.349c-27.345 0-38.844-11.875-43.677-21.838-6.94-14.311-3.589-30.655.155-35.403 10.588-13.428 26.451-21.129 43.521-21.129s32.932 7.701 43.521 21.129c3.744 4.747 7.096 21.092.155 35.403-4.832 9.962-16.332 21.838-43.677 21.838" fill="#72778A"/><path d="M87.481 99.86c2.516 1.016 4.884-1.675 3.339-3.825-1.325-1.844-3.451-3.314-6.768-3.159-5.888.274-8.508 4.034-9.543 7.284-.245.768.644 1.408 1.367.998 3.033-1.715 7.356-3.014 11.606-1.298" fill="#FEDE55"/><path d="M84.527 93.375l-.451.01c-6.071.284-8.296 4.463-9.081 6.929-.058.184.047.304.115.359.111.091.313.155.514.04 2.386-1.348 7.12-3.315 12.048-1.325 1.135.457 2.168-.011 2.694-.68.44-.562.683-1.481.039-2.375-1.411-1.964-3.389-2.958-5.878-2.958m-9.133 8.422c-.33 0-.658-.112-.928-.332-.446-.362-.615-.921-.444-1.46.867-2.719 3.318-7.327 10.006-7.638 3.025-.151 5.52 1.024 7.206 3.37.802 1.115.776 2.528-.065 3.601-.759.967-2.251 1.65-3.878.996-4.528-1.83-8.937.009-11.163 1.268-.231.13-.483.195-.734.195" fill="#72778A"/><path d="M71.35 114.96c.757-4.716-4.372-6.709-7.267-3.77-1.697 1.721-3.004 6.404-1.613 12.38 2.214 9.514 10.809 15.333 25.121 18.539-14.557-4.133-17.543-11.417-17.538-17.883.003-3.558.912-6.867 1.297-9.266" fill="#FEDE55"/><path d="M67.307 110.322c-1.035 0-2.069.423-2.86 1.225-1.383 1.403-2.917 5.731-1.48 11.907 1.567 6.737 6.532 11.765 15.092 15.232-5.719-3.494-8.521-8.276-8.517-14.46.002-2.669.51-5.23.919-7.288.147-.741.284-1.431.385-2.059.299-1.862-.4-3.417-1.867-4.16-.529-.267-1.1-.398-1.672-.398m20.285 32.297l-.111-.011c-14.981-3.356-23.325-9.545-25.508-18.922-1.434-6.159-.099-10.981 1.747-12.854 1.541-1.564 3.839-1.976 5.72-1.023 1.856.94 2.782 2.945 2.415 5.232-.104.64-.242 1.342-.393 2.097-.42 2.119-.897 4.52-.899 7.089-.002 3.096-.009 12.515 17.169 17.391.264.076.422.349.354.616-.057.231-.265.385-.494.385" fill="#72778A"/><path d="M42.771 62.316c.193-1.625 1.574-2.86 3.211-2.854 13.351.049 23.858 3.713 32.181 9.65 0 0 .465 2.554-4.79 7.974-11.219-12.373-26.28-12.497-26.28-12.497s-3.225 26.074 6.536 37.455l.002-.002c-.585 4.108-.273 7.218-.273 7.218-13.568-11.277-11.629-38.182-10.587-46.944" fill="#FECD48"/><path d="M43.277 62.375c-.938 7.893-2.953 34.067 9.503 45.694-.041-1.254-.026-3.359.314-5.868-4.032-4.821-6.354-12.601-6.904-23.126-.411-7.895.388-14.483.396-14.55.032-.256.249-.447.506-.447h.004c.152.001 15.083.262 26.284 12.262 3.807-4.039 4.239-6.321 4.277-6.962-8.784-6.197-19.44-9.362-31.679-9.407h-.009c-1.372 0-2.529 1.031-2.693 2.403m10.081 47.394c-.116 0-.233-.04-.325-.117-13.85-11.511-11.743-39.188-10.768-47.396.224-1.887 1.815-3.304 3.705-3.304h.013c12.55.046 23.476 3.325 32.475 9.744.109.078.183.194.207.324.051.288.36 2.969-4.925 8.421-.098.101-.231.148-.375.155-.14-.002-.273-.063-.368-.167-9.845-10.859-22.855-12.158-25.448-12.31-.367 3.55-2.32 26.297 6.442 36.563.112.111.169.27.147.433-.568 3.992-.274 7.065-.271 7.094.02.207-.085.405-.268.502-.074.04-.157.059-.239.059" fill="#72778A"/><path d="M47.093 64.589s15.062.123 26.281 12.497c-2.331 2.404-5.782 5.37-10.905 8.931-5.959 4.141-8.106 10.87-8.838 16.027l-.002.001c-9.762-11.38-6.536-37.455-6.536-37.455" fill="#FDBE29"/><path d="M47.548 65.119c-.357 3.454-2.216 25.09 5.761 35.711.879-4.964 3.151-11.258 8.87-15.233 4.353-3.026 7.88-5.891 10.491-8.523-9.804-10.532-22.558-11.805-25.122-11.955m6.082 37.434h-.02c-.141-.005-.275-.068-.368-.177-4.123-4.808-6.495-12.648-7.051-23.301-.411-7.896.388-14.484.396-14.55.032-.256.249-.448.506-.448h.004c.153.001 15.416.269 26.655 12.665.181.199.177.505-.011.697-2.688 2.773-6.381 5.798-10.98 8.994-5.864 4.077-7.926 10.776-8.624 15.68-.016.109-.066.211-.145.289-.095.096-.227.15-.361.15" fill="#72778A"/><path d="M79.684 104.571c.701-.521 1.566-.834 2.507-.834.941 0 1.806.312 2.507.834 1.033.767 1.704 1.993 1.704 3.377 0 2.325-1.886 4.211-4.211 4.211s-4.211-1.886-4.211-4.211c0-1.385.672-2.61 1.704-3.377" fill="#FDBE29"/><path d="M79.987 104.98c-.951.707-1.497 1.79-1.497 2.968 0 2.04 1.66 3.7 3.7 3.7 2.041 0 3.701-1.66 3.701-3.7 0-1.178-.546-2.261-1.498-2.968-1.288-.957-3.113-.958-4.406 0m2.203 7.688c-2.603 0-4.72-2.117-4.72-4.72 0-1.504.696-2.884 1.908-3.787h.001c1.645-1.221 3.979-1.221 5.623 0 1.213.903 1.909 2.283 1.909 3.787 0 2.603-2.117 4.72-4.721 4.72" fill="#72778A"/><path d="M111.808 114.606c-2.622-4.208-6.068-6.888-11.808-6.888-5.741 0-9.186 2.68-11.809 6.888-4.253 6.825-13.519 4.428-13.519 13.393 0 5.986 5.722 10.035 9.911 12.518 10.835 6.423 15.417 2.077 15.417 2.077s4.58 4.345 15.416-2.077c4.189-2.483 9.911-6.532 9.911-12.518 0-8.964-9.266-6.568-13.519-13.393" fill="#FEDE55"/><path d="M100.001 142.084c.127 0 .252.046.35.14.043.037 4.484 3.969 14.805-2.146 4.147-2.459 9.66-6.387 9.66-12.08 0-4.828-2.728-6.072-6.181-7.646-2.518-1.147-5.372-2.447-7.261-5.476-2.864-4.597-6.373-6.648-11.374-6.648-5.002 0-8.511 2.051-11.374 6.648-1.889 3.029-4.743 4.329-7.261 5.476-3.454 1.574-6.182 2.818-6.182 7.646 0 5.692 5.514 9.62 9.662 12.08 10.318 6.115 14.764 2.183 14.806 2.143.099-.091.224-.137.35-.137m-4.852 2.468c-2.562.001-6.127-.812-10.825-3.597-4.363-2.587-10.162-6.744-10.162-12.958 0-5.485 3.293-6.985 6.779-8.574 2.504-1.141 5.093-2.32 6.817-5.088 3.072-4.93 6.848-7.129 12.241-7.129s9.168 2.199 12.241 7.129c1.725 2.768 4.313 3.948 6.816 5.087 3.487 1.59 6.779 3.089 6.779 8.575 0 6.214-5.798 10.371-10.161 12.958-9.509 5.638-14.381 3.19-15.676 2.285-.655.458-2.226 1.311-4.851 1.311" fill="#72778A"/><path d="M112.519 99.86c-2.516 1.016-4.884-1.675-3.339-3.825 1.325-1.844 3.451-3.314 6.768-3.159 5.888.274 8.508 4.034 9.543 7.284.245.768-.644 1.408-1.367.998-3.033-1.715-7.356-3.014-11.606-1.298" fill="#FEDE55"/><path d="M116.724 98.541c3.202 0 5.994 1.236 7.651 2.172.202.114.404.051.515-.04.067-.056.173-.175.114-.36-.785-2.466-3.01-6.644-9.081-6.929-2.708-.125-4.832.866-6.329 2.949-.644.894-.401 1.812.04 2.374.525.668 1.561 1.137 2.693.68 1.504-.607 2.991-.846 4.398-.846m7.882 3.255c-.251 0-.504-.064-.734-.194-2.225-1.259-6.634-3.098-11.164-1.268-1.627.653-3.118-.029-3.877-.997-.843-1.072-.868-2.484-.067-3.6 1.688-2.348 4.182-3.516 7.207-3.371 6.687.312 9.139 4.92 10.006 7.639.171.539.002 1.098-.443 1.459-.27.219-.598.332-.928.332" fill="#72778A"/><path d="M128.65 114.96c-.757-4.716 4.372-6.709 7.267-3.77 1.697 1.721 3.004 6.404 1.613 12.38-2.214 9.514-10.809 15.333-25.121 18.539 14.557-4.133 17.543-11.417 17.538-17.883-.003-3.558-.912-6.867-1.297-9.266" fill="#FEDE55"/><path d="M129.154 114.88c.101.627.237 1.318.385 2.06.408 2.057.916 4.618.918 7.287.005 6.184-2.797 10.966-8.516 14.46 8.559-3.466 13.525-8.496 15.092-15.232 1.438-6.175-.097-10.504-1.481-11.907-1.226-1.245-3.046-1.577-4.532-.827-1.467.743-2.165 2.299-1.866 4.16m-16.745 27.739c-.23 0-.437-.154-.495-.384-.067-.268.09-.542.355-.617 17.178-4.876 17.17-14.295 17.168-17.391-.002-2.568-.478-4.97-.899-7.089-.15-.754-.289-1.457-.392-2.097-.367-2.288.558-4.291 2.414-5.231 1.88-.953 4.179-.543 5.72 1.022 1.847 1.873 3.181 6.695 1.747 12.854-2.182 9.377-10.525 15.566-25.507 18.922l-.111.011" fill="#72778A"/><path d="M94.02 134.245c-.155 0-.31-.071-.41-.207-.167-.227-.12-.546.107-.713.113-.084 2.837-2.068 6.282-2.068 3.446 0 6.169 1.984 6.283 2.068.227.167.274.486.107.713-.166.228-.485.274-.713.107-.026-.018-2.576-1.868-5.677-1.868-3.112 0-5.651 1.85-5.676 1.868-.091.067-.197.1-.303.1" fill="#72778A"/><path d="M100 116.285c-5.837 0-7.369 1.961-7.369 3.437 0 1.74 3.418 5.38 7.369 5.38 3.951 0 7.369-3.64 7.369-5.38 0-1.476-1.532-3.437-7.369-3.437" fill="#FDBE29"/><path d="M100 116.795c-5.057 0-6.859 1.511-6.859 2.926 0 1.335 3.115 4.871 6.859 4.871 3.744 0 6.859-3.536 6.859-4.871 0-1.415-1.802-2.926-6.859-2.926m0 8.817c-4.312 0-7.879-3.901-7.879-5.891 0-.925.568-3.947 7.879-3.947s7.879 3.021 7.879 3.947c0 1.991-3.567 5.891-7.879 5.891" fill="#72778A"/><path d="M157.229 62.316c-.193-1.625-1.574-2.86-3.211-2.854-13.351.049-23.858 3.713-32.181 9.65 0 0-.465 2.554 4.79 7.974 11.219-12.373 26.28-12.497 26.28-12.497s3.225 26.074-6.536 37.455l-.002-.002c.585 4.108.273 7.218.273 7.218 13.568-11.277 11.629-38.182 10.587-46.944" fill="#FECD48"/><path d="M146.906 102.201c.34 2.509.355 4.614.314 5.868 12.456-11.628 10.44-37.8 9.503-45.693-.163-1.372-1.32-2.404-2.694-2.404h-.009c-12.238.046-22.896 3.211-31.68 9.409.038.624.46 2.908 4.279 6.959 11.202-11.999 26.132-12.26 26.283-12.261h.004c.257 0 .474.191.506.447.008.066.807 6.654.396 14.55-.548 10.524-2.871 18.302-6.903 23.125m-.265 7.569c-.082 0-.164-.02-.239-.06-.184-.096-.289-.295-.268-.501.003-.031.298-3.103-.269-7.094-.024-.165.036-.326.149-.438 8.759-10.267 6.805-33.011 6.438-36.558-2.592.152-15.601 1.451-25.448 12.31-.095.104-.229.165-.368.167-.159-.009-.278-.054-.375-.156-5.285-5.45-4.976-8.132-4.925-8.421.024-.13.098-.246.207-.323 8.999-6.419 19.925-9.698 32.474-9.745h.013c1.891 0 3.482 1.418 3.706 3.305.975 8.208 3.083 35.885-10.768 47.396-.094.078-.21.117-.327.117" fill="#72778A"/><path d="M152.907 64.589s-15.062.123-26.281 12.497c2.331 2.404 5.782 5.37 10.905 8.931 5.959 4.141 8.106 10.87 8.838 16.027l.002.001c9.762-11.38 6.536-37.455 6.536-37.455" fill="#FDBE29"/><path d="M127.33 77.074c2.611 2.631 6.138 5.497 10.491 8.524 5.718 3.973 7.991 10.267 8.871 15.231 7.975-10.621 6.116-32.258 5.759-35.71-2.564.151-15.318 1.423-25.121 11.955m19.04 25.481l-.062-.004c-.169-.021-.317-.125-.394-.279l-.05-.158c-.698-4.904-2.76-11.603-8.624-15.68-4.599-3.196-8.292-6.221-10.98-8.994-.187-.192-.192-.498-.011-.697 11.239-12.396 26.501-12.663 26.654-12.664h.004c.257 0 .474.191.506.447.008.066.808 6.654.396 14.55-.555 10.653-2.927 18.493-7.051 23.301-.098.113-.24.179-.388.179" fill="#72778A"/><path d="M120.316 104.571c-.701-.521-1.566-.834-2.507-.834-.941 0-1.806.312-2.507.834-1.033.767-1.704 1.993-1.704 3.377 0 2.325 1.886 4.211 4.211 4.211s4.211-1.886 4.211-4.211c0-1.385-.672-2.61-1.704-3.377" fill="#FDBE29"/><path d="M117.809 104.247c-.796 0-1.557.253-2.203.733-.951.707-1.497 1.79-1.497 2.968 0 2.04 1.66 3.7 3.7 3.7 2.041 0 3.701-1.66 3.701-3.7 0-1.178-.546-2.261-1.498-2.968h-.001c-.644-.48-1.405-.733-2.202-.733m0 8.421c-2.603 0-4.72-2.117-4.72-4.72 0-1.505.696-2.884 1.908-3.787 1.646-1.221 3.98-1.221 5.624 0 1.212.902 1.909 2.282 1.909 3.787 0 2.603-2.117 4.72-4.721 4.72" fill="#72778A"/><path d="M151.464 138.124c-2.178-.001-4.142-1.187-5.124-3.094-2.455-4.762-1.851-10.616-1.151-17.393.28-2.712.565-5.487.686-8.409.014-.14.297-3.134-.263-7.078-.691-4.854-2.729-11.483-8.518-15.507-4.754-3.303-8.462-6.341-11.022-9.03-2.235-2.347-3.807-4.537-4.55-6.333-.774-1.878-.562-3.101-.554-3.152.066-.363.384-.627.757-.627l.13.011c.414.074.692.47.621.883-.001.007-.123.886.461 2.302.468 1.133 1.586 3.069 4.243 5.861 2.487 2.612 6.115 5.583 10.786 8.83 6.243 4.337 8.426 11.393 9.16 16.547.59 4.144.289 7.27.277 7.4-.121 2.944-.41 5.746-.69 8.456-.675 6.536-1.259 12.179.989 16.537.718 1.396 2.161 2.264 3.763 2.265 1.474 0 2.827-.75 3.617-2.006 6.513-10.346 9.955-22.308 9.955-34.593 0-7.644-1.313-15.128-3.904-22.244-.144-.397.06-.836.457-.982.086-.03.173-.046.262-.046.32 0 .608.203.719.503 2.651 7.285 3.996 14.945 3.996 22.768 0 12.573-3.523 24.818-10.19 35.409-1.071 1.704-2.908 2.721-4.912 2.721" fill="#FEDE55"/><path d="M121.725 67.247c-.497 0-.921.353-1.008.839-.024.134-.22 1.38.569 3.294.754 1.824 2.345 4.041 4.601 6.411 2.571 2.702 6.293 5.751 11.061 9.064 5.713 3.971 7.727 10.53 8.41 15.333.558 3.915.268 6.972.265 7.002-.122 2.943-.408 5.713-.685 8.392-.707 6.848-1.315 12.736 1.174 17.567 1.028 1.992 3.077 3.23 5.352 3.231 2.092 0 4.009-1.061 5.127-2.84 6.693-10.633 10.23-22.923 10.23-35.545 0-7.852-1.35-15.541-4.012-22.854-.147-.402-.532-.671-.958-.671-.118 0-.236.02-.348.06-.531.194-.804.781-.611 1.309 2.579 7.087 3.889 14.541 3.889 22.156 0 12.238-3.429 24.153-9.916 34.458-.744 1.182-2.015 1.887-3.401 1.887-1.507-.001-2.862-.815-3.538-2.126-2.212-4.291-1.633-9.9-.961-16.394.281-2.714.57-5.521.692-8.487.011-.102.314-3.257-.279-7.432-.741-5.205-2.95-12.331-9.267-16.721-4.657-3.237-8.273-6.196-10.747-8.796-2.63-2.763-3.731-4.67-4.193-5.782-.55-1.333-.444-2.162-.443-2.17.092-.542-.279-1.069-.826-1.168l-.178-.015m0 .51l.087.007c.277.05.459.313.413.589-.005.029-.137.958.475 2.443.477 1.151 1.607 3.117 4.295 5.939 2.5 2.625 6.142 5.607 10.826 8.863 6.167 4.285 8.326 11.269 9.053 16.374.586 4.121.287 7.209.273 7.339-.12 2.941-.409 5.744-.689 8.455-.681 6.576-1.266 12.256 1.015 16.68.763 1.481 2.293 2.402 3.991 2.403 1.562 0 2.995-.794 3.833-2.125 6.537-10.387 9.993-22.395 9.993-34.729 0-7.673-1.318-15.187-3.919-22.331-.097-.264.04-.557.305-.653l.174-.031c.208 0 .403.128.479.336 2.642 7.256 3.981 14.886 3.981 22.679 0 12.526-3.511 24.723-10.152 35.273-1.025 1.629-2.78 2.602-4.696 2.602-2.082-.001-3.959-1.134-4.898-2.955-2.42-4.695-1.819-10.514-1.124-17.253.279-2.696.566-5.483.688-8.422.006-.061.301-3.133-.267-7.125-.697-4.903-2.76-11.604-8.624-15.68-4.741-3.295-8.435-6.321-10.982-8.996-2.213-2.325-3.769-4.488-4.499-6.254-.744-1.803-.548-2.96-.539-3.008.045-.249.264-.419.506-.419" fill="#72778A"/><path d="M156.823 135.648c-3.125-.024-5.905-1.991-6.92-4.891-1.547-4.424-1.011-9.614-.392-15.623.279-2.708.566-5.485.687-8.41.004-.045.297-3.13-.265-7.077-.691-4.854-2.728-11.483-8.517-15.507-4.759-3.307-8.467-6.344-11.022-9.031-2.236-2.347-3.808-4.536-4.549-6.331-.78-1.887-.564-3.101-.555-3.152.066-.363.387-.627.76-.627l.124.01c.415.076.694.471.622.883 0 .005-.12.89.462 2.303.66 1.599 2.166 3.68 4.243 5.86 2.487 2.613 6.117 5.583 10.787 8.83 6.241 4.337 8.425 11.393 9.158 16.547.592 4.145.291 7.27.278 7.4-.12 2.946-.409 5.746-.69 8.455-.602 5.828-1.121 10.861.313 14.965.802 2.293 3.007 3.847 5.485 3.866 2.258 0 4.311-1.251 5.277-3.184 4.819-9.658 7.264-20.067 7.264-30.939 0-8.144-1.398-16.119-4.155-23.704-.07-.192-.061-.4.026-.586.087-.185.24-.324.433-.395.085-.03.172-.046.261-.046.321 0 .61.204.719.504 2.817 7.753 4.247 15.903 4.247 24.226 0 11.111-2.498 21.751-7.426 31.622-1.222 2.449-3.814 4.031-6.602 4.031h-.054z" fill="#FEDE55"/><path d="M126.05 64.744c-.497 0-.921.352-1.01.838-.01.052-.238 1.339.57 3.294.752 1.824 2.343 4.04 4.599 6.411 2.567 2.698 6.289 5.747 11.062 9.063 5.713 3.972 7.726 10.531 8.41 15.333.558 3.916.268 6.972.265 7.002-.122 2.946-.409 5.719-.686 8.401-.625 6.062-1.163 11.277.403 15.755 1.05 3.003 3.926 5.037 7.157 5.063h.057c2.885 0 5.566-1.638 6.831-4.172 4.945-9.908 7.452-20.586 7.452-31.737 0-8.352-1.434-16.532-4.262-24.313-.145-.401-.531-.671-.958-.671-.118 0-.236.02-.348.06-.257.093-.462.28-.578.526-.115.248-.128.525-.034.783 2.747 7.555 4.139 15.5 4.139 23.615 0 10.832-2.435 21.203-7.236 30.824-.923 1.849-2.888 3.044-5.005 3.044-2.413-.018-4.522-1.503-5.29-3.696-1.415-4.049-.898-9.056-.3-14.854.281-2.713.57-5.518.692-8.486.011-.102.315-3.256-.28-7.432-.741-5.206-2.95-12.331-9.266-16.721-4.656-3.236-8.272-6.195-10.747-8.796-2.055-2.158-3.544-4.211-4.192-5.782-.55-1.333-.446-2.165-.445-2.173.092-.539-.279-1.065-.828-1.164l-.173-.015m0 .51l.084.007c.275.05.46.311.413.588-.003.017-.139.95.478 2.443.671 1.626 2.196 3.736 4.294 5.939 2.497 2.623 6.138 5.606 10.826 8.862 6.166 4.285 8.325 11.269 9.052 16.374.587 4.122.288 7.209.275 7.339-.121 2.941-.41 5.744-.69 8.455-.605 5.859-1.127 10.918.325 15.074.838 2.395 3.139 4.017 5.724 4.037h.047c2.311 0 4.451-1.301 5.461-3.326 4.838-9.693 7.29-20.14 7.29-31.052 0-8.174-1.403-16.178-4.169-23.79-.097-.264.04-.558.304-.653l.176-.031c.208 0 .404.128.479.335 2.808 7.726 4.231 15.846 4.231 24.139 0 11.071-2.489 21.672-7.399 31.509-1.182 2.367-3.679 3.889-6.374 3.889h-.053c-3.015-.023-5.7-1.921-6.679-4.721-1.528-4.37-.996-9.536-.379-15.516.278-2.696.565-5.483.688-8.422.005-.06.3-3.131-.268-7.124-.698-4.904-2.76-11.604-8.623-15.68-4.745-3.297-8.44-6.324-10.984-8.997-2.214-2.325-3.768-4.487-4.497-6.253-.745-1.801-.549-2.959-.541-3.007.046-.249.268-.419.509-.419" fill="#72778A"/><path d="M162.037 133.116c-3.957 0-7.454-2.787-8.313-6.629-.903-4.033-.435-8.582.108-13.848.281-2.722.567-5.496.688-8.419.004-.045.297-3.132-.264-7.078-.691-4.853-2.729-11.483-8.518-15.507-4.757-3.305-8.465-6.343-11.021-9.031-2.652-2.784-3.932-4.968-4.54-6.308-.683-1.505-.607-2.716-.597-2.85.038-.4.374-.698.785-.698.468.043.778.414.741.833-.001.006-.062.918.465 2.083.56 1.235 1.753 3.258 4.254 5.884 2.483 2.61 6.112 5.581 10.786 8.83 6.242 4.338 8.426 11.393 9.159 16.547.591 4.145.29 7.27.277 7.4-.12 2.943-.409 5.746-.69 8.456-.531 5.136-.99 9.572-.139 13.368.704 3.149 3.571 5.433 6.819 5.433 2.889 0 5.448-1.748 6.519-4.452 3.422-8.637 5.157-17.768 5.157-27.14 0-8.657-1.487-17.135-4.42-25.198-.143-.396.061-.836.458-.981.086-.03.172-.046.261-.046.322 0 .611.203.719.504 2.994 8.23 4.512 16.883 4.512 25.721 0 9.566-1.771 18.888-5.265 27.703-1.304 3.293-4.421 5.419-7.941 5.419" fill="#FEDE55"/><path d="M130.364 62.497c-.543 0-.989.397-1.038.924-.019.236-.077 1.452.618 2.982.615 1.359 1.91 3.568 4.587 6.38 2.568 2.7 6.289 5.748 11.061 9.063 5.713 3.972 7.727 10.531 8.411 15.333.557 3.916.267 6.972.264 7.002-.122 2.943-.408 5.714-.685 8.393-.549 5.327-1.02 9.894-.108 13.968.886 3.957 4.487 6.828 8.562 6.828 3.626 0 6.836-2.19 8.179-5.579 3.506-8.847 5.283-18.199 5.283-27.797 0-8.868-1.523-17.551-4.528-25.809-.144-.401-.53-.671-.958-.671-.118 0-.235.02-.347.06-.531.194-.804.781-.612 1.309 2.922 8.034 4.405 16.483 4.405 25.111 0 9.339-1.73 18.438-5.14 27.045-1.033 2.607-3.499 4.29-6.282 4.29-3.128 0-5.892-2.201-6.569-5.233-.842-3.755-.386-8.172.143-13.285.281-2.715.57-5.522.692-8.487.011-.103.315-3.258-.279-7.433-.741-5.205-2.95-12.329-9.267-16.721-4.66-3.239-8.276-6.198-10.746-8.795-2.476-2.602-3.655-4.597-4.207-5.815-.496-1.095-.444-1.954-.443-1.962.049-.55-.364-1.046-.92-1.1l-.024-.002-.051-.001zm0 .51l.027.001c.279.027.485.273.46.553-.001.009-.073.973.488 2.212.567 1.251 1.774 3.301 4.301 5.954 2.497 2.624 6.138 5.606 10.826 8.863 6.167 4.286 8.326 11.27 9.053 16.374.586 4.121.287 7.209.273 7.339-.12 2.942-.409 5.744-.689 8.455-.534 5.161-.993 9.616-.134 13.45.73 3.264 3.703 5.632 7.067 5.632 2.994 0 5.647-1.81 6.757-4.613 3.434-8.665 5.175-17.829 5.175-27.233 0-8.689-1.493-17.196-4.436-25.286-.097-.264.04-.557.305-.653l.174-.031c.209 0 .404.128.48.336 2.984 8.202 4.497 16.827 4.497 25.634 0 9.534-1.766 18.824-5.248 27.609-1.265 3.194-4.29 5.257-7.705 5.257-3.839 0-7.229-2.704-8.064-6.429-.895-3.996-.427-8.53.114-13.777.279-2.697.566-5.483.688-8.423.006-.061.301-3.132-.266-7.125-.698-4.903-2.76-11.603-8.625-15.68-4.744-3.296-8.438-6.323-10.982-8.996-2.625-2.758-3.892-4.914-4.492-6.238-.681-1.5-.579-2.675-.574-2.725.024-.271.262-.461.53-.461z" fill="#72778A"/><path d="M166.999 130.613c-4.602 0-8.46-3.273-9.173-7.783-.594-3.762-.145-8.104.33-12.702.28-2.712.566-5.488.687-8.41.004-.045.297-3.132-.265-7.079-.691-4.854-2.728-11.483-8.517-15.506-4.758-3.305-8.466-6.344-11.022-9.032-1.96-2.056-3.482-4.171-4.527-6.284-.59-1.188-.593-2.021-.588-2.177.017-.413.353-.737.765-.737.446.016.778.369.765.786 0 0 .003.589.429 1.45.976 1.974 2.41 3.962 4.264 5.908 2.483 2.61 6.112 5.581 10.787 8.831 6.241 4.336 8.425 11.392 9.158 16.546.592 4.145.291 7.271.278 7.401-.12 2.944-.409 5.748-.69 8.459-.485 4.699-.904 8.746-.341 12.307.594 3.761 3.815 6.491 7.661 6.491 3.39 0 6.349-2.132 7.362-5.305 2.449-7.66 3.691-15.663 3.691-23.784 0-9.168-1.574-18.146-4.68-26.68-.069-.193-.06-.401.027-.586.086-.185.239-.325.431-.396.085-.03.173-.046.262-.046.32 0 .609.202.719.503 3.167 8.703 4.772 17.856 4.772 27.204 0 8.28-1.265 16.44-3.762 24.251-1.218 3.809-4.762 6.369-8.821 6.369" fill="#FEDE55"/><path d="M134.717 60.649h-.027999999999999997c-.55 0-.998.431-1.02.982-.006.168-.003 1.059.613 2.302 1.056 2.135 2.594 4.271 4.571 6.346 2.568 2.7 6.291 5.749 11.062 9.065 5.713 3.97 7.726 10.529 8.41 15.332.558 3.916.268 6.973.265 7.003-.122 2.944-.408 5.715-.685 8.395-.48 4.642-.93 9.001-.331 12.796.733 4.634 4.697 7.998 9.425 7.998 4.169 0 7.812-2.63 9.063-6.546 2.505-7.836 3.775-16.021 3.775-24.328 0-9.378-1.611-18.559-4.789-27.291-.146-.401-.532-.671-.958-.671-.119 0-.237.02-.349.062-.529.193-.802.78-.61 1.307 3.096 8.507 4.665 17.454 4.665 26.593 0 8.096-1.238 16.072-3.678 23.707-.98 3.067-3.841 5.127-7.119 5.127-3.719 0-6.834-2.64-7.409-6.276-.557-3.527-.141-7.56.341-12.231.282-2.724.571-5.532.693-8.498.011-.103.315-3.258-.28-7.434-.741-5.205-2.95-12.33-9.266-16.72-4.661-3.24-8.277-6.2-10.747-8.796-1.836-1.928-3.256-3.895-4.22-5.845-.394-.796-.402-1.338-.402-1.343.015-.543-.424-1.013-.982-1.036h-.01zm-.01.51c.281.011.499.245.492.524 0 .006-.006.639.455 1.57.987 1.996 2.436 4.005 4.308 5.97 2.496 2.624 6.137 5.605 10.826 8.864 6.166 4.284 8.325 11.268 9.052 16.373.587 4.122.288 7.21.275 7.34-.121 2.943-.41 5.746-.69 8.458-.487 4.71-.907 8.778-.339 12.372.613 3.886 3.942 6.706 7.913 6.706 3.5 0 6.557-2.203 7.605-5.482 2.457-7.686 3.703-15.715 3.703-23.862 0-9.198-1.58-18.203-4.696-26.768-.097-.265.04-.557.305-.653l.174-.032c.208 0 .404.129.48.336 3.156 8.676 4.757 17.8 4.757 27.117 0 8.252-1.262 16.386-3.751 24.173-1.184 3.704-4.63 6.191-8.577 6.191-4.476 0-8.228-3.182-8.921-7.568-.589-3.726-.142-8.054.332-12.636.278-2.697.565-5.484.688-8.425.005-.061.3-3.133-.268-7.126-.698-4.903-2.76-11.604-8.623-15.679-4.746-3.297-8.44-6.324-10.984-8.997-1.943-2.041-3.451-4.134-4.483-6.222-.575-1.162-.563-1.968-.56-2.056.01-.274.237-.491.51-.491h.018z" fill="#72778A"/><path d="M48.544 138.124c-2.004 0-3.841-1.017-4.912-2.721-6.667-10.591-10.19-22.835-10.19-35.409 0-7.823 1.345-15.483 3.996-22.768.111-.3.399-.503.719-.503.089 0 .177.016.261.046.194.071.346.211.433.396.087.186.096.394.026.586-2.591 7.116-3.904 14.6-3.904 22.244 0 12.285 3.442 24.248 9.955 34.593.79 1.256 2.143 2.006 3.617 2.006 1.602-.001 3.045-.869 3.763-2.265 2.247-4.355 1.664-9.997.99-16.528-.283-2.737-.571-5.539-.695-8.509-.012-.115-.31-3.206.281-7.356.734-5.155 2.917-12.21 9.16-16.547 4.671-3.247 8.3-6.218 10.786-8.83 2.66-2.797 3.776-4.731 4.243-5.861.584-1.414.462-2.297.46-2.306-.065-.413.215-.807.627-.876l.133-.012c.367 0 .683.264.75.626.008.051.22 1.273-.554 3.152-.741 1.793-2.313 3.983-4.55 6.332-2.56 2.69-6.268 5.728-11.022 9.031-5.789 4.024-7.827 10.653-8.518 15.507-.561 3.953-.271 7.002-.268 7.034.124 2.965.41 5.741.687 8.426.704 6.804 1.309 12.658-1.147 17.421-.983 1.907-2.946 3.093-5.124 3.094" fill="#FEDE55"/><path d="M78.29 67.248l-.176.015c-.548.093-.922.617-.835 1.168 0 .004.105.836-.445 2.169-.458 1.109-1.558 3.013-4.193 5.782-2.473 2.599-6.09 5.558-10.746 8.795-6.317 4.39-8.526 11.516-9.267 16.721-.594 4.18-.294 7.301-.281 7.433.121 2.949.411 5.753.692 8.466.672 6.52 1.251 12.126-.959 16.414-.675 1.311-2.032 2.126-3.538 2.126-1.386 0-2.658-.705-3.402-1.887-6.486-10.305-9.915-22.22-9.915-34.458 0-7.615 1.308-15.069 3.889-22.156.093-.256.082-.534-.034-.781-.115-.247-.319-.434-.575-.527-.114-.041-.232-.061-.35-.061-.427 0-.812.269-.958.671-2.662 7.313-4.012 15.002-4.012 22.854 0 12.622 3.538 24.914 10.229 35.545 1.119 1.778 3.037 2.84 5.128 2.84 2.274-.001 4.324-1.239 5.351-3.231 2.491-4.83 1.883-10.718 1.177-17.537-.28-2.707-.565-5.479-.689-8.423-.005-.059-.29-3.093.266-7.001.684-4.803 2.698-11.362 8.411-15.333 4.768-3.313 8.489-6.363 11.061-9.063 2.258-2.373 3.849-4.589 4.601-6.412.79-1.913.594-3.159.569-3.295-.09-.485-.51-.836-1.001-.836m0 .51c.243 0 .453.17.499.417.008.049.205 1.205-.54 3.008-.728 1.766-2.284 3.928-4.498 6.254-2.547 2.675-6.242 5.702-10.982 8.996-5.865 4.076-7.927 10.777-8.625 15.68-.567 3.992-.273 7.065-.27 7.095.124 2.969.412 5.757.69 8.454.697 6.737 1.298 12.556-1.122 17.25-.939 1.821-2.816 2.954-4.898 2.955-1.915 0-3.671-.972-4.696-2.601-6.641-10.55-10.152-22.747-10.152-35.274 0-7.792 1.34-15.423 3.981-22.679.076-.208.27-.336.479-.336l.174.031c.265.097.402.389.305.654-2.601 7.144-3.919 14.658-3.919 22.33 0 12.334 3.456 24.343 9.993 34.729.839 1.331 2.271 2.125 3.833 2.125 1.698-.001 3.227-.921 3.991-2.403 2.282-4.424 1.694-10.102 1.015-16.678-.28-2.712-.569-5.516-.693-8.487-.01-.1-.308-3.188.278-7.309.726-5.105 2.886-12.089 9.053-16.374 4.684-3.256 8.326-6.237 10.826-8.863 2.688-2.825 3.819-4.789 4.295-5.939.618-1.501.478-2.433.475-2.443-.044-.277.142-.54.418-.587l.089-.007" fill="#72778A"/><path d="M43.13 135.648c-2.788 0-5.378-1.582-6.602-4.031-4.927-9.871-7.425-20.511-7.425-31.622 0-8.323 1.429-16.473 4.247-24.226.108-.3.398-.503.719-.503.089 0 .177.015.26.045.193.07.347.21.434.395.087.186.096.394.026.587-2.757 7.584-4.155 15.559-4.155 23.703 0 10.871 2.444 21.28 7.264 30.939.952 1.904 3.066 3.184 5.262 3.184 2.494-.019 4.699-1.573 5.501-3.867 1.435-4.103.914-9.136.313-14.964-.281-2.708-.569-5.51-.694-8.499-.012-.115-.31-3.211.281-7.356.733-5.155 2.916-12.209 9.159-16.547 4.674-3.25 8.304-6.221 10.787-8.829 2.075-2.18 3.582-4.262 4.242-5.861.585-1.415.463-2.297.461-2.305-.065-.414.216-.808.629-.877l.132-.012c.363 0 .686.269.749.63.009.048.224 1.262-.555 3.149-.742 1.795-2.314 3.984-4.549 6.332-2.559 2.689-6.268 5.726-11.023 9.03-5.79 4.025-7.827 10.654-8.516 15.507-.559 3.927-.282 6.908-.269 7.033.124 2.969.411 5.746.689 8.433.621 6.03 1.157 11.22-.39 15.644-1.015 2.901-3.796 4.867-6.919 4.891h-.056z" fill="#FEDE55"/><path d="M73.969 64.745l-.182.016c-.542.092-.917.616-.83 1.168.001.004.105.835-.445 2.168-.649 1.57-2.138 3.624-4.192 5.781-2.471 2.597-6.087 5.557-10.748 8.796-6.317 4.39-8.525 11.516-9.265 16.721-.595 4.176-.294 7.301-.281 7.432.122 2.968.412 5.774.693 8.486.598 5.798 1.115 10.805-.3 14.854-.767 2.193-2.876 3.677-5.248 3.696-2.114 0-4.138-1.222-5.047-3.044-4.802-9.621-7.237-19.993-7.237-30.824 0-8.113 1.393-16.06 4.14-23.616.094-.256.082-.534-.035-.781-.115-.247-.319-.435-.577-.526-.113-.041-.23-.061-.347-.061-.429 0-.814.27-.96.672-2.827 7.781-4.262 15.961-4.262 24.312 0 11.152 2.508 21.829 7.453 31.737 1.265 2.534 3.946 4.172 6.829 4.172h.054c3.236-.026 6.112-2.06 7.162-5.062 1.566-4.477 1.028-9.694.405-15.734-.28-2.703-.565-5.477-.689-8.424-.014-.151-.289-3.103.266-7 .683-4.803 2.695-11.361 8.41-15.334 4.768-3.312 8.49-6.362 11.062-9.063 2.256-2.369 3.847-4.586 4.599-6.411.808-1.955.581-3.242.57-3.296-.085-.482-.506-.835-1-.835m0 .51c.237 0 .455.172.498.418.009.048.205 1.206-.54 3.008-.729 1.765-2.283 3.927-4.497 6.253-2.546 2.674-6.241 5.7-10.984 8.996-5.865 4.077-7.926 10.777-8.623 15.68-.57 4.001-.274 7.064-.271 7.094.124 2.968.413 5.757.691 8.451.617 5.981 1.15 11.146-.379 15.516-.98 2.801-3.664 4.697-6.68 4.721h-.054c-2.694 0-5.191-1.522-6.373-3.889-4.909-9.837-7.399-20.437-7.399-31.509 0-8.293 1.424-16.414 4.232-24.138.074-.208.27-.336.48-.336l.173.031c.265.096.402.389.305.654-2.767 7.612-4.17 15.616-4.17 23.789 0 10.912 2.454 21.36 7.291 31.053 1.015 2.032 3.217 3.325 5.491 3.325h.015c2.588-.019 4.888-1.643 5.726-4.037 1.453-4.156.931-9.215.325-15.074-.28-2.71-.569-5.514-.693-8.484-.009-.1-.308-3.187.279-7.31.725-5.103 2.884-12.087 9.052-16.373 4.685-3.258 8.328-6.239 10.826-8.863 2.098-2.203 3.622-4.312 4.294-5.938.619-1.501.48-2.434.478-2.444-.044-.275.143-.539.418-.586l.089-.008" fill="#72778A"/><path d="M37.971 133.116c-3.52 0-6.637-2.126-7.941-5.419-3.494-8.815-5.265-18.137-5.265-27.703 0-8.838 1.518-17.491 4.512-25.722.109-.3.398-.502.72-.502.088 0 .174.015.258.045.399.145.603.585.46.982-2.934 8.062-4.42 16.54-4.42 25.197 0 9.373 1.735 18.503 5.157 27.14 1.071 2.704 3.63 4.452 6.519 4.452 3.248 0 6.115-2.284 6.819-5.433.851-3.793.392-8.232-.139-13.37-.282-2.729-.571-5.529-.695-8.498-.012-.115-.31-3.206.282-7.356.733-5.155 2.917-12.209 9.159-16.547 4.674-3.249 8.304-6.22 10.786-8.829 2.504-2.631 3.696-4.653 4.254-5.885.528-1.165.466-2.077.465-2.086-.035-.419.278-.791.695-.827h.004c.454 0 .789.297.826.69.01.139.086 1.35-.597 2.855-.606 1.339-1.886 3.521-4.54 6.308-2.556 2.687-6.264 5.726-11.021 9.031-5.789 4.024-7.827 10.654-8.518 15.507-.562 3.953-.272 7.002-.269 7.034.124 2.965.411 5.739.688 8.422.547 5.299 1.017 9.852.113 13.888-.859 3.841-4.356 6.629-8.313 6.629" fill="#FEDE55"/><path d="M69.645 62.498h-.011l-.036.001c-.58.051-.995.545-.949 1.103 0 .006.052.864-.444 1.96-.551 1.215-1.727 3.21-4.207 5.815-2.47 2.597-6.086 5.556-10.746 8.795-6.317 4.391-8.526 11.516-9.267 16.721-.594 4.18-.294 7.301-.281 7.433.121 2.948.411 5.751.692 8.462.531 5.138.987 9.556.145 13.309-.678 3.033-3.441 5.234-6.57 5.234-2.784 0-5.249-1.684-6.281-4.29-3.41-8.607-5.14-17.706-5.14-27.046 0-8.627 1.482-17.076 4.405-25.111.192-.527-.082-1.114-.61-1.307-.114-.041-.231-.061-.348-.061-.429 0-.814.269-.96.671-3.004 8.256-4.527 16.94-4.527 25.808 0 9.599 1.777 18.951 5.283 27.798 1.343 3.389 4.553 5.579 8.178 5.579 4.076 0 7.677-2.871 8.563-6.828.912-4.077.441-8.648-.106-13.941-.28-2.708-.565-5.478-.689-8.421-.005-.059-.29-3.093.266-7.001.684-4.803 2.697-11.361 8.411-15.333 4.77-3.315 8.492-6.365 11.061-9.063 2.677-2.814 3.972-5.023 4.587-6.38.695-1.53.638-2.747.618-2.975-.049-.534-.495-.931-1.037-.931m0 .51c.266 0 .503.188.529.46.004.05.106 1.225-.574 2.725-.599 1.322-1.865 3.478-4.492 6.238-2.544 2.673-6.238 5.7-10.983 8.996-5.865 4.077-7.926 10.777-8.624 15.68-.567 3.991-.273 7.065-.27 7.094.124 2.969.412 5.755.69 8.45.543 5.249 1.011 9.784.116 13.78-.835 3.725-4.225 6.429-8.065 6.429-3.414 0-6.438-2.063-7.704-5.257-3.481-8.786-5.248-18.076-5.248-27.61 0-8.806 1.512-17.431 4.497-25.634.076-.206.271-.335.481-.335l.173.031c.265.096.401.388.305.653-2.943 8.09-4.436 16.597-4.436 25.285 0 9.405 1.742 18.569 5.175 27.234 1.11 2.803 3.763 4.613 6.756 4.613 3.365 0 6.338-2.368 7.068-5.632.86-3.834.4-8.291-.134-13.453-.28-2.71-.569-5.512-.693-8.482-.01-.1-.308-3.188.278-7.309.726-5.104 2.886-12.088 9.053-16.374 4.688-3.258 8.329-6.239 10.826-8.863 2.527-2.656 3.735-4.705 4.301-5.956.561-1.238.489-2.202.488-2.211-.023-.281.184-.527.463-.553h.024" fill="#72778A"/><path d="M33.009 130.613c-4.059 0-7.603-2.56-8.821-6.369-2.497-7.81-3.762-15.971-3.762-24.251 0-9.348 1.605-18.501 4.772-27.204.108-.3.397-.503.719-.503.089 0 .177.016.261.046.397.145.602.585.458.982-3.106 8.534-4.68 17.511-4.68 26.68 0 8.122 1.242 16.124 3.691 23.784 1.013 3.172 3.972 5.305 7.362 5.305 3.846 0 7.067-2.73 7.661-6.491.563-3.561.144-7.609-.34-12.298-.282-2.72-.57-5.524-.695-8.512-.012-.115-.31-3.212.282-7.357.732-5.155 2.915-12.209 9.158-16.546 4.673-3.249 8.304-6.22 10.787-8.83 1.854-1.947 3.288-3.934 4.264-5.908.424-.862.428-1.451.428-1.457-.007-.416.327-.766.746-.776h.001c.432 0 .766.321.784.733.005.157.002.99-.587 2.178-1.045 2.113-2.567 4.228-4.527 6.285-2.555 2.684-6.263 5.723-11.022 9.031-5.79 4.024-7.827 10.653-8.517 15.506-.559 3.927-.272 7.004-.269 7.035.124 2.966.411 5.742.688 8.427.478 4.625.926 8.967.333 12.729-.713 4.51-4.571 7.783-9.173 7.783" fill="#FEDE55"/><path d="M65.319 60.651h-.027l-.034.003c-.524.012-.97.479-.96 1.039 0 0-.009.541-.402 1.335-.964 1.951-2.384 3.917-4.219 5.844-2.472 2.598-6.088 5.558-10.748 8.797-6.317 4.389-8.525 11.515-9.265 16.72-.595 4.176-.294 7.302-.281 7.433.122 2.967.412 5.775.692 8.49.484 4.68.9 8.713.343 12.241-.574 3.636-3.691 6.276-7.409 6.276-3.278 0-6.14-2.06-7.119-5.127-2.441-7.635-3.678-15.611-3.678-23.706 0-9.14 1.569-18.087 4.664-26.594.193-.527-.081-1.114-.609-1.307-.113-.041-.231-.061-.349-.061-.429 0-.814.269-.959.672-3.176 8.73-4.788 17.911-4.788 27.29 0 8.306 1.27 16.491 3.774 24.327 1.252 3.916 4.895 6.546 9.064 6.546 4.728 0 8.692-3.363 9.425-7.998.599-3.795.149-8.153-.329-12.768-.279-2.708-.564-5.479-.688-8.425-.005-.057-.29-3.105.266-7.001.683-4.803 2.695-11.361 8.409-15.332 4.773-3.318 8.494-6.368 11.063-9.064 1.976-2.076 3.514-4.212 4.57-6.347.615-1.245.618-2.133.613-2.3-.022-.551-.47-.982-1.02-.982m0 .51c.274 0 .499.214.51.489.003.088.015.893-.56 2.056-1.033 2.088-2.54 4.181-4.482 6.222-2.546 2.673-6.242 5.7-10.984 8.997-5.865 4.076-7.927 10.777-8.623 15.679-.569 3.992-.274 7.065-.271 7.095.124 2.971.412 5.759.691 8.456.473 4.581.919 8.909.332 12.635-.694 4.385-4.445 7.568-8.921 7.568-3.947 0-7.394-2.488-8.577-6.191-2.49-7.787-3.751-15.921-3.751-24.172 0-9.317 1.6-18.442 4.757-27.118.074-.207.27-.335.48-.335l.174.031c.264.096.401.388.304.653-3.115 8.564-4.695 17.57-4.695 26.769 0 8.146 1.246 16.175 3.703 23.861 1.047 3.279 4.104 5.482 7.605 5.482 3.971 0 7.299-2.82 7.913-6.706.567-3.595.147-7.662-.339-12.372-.281-2.712-.569-5.516-.693-8.488-.01-.1-.309-3.188.279-7.31.725-5.104 2.884-12.088 9.052-16.373 4.685-3.259 8.329-6.24 10.826-8.864 1.872-1.965 3.321-3.974 4.308-5.97.46-.932.454-1.564.454-1.57-.005-.281.216-.514.496-.521l.014-.001" fill="#72778A"/></g></svg>