<?xml version="1.0" encoding="UTF-8"?>
<svg width="170px" height="170px" viewBox="0 0 170 170" version="1.1" xmlns="http://www.w3.org/2000/svg" xmlns:xlink="http://www.w3.org/1999/xlink">
    <!-- Generator: sketchtool 41.2 (35397) - http://www.bohemiancoding.com/sketch -->
    <title>9D29FB78-A63D-4DB6-93C1-90D4C4774469</title>
    <desc>Created with sketchtool.</desc>
    <defs></defs>
    <g id="about" stroke="none" stroke-width="1" fill="none" fill-rule="evenodd">
        <g id="uplata_about" transform="translate(-335.000000, -2900.000000)">
            <g id="Group-2-Copy-11" transform="translate(235.000000, 2860.000000)">
                <g id="ic_about_5" transform="translate(100.000000, 40.000000)">
                    <path d="M132.285889,84.5699594 C132.285889,58.6546156 111.210935,37.6467406 85.2128431,37.6467406 C59.2164123,37.6467406 38.1414585,58.6546156 38.1414585,84.5699594 C38.1414585,110.485303 59.2164123,131.493178 85.2128431,131.493178 C111.210935,131.493178 132.285889,110.485303 132.285889,84.5699594" id="Fill-1" fill="#F1D8BE"></path>
                    <path d="M118.362529,51.2617781 C109.024683,42.0265281 95.8270831,36.6635906 81.3932985,37.7981219 C58.5770523,39.5901844 40.0907754,58.0176219 38.2913292,80.7629031 C37.1531754,95.1507469 42.5348985,108.304684 51.7996369,117.612809 L118.362529,51.2617781 Z" id="Fill-3" fill="#FAEEDE"></path>
                    <path d="M132.285889,84.5699594 C132.285889,58.6546156 111.210935,37.6467406 85.2128431,37.6467406 C59.2164123,37.6467406 38.1414585,58.6546156 38.1414585,84.5699594 C38.1414585,110.485303 59.2164123,131.493178 85.2128431,131.493178 C111.210935,131.493178 132.285889,110.485303 132.285889,84.5699594 Z" id="Stroke-5" stroke="#727789" stroke-linecap="round" stroke-linejoin="round"></path>
                    <path d="M134.071877,42.59545 L126.791015,35.3377625 C120.759631,29.325575 110.979815,29.325575 104.946769,35.3377625 L100.359262,39.9106687 C114.027077,44.5448562 124.842031,55.2508562 129.607323,68.8205125 L134.071877,64.3701687 C140.103262,58.356325 140.103262,48.6076375 134.071877,42.59545" id="Fill-7" fill="#96CFBB"></path>
                    <path d="M134.071877,42.59545 L126.791015,35.3377625 C120.759631,29.325575 110.979815,29.325575 104.946769,35.3377625 L100.359262,39.9106687 C114.027077,44.5448562 124.842031,55.2508562 129.607323,68.8205125 L134.071877,64.3701687 C140.103262,58.356325 140.103262,48.6076375 134.071877,42.59545 Z" id="Stroke-9" stroke="#727789" stroke-linecap="round" stroke-linejoin="round"></path>
                    <path d="M69.8730215,39.9817219 L65.4799138,35.6025969 C59.4468677,29.5887531 49.6687138,29.5887531 43.6356677,35.6025969 L36.3548062,42.8602844 C30.3234215,48.8724719 30.3234215,58.6211594 36.3548062,64.6333469 L40.7479138,69.0141281 C45.4550523,55.4163156 56.2334523,44.6738781 69.8730215,39.9817219" id="Fill-11" fill="#B7DCCB"></path>
                    <path d="M69.8730215,39.9817219 L65.4799138,35.6025969 C59.4468677,29.5887531 49.6687138,29.5887531 43.6356677,35.6025969 L36.3548062,42.8602844 C30.3234215,48.8724719 30.3234215,58.6211594 36.3548062,64.6333469 L40.7479138,69.0141281 C45.4550523,55.4163156 56.2334523,44.6738781 69.8730215,39.9817219 Z" id="Stroke-13" stroke="#727789" stroke-linecap="round" stroke-linejoin="round"></path>
                    <path d="M85.2133415,47.6468469 L85.2133415,53.2863781" id="Stroke-15" stroke="#727789" stroke-linecap="round" stroke-linejoin="round"></path>
                    <path d="M121.988671,84.305125 L116.331132,84.305125" id="Stroke-17" stroke="#727789" stroke-linecap="round" stroke-linejoin="round"></path>
                    <path d="M111.217415,110.226597 L107.216431,106.238347" id="Stroke-19" stroke="#727789" stroke-linecap="round" stroke-linejoin="round"></path>
                    <path d="M85.2133415,120.963569 L85.2133415,115.324038" id="Stroke-21" stroke="#727789" stroke-linecap="round" stroke-linejoin="round"></path>
                    <path d="M59.2092677,110.226597 L63.2102523,106.238347" id="Stroke-23" stroke="#727789" stroke-linecap="round" stroke-linejoin="round"></path>
                    <path d="M130.564203,37.0493312 L132.619526,39.0981125" id="Stroke-25" stroke="#727789" stroke-width="2" stroke-linecap="round" stroke-linejoin="round"></path>
                    <path d="M48.4378462,84.305125 L54.0953846,84.305125" id="Stroke-27" stroke="#727789" stroke-linecap="round" stroke-linejoin="round"></path>
                    <path d="M59.2092677,58.3838188 L63.2102523,62.3720688" id="Stroke-29" stroke="#727789" stroke-linecap="round" stroke-linejoin="round"></path>
                    <path d="M39.9954031,37.1816656 L37.94008,39.2304469" id="Stroke-31" stroke="#727789" stroke-width="2" stroke-linecap="round" stroke-linejoin="round"></path>
                    <path d="M85.2135077,84.3127437 L111.2116,58.3858062" id="Stroke-33" stroke="#727789" stroke-width="1.5" stroke-linecap="round" stroke-linejoin="round"></path>
                    <path d="M67.7120246,82.0027719 L85.2130092,84.3049594" id="Stroke-35" stroke="#727789" stroke-width="2" stroke-linecap="round" stroke-linejoin="round"></path>
                    <path d="M85.2133415,131.492681 C75.4102646,131.492681 66.3100185,128.499837 58.7716185,123.38865 L52.6239262,129.516775 C50.5303877,131.60365 52.01248,135.171212 54.9733415,135.171212 L85.2133415,135.171212 L115.453342,135.171212 C118.414203,135.171212 119.896295,131.60365 117.802757,129.516775 L111.653403,123.38865 C104.116665,128.499837 95.0164185,131.492681 85.2133415,131.492681" id="Fill-37" fill="#76C2A6"></path>
                    <path d="M85.2133415,131.492681 C75.4102646,131.492681 66.3100185,128.499837 58.7716185,123.38865 L52.6239262,129.516775 C50.5303877,131.60365 52.01248,135.171212 54.9733415,135.171212 L85.2133415,135.171212 L115.453342,135.171212 C118.414203,135.171212 119.896295,131.60365 117.802757,129.516775 L111.653403,123.38865 C104.116665,128.499837 95.0164185,131.492681 85.2133415,131.492681 Z" id="Stroke-39" stroke="#727789" stroke-linecap="round" stroke-linejoin="round"></path>
                    <path d="M87.6474954,84.3127438 C87.6474954,82.9728375 86.5575262,81.8863375 85.2133415,81.8863375 C83.8674954,81.8863375 82.7775262,82.9728375 82.7775262,84.3127438 C82.7775262,85.65265 83.8674954,86.73915 85.2133415,86.73915 C86.5575262,86.73915 87.6474954,85.65265 87.6474954,84.3127438" id="Fill-41" fill="#727789"></path>
                </g>
            </g>
        </g>
    </g>
</svg>