<?xml version="1.0" encoding="UTF-8"?>
<svg width="170px" height="170px" viewBox="0 0 170 170" version="1.1" xmlns="http://www.w3.org/2000/svg" xmlns:xlink="http://www.w3.org/1999/xlink">
    <!-- Generator: sketchtool 41.2 (35397) - http://www.bohemiancoding.com/sketch -->
    <title>1649EF34-D123-4578-842F-1BF6A51486D1</title>
    <desc>Created with sketchtool.</desc>
    <defs></defs>
    <g id="about" stroke="none" stroke-width="1" fill="none" fill-rule="evenodd">
        <g id="uplata_about" transform="translate(-935.000000, -2360.000000)">
            <g id="Group-2-Copy-10" transform="translate(835.000000, 2320.000000)">
                <g id="ic_about_4" transform="translate(100.000000, 40.000000)">
                    <polygon id="Fill-1" fill="#8891BF" points="111.387787 70.5718832 123.720528 70.5718832 123.720528 52.9644766 111.387787 52.9644766"></polygon>
                    <polygon id="Stroke-2" stroke="#727789" points="111.387787 70.5718832 123.720528 70.5718832 123.720528 52.9644766 111.387787 52.9644766"></polygon>
                    <path d="M138.022396,140.279827 L31.138642,140.279827 C28.8673622,140.279827 27.0277284,138.444868 27.0277284,136.17936 L27.0277284,78.7728178 C27.0277284,74.2438516 30.7090515,70.5718832 35.2495556,70.5718832 L133.911482,70.5718832 C138.451986,70.5718832 142.13331,74.2438516 142.13331,78.7728178 L142.13331,136.17936 C142.13331,138.444868 140.293676,140.279827 138.022396,140.279827" id="Fill-3" fill="#ACB8CF"></path>
                    <path d="M27.0277284,113.62679 L27.0277284,136.17936 C27.0277284,138.444868 28.8673622,140.279827 31.138642,140.279827 L138.022396,140.279827 C140.293676,140.279827 142.13331,138.444868 142.13331,136.17936 L142.13331,113.62679 L27.0277284,113.62679 Z" id="Fill-5" fill="#8891BF"></path>
                    <path d="M129.800569,148.480762 L117.467828,148.480762 C116.333216,148.480762 115.412371,147.562257 115.412371,146.430528 L115.412371,140.279827 L131.856026,140.279827 L131.856026,146.430528 C131.856026,147.562257 130.935181,148.480762 129.800569,148.480762" id="Fill-7" fill="#ACB8CF"></path>
                    <path d="M129.800569,148.480762 L117.467828,148.480762 C116.333216,148.480762 115.412371,147.562257 115.412371,146.430528 L115.412371,140.279827 L131.856026,140.279827 L131.856026,146.430528 C131.856026,147.562257 130.935181,148.480762 129.800569,148.480762 Z" id="Stroke-9" stroke="#727789" stroke-linecap="round" stroke-linejoin="round"></path>
                    <path d="M51.6932101,148.480762 L39.3604692,148.480762 C38.2258571,148.480762 37.3050124,147.562257 37.3050124,146.430528 L37.3050124,140.279827 L53.7486669,140.279827 L53.7486669,146.430528 C53.7486669,147.562257 52.8278223,148.480762 51.6932101,148.480762" id="Fill-11" fill="#ACB8CF"></path>
                    <path d="M51.6932101,148.480762 L39.3604692,148.480762 C38.2258571,148.480762 37.3050124,147.562257 37.3050124,146.430528 L37.3050124,140.279827 L53.7486669,140.279827 L53.7486669,146.430528 C53.7486669,147.562257 52.8278223,148.480762 51.6932101,148.480762 Z" id="Stroke-13" stroke="#727789" stroke-linecap="round" stroke-linejoin="round"></path>
                    <path d="M47.7993527,91.367198 L41.1992809,91.367198 C40.1838852,91.367198 39.3596471,90.5471046 39.3596471,89.5342891 L39.3596471,84.9991723 C39.3596471,83.9863569 40.1838852,83.1662634 41.1992809,83.1662634 L47.7993527,83.1662634 C48.8147484,83.1662634 49.6369311,83.9863569 49.6369311,84.9991723 L49.6369311,89.5342891 C49.6369311,90.5471046 48.8147484,91.367198 47.7993527,91.367198" id="Fill-15" fill="#FFFFFF"></path>
                    <path d="M47.7993527,91.367198 L41.1992809,91.367198 C40.1838852,91.367198 39.3596471,90.5471046 39.3596471,89.5342891 L39.3596471,84.9991723 C39.3596471,83.9863569 40.1838852,83.1662634 41.1992809,83.1662634 L47.7993527,83.1662634 C48.8147484,83.1662634 49.6369311,83.9863569 49.6369311,84.9991723 L49.6369311,89.5342891 C49.6369311,90.5471046 48.8147484,91.367198 47.7993527,91.367198 Z" id="Stroke-17" stroke="#727789" stroke-linecap="round" stroke-linejoin="round"></path>
                    <path d="M47.7993527,107.769067 L41.1992809,107.769067 C40.1838852,107.769067 39.3596471,106.948974 39.3596471,105.936158 L39.3596471,101.401041 C39.3596471,100.388226 40.1838852,99.5681326 41.1992809,99.5681326 L47.7993527,99.5681326 C48.8147484,99.5681326 49.6369311,100.388226 49.6369311,101.401041 L49.6369311,105.936158 C49.6369311,106.948974 48.8147484,107.769067 47.7993527,107.769067" id="Fill-19" fill="#FFFFFF"></path>
                    <path d="M47.7993527,107.769067 L41.1992809,107.769067 C40.1838852,107.769067 39.3596471,106.948974 39.3596471,105.936158 L39.3596471,101.401041 C39.3596471,100.388226 40.1838852,99.5681326 41.1992809,99.5681326 L47.7993527,99.5681326 C48.8147484,99.5681326 49.6369311,100.388226 49.6369311,101.401041 L49.6369311,105.936158 C49.6369311,106.948974 48.8147484,107.769067 47.7993527,107.769067 Z" id="Stroke-21" stroke="#727789" stroke-linecap="round" stroke-linejoin="round"></path>
                    <path d="M66.298464,107.769067 L59.6983922,107.769067 C58.6829965,107.769067 57.8587583,106.948974 57.8587583,105.936158 L57.8587583,101.401041 C57.8587583,100.388226 58.6829965,99.5681326 59.6983922,99.5681326 L66.298464,99.5681326 C67.3138597,99.5681326 68.1360424,100.388226 68.1360424,101.401041 L68.1360424,105.936158 C68.1360424,106.948974 67.3138597,107.769067 66.298464,107.769067" id="Fill-23" fill="#FFFFFF"></path>
                    <path d="M66.298464,107.769067 L59.6983922,107.769067 C58.6829965,107.769067 57.8587583,106.948974 57.8587583,105.936158 L57.8587583,101.401041 C57.8587583,100.388226 58.6829965,99.5681326 59.6983922,99.5681326 L66.298464,99.5681326 C67.3138597,99.5681326 68.1360424,100.388226 68.1360424,101.401041 L68.1360424,105.936158 C68.1360424,106.948974 67.3138597,107.769067 66.298464,107.769067 Z" id="Stroke-25" stroke="#727789" stroke-linecap="round" stroke-linejoin="round"></path>
                    <path d="M84.7975753,107.769067 L78.1975034,107.769067 C77.1821078,107.769067 76.3578696,106.948974 76.3578696,105.936158 L76.3578696,101.401041 C76.3578696,100.388226 77.1821078,99.5681326 78.1975034,99.5681326 L84.7975753,99.5681326 C85.8129709,99.5681326 86.6351536,100.388226 86.6351536,101.401041 L86.6351536,105.936158 C86.6351536,106.948974 85.8129709,107.769067 84.7975753,107.769067" id="Fill-27" fill="#FFFFFF"></path>
                    <path d="M84.7975753,107.769067 L78.1975034,107.769067 C77.1821078,107.769067 76.3578696,106.948974 76.3578696,105.936158 L76.3578696,101.401041 C76.3578696,100.388226 77.1821078,99.5681326 78.1975034,99.5681326 L84.7975753,99.5681326 C85.8129709,99.5681326 86.6351536,100.388226 86.6351536,101.401041 L86.6351536,105.936158 C86.6351536,106.948974 85.8129709,107.769067 84.7975753,107.769067 Z" id="Stroke-29" stroke="#727789" stroke-linecap="round" stroke-linejoin="round"></path>
                    <path d="M66.298464,91.367198 L59.6983922,91.367198 C58.6829965,91.367198 57.8587583,90.5471046 57.8587583,89.5342891 L57.8587583,84.9991723 C57.8587583,83.9863569 58.6829965,83.1662634 59.6983922,83.1662634 L66.298464,83.1662634 C67.3138597,83.1662634 68.1360424,83.9863569 68.1360424,84.9991723 L68.1360424,89.5342891 C68.1360424,90.5471046 67.3138597,91.367198 66.298464,91.367198" id="Fill-31" fill="#FFFFFF"></path>
                    <path d="M66.298464,91.367198 L59.6983922,91.367198 C58.6829965,91.367198 57.8587583,90.5471046 57.8587583,89.5342891 L57.8587583,84.9991723 C57.8587583,83.9863569 58.6829965,83.1662634 59.6983922,83.1662634 L66.298464,83.1662634 C67.3138597,83.1662634 68.1360424,83.9863569 68.1360424,84.9991723 L68.1360424,89.5342891 C68.1360424,90.5471046 67.3138597,91.367198 66.298464,91.367198 Z" id="Stroke-33" stroke="#727789" stroke-linecap="round" stroke-linejoin="round"></path>
                    <path d="M84.7975753,91.367198 L78.1975034,91.367198 C77.1821078,91.367198 76.3578696,90.5471046 76.3578696,89.5342891 L76.3578696,84.9991723 C76.3578696,83.9863569 77.1821078,83.1662634 78.1975034,83.1662634 L84.7975753,83.1662634 C85.8129709,83.1662634 86.6351536,83.9863569 86.6351536,84.9991723 L86.6351536,89.5342891 C86.6351536,90.5471046 85.8129709,91.367198 84.7975753,91.367198" id="Fill-35" fill="#FFFFFF"></path>
                    <path d="M84.7975753,91.367198 L78.1975034,91.367198 C77.1821078,91.367198 76.3578696,90.5471046 76.3578696,89.5342891 L76.3578696,84.9991723 C76.3578696,83.9863569 77.1821078,83.1662634 78.1975034,83.1662634 L84.7975753,83.1662634 C85.8129709,83.1662634 86.6351536,83.9863569 86.6351536,84.9991723 L86.6351536,89.5342891 C86.6351536,90.5471046 85.8129709,91.367198 84.7975753,91.367198 Z" id="Stroke-37" stroke="#727789" stroke-linecap="round" stroke-linejoin="round"></path>
                    <path d="M125.68945,107.769067 L103.079425,107.769067 C100.8102,107.769067 98.9685111,105.934108 98.9685111,103.6686 L98.9685111,87.2667307 C98.9685111,85.0012225 100.8102,83.1662634 103.079425,83.1662634 L125.68945,83.1662634 C127.960729,83.1662634 129.800363,85.0012225 129.800363,87.2667307 L129.800363,103.6686 C129.800363,105.934108 127.960729,107.769067 125.68945,107.769067" id="Fill-39" fill="#FFFFFF"></path>
                    <path d="M125.68945,107.769067 L103.079425,107.769067 C100.8102,107.769067 98.9685111,105.934108 98.9685111,103.6686 L98.9685111,87.2667307 C98.9685111,85.0012225 100.8102,83.1662634 103.079425,83.1662634 L125.68945,83.1662634 C127.960729,83.1662634 129.800363,85.0012225 129.800363,87.2667307 L129.800363,103.6686 C129.800363,105.934108 127.960729,107.769067 125.68945,107.769067 Z" id="Stroke-41" stroke="#727789" stroke-linecap="round" stroke-linejoin="round"></path>
                    <path d="M127.744906,127.978425 L41.4157205,127.978425 C40.2811084,127.978425 39.3602637,127.059921 39.3602637,125.928192 L39.3602637,121.827724 C39.3602637,120.695995 40.2811084,119.777491 41.4157205,119.777491 L127.744906,119.777491 C128.879519,119.777491 129.800363,120.695995 129.800363,121.827724 L129.800363,125.928192 C129.800363,127.059921 128.879519,127.978425 127.744906,127.978425" id="Fill-43" fill="#ACB8CF"></path>
                    <path d="M127.744906,127.978425 L41.4157205,127.978425 C40.2811084,127.978425 39.3602637,127.059921 39.3602637,125.928192 L39.3602637,121.827724 C39.3602637,120.695995 40.2811084,119.777491 41.4157205,119.777491 L127.744906,119.777491 C128.879519,119.777491 129.800363,120.695995 129.800363,121.827724 L129.800363,125.928192 C129.800363,127.059921 128.879519,127.978425 127.744906,127.978425 Z" id="Stroke-45" stroke="#727789" stroke-linecap="round" stroke-linejoin="round"></path>
                    <path d="M139.97508,52.9638616 L94.6173146,52.9638616 C92.4056431,52.9638616 90.6132847,51.1760578 90.6132847,48.9700064 L90.6132847,25.019177 C90.6132847,22.8131256 92.4056431,21.0253218 94.6173146,21.0253218 L139.97508,21.0253218 C142.186752,21.0253218 143.97911,22.8131256 143.97911,25.019177 L143.97911,48.9700064 C143.97911,51.1760578 142.186752,52.9638616 139.97508,52.9638616" id="Fill-47" fill="#76C2A6"></path>
                    <path d="M138.643144,43.6240222 C138.643144,45.842375 136.840508,47.6404299 134.616504,47.6404299 L99.9758905,47.6404299 C97.7518862,47.6404299 95.9492506,45.842375 95.9492506,43.6240222 L95.9492506,30.3651612 C95.9492506,28.1468084 97.7518862,26.3487535 99.9758905,26.3487535 L134.616504,26.3487535 C136.840508,26.3487535 138.643144,28.1468084 138.643144,30.3651612 L138.643144,43.6240222 Z M139.95247,21.0242967 L94.6399246,21.0242967 C92.4159204,21.0242967 90.6132847,22.8223516 90.6132847,25.0407044 L90.6132847,48.9464287 C90.6132847,51.1647815 92.4159204,52.9628364 94.6399246,52.9628364 L139.95247,52.9628364 C142.176474,52.9628364 143.97911,51.1647815 143.97911,48.9464287 L143.97911,25.0407044 C143.97911,22.8223516 142.176474,21.0242967 139.95247,21.0242967 L139.95247,21.0242967 Z" id="Fill-49" fill="#8891BF"></path>
                    <path d="M138.643144,43.6240222 C138.643144,45.842375 136.840508,47.6404299 134.616504,47.6404299 L99.9758905,47.6404299 C97.7518862,47.6404299 95.9492506,45.842375 95.9492506,43.6240222 L95.9492506,30.3651612 C95.9492506,28.1468084 97.7518862,26.3487535 99.9758905,26.3487535 L134.616504,26.3487535 C136.840508,26.3487535 138.643144,28.1468084 138.643144,30.3651612 L138.643144,43.6240222 Z M139.95247,21.0242967 L94.6399246,21.0242967 C92.4159204,21.0242967 90.6132847,22.8223516 90.6132847,25.0407044 L90.6132847,48.9464287 C90.6132847,51.1647815 92.4159204,52.9628364 94.6399246,52.9628364 L139.95247,52.9628364 C142.176474,52.9628364 143.97911,51.1647815 143.97911,48.9464287 L143.97911,25.0407044 C143.97911,22.8223516 142.176474,21.0242967 139.95247,21.0242967 Z" id="Stroke-51" stroke="#727789"></path>
                    <path d="M138.022396,140.279827 L31.138642,140.279827 C28.8673622,140.279827 27.0277284,138.444868 27.0277284,136.17936 L27.0277284,78.7728178 C27.0277284,74.2438516 30.7090515,70.5718832 35.2495556,70.5718832 L133.911482,70.5718832 C138.451986,70.5718832 142.13331,74.2438516 142.13331,78.7728178 L142.13331,136.17936 C142.13331,138.444868 140.293676,140.279827 138.022396,140.279827 Z" id="Stroke-53" stroke="#727789" stroke-linecap="round" stroke-linejoin="round"></path>
                </g>
            </g>
        </g>
    </g>
</svg>