<?xml version="1.0" encoding="UTF-8"?>
<svg width="170px" height="170px" viewBox="0 0 170 170" version="1.1" xmlns="http://www.w3.org/2000/svg" xmlns:xlink="http://www.w3.org/1999/xlink">
    <!-- Generator: sketchtool 41.2 (35397) - http://www.bohemiancoding.com/sketch -->
    <title>C4B52B5A-F3B3-4CE1-B18F-5BD1A3B4F76B</title>
    <desc>Created with sketchtool.</desc>
    <defs></defs>
    <g id="about" stroke="none" stroke-width="1" fill="none" fill-rule="evenodd">
        <g id="uplata_about" transform="translate(-935.000000, -3060.000000)">
            <g id="Group-2-Copy-12" transform="translate(835.000000, 3020.000000)">
                <g id="ic_about_6" transform="translate(100.000000, 40.000000)">
                    <path d="M152.428321,113.916667 L34.8577037,113.916667 C33.914,113.916667 33.1500494,113.153722 33.1500494,112.213389 L33.1500494,41.5643889 C33.1500494,40.6240556 33.914,39.8611111 34.8577037,39.8611111 L152.428321,39.8611111 C153.372025,39.8611111 154.137704,40.6240556 154.137704,41.5643889 L154.137704,112.213389 C154.137704,113.153722 153.372025,113.916667 152.428321,113.916667" id="Fill-1" fill="#F1D8BE"></path>
                    <path d="M152.428321,113.916667 L34.8577037,113.916667 C33.914,113.916667 33.1500494,113.153722 33.1500494,112.213389 L33.1500494,41.5643889 C33.1500494,40.6240556 33.914,39.8611111 34.8577037,39.8611111 L152.428321,39.8611111 C153.372025,39.8611111 154.137704,40.6240556 154.137704,41.5643889 L154.137704,112.213389 C154.137704,113.153722 153.372025,113.916667 152.428321,113.916667 Z" id="Stroke-3" stroke="#727789" stroke-linecap="round" stroke-linejoin="round"></path>
                    <path d="M145.120667,69.1394056 L125.126593,69.1394056 C124.920914,69.1394056 124.753259,68.97235 124.753259,68.7674056 L124.753259,48.8447389 C124.753259,48.6397944 124.920914,48.4727389 125.126593,48.4727389 L145.120667,48.4727389 C145.326346,48.4727389 145.494,48.6397944 145.494,48.8447389 L145.494,68.7674056 C145.494,68.97235 145.326346,69.1394056 145.120667,69.1394056" id="Fill-5" fill="#FAEEDE"></path>
                    <path d="M145.120667,69.1394056 L125.126593,69.1394056 C124.920914,69.1394056 124.753259,68.97235 124.753259,68.7674056 L124.753259,48.8447389 C124.753259,48.6397944 124.920914,48.4727389 125.126593,48.4727389 L145.120667,48.4727389 C145.326346,48.4727389 145.494,48.6397944 145.494,48.8447389 L145.494,68.7674056 C145.494,68.97235 145.326346,69.1394056 145.120667,69.1394056 Z" id="Stroke-7" stroke="#727789" stroke-linecap="round" stroke-linejoin="round"></path>
                    <path d="M135.14316,131.139922 L17.5725432,131.139922 C16.6288395,131.139922 15.8648889,130.376978 15.8648889,129.436644 L15.8648889,58.7876444 C15.8648889,57.8473111 16.6288395,57.0843667 17.5725432,57.0843667 L135.14316,57.0843667 C136.086864,57.0843667 136.852543,57.8473111 136.852543,58.7876444 L136.852543,129.436644 C136.852543,130.376978 136.086864,131.139922 135.14316,131.139922" id="Fill-9" fill="#FAEEDE"></path>
                    <path d="M135.14316,131.139922 L17.5725432,131.139922 C16.6288395,131.139922 15.8648889,130.376978 15.8648889,129.436644 L15.8648889,58.7876444 C15.8648889,57.8473111 16.6288395,57.0843667 17.5725432,57.0843667 L135.14316,57.0843667 C136.086864,57.0843667 136.852543,57.8473111 136.852543,58.7876444 L136.852543,129.436644 C136.852543,130.376978 136.086864,131.139922 135.14316,131.139922 Z" id="Stroke-11" stroke="#727789" stroke-linecap="round" stroke-linejoin="round"></path>
                    <polyline id="Stroke-13" stroke="#727789" stroke-linecap="round" stroke-linejoin="round" points="15.8641975 70.8432 76.3580247 106.1677 136.851852 70.8432"></polyline>
                    <path d="M85.9518272,100.558078 L136.851333,130.280189" id="Stroke-15" stroke="#727789" stroke-linecap="round" stroke-linejoin="round"></path>
                    <path d="M15.8641975,130.28105 L66.7567901,100.562383" id="Stroke-17" stroke="#727789" stroke-linecap="round" stroke-linejoin="round"></path>
                </g>
            </g>
        </g>
    </g>
</svg>