<?xml version="1.0" encoding="UTF-8"?>
<svg width="170px" height="170px" viewBox="0 0 170 170" version="1.1" xmlns="http://www.w3.org/2000/svg" xmlns:xlink="http://www.w3.org/1999/xlink">
    <!-- Generator: sketchtool 41.2 (35397) - http://www.bohemiancoding.com/sketch -->
    <title>98A147DB-ACE2-4227-9F1E-78176691A73D</title>
    <desc>Created with sketchtool.</desc>
    <defs>
        <polygon id="path-1" points="0 132.66 133.952976 132.66 133.952976 0.41004 0 0.41004"></polygon>
    </defs>
    <g id="about" stroke="none" stroke-width="1" fill="none" fill-rule="evenodd">
        <g id="uplata_about" transform="translate(-935.000000, -1660.000000)">
            <g id="Group-2-Copy-4" transform="translate(835.000000, 1620.000000)">
                <g id="ic_about_2" transform="translate(100.000000, 40.000000)">
                    <polygon id="Fill-1" fill="#E4B673" points="84.9932531 37.1657281 37.9220262 106.230668 48.8124013 112.307568 84.9932531 58.3819481 121.174105 112.307568 132.06448 106.230668"></polygon>
                    <polygon id="Stroke-2" stroke="#727789" stroke-linecap="round" stroke-linejoin="round" points="84.9932531 37.1657281 37.9220262 106.230668 48.8124013 112.307568 84.9932531 58.3819481 121.174105 112.307568 132.06448 106.230668"></polygon>
                    <polygon id="Fill-3" fill="#E4B673" points="84.9932531 50.5249921 75.9047649 50.5249921 75.9047649 119.824432 94.0817414 119.631472 94.0817414 50.5249921"></polygon>
                    <polygon id="Stroke-4" stroke="#727789" stroke-linecap="round" stroke-linejoin="round" points="84.9932531 50.5249921 75.9047649 50.5249921 75.9047649 119.824432 94.0817414 119.631472 94.0817414 50.5249921"></polygon>
                    <g id="Group-42" transform="translate(18.000000, 20.005420)">
                        <path d="M121.343858,80.864176 C106.117777,93.419976 86.8667565,100.306236 66.9928442,100.306236 C47.108028,100.306236 27.84474,93.411936 12.6145709,80.841396 L0.681500318,94.816256 C19.253747,110.145856 42.7436999,118.554356 66.9928442,118.554356 C91.2283586,118.554356 114.703318,110.155236 133.271476,94.844396 L121.343858,80.864176 Z" id="Fill-5" fill="#FFDEAC"></path>
                        <path d="M121.343858,80.864176 C106.117777,93.419976 86.8667565,100.306236 66.9928442,100.306236 C47.108028,100.306236 27.84474,93.411936 12.6145709,80.841396 L0.681500318,94.816256 C19.253747,110.145856 42.7436999,118.554356 66.9928442,118.554356 C91.2283586,118.554356 114.703318,110.155236 133.271476,94.844396 L121.343858,80.864176 Z" id="Stroke-7" stroke="#727789" stroke-linecap="round" stroke-linejoin="round"></path>
                        <path d="M78.9822067,94.098686 L68.3398978,88.151766 C67.5043784,87.684106 66.4807649,87.684106 65.6466085,88.151766 L55.0042996,94.098686 L50.2787764,122.127466 L63.9714807,131.090726 C65.8019906,132.290026 68.1845157,132.290026 70.0150256,131.090726 L83.7077299,122.127466 L78.9822067,94.098686 Z" id="Fill-9" fill="#FFCF88"></path>
                        <path d="M78.9822067,94.098686 L68.3398978,88.151766 C67.5043784,87.684106 66.4807649,87.684106 65.6466085,88.151766 L55.0042996,94.098686 L50.2787764,122.127466 L63.9714807,131.090726 C65.8019906,132.290026 68.1845157,132.290026 70.0150256,131.090726 L83.7077299,122.127466 L78.9822067,94.098686 Z" id="Stroke-11" stroke="#727789" stroke-linecap="round" stroke-linejoin="round"></path>
                        <path d="M83.3492608,17.160308 C83.3492608,8.280128 76.0258584,1.080308 66.9932531,1.080308 C57.9606479,1.080308 50.6372455,8.280128 50.6372455,17.160308 C50.6372455,26.040488 57.9606479,33.240308 66.9932531,33.240308 C76.0258584,33.240308 83.3492608,26.040488 83.3492608,17.160308" id="Fill-13" fill="#FFCF88"></path>
                        <path d="M83.3492608,17.160308 C83.3492608,8.280128 76.0258584,1.080308 66.9932531,1.080308 C57.9606479,1.080308 50.6372455,8.280128 50.6372455,17.160308 C50.6372455,26.040488 57.9606479,33.240308 66.9932531,33.240308 C76.0258584,33.240308 83.3492608,26.040488 83.3492608,17.160308 Z" id="Stroke-15" stroke="#727789" stroke-linecap="round" stroke-linejoin="round"></path>
                        <path d="M75.1544921,107.666186 C75.1544921,103.225426 71.4934723,99.626186 66.9764882,99.626186 C62.4595041,99.626186 58.7984844,103.225426 58.7984844,107.666186 C58.7984844,112.106946 62.4595041,115.706186 66.9764882,115.706186 C71.4934723,115.706186 75.1544921,112.106946 75.1544921,107.666186" id="Fill-17" fill="#FFDEAC"></path>
                        <path d="M75.1544921,107.666186 C75.1544921,103.225426 71.4934723,99.626186 66.9764882,99.626186 C62.4595041,99.626186 58.7984844,103.225426 58.7984844,107.666186 C58.7984844,112.106946 62.4595041,115.706186 66.9764882,115.706186 C71.4934723,115.706186 75.1544921,112.106946 75.1544921,107.666186 Z" id="Stroke-19" stroke="#727789" stroke-linecap="round" stroke-linejoin="round"></path>
                        <path d="M66.9764882,115.706186 L66.9764882,107.666186" id="Stroke-21" stroke="#727789" stroke-linecap="round" stroke-linejoin="round"></path>
                        <mask id="mask-2" fill="white">
                            <use xlink:href="#path-1"></use>
                        </mask>
                        <g id="Clip-24"></g>
                        <polygon id="Fill-23" fill="#FFDEAC" mask="url(#mask-2)" points="68.652979 68.42576 80.9199847 68.42576 80.9199847 41.62576 68.652979 41.62576"></polygon>
                        <polygon id="Stroke-25" stroke="#727789" stroke-linecap="round" stroke-linejoin="round" mask="url(#mask-2)" points="68.652979 68.42576 80.9199847 68.42576 80.9199847 41.62576 68.652979 41.62576"></polygon>
                        <polygon id="Fill-26" fill="#FFDEAC" mask="url(#mask-2)" points="33.1863395 67.08576 41.3643433 67.08576 41.3643433 42.96576 33.1863395 42.96576"></polygon>
                        <polygon id="Stroke-27" stroke="#727789" stroke-linecap="round" stroke-linejoin="round" mask="url(#mask-2)" points="33.1863395 67.08576 41.3643433 67.08576 41.3643433 42.96576 33.1863395 42.96576"></polygon>
                        <polygon id="Fill-28" fill="#FFCF88" mask="url(#mask-2)" points="27.7343369 61.72576 33.1863395 61.72576 33.1863395 48.32576 27.7343369 48.32576"></polygon>
                        <polygon id="Stroke-29" stroke="#727789" stroke-linecap="round" stroke-linejoin="round" mask="url(#mask-2)" points="27.7343369 61.72576 33.1863395 61.72576 33.1863395 48.32576 27.7343369 48.32576"></polygon>
                        <polygon id="Fill-30" fill="#FFDEAC" mask="url(#mask-2)" points="22.2823344 63.06576 27.7343369 63.06576 27.7343369 46.98576 22.2823344 46.98576"></polygon>
                        <polygon id="Stroke-31" stroke="#727789" stroke-linecap="round" stroke-linejoin="round" mask="url(#mask-2)" points="22.2823344 63.06576 27.7343369 63.06576 27.7343369 46.98576 22.2823344 46.98576"></polygon>
                        <polygon id="Fill-32" fill="#FFCF88" mask="url(#mask-2)" points="16.8303318 60.38576 22.2823344 60.38576 22.2823344 49.66576 16.8303318 49.66576"></polygon>
                        <polygon id="Stroke-33" stroke="#727789" stroke-linecap="round" stroke-linejoin="round" mask="url(#mask-2)" points="16.8303318 60.38576 22.2823344 60.38576 22.2823344 49.66576 16.8303318 49.66576"></polygon>
                        <path d="M16.8296503,60.38576 L9.60847298,63.04834 C7.82703115,63.70494 5.92564526,62.4105 5.92564526,60.53852 L5.92564526,49.513 C5.92564526,47.64102 7.82703115,46.34658 9.60847298,47.00318 L16.8296503,49.66576 L16.8296503,60.38576 Z" id="Fill-34" fill="#FFDEAC" mask="url(#mask-2)"></path>
                        <path d="M16.8296503,60.38576 L9.60847298,63.04834 C7.82703115,63.70494 5.92564526,62.4105 5.92564526,60.53852 L5.92564526,49.513 C5.92564526,47.64102 7.82703115,46.34658 9.60847298,47.00318 L16.8296503,49.66576 L16.8296503,60.38576 Z" id="Stroke-35" stroke="#727789" stroke-linecap="round" stroke-linejoin="round" mask="url(#mask-2)"></path>
                        <polygon id="Fill-36" fill="#FFCF88" mask="url(#mask-2)" points="96.4313409 84.541002 84.6277554 77.841002 99.6207624 52.309982 111.424348 59.009982"></polygon>
                        <polygon id="Stroke-37" stroke="#727789" stroke-linecap="round" stroke-linejoin="round" mask="url(#mask-2)" points="96.4313409 84.541002 84.6277554 77.841002 99.6207624 52.309982 111.424348 59.009982"></polygon>
                        <polygon id="Fill-38" fill="#FFDEAC" mask="url(#mask-2)" points="62.3564613 33.096124 55.27431 29.076124 71.6303176 1.224224 78.7124689 5.244224"></polygon>
                        <polygon id="Stroke-39" stroke="#727789" stroke-linecap="round" stroke-linejoin="round" mask="url(#mask-2)" points="62.3564613 33.096124 55.27431 29.076124 71.6303176 1.224224 78.7124689 5.244224"></polygon>
                        <polygon id="Fill-40" fill="#FFCF88" mask="url(#mask-2)" points="41.3643433 64.53708 68.624356 64.53708 68.624356 45.77708 41.3643433 45.77708"></polygon>
                        <polygon id="Stroke-41" stroke="#727789" stroke-linecap="round" stroke-linejoin="round" mask="url(#mask-2)" points="41.3643433 64.53708 68.624356 64.53708 68.624356 45.77708 41.3643433 45.77708"></polygon>
                    </g>
                </g>
            </g>
        </g>
    </g>
</svg>