<?xml version="1.0" encoding="UTF-8"?>
<svg width="370px" height="370px" viewBox="0 0 370 370" version="1.1" xmlns="http://www.w3.org/2000/svg" xmlns:xlink="http://www.w3.org/1999/xlink">
    <!-- Generator: sketchtool 41.2 (35397) - http://www.bohemiancoding.com/sketch -->
    <title>19B35714-1988-4F6D-B928-D17DFB218E05</title>
    <desc>Created with sketchtool.</desc>
    <defs></defs>
    <g id="about" stroke="none" stroke-width="1" fill="none" fill-rule="evenodd">
        <g id="uplata_about" transform="translate(-835.000000, -1030.000000)">
            <g id="uplata_character" transform="translate(835.000000, 1030.000000)">
                <path d="M75.2944803,156.811985 L75.2964148,156.815857 L50.5434967,167.890043 C62.5388738,196.14761 93.487759,211.594357 123.48007,202.382648 L114.967628,174.619741 C99.197218,179.463729 81.6809885,171.674046 75.2944803,156.811985 Z" id="Fill-1" fill="#4F5467"></path>
                <path d="M50.5383705,167.892173 L50.5432066,167.890237 C50.5335344,167.867004 50.5228951,167.845708 50.513223,167.822475 L50.5383705,167.892173 Z" id="Fill-3" fill="#FFFFFF"></path>
                <polygon id="Fill-5" fill="#FFFFFF" points="72.8690967 154.163667 49.601818 161.252501 51.8699328 167.455594 73.9988016 157.243917"></polygon>
                <polygon id="Stroke-7" stroke="#4F5467" points="72.8690967 154.163667 49.601818 161.252501 51.8699328 167.455594 73.9988016 157.243917"></polygon>
                <path d="M71.0337131,131.189571 C68.9213197,130.885612 66.9569098,132.352167 66.6512705,134.468266 L66.1957131,137.624022 L60.7889918,119.987606 C60.1622377,117.943141 57.9976148,116.795065 55.9548607,117.422344 C54.0107623,118.019615 52.8965328,120.010839 53.3327459,121.96431 L52.2852541,118.549124 C51.6585,116.504658 49.4948443,115.355615 47.4520902,115.982894 C45.4093361,116.610173 44.2612541,118.776609 44.8880082,120.821074 L45.9355,124.23626 C45.2013852,122.373783 43.1625,121.350583 41.2184016,121.947853 C39.1756475,122.575132 38.0285328,124.741568 38.6552869,126.785065 L47.2673525,154.876132 C47.8041557,156.626318 49.4667951,157.709536 51.2155164,157.59531 L52.1014836,160.484859 L70.5945984,154.805467 L69.7415164,152.0224 C71.1033525,151.582917 72.1692213,150.403865 72.3887787,148.890844 L74.3096639,135.575685 C74.6153033,133.458618 73.148041,131.495467 71.0337131,131.189571" id="Fill-9" fill="#E57437"></path>
                <path d="M71.0337131,131.189571 C68.9213197,130.885612 66.9569098,132.352167 66.6512705,134.468266 L66.1957131,137.624022 L60.7889918,119.987606 C60.1622377,117.943141 57.9976148,116.795065 55.9548607,117.422344 C54.0107623,118.019615 52.8965328,120.010839 53.3327459,121.96431 L52.2852541,118.549124 C51.6585,116.504658 49.4948443,115.355615 47.4520902,115.982894 C45.4093361,116.610173 44.2612541,118.776609 44.8880082,120.821074 L45.9355,124.23626 C45.2013852,122.373783 43.1625,121.350583 41.2184016,121.947853 C39.1756475,122.575132 38.0285328,124.741568 38.6552869,126.785065 L47.2673525,154.876132 C47.8041557,156.626318 49.4667951,157.709536 51.2155164,157.59531 L52.1014836,160.484859 L70.5945984,154.805467 L69.7415164,152.0224 C71.1033525,151.582917 72.1692213,150.403865 72.3887787,148.890844 L74.3096639,135.575685 C74.6153033,133.458618 73.148041,131.495467 71.0337131,131.189571 Z" id="Stroke-11" stroke="#4F5467" stroke-linecap="round" stroke-linejoin="round"></path>
                <path d="M53.3325525,121.963922 L57.4006508,135.231649" id="Stroke-13" stroke="#4F5467" stroke-linecap="round"></path>
                <path d="M45.9353066,124.235776 L50.0034049,137.503503" id="Stroke-15" stroke="#4F5467" stroke-linecap="round"></path>
                <path d="M252.109549,299.778662 C230.650959,299.778662 208.04332,285.321235 197.504566,279.180095 C190.405221,275.042764 187.999762,265.929793 192.133631,258.823534 C196.266533,251.719212 205.371877,249.311738 212.472189,253.448101 C222.538943,259.313354 251.400582,266.158247 272.539025,251.791813 C283.667779,244.22768 286.972746,236.456389 288.34909,223.16059 C289.398516,213.025386 278.719516,195.190526 268.093713,180.249087 C258.476713,166.727738 263.785746,147.772874 279.005811,141.18354 L279.005811,141.18354 C293.28091,135.00368 308.061861,143.242526 314.30232,157.501508 C325.103189,182.181261 333.808107,204.123444 331.220811,232.51847 C329.208041,254.598113 317.071451,274.395156 298.665385,286.906857 C284.782008,296.345084 268.096615,299.778662 252.109549,299.778662" id="Fill-17" fill="#E57437"></path>
                <path d="M219.674928,256.612182 C214.414256,255.229845 197.843961,252.159275 194.114387,256.168827 C195.488797,260.640127 196.901895,276.619287 196.758748,278.69376 C197.005387,278.857356 208.875993,286.035249 216.868075,289.956711 C221.069649,281.730449 222.714879,269.146147 219.674928,256.612182" id="Fill-19" fill="#FD8247"></path>
                <path d="M312.70932,154.327553 C295.255959,152.741931 279.659648,157.984745 267.785172,179.700411 C269.773762,182.49703 273.174484,187.082556 276.008418,191.706803 C288.741779,176.404292 304.65727,172.802277 320.897746,173.161414 C319.153861,168.872103 316.232877,161.912984 314.30232,157.501702 C313.821615,156.404931 313.285779,155.348818 312.70932,154.327553" id="Fill-21" fill="#FD8247"></path>
                <path d="M282.7202,203.11912 C285.3162,208.156713 286.925643,212.868082 287.845462,217.019934 C301.904872,208.039582 323.50661,211.279556 331.407774,217.019934 C330.834216,208.85369 329.344708,199.176361 327.222643,191.607388 C315.123774,188.837873 296.792184,190.889114 282.7202,203.11912" id="Fill-23" fill="#FD8247"></path>
                <path d="M287.942184,228.082117 C287.094905,233.450774 286.308561,236.293858 283.953397,240.439901 C296.104495,241.291762 314.646938,251.859672 321.126298,263.239753 C325.78343,255.775326 328.994577,246.795942 330.341905,238.922041 C321.007331,227.486782 299.003233,225.464582 287.942184,228.082117" id="Fill-25" fill="#FD8247"></path>
                <path d="M275.580039,249.583656 C275.401105,249.707563 267.932285,256.217519 259.273793,258.005458 C269.866711,265.153342 278.659646,281.81399 280.172367,295.74094 C286.430236,293.952033 296.948679,289.172903 303.416433,283.24376 C301.389154,270.065092 288.485564,253.295057 275.580039,249.583656" id="Fill-27" fill="#FD8247"></path>
                <path d="M246.397672,260.206162 C237.205279,260.218746 233.555984,259.86929 230.840049,259.37463 C235.650967,269.348174 236.924787,286.721287 233.881934,296.810025 C242.300557,299.778953 253.231033,300.173906 258.545869,299.586316 C259.670738,284.713607 254.028016,269.025822 246.397672,260.206162" id="Fill-29" fill="#FD8247"></path>
                <path d="M252.109549,299.778662 C230.650959,299.778662 208.04332,285.321235 197.504566,279.180095 C190.405221,275.042764 187.999762,265.929793 192.133631,258.823534 C196.266533,251.719212 205.371877,249.311738 212.472189,253.448101 C222.538943,259.313354 251.400582,266.158247 272.539025,251.791813 C283.667779,244.22768 287.78327,236.515438 288.34909,223.16059 C288.889762,210.388491 278.719516,195.190526 268.093713,180.249087 C258.476713,166.727738 263.785746,147.772874 279.005811,141.18354 L279.005811,141.18354 C293.28091,135.00368 308.061861,143.242526 314.30232,157.501508 C325.103189,182.181261 333.808107,204.123444 331.220811,232.51847 C329.208041,254.598113 317.071451,274.395156 298.665385,286.906857 C284.782008,296.345084 268.096615,299.778662 252.109549,299.778662 Z" id="Stroke-31" stroke="#4F5467"></path>
                <path d="M168.576769,284.71351 L170.785884,337.818298 C171.133113,346.169434 177.998392,352.760705 186.350277,352.760705 L201.381736,352.760705 C203.425457,352.760705 205.296048,352.014359 206.734293,350.779161 C209.263556,348.607885 209.794556,344.884867 208.235408,341.937237 L202.428261,330.957917 C201.716392,329.613333 201.438802,328.079984 201.634179,326.570835 L209.606916,264.874841 C209.606916,260.355141 204.450703,257.775359 200.83913,260.48776 L168.576769,284.71351 Z" id="Fill-33" fill="#242424"></path>
                <path d="M164.707723,284.71351 L162.498608,337.818298 C162.151379,346.169434 155.285133,352.760705 146.934215,352.760705 L131.902756,352.760705 C129.859034,352.760705 127.988444,352.014359 126.550198,350.779161 C124.020936,348.607885 123.489936,344.884867 125.049084,341.937237 L130.856231,330.957917 C131.5681,329.613333 131.84569,328.079984 131.650313,326.570835 L123.677575,264.874841 C123.677575,260.355141 128.833789,257.775359 132.445362,260.48776 L164.707723,284.71351 Z" id="Fill-35" fill="#242424"></path>
                <path d="M191.362956,235.239971 L191.365857,235.237067 L210.021464,254.929564 C232.670693,234.223547 236.95448,199.877113 218.316284,174.620419 L194.976464,191.873497 C204.776267,205.153808 203.250005,224.277108 191.362956,235.239971" id="Fill-37" fill="#54596B"></path>
                <path d="M210.024656,254.933146 L210.020787,254.929274 C210.00241,254.94573 209.985967,254.963154 209.96759,254.980579 L210.024656,254.933146 Z" id="Fill-39" fill="#FFFFFF"></path>
                <polygon id="Fill-41" fill="#FFFFFF" points="189.001215 237.499724 204.704887 258.870774 209.798231 254.670521 191.528543 235.41073"></polygon>
                <polygon id="Fill-43" fill="#FD8247" points="202.524692 255.91627 197.074446 259.945183 185.58202 244.371625 191.032266 240.342712"></polygon>
                <path d="M185.61181,244.411894 L172.423859,247.018781" id="Stroke-45" stroke="#FD8247" stroke-width="8" stroke-linecap="round" stroke-linejoin="round"></path>
                <path d="M187.386839,246.817239 L163.770397,264.273602" id="Stroke-47" stroke="#FD8247" stroke-width="8" stroke-linecap="round" stroke-linejoin="round"></path>
                <path d="M191.96582,253.022268 L165.236885,272.779622" id="Stroke-49" stroke="#FD8247" stroke-width="8" stroke-linecap="round" stroke-linejoin="round"></path>
                <path d="M196.5448,259.227297 L172.928357,276.68366" id="Stroke-51" stroke="#FD8247" stroke-width="8" stroke-linecap="round" stroke-linejoin="round"></path>
                <polygon id="Fill-53" fill="#BC633B" points="166.641956 156.124689 146.94853 151.715343 146.94853 166.255052 166.641956 171.977038 186.335382 166.255052 186.335382 154.5865"></polygon>
                <path d="M166.642149,167.539909 L166.642149,236.327642 L190.378526,158.534389 L186.287215,157.487956 C186.287215,157.487956 180.335952,167.539909 166.642149,167.539909" id="Fill-55" fill="#E8E9EB"></path>
                <path d="M166.642149,167.539909 L166.642149,236.327642 L142.905772,158.534389 L146.997084,157.487956 C146.997084,157.487956 152.948346,167.539909 166.642149,167.539909" id="Fill-57" fill="#F4F7F9"></path>
                <polygon id="Fill-59" fill="#3A3F52" points="191.232962 156.835121 186.334995 155.561202 186.287602 157.487569 190.377946 158.53497"></polygon>
                <polygon id="Fill-61" fill="#242424" points="140.600033 284.714672 192.683492 284.714672 192.683492 232.587587 140.600033 232.587587"></polygon>
                <path d="M169.301792,246.27834 C169.301792,244.807913 168.111152,243.616276 166.641956,243.616276 C165.172759,243.616276 163.98212,244.807913 163.98212,246.27834 C163.98212,247.748767 165.172759,248.940404 166.641956,248.940404 C168.111152,248.940404 169.301792,247.748767 169.301792,246.27834" id="Fill-63" fill="#3A3F52"></path>
                <path d="M169.301792,246.27834 C169.301792,244.807913 168.111152,243.616276 166.641956,243.616276 C165.172759,243.616276 163.98212,244.807913 163.98212,246.27834 C163.98212,247.748767 165.172759,248.940404 166.641956,248.940404 C168.111152,248.940404 169.301792,247.748767 169.301792,246.27834 Z" id="Stroke-64" stroke="#5D6477"></path>
                <path d="M186.33132,42.1402407 C159.665254,37.5034093 135.189926,46.6221884 118.406844,61.6875343 C106.48691,72.3870953 87.0149754,140.725665 166.808123,154.60131 L186.33132,42.1402407 Z" id="Fill-65" fill="#FD8247"></path>
                <path d="M175.445046,104.847819 C175.445046,104.847819 159.007259,109.552412 153.938095,114.105026 C148.867964,118.657639 141.44557,117.479555 137.801111,123.151203 C134.15762,128.823819 129.050734,134.591302 148.738357,151.714665 C148.738357,151.714665 127.027325,143.507764 122.341177,123.752345 C120.208472,114.761345 127.346505,96.7561128 138.090308,90.0002785 C143.588915,86.5434674 149.237439,83.9946622 154.067702,84.5909645 C163.677931,85.777761 171.147718,95.1637145 175.445046,104.847819" id="Fill-66" fill="#E57437"></path>
                <path d="M175.445046,104.847819 C167.106702,103.39772 161.425292,106.423761 156.553439,111.87954 C148.653243,120.727273 135.798013,114.901709 133.534734,127.936142 C132.023948,136.638671 139.313833,143.971447 144.772784,148.640223 C158.890226,160.716313 166.642439,155.554813 166.642439,155.554813 L175.445046,104.847819 Z" id="Fill-67" fill="#F4F7F9"></path>
                <path d="M159.243646,90.2602895 C162.642433,92.3734843 166.761793,89.0580047 165.059498,85.5421442 C163.599007,82.5267517 160.883072,79.8530715 156.024761,79.2393448 C147.401089,78.1512866 142.647236,82.955586 140.323023,87.4191413 C139.773646,88.4742866 140.902384,89.6281703 142.057236,89.2157924 C146.895236,87.4878709 153.503236,86.6911878 159.243646,90.2602895" id="Fill-68" fill="#F4F7F9"></path>
                <path d="M131.99909,108.139969 C134.288484,101.474161 127.340992,97.2826206 122.393697,100.822682 C119.494959,102.897156 116.414385,109.375167 116.926041,118.416504 C117.740434,132.807138 128.756992,143.439906 148.738648,151.715536 C128.635123,142.029496 126.136811,130.684263 127.776238,121.284757 C128.678648,116.113577 130.833598,111.531923 131.99909,108.139969" id="Fill-69" fill="#F4F7F9"></path>
                <path d="M103.772523,24.3788532 C104.463113,22.0643096 106.780556,20.6190509 109.156998,21.041109 C128.538982,24.4853358 142.876949,32.4657195 153.4689,43.2010974 C153.4689,43.2010974 153.500818,47.0305974 144.499933,53.5841148 C131.324556,32.7599985 109.477146,28.7756148 109.477146,28.7756148 C109.477146,28.7756148 98.2100803,65.871234 109.518736,84.8851468 L109.52067,84.8832108 C107.635572,90.7068387 107.303818,95.3068852 107.303818,95.3068852 C90.4394902,75.4837049 100.047785,36.8557049 103.772523,24.3788532" id="Fill-70" fill="#F4F7F9"></path>
                <path d="M109.477049,28.7756148 C109.477049,28.7756148 131.324459,32.7599985 144.499836,53.5841148 C140.50718,56.4901206 134.745492,59.9304753 126.405213,63.8132166 C116.703098,68.3300131 111.887344,77.5717311 109.520574,84.8832108 L109.518639,84.8851468 C98.2099836,65.871234 109.477049,28.7756148 109.477049,28.7756148" id="Fill-71" fill="#E2E7EC"></path>
                <path d="M146.214318,94.1185398 C147.576154,93.4312433 149.157548,93.1524526 150.775695,93.4331794 C152.393843,93.7148741 153.789531,94.5115573 154.838957,95.6180078 C156.384564,97.248159 157.17381,99.5578625 156.759843,101.942104 C156.065384,105.945848 152.2594,108.627272 148.259007,107.931264 C144.258613,107.235255 141.579433,103.426083 142.274859,99.4233073 C142.688826,97.039066 144.210252,95.1310922 146.214318,94.1185398" id="Fill-72" fill="#3A3F52"></path>
                <path d="M147.876184,99.5383084 C148.04738,98.5509247 148.985577,97.8897648 149.972134,98.0611049 C150.958692,98.2334131 151.619298,99.1723956 151.448102,100.159779 C151.276905,101.146195 150.337741,101.807355 149.352151,101.636015 C148.365593,101.464675 147.704987,100.525692 147.876184,99.5383084" id="Fill-73" fill="#F4F7F9"></path>
                <path d="M147.403893,96.5539895 C148.066434,95.5985506 149.236762,95.0554895 150.457385,95.2684547 C151.677041,95.4804517 152.596861,96.3865215 152.898631,97.5094285 C152.22932,96.8047076 151.340451,96.2964953 150.309402,96.117411 C149.27932,95.9383267 148.271484,96.116443 147.403893,96.5539895" id="Fill-74" fill="#E2E7EC"></path>
                <path d="M186.33132,42.1402407 C212.997385,46.7770721 232.9655,63.6255169 243.68609,83.4728977 C251.301926,97.5692523 246.600303,168.476956 166.808123,154.60131 L186.33132,42.1402407 Z" id="Fill-75" fill="#F97332"></path>
                <polygon id="Fill-76" fill="#3A3F52" points="191.398549 156.835121 186.500582 155.561202 186.453189 157.487569 190.543533 158.53497"></polygon>
                <polygon id="Fill-77" fill="#3A3F52" points="142.216923 156.835121 147.11489 155.561202 147.162284 157.487569 143.071939 158.53497"></polygon>
                <path d="M134.87829,163.375183 C134.87829,163.375183 129.641798,163.730447 115.133602,174.620709 C115.133602,174.620709 115.188733,263.261631 115.133602,264.851125 L147.891175,277.751003 C152.101454,279.40245 156.894962,278.175965 159.795634,274.703665 L168.757831,263.975064 C171.117831,261.150372 172.410028,257.58611 172.410028,253.904718 L172.410028,237.681616 C167.036192,218.136258 147.871831,171.922828 134.87829,163.375183" id="Fill-78" fill="#54596B"></path>
                <path d="M132.3764,166.615834 L128.965039,162.830863 C132.753613,160.585049 142.216826,156.834927 142.216826,156.834927 C145.13781,162.255858 155.748138,184.837904 166.111826,216.81752 C170.345318,228.444448 173.192793,237.220547 172.410318,237.681326 C149.68081,191.458215 127.876925,171.088102 127.876925,171.088102 L132.3764,166.615834 Z" id="Fill-79" fill="#5A6170"></path>
                <path d="M198.737085,163.375183 C198.737085,163.375183 203.973577,163.730447 218.481774,174.620709 L218.481774,264.851125 L185.7242,277.751003 C181.513921,279.40245 176.720413,278.175965 173.819741,274.703665 L164.857544,263.975064 C162.497544,261.150372 161.205348,257.58611 161.205348,253.904718 L161.205348,237.681616 C166.579184,218.136258 185.743544,171.922828 198.737085,163.375183" id="Fill-80" fill="#4F5467"></path>
                <path d="M201.239072,166.615834 L204.650433,162.830863 C200.861859,160.585049 191.398646,156.834927 191.398646,156.834927 C188.477662,162.255858 177.867334,184.837904 167.503646,216.81752 C163.270154,228.444448 160.422679,237.220547 161.205154,237.681326 C183.934662,191.458215 205.738548,171.088102 205.738548,171.088102 L201.239072,166.615834 Z" id="Fill-81" fill="#5D6477"></path>
                <polygon id="Fill-84" fill="#596072" points="214.000966 266.958415 213.033752 266.958415 213.033752 170.71367 214.000966 171.378702"></polygon>
                <polygon id="Fill-85" fill="#596072" points="206.215964 270.002364 205.248751 270.002364 205.248751 165.949544 206.215964 166.472276"></polygon>
                <polygon id="Fill-86" fill="#596072" points="198.431059 272.937604 197.463846 272.937604 197.463846 180.182583 198.431059 179.032572"></polygon>
                <polygon id="Fill-87" fill="#596072" points="190.646154 276.003333 189.678941 276.003333 189.678941 190.140639 190.646154 188.837679"></polygon>
                <polygon id="Fill-88" fill="#596072" points="182.861249 278.47731 181.894036 278.47731 181.894036 201.316177 182.861249 199.86027"></polygon>
                <polygon id="Fill-89" fill="#596072" points="175.076248 275.407806 174.109034 275.407806 174.109034 213.772797 175.076248 212.15039"></polygon>
                <polygon id="Fill-90" fill="#596072" points="167.291343 266.878456 166.807736 266.310226 166.32413 266.878456 166.32413 248.940017 167.291343 248.940017"></polygon>
                <polygon id="Fill-91" fill="#596072" points="167.291343 243.616179 166.32413 243.616179 166.32413 227.659284 167.291343 225.849081"></polygon>
                <polygon id="Fill-92" fill="#61687F" points="159.506438 275.035407 158.539225 275.971485 158.539225 212.15068 159.506438 213.772119"></polygon>
                <polygon id="Fill-93" fill="#61687F" points="151.721436 278.47731 150.754223 278.432781 150.754223 199.86027 151.721436 201.316177"></polygon>
                <polygon id="Fill-94" fill="#61687F" points="143.936531 276.193744 142.969318 275.81331 142.969318 188.837389 143.936531 190.141316"></polygon>
                <polygon id="Fill-95" fill="#61687F" points="136.151626 273.128111 135.184413 272.747678 135.184413 179.032378 136.151626 180.18239"></polygon>
                <polygon id="Fill-96" fill="#61687F" points="128.366721 270.062575 127.399508 269.682142 127.399508 166.47247 128.366721 165.949738"></polygon>
                <polygon id="Fill-97" fill="#61687F" points="120.58172 266.996942 119.614507 266.633933 119.614507 171.378509 120.58172 170.713477"></polygon>
                <path d="M175.445046,104.847819 C175.445046,104.847819 189.333259,114.826203 192.572456,120.823107 C195.810685,126.820011 203.19439,128.216869 204.712915,134.786842 C206.232407,141.357784 209.096325,148.510508 184.790259,157.984552 C184.790259,157.984552 207.995636,157.587662 219.064423,140.571749 C224.102636,132.827563 223.451702,113.468066 215.614374,103.481938 C211.603341,98.3707756 207.145456,94.0650081 202.397407,92.9953424 C192.949669,90.8685953 182.754275,97.182043 175.445046,104.847819" id="Fill-98" fill="#E57437"></path>
                <path d="M175.445046,104.847819 C183.78339,106.297918 188.112636,111.064465 190.859521,117.844499 C195.314505,128.841244 209.379718,127.698008 207.117407,140.731473 C205.60662,149.43497 196.272046,153.876261 189.560554,156.428938 C172.200046,163.030857 166.642439,155.554813 166.642439,155.554813 L175.445046,104.847819 Z" id="Fill-99" fill="#E8E9EB"></path>
                <path d="M195.61347,96.5847727 C191.702061,97.4269529 188.941634,92.9149965 191.729143,90.1793628 C194.120093,87.8338424 197.57788,86.2337 202.357848,87.2965895 C210.843208,89.1832669 213.699389,95.3108541 214.382241,100.297142 C214.543766,101.476194 213.092946,102.181883 212.14411,101.403592 C208.172733,98.1432901 202.220503,95.1627465 195.61347,96.5847727" id="Fill-100" fill="#F4F7F9"></path>
                <path d="M215.235226,122.614337 C215.326144,115.56616 223.280505,113.966017 226.743128,118.968762 C228.773308,121.900904 229.490013,129.039108 225.96162,137.376692 C220.344046,150.649259 206.390062,156.939474 184.790259,157.983971 C206.980062,155.652971 213.155718,145.815919 214.779669,136.414477 C215.673374,131.24136 215.1888,126.200863 215.235226,122.614337" id="Fill-101" fill="#E8E9EB"></path>
                <path d="M182.398148,139.687363 C182.398148,139.687363 178.929721,145.444198 169.633836,145.155727 C160.909574,143.917625 156.869525,134.641058 156.869525,134.641058 C156.869525,134.641058 164.348016,138.238233 169.497459,139.105581 C175.060869,140.042628 182.398148,139.687363 182.398148,139.687363" id="Fill-102" fill="#4F5467"></path>
                <path d="M182.398148,139.687363 C182.398148,139.687363 178.929721,145.444198 169.633836,145.155727 C160.909574,143.917625 156.869525,134.641058 156.869525,134.641058 C156.869525,134.641058 164.348016,138.238233 169.497459,139.105581 C175.060869,140.042628 182.398148,139.687363 182.398148,139.687363 Z" id="Stroke-103" stroke="#4F5467" stroke-linecap="round" stroke-linejoin="round"></path>
                <path d="M173.282841,117.302503 C164.802316,115.828204 162.08348,118.292791 161.711103,120.438899 C161.271989,122.968343 165.317841,129.124003 171.057284,130.122035 C176.796726,131.120067 182.680284,126.691361 183.120366,124.160948 C183.492743,122.015808 181.763366,118.776803 173.282841,117.302503" id="Fill-104" fill="#4F5467"></path>
                <path d="M270.037715,53.2914814 C270.167321,50.8791674 268.472764,48.735964 266.09342,48.3313302 C246.686289,45.0303709 230.49901,47.7030831 216.910633,54.233368 C216.910633,54.233368 215.58942,57.8276384 221.854059,67.0354756 C241.275698,51.8801035 263.185977,55.5043826 263.185977,55.5043826 C263.185977,55.5043826 261.289272,94.2301529 244.236338,108.311987 L244.234403,108.309083 C244.045797,114.427958 242.808731,118.870217 242.808731,118.870217 C265.365108,105.901609 269.339387,66.2939698 270.037715,53.2914814" id="Fill-105" fill="#E8E9EB"></path>
                <path d="M263.18559,55.5047698 C263.18559,55.5047698 241.275311,51.8804907 221.854639,67.0358628 C224.632475,71.1199529 228.897885,76.3037174 235.441082,82.7739849 C243.052082,90.3013337 244.470016,100.627238 244.234016,108.308502 L244.235951,108.311406 C261.289852,94.2295721 263.18559,55.5047698 263.18559,55.5047698" id="Fill-106" fill="#D6D7D8"></path>
                <path d="M206.578766,104.61559 C205.529339,103.50914 204.133651,102.712457 202.515503,102.430762 C200.897356,102.149067 199.314995,102.427858 197.954126,103.116122 C195.949093,104.128675 194.427667,106.035681 194.014667,108.419922 C193.319241,112.423666 195.998421,116.232837 199.998815,116.928846 C203.998241,117.623887 207.805192,114.942462 208.499651,110.939686 C208.913618,108.555445 208.124372,106.245742 206.578766,104.61559" id="Fill-107" fill="#3A3F52"></path>
                <path d="M203.18762,109.156684 C203.358816,108.169301 202.69821,107.230318 201.711652,107.058978 C200.726062,106.887638 199.786898,107.548798 199.615702,108.535213 C199.444505,109.522597 200.105111,110.46158 201.091669,110.633888 C202.078226,110.805228 203.016423,110.144068 203.18762,109.156684" id="Fill-108" fill="#F4F7F9"></path>
                <path d="M204.638052,106.506721 C204.336282,105.383814 203.41743,104.477744 202.196807,104.264779 C200.977151,104.052782 199.805856,104.595843 199.143315,105.551282 C200.010905,105.113735 201.018741,104.935619 202.04979,105.114703 C203.079872,105.293788 203.968741,105.802 204.638052,106.506721" id="Fill-109" fill="#E2E7EC"></path>
                <path d="M108.330321,20 L108.330321,20 C105.822338,20 103.566797,21.6862965 102.846223,24.1015145 C100.934043,30.5049884 97.6136,43.2983837 96.8514361,57.0336657 C95.9113049,73.9779448 99.1040754,86.972689 106.341731,95.6665058 C106.198584,107.561576 109.292698,124.288049 124.504059,137.557712 C129.655436,143.021235 137.027534,147.760677 147.037223,152.045148 C147.663977,152.326843 148.104059,152.504959 148.292666,152.579497 C153.145174,155.922081 157.702682,157.616122 161.842354,157.616122 C164.039862,157.616122 165.589338,157.115654 166.433715,156.745869 C167.617584,157.86684 170.743616,160.116526 176.75001,160.116526 C179.244452,160.116526 181.992305,159.724477 184.919092,158.94909 C185.122207,158.942314 185.60001,158.922953 186.29737,158.868744 C197.148534,158.215328 205.685157,156.242497 212.377305,152.837959 C231.168321,145.480983 239.718485,130.780581 243.592174,119.534087 C253.335879,113.792741 260.721518,102.637241 265.546944,86.3696105 C269.459321,73.1812616 270.645125,60.0171134 271.003961,53.343561 C271.159682,50.429811 269.118862,47.8645494 266.255911,47.3776337 C260.677026,46.4280029 255.186157,45.9468953 249.935157,45.9468953 C238.171911,45.9468953 227.089584,48.3621134 216.986075,53.1247878 C207.736616,47.1123953 197.481256,43.0970349 186.496616,41.186157 C181.822075,40.3739855 177.074993,39.9616076 172.387879,39.9616076 C166.13001,39.9606395 159.870207,40.6914971 153.770961,42.1328837 C142.3356,30.7131134 127.385387,23.2970872 109.326551,20.0880901 C108.997698,20.0300087 108.663043,20 108.330321,20 Z M108.330321,20.9680233 C108.603075,20.9680233 108.879698,20.9922238 109.157289,21.040625 C128.539272,24.4848517 142.877239,32.4662035 153.468223,43.2006134 L153.468223,43.2015814 C159.510403,41.730186 165.845649,40.9286628 172.387879,40.9296308 C176.945387,40.9296308 181.604452,41.3178081 186.331223,42.1406279 C197.842026,44.141532 208.101256,48.4221308 216.910633,54.2331744 L216.910633,54.2331744 C226.540207,49.6050552 237.474551,46.9149186 249.935157,46.9149186 C255.058485,46.9149186 260.440059,47.3698895 266.09342,48.3311366 C268.472764,48.7367384 270.167321,50.8789738 270.037715,53.2912878 C269.339387,66.2947442 265.365108,105.902384 242.808731,118.870023 C242.808731,118.870023 242.825174,118.80807 242.852256,118.707395 C238.402108,131.992547 229.086879,145.273826 211.980748,151.954154 C205.308911,155.357724 196.695879,157.272474 186.222895,157.903625 C185.312748,157.974291 184.790452,157.983971 184.790452,157.983971 C184.79819,157.981067 184.803993,157.979131 184.811731,157.976227 C181.655715,158.823247 178.987174,159.148503 176.75001,159.148503 C169.317944,159.148503 166.641666,155.555201 166.641666,155.555201 C166.641666,155.555201 164.997403,156.648099 161.842354,156.648099 C158.817879,156.648099 154.403518,155.642323 148.722108,151.699564 C148.727911,151.705372 148.732748,151.710212 148.738551,151.715052 C148.738551,151.715052 148.250108,151.529192 147.417338,151.155535 C137.770354,147.025948 130.308305,142.315547 125.174338,136.858799 C111.322879,124.795294 107.02942,109.147198 107.317649,95.1379651 C107.307977,95.2425116 107.303141,95.3064012 107.303141,95.3064012 C90.4397803,75.4832209 100.048075,36.8552209 103.772813,24.3783692 C104.383125,22.3339041 106.26242,20.9680233 108.330321,20.9680233 L108.330321,20.9680233 Z" id="Fill-110" fill="#4F5467"></path>
                <path d="M169.467379,246.27834 C169.467379,244.807913 168.276739,243.616276 166.807543,243.616276 C165.338346,243.616276 164.147707,244.807913 164.147707,246.27834 C164.147707,247.748767 165.338346,248.940404 166.807543,248.940404 C168.276739,248.940404 169.467379,247.748767 169.467379,246.27834" id="Fill-82" fill="#3A3F52"></path>
                <path d="M169.467379,246.27834 C169.467379,244.807913 168.276739,243.616276 166.807543,243.616276 C165.338346,243.616276 164.147707,244.807913 164.147707,246.27834 C164.147707,247.748767 165.338346,248.940404 166.807543,248.940404 C168.276739,248.940404 169.467379,247.748767 169.467379,246.27834 Z" id="Stroke-83" stroke="#5D6477"></path>
            </g>
        </g>
    </g>
</svg>