<?xml version="1.0" encoding="UTF-8" standalone="no"?>
<svg xmlns="http://www.w3.org/2000/svg" height="60px" width="60px" version="1.1" xmlns:xlink="http://www.w3.org/1999/xlink" viewBox="0 0 60 60"><!-- Generator: sketchtool 41.2 (35397) - http://www.bohemiancoding.com/sketch -->
 <title>95DBA7CA-79DF-4783-8803-DAD59866A133</title>
 <desc>Created with sketchtool.</desc>
 <g id="login/register" opacity=".5" fill-rule="evenodd" fill="none">
  <g id="uplata_landing_first_look" fill="#F97332" transform="translate(-455 -1035)">
   <g id="tools" transform="translate(0 900)">
    <g id="tool_1-copy-2" transform="translate(135 90)">
     <g transform="translate(300)">
      <g id="tel" transform="translate(20 45)">
       <path id="Fill-1" d="m29.967 48.969c-1.74 0-3.15 1.443-3.15 3.224 0 1.78 1.41 3.223 3.15 3.223s3.15-1.443 3.15-3.223c0-1.781-1.41-3.224-3.15-3.224z"/>
       <path id="Fill-3" d="m16.798 57.143h26.404v-9.919h-26.404v9.919zm0-47.81h26.404v-6.4765h-26.404v6.4765zm0 35.033h26.404v-32.176h-26.404v32.176zm27.803-44.366h-29.202c-0.773 0-1.399 0.63943-1.399 1.4286v57.142c0 0.79 0.626 1.429 1.399 1.429h29.202c0.773 0 1.399-0.639 1.399-1.429v-57.142c0-0.78957-0.626-1.429-1.399-1.429z"/>
       <path id="Fill-5" d="m26.36 7.5739h7.213c0.772 0 1.396-0.6394 1.396-1.4285 0-0.7892-0.624-1.4286-1.396-1.4286h-7.213c-0.771 0-1.396 0.6394-1.396 1.4286 0 0.7891 0.625 1.4285 1.396 1.4285"/>
      </g>
     </g>
    </g>
   </g>
  </g>
 </g>
</svg>
