<?xml version="1.0" encoding="UTF-8" standalone="no"?>
<svg xmlns="http://www.w3.org/2000/svg" height="60px" width="60px" version="1.1" xmlns:xlink="http://www.w3.org/1999/xlink" viewBox="0 0 60 60"><!-- Generator: sketchtool 41.2 (35397) - http://www.bohemiancoding.com/sketch -->
 <title>DCC2997F-EC8E-4867-BE8A-218FE9D411BA</title>
 <desc>Created with sketchtool.</desc>
 <g id="login/register" opacity=".5" fill-rule="evenodd" fill="none">
  <g id="uplata_landing_first_look" fill="#F97332" transform="translate(-755 -1035)">
   <g id="tools" transform="translate(0 900)">
    <g id="tool_1-copy-3" transform="translate(135 90)">
     <g transform="translate(600)">
      <g id="services" transform="translate(20 45)">
       <path id="Page-1" d="m34.084 57.143h-8.17l-0.864-2.128h9.899l-0.865 2.128zm-4.085-31.838c-1.995 0-3.617-1.619-3.617-3.608 0-1.991 1.622-3.61 3.617-3.61 1.994 0 3.618 1.619 3.618 3.61 0 1.989-1.624 3.608-3.618 3.608zm-5.643 26.853h11.286v-2.441h-11.286v2.441zm-7.467-18.703c-3.59-3.744-5.358-8.668-4.977-13.863 0.651-8.897 7.869-16.072 16.791-16.69 5.095-0.3529 9.951 1.3586 13.666 4.818 3.665 3.411 5.767 8.235 5.767 13.234 0 4.751-1.833 9.24-5.161 12.639-4.359 4.452-4.623 5.28-6.337 10.666-0.243 0.762-0.515 1.62-0.836 2.601h-4.372v-18.862c2.887-0.653 5.05-3.228 5.05-6.301 0-3.566-2.908-6.467-6.481-6.467-3.574 0-6.481 2.901-6.481 6.467 0 3.073 2.163 5.648 5.049 6.301v18.862h-4.377c-0.353-1.028-0.651-1.922-0.915-2.712-1.788-5.36-2.064-6.185-6.386-10.693zm28.135 2.134c3.853-3.935 5.976-9.133 5.976-14.635 0-5.788-2.434-11.373-6.677-15.323-4.303-4.0059-9.924-5.9847-15.819-5.579-10.333 0.71542-18.694 9.0263-19.448 19.333-0.4336 5.924 1.667 11.772 5.763 16.045 3.879 4.045 4.02 4.466 5.74 9.62 0.182 0.548 0.384 1.152 0.607 1.81h-0.952c-0.791 0-1.432 0.639-1.432 1.429 0 0.789 0.641 1.428 1.432 1.428h1.279v3.869c0 0.044 0.008 0.084 0.012 0.126 0.003 0.037 0.005 0.072 0.011 0.108 0.016 0.094 0.04 0.184 0.073 0.27 0.004 0.011 0.004 0.023 0.008 0.033l0.007 0.015c0 0.003 0.001 0.005 0.003 0.008l2.016 4.962c0.219 0.539 0.744 0.892 1.327 0.892h10.098c0.583 0 1.108-0.353 1.327-0.892l2.016-4.962c0.001-0.003 0.003-0.005 0.004-0.008l0.005-0.015c0.005-0.01 0.005-0.021 0.009-0.032 0.033-0.086 0.057-0.177 0.073-0.27 0.006-0.037 0.008-0.072 0.011-0.109 0.004-0.042 0.013-0.082 0.013-0.126v-3.869h1.278c0.791 0 1.431-0.639 1.431-1.428 0-0.79-0.64-1.429-1.431-1.429h-0.972c0.202-0.629 0.387-1.208 0.555-1.735 1.673-5.254 1.772-5.568 5.657-9.536z"/>
      </g>
     </g>
    </g>
   </g>
  </g>
 </g>
</svg>
