<?xml version="1.0" encoding="UTF-8" standalone="no"?>
<svg xmlns="http://www.w3.org/2000/svg" height="40px" width="40px" version="1.1" xmlns:xlink="http://www.w3.org/1999/xlink" viewBox="0 0 40 40"><!-- Generator: sketchtool 41.2 (35397) - http://www.bohemiancoding.com/sketch -->
 <title>A8321644-FAE3-4B39-8B3A-8107956C65E6</title>
 <desc>Created with sketchtool.</desc>
 <g id="login/register" fill-rule="evenodd" fill="none">
  <g id="uplata_landing_first_look" fill="#fff" transform="translate(-1245 -524)">
   <g id="first">
    <g id="social" transform="translate(1245 404)">
     <g id="LinkedIN_white" transform="translate(0 120)">
      <path id="Combined-Shape" d="m0 20c0-11.046 8.9543-20 20-20s20 8.9543 20 20-8.954 20-20 20-20-8.954-20-20zm14.134-3.435h-4.5327v13.618h4.5327v-13.618zm0.298-4.213c-0.029-1.335-0.984-2.352-2.534-2.352-1.551 0-2.5647 1.017-2.5647 2.352 0 1.308 0.9837 2.354 2.5057 2.354h0.029c1.58 0 2.564-1.046 2.564-2.354zm16.047 10.023c0-4.183-2.235-6.13-5.218-6.13-2.406 0-3.484 1.322-4.085 2.249v-1.929h-4.533c0.059 1.278 0 13.618 0 13.618h4.533v-7.605c0-0.407 0.029-0.813 0.149-1.105 0.327-0.813 1.073-1.654 2.325-1.654 1.641 0 2.297 1.248 2.297 3.078v7.286h4.532v-7.808z"/>
     </g>
    </g>
   </g>
  </g>
 </g>
</svg>
