<?xml version="1.0" encoding="UTF-8"?>
<svg width="40px" height="24px" viewBox="0 0 40 24" version="1.1" xmlns="http://www.w3.org/2000/svg" xmlns:xlink="http://www.w3.org/1999/xlink">
    <!-- Generator: sketchtool 49.2 (51160) - http://www.bohemiancoding.com/sketch -->
    <title>BE454717-5CF9-4521-B170-EECC517C93D7</title>
    <desc>Created with sketchtool.</desc>
    <defs></defs>
    <g id="IndexPage(MainLanding)" stroke="none" stroke-width="1" fill="none" fill-rule="evenodd">
        <g id="IndexPage" transform="translate(-250.000000, -685.000000)">
            <g id="icons/mastercard" transform="translate(250.000000, 677.000000)">
                <g id="Group-8" transform="translate(0.000000, 8.000000)">
                    <path d="M23.6546187,11.8274028 C23.6546187,18.3596789 18.3596789,23.6544318 11.8275897,23.6544318 C5.2953136,23.6544318 0,18.3596789 0,11.8274028 C0,5.2953136 5.2953136,0 11.8275897,0 C18.3596789,0 23.6546187,5.2953136 23.6546187,11.8274028" id="Fill-333" fill="#CC0000"></path>
                    <path d="M27.706428,0 C24.6497213,0 21.8655276,1.15939537 19.7661678,3.06137946 C19.3390811,3.44902834 18.9404046,3.86770408 18.5723812,4.3134816 L20.9620104,4.3134816 C21.2883531,4.71084974 21.5890894,5.12859094 21.8636585,5.56614447 L17.6705462,5.56614447 C17.4197145,5.96818533 17.1916858,6.38592653 16.9890766,6.81880734 L22.5447542,6.81880734 C22.7346535,7.22421256 22.90175,7.64176685 23.0456698,8.07090948 L16.488161,8.07090948 C16.3517176,8.47874451 16.2365817,8.89667262 16.1446226,9.32282472 L23.3888344,9.32282472 C23.5622858,10.1302708 23.6546187,10.9679961 23.6546187,11.8274028 C23.6546187,13.1404372 23.4406081,14.4043146 23.0456698,15.5846438 L16.488161,15.5846438 C16.6320808,16.0134126 16.7991773,16.4315276 16.9887028,16.8374936 L22.5447542,16.8374936 C22.3417712,17.2692529 22.1148639,17.6873679 21.862537,18.0899695 L17.6705462,18.0899695 C17.9439937,18.5262147 18.2452908,18.9445166 18.5723812,19.341324 L20.9612627,19.341324 C20.5939869,19.7874754 20.1949366,20.2061511 19.7665416,20.5938 C21.8657145,22.4957841 24.6497213,23.6544318 27.706428,23.6544318 C34.2383303,23.6544318 39.533457,18.3596789 39.533457,11.8274028 C39.533457,5.29587433 34.2383303,0 27.706428,0" id="Fill-334" fill="#FF9900"></path>
                    <path d="M9.06563819,13.1223071 C8.93087693,13.1069806 8.87143993,13.1021209 8.77892007,13.1021209 C8.05109715,13.1021209 7.68307369,13.3518311 7.68307369,13.8450835 C7.68307369,14.1488103 7.86269306,14.3418871 8.14305628,14.3418871 C8.66621405,14.3418871 9.04320913,13.843962 9.06563819,13.1223071 L9.06563819,13.1223071 Z M9.99962153,15.2962435 L8.93536275,15.2962435 L8.9598478,14.7906552 C8.6353741,15.1898924 8.20230638,15.3805394 7.61410434,15.3805394 C6.91842974,15.3805394 6.44125154,14.8373824 6.44125154,14.0480664 C6.44125154,12.8598871 7.27093976,12.1670161 8.69537183,12.1670161 C8.84134761,12.1670161 9.02788261,12.1804736 9.21890342,12.2045848 C9.25852808,12.0434694 9.26899498,11.9750608 9.26899498,11.8881482 C9.26899498,11.5651698 9.04545204,11.4440528 8.44566165,11.4440528 C7.81746113,11.4376979 7.2993499,11.5941406 7.08646076,11.6640445 C7.0999182,11.5829261 7.26458486,10.5667029 7.26458486,10.5667029 C7.90418682,10.3786726 8.32622692,10.3083949 8.80116222,10.3083949 C9.90392422,10.3083949 10.4880143,10.8033294 10.4867059,11.7389949 C10.4889488,11.9900135 10.4472681,12.2985999 10.3827846,12.7056873 C10.2713869,13.4122026 10.0321437,14.9274724 9.99962153,15.2962435 L9.99962153,15.2962435 Z" id="Fill-336" fill="#000066"></path>
                    <polyline id="Fill-337" fill="#000066" points="5.9038887 15.2962435 4.61963824 15.2962435 5.35568515 10.6848292 3.71294358 15.2962435 2.83802343 15.2962435 2.72980322 10.7106227 1.95674837 15.2962435 0.754924698 15.2962435 1.75881194 9.2970313 3.60528411 9.2970313 3.71686867 12.655035 4.84336809 9.2970313 6.89693522 9.2970313 5.9038887 15.2962435"></polyline>
                    <path d="M29.29291,13.1223071 C29.1581487,13.1069806 29.0994594,13.1021209 29.0071264,13.1021209 C28.2787428,13.1021209 27.9110931,13.3518311 27.9110931,13.8450835 C27.9110931,14.1488103 28.0899649,14.3418871 28.3710757,14.3418871 C28.8938597,14.3418871 29.2710417,13.843962 29.29291,13.1223071 L29.29291,13.1223071 Z M30.2274541,15.2962435 L29.1635691,15.2962435 L29.1876803,14.7906552 C28.8632066,15.1898924 28.4303258,15.3805394 27.8424976,15.3805394 C27.1458885,15.3805394 26.669271,14.8373824 26.669271,14.0480664 C26.669271,12.8598871 27.499333,12.1670161 28.9233913,12.1670161 C29.0691802,12.1670161 29.2553413,12.1804736 29.446549,12.2045848 C29.4863606,12.0434694 29.4966406,11.9750608 29.4966406,11.8881482 C29.4966406,11.5651698 29.2730977,11.4440528 28.6733073,11.4440528 C28.0451068,11.4376979 27.5271824,11.5941406 27.3135457,11.6640445 C27.3277507,11.5829261 27.4927912,10.5667029 27.4927912,10.5667029 C28.1320194,10.3786726 28.5544333,10.3083949 29.0286209,10.3083949 C30.1321306,10.3083949 30.715473,10.8033294 30.7143515,11.7389949 C30.7165944,11.9900135 30.6752876,12.2985999 30.6104302,12.7056873 C30.4994064,13.4122026 30.2596024,14.9274724 30.2274541,15.2962435 L30.2274541,15.2962435 Z" id="Fill-338" fill="#000066"></path>
                    <path d="M15.7059476,15.2220407 C15.3543721,15.3326907 15.0805507,15.3805394 14.7833657,15.3805394 C14.1271289,15.3805394 13.7688247,15.0033574 13.7688247,14.3086173 C13.7596661,14.0929245 13.8632136,13.5256563 13.9447059,13.0082927 C14.0190956,12.5524221 14.5016941,9.67888601 14.5016941,9.67888601 L15.7777206,9.67888601 L15.6287543,10.4173627 L16.3997531,10.4173627 L16.225741,11.5900286 L15.4521254,11.5900286 C15.3039068,12.5176571 15.0925129,13.6735012 15.0900831,13.8267664 C15.0900831,14.0783457 15.2242836,14.188248 15.5298795,14.188248 C15.6762291,14.188248 15.7894959,14.1732953 15.8760346,14.1422685 L15.7059476,15.2220407" id="Fill-339" fill="#000066"></path>
                    <path d="M19.6190705,15.1826029 C19.1805825,15.3166166 18.7579816,15.3820346 18.3095874,15.3805394 C16.8806695,15.3786703 16.1358379,14.6329041 16.1358379,13.2039862 C16.1358379,11.5363858 17.0832787,10.3083949 18.369772,10.3083949 C19.4218817,10.3083949 20.0941927,10.9958455 20.0941927,12.0735617 C20.0941927,12.4318659 20.0482132,12.7810116 19.9366286,13.2737032 L17.3950426,13.2737032 C17.3092514,13.9815269 17.7619446,14.2762821 18.5049071,14.2762821 C18.9611515,14.2762821 19.3734724,14.1820801 19.8315859,13.9695647 L19.6190705,15.1826029 L19.6190705,15.1826029 Z M18.9017145,12.290376 C18.9090039,12.1885106 19.0368496,11.4193809 18.3073445,11.4193809 C17.9013785,11.4193809 17.6103615,11.7292757 17.4924221,12.290376 L18.9017145,12.290376 L18.9017145,12.290376 Z" id="Fill-340" fill="#000066"></path>
                    <path d="M10.7696858,11.9599212 C10.7696858,12.5765333 11.0687399,13.0021247 11.7472189,13.3219257 C12.2670123,13.5665893 12.3479439,13.638923 12.3479439,13.86041 C12.3479439,14.1641368 12.1184198,14.3020755 11.6105886,14.3020755 C11.2272386,14.3020755 10.8709904,14.2418909 10.4599779,14.1089987 C10.4599779,14.1089987 10.2915731,15.1848458 10.283536,15.2362458 C10.5753007,15.2994209 10.8354777,15.3582972 11.6197471,15.3805394 C12.9744622,15.3805394 13.6002329,14.864671 13.6002329,13.74976 C13.6002329,13.079505 13.3385606,12.6860619 12.6952204,12.3899983 C12.15711,12.1430918 12.0948693,12.0877668 12.0948693,11.8601119 C12.0948693,11.5963835 12.3085061,11.4616223 12.7232568,11.4616223 C12.9753968,11.4616223 13.3194959,11.4885371 13.6460256,11.5347036 L13.8286355,10.4031577 C13.4963116,10.3502625 12.9920316,10.3083949 12.6985848,10.3083949 C11.2623775,10.3083949 10.7650131,11.05846 10.7696858,11.9599212" id="Fill-341" fill="#000066"></path>
                    <path d="M25.8638809,10.4371751 C26.2205029,10.4371751 26.5535744,10.5298818 27.0113141,10.761088 L27.2215865,9.45908124 C27.0328086,9.38506535 26.3709645,8.95124999 25.8102381,8.95124999 C24.9512052,8.95124999 24.2241299,9.37814972 23.7136819,10.0811138 C22.9682896,9.83439414 22.6615722,10.3330669 22.2862593,10.8302443 L21.9526271,10.9079984 C21.9778598,10.7444532 22.0008495,10.5820294 21.9935601,10.4173627 L20.8137917,10.4173627 C20.6530501,11.9277729 20.3676403,13.4570608 20.1442843,14.9680316 L20.0857818,15.2962435 L21.3704061,15.2962435 C21.5847905,13.9030252 21.7019824,13.0112832 21.7733815,12.407194 L22.2571015,12.1391667 C22.3298091,11.8698311 22.555408,11.7793673 23.0092226,11.7903949 C22.9499725,12.1085137 22.9178242,12.4436412 22.9178242,12.790357 C22.9178242,14.3867452 23.7802215,15.3805394 25.1618514,15.3805394 C25.5179127,15.3805394 25.8236955,15.3338122 26.2971355,15.2048451 L26.5221737,13.837794 C26.0963955,14.046945 25.7478105,14.1454459 25.4317477,14.1454459 C24.6852339,14.1454459 24.2334753,13.5942518 24.2334753,12.683819 C24.2334753,11.3625606 24.9048518,10.4371751 25.8638809,10.4371751" id="Fill-342" fill="#000066"></path>
                    <path d="M36.7348713,9.2970313 L36.4494616,11.0302367 C36.0990075,10.568385 35.7218256,10.2338183 35.2239005,10.2338183 C34.5760745,10.2338183 33.9863772,10.7250146 33.6002236,11.4483517 C33.062487,11.3367672 32.5068071,11.1470547 32.5068071,11.1470547 L32.5064332,11.1517275 C32.5492354,10.7474437 32.5673655,10.5014717 32.5630666,10.4173627 L31.3834851,10.4173627 C31.2233042,11.9277729 30.9375207,13.4570608 30.7143515,14.9680316 L30.6552883,15.2962435 L31.9402864,15.2962435 C32.1137378,14.1703048 32.2462562,13.2342655 32.3440095,12.4929851 C32.7832452,12.0959908 33.00305,11.7507702 33.4458369,11.7731993 C33.2493958,12.2483215 33.1348207,12.7952167 33.1348207,13.3563169 C33.1348207,14.5755231 33.7512459,15.3805394 34.6850424,15.3805394 C35.1556788,15.3805394 35.5167866,15.2181156 35.8689228,14.8420551 L35.8083643,15.2958697 L37.0232716,15.2958697 L38.0013654,9.2970313 L36.7348713,9.2970313 L36.7348713,9.2970313 Z M35.1291377,14.1691833 C34.6921449,14.1691833 34.4708449,13.8450835 34.4708449,13.2073506 C34.4708449,12.2483215 34.8844741,11.5685341 35.466695,11.5685341 C35.9079867,11.5685341 36.14723,11.9042223 36.14723,12.524012 C36.14723,13.4912651 35.7266852,14.1691833 35.1291377,14.1691833 L35.1291377,14.1691833 Z" id="Fill-343" fill="#000066"></path>
                    <polyline id="Fill-344" fill="#FCFDFF" points="6.27322051 14.9401822 4.98934387 14.9401822 5.72520387 10.328768 4.08283613 14.9401822 3.20754215 14.9401822 3.09950886 10.3554959 2.32626709 14.9401822 1.12444342 14.9401822 2.12833066 8.94153074 3.97480283 8.94153074 4.02638966 12.655035 5.27232382 8.94153074 7.26645395 8.94153074 6.27322051 14.9401822"></polyline>
                    <path d="M9.43515691,12.7669934 C9.30058257,12.7512931 9.24114556,12.7469942 9.1486257,12.7469942 C8.42080278,12.7469942 8.05259242,12.9963305 8.05259242,13.4892091 C8.05259242,13.7925621 8.2323987,13.9867603 8.51294883,13.9867603 C9.03591969,13.9867603 9.41291476,13.4888353 9.43515691,12.7669934 L9.43515691,12.7669934 Z M10.3689533,14.9401822 L9.30525529,14.9401822 L9.32955343,14.4349677 C9.00507973,14.834018 8.57201201,15.0248519 7.98380997,15.0248519 C7.28794846,15.0248519 6.81095717,14.4809472 6.81095717,13.6918182 C6.81095717,12.503452 7.6408323,11.8115156 9.06526437,11.8115156 C9.21086634,11.8115156 9.39740133,11.8247861 9.58860905,11.8494581 C9.62823372,11.6879688 9.63870061,11.6193733 9.63870061,11.5320869 C9.63870061,11.2092954 9.41515767,11.089113 8.81536729,11.089113 C8.18697986,11.0816367 7.66905553,11.2380793 7.45597949,11.3077963 C7.46962383,11.2270517 7.63410358,10.2108285 7.63410358,10.2108285 C8.27389245,10.023172 8.69593255,9.9523336 9.17086785,9.9523336 C10.2734429,9.9523336 10.8573461,10.4478289 10.8564115,11.3831206 C10.8584675,11.6337653 10.8171607,11.943847 10.7524902,12.349813 C10.6409057,13.0557675 10.4016624,14.5719718 10.3689533,14.9401822 L10.3689533,14.9401822 Z" id="Fill-345" fill="#FCFDFF"></path>
                    <path d="M27.5909183,9.10301995 L27.3806459,10.4048398 C26.9221586,10.1743813 26.5900216,10.0811138 26.2337734,10.0811138 C25.2751181,10.0811138 24.6026202,11.0076208 24.6026202,12.3290661 C24.6026202,13.2394989 25.0545657,13.7895715 25.8010795,13.7895715 C26.1173293,13.7895715 26.4666618,13.6918182 26.8915056,13.4819196 L26.6659066,14.8489707 C26.1932142,14.9777509 25.8872445,15.0248519 25.5313701,15.0248519 C24.1488056,15.0248519 23.2877167,14.0308708 23.2877167,12.4348565 C23.2877167,10.2902647 24.478139,8.79144296 26.1797568,8.79144296 C26.7404832,8.79144296 27.4027012,9.02900406 27.5909183,9.10301995" id="Fill-346" fill="#FCFDFF"></path>
                    <path d="M29.6622418,12.7669934 C29.5284151,12.7512931 29.4687912,12.7469942 29.3764582,12.7469942 C28.6490091,12.7469942 28.2806119,12.9963305 28.2806119,13.4892091 C28.2806119,13.7925621 28.4602312,13.9867603 28.7405945,13.9867603 C29.2633784,13.9867603 29.6407473,13.4888353 29.6622418,12.7669934 L29.6622418,12.7669934 Z M30.5967859,14.9401822 L29.5330878,14.9401822 L29.5571991,14.4349677 C29.2327254,14.834018 28.7996576,15.0248519 28.2120163,15.0248519 C27.5154072,15.0248519 27.0389766,14.4809472 27.0389766,13.6918182 C27.0389766,12.503452 27.8681041,11.8115156 29.29291,11.8115156 C29.438512,11.8115156 29.6246731,11.8247861 29.815694,11.8494581 C29.8555055,11.6879688 29.8659724,11.6193733 29.8659724,11.5320869 C29.8659724,11.2092954 29.6429902,11.089113 29.042826,11.089113 C28.4149993,11.0816367 27.8972619,11.2380793 27.683812,11.3077963 C27.6972695,11.2270517 27.8619361,10.2108285 27.8619361,10.2108285 C28.501725,10.023172 28.9233913,9.9523336 29.3983266,9.9523336 C30.5009017,9.9523336 31.0853655,10.4478289 31.0838703,11.3831206 C31.086487,11.6337653 31.0448063,11.943847 30.9801359,12.349813 C30.8689251,13.0557675 30.6296818,14.5719718 30.5967859,14.9401822 L30.5967859,14.9401822 Z" id="Fill-347" fill="#FCFDFF"></path>
                    <path d="M16.0752794,14.8661663 C15.7240778,14.9768163 15.4498825,15.0248519 15.1530713,15.0248519 C14.4966476,15.0248519 14.1381565,14.647483 14.1381565,13.9534906 C14.1291849,13.7370502 14.2329193,13.1707165 14.3145984,12.6527921 C14.3884274,12.1965477 14.8712128,9.32338544 14.8712128,9.32338544 L16.1476131,9.32338544 L15.998273,10.0616753 L16.6535753,10.0616753 L16.4790025,11.2339673 L15.8216442,11.2339673 C15.6734255,12.1625303 15.4620316,13.3176268 15.4594149,13.470892 C15.4594149,13.7232189 15.5941761,13.8323737 15.8993982,13.8323737 C16.0457478,13.8323737 16.1588277,13.8179817 16.2457403,13.7862072 L16.0752794,14.8661663" id="Fill-348" fill="#FCFDFF"></path>
                    <path d="M19.98915,14.8274762 C19.550475,14.9618636 19.1269396,15.0252257 18.6791061,15.0248519 C17.2500013,15.0239173 16.5057304,14.2772166 16.5057304,12.8484857 C16.5057304,11.1803245 17.4529843,9.9523336 18.7385431,9.9523336 C19.7917743,9.9523336 20.4637115,10.6397842 20.4637115,11.7188088 C20.4637115,12.0763654 20.4169843,12.4253241 20.3067081,12.9182027 L17.7647482,12.9182027 C17.6785832,13.6260263 18.1318371,13.9213423 18.874052,13.9213423 C19.3306702,13.9213423 19.7428042,13.8267664 20.2014784,13.6136904 L19.98915,14.8274762 L19.98915,14.8274762 Z M19.271607,11.9343147 C19.2785227,11.8322624 19.406929,11.0635065 18.6776108,11.0635065 C18.2712711,11.0635065 17.9802541,11.373962 17.8619408,11.9343147 L19.271607,11.9343147 L19.271607,11.9343147 Z" id="Fill-349" fill="#FCFDFF"></path>
                    <path d="M11.1390177,11.6038599 C11.1390177,12.2215935 11.4384456,12.6462503 12.1171115,12.9664251 C12.6369049,13.2109019 12.7174626,13.2832356 12.7174626,13.5049094 C12.7174626,13.8090101 12.4881255,13.9462011 11.9799204,13.9462011 C11.5969443,13.9462011 11.2405091,13.8867641 10.8293098,13.7542458 C10.8293098,13.7542458 10.6610918,14.8293453 10.6532417,14.8799976 C10.9448194,14.9439204 11.2051834,15.0022359 11.9890789,15.0248519 C13.3441678,15.0248519 13.9699385,14.5091705 13.9699385,13.3942594 C13.9699385,12.7236306 13.7078924,12.3303744 13.0647392,12.0350585 C12.5264418,11.7874043 12.464575,11.7326401 12.464575,11.5046113 C12.464575,11.240883 12.6780248,11.1051872 13.0931493,11.1051872 C13.3447286,11.1051872 13.6892015,11.1332235 14.0155443,11.1792031 L14.1983411,10.047844 C13.8658303,9.99532263 13.3619242,9.9523336 13.0682904,9.9523336 C11.6317093,9.9523336 11.1347188,10.7025856 11.1390177,11.6038599" id="Fill-350" fill="#FCFDFF"></path>
                    <path d="M37.3927903,14.9401822 L36.1782569,14.9401822 L36.2384415,14.4861807 C35.8861184,14.8624281 35.5251975,15.0248519 35.0545611,15.0248519 C34.1215123,15.0248519 33.5041525,14.2207702 33.5041525,13.0002556 C33.5041525,11.3775133 34.4613125,10.0097146 35.5934192,10.0097146 C36.0913443,10.0097146 36.4683394,10.2130714 36.819541,10.67511 L37.10439,8.94153074 L38.3706973,8.94153074 L37.3927903,14.9401822 L37.3927903,14.9401822 Z M35.4984695,13.8129351 C36.0967646,13.8129351 36.5165618,13.1353907 36.5165618,12.1690721 C36.5165618,11.5490956 36.2775055,11.2122859 35.8362137,11.2122859 C35.2538059,11.2122859 34.8403636,11.8922602 34.8403636,12.8516631 C34.8403636,13.4901436 35.0618505,13.8129351 35.4984695,13.8129351 L35.4984695,13.8129351 Z" id="Fill-351" fill="#FCFDFF"></path>
                    <path d="M31.7533776,10.0616753 C31.592823,11.5717116 31.3072263,13.1009995 31.0838703,14.6121572 L31.0253678,14.9401822 L32.3096183,14.9401822 C32.7690401,11.9567437 32.8795032,11.3745228 33.6002236,11.4472303 C33.7147987,10.8365992 33.9284355,10.3018531 34.0874949,10.0323306 C33.5497582,9.92018528 33.2493958,10.224099 32.8557658,10.8016472 C32.8871665,10.5517502 32.9437999,10.3093294 32.9331461,10.0616753 L31.7533776,10.0616753" id="Fill-352" fill="#FCFDFF"></path>
                    <path d="M21.1838711,10.0616753 C21.0225688,11.5717116 20.7365983,13.1009995 20.5136161,14.6121572 L20.4553006,14.9401822 L21.7399248,14.9401822 C22.1995336,11.9567437 22.3096229,11.3745228 23.0292218,11.4472303 C23.1445446,10.8365992 23.3585552,10.3018531 23.5172408,10.0323306 C22.9800648,9.92018528 22.6791416,10.224099 22.2862593,10.8016472 C22.3172862,10.5517502 22.3742934,10.3093294 22.3630788,10.0616753 L21.1838711,10.0616753" id="Fill-353" fill="#FCFDFF"></path>
                </g>
            </g>
        </g>
    </g>
</svg>