<?xml version="1.0" encoding="UTF-8" standalone="no"?>
<svg xmlns="http://www.w3.org/2000/svg" height="60px" width="100px" version="1.1" xmlns:xlink="http://www.w3.org/1999/xlink" viewBox="0 0 100 60"><!-- Generator: sketchtool 41.2 (35397) - http://www.bohemiancoding.com/sketch -->
 <title>8B023E38-C03B-4D3E-9B19-D33C9836F0BD</title>
 <desc>Created with sketchtool.</desc>
 <g id="landing" fill-rule="evenodd" fill="none">
  <g id="uplata_landing_1-2" fill="#B5B6BA" transform="translate(-190 -1586)">
   <g id="tools" transform="translate(0 900)">
    <g id="paysystem_logo_master_card_securecode" transform="translate(190 686)">
     <g id="Group" transform="translate(9 15)">
      <path id="Fill-1" d="m7.6018 18.83c-0.4772-0.32-1.1236-0.599-2.0366-0.599-0.9857 0-1.7789 0.205-1.7789 1.254 0 1.851 3.594 1.16 3.594 5.125 0 3.613-2.3724 4.549-4.5179 4.549-0.9546 0-2.0528-0.316-2.8623-0.675l0.58257-2.655c0.48843 0.444 1.4738 0.748 2.2797 0.748 0.7679 0 1.9712-0.21 1.9712-1.55 0-2.099-3.5921-1.318-3.5921-5.002 0-3.368 2.0984-4.378 4.1225-4.378 1.1395 0 2.2105 0.167 2.8386 0.585l-0.6008 2.598z"/>
      <path id="Fill-3" d="m13.456 22.511c0.011-0.22 0.018-0.395 0.018-0.53 0-0.85-0.428-1.347-1.153-1.347-0.778 0-1.332 0.669-1.555 1.866l2.69 0.011zm1.363 6.202c-0.83 0.286-1.637 0.425-2.498 0.425-2.7227 0-4.1436-1.606-4.1436-4.669 0-3.577 1.8077-6.216 4.2616-6.216 2.01 0 3.291 1.474 3.291 3.791 0 0.766-0.087 1.516-0.296 2.572h-4.859c-0.015 0.157-0.02 0.234-0.02 0.325 0 1.215 0.728 1.828 2.142 1.828 0.871 0 1.659-0.203 2.532-0.66l-0.41 2.604z"/>
      <path id="Fill-5" d="m21.958 28.709c-0.503 0.242-1.175 0.402-2.166 0.402-2.131 0-3.452-2.13-3.452-4.723 0-3.394 1.911-6.102 4.725-6.102 0.613 0 1.55 0.266 2.288 0.694l-0.539 2.489c-0.522-0.344-1.067-0.562-1.628-0.562-1.303 0-2.234 1.195-2.234 3.335 0 1.233 0.675 2.244 1.743 2.244 0.635 0 1.081-0.134 1.628-0.454l-0.365 2.677z"/>
      <path id="Fill-7" d="m31.077 26.099c-0.125 0.897-0.241 1.768-0.31 2.703h-2.347l0.197-1.684h-0.023c-0.735 1.144-1.496 1.924-2.824 1.924-1.474 0-2.273-1.55-2.273-3.575 0-0.698 0.044-1.093 0.2-2.183l0.664-4.825h2.612l-0.701 4.84c-0.07 0.52-0.17 1.036-0.17 1.573 0 0.61 0.278 1.227 0.982 1.189 1.071 0 1.702-1.309 1.882-2.837l0.721-4.765h2.528l-1.138 7.64z"/>
      <path id="Fill-9" d="m37.681 18.358c-0.075-0.02-0.16-0.029-0.251-0.029-0.791 0-1.256 0.457-1.998 1.695l0.216-1.581h-2.207l-1.491 10.425h2.438c0.877-6.377 1.109-7.475 2.278-7.475 0.069 0 0.076 0 0.178 0.012 0.219-1.261 0.515-2.185 0.925-3.029l-0.088-0.018z"/>
      <path id="Fill-11" d="m42.449 22.511c0.017-0.22 0.026-0.395 0.026-0.53 0-0.85-0.432-1.347-1.153-1.347-0.779 0-1.333 0.669-1.558 1.866l2.685 0.011zm1.371 6.202c-0.831 0.286-1.641 0.425-2.498 0.425-2.728 0-4.148-1.606-4.148-4.669 0-3.577 1.81-6.216 4.262-6.216 2.01 0 3.295 1.474 3.295 3.791 0 0.766-0.09 1.516-0.307 2.572h-4.849c-0.014 0.157-0.023 0.234-0.023 0.325 0 1.215 0.726 1.828 2.141 1.828 0.871 0 1.66-0.203 2.534-0.66l-0.407 2.604z"/>
      <path id="Fill-13" d="m53.825 16.45l-0.399 2.777c-0.868-0.49-1.5-0.694-2.182-0.694-1.824 0-3.099 1.985-3.099 4.806 0 1.947 0.853 3.125 2.275 3.125 0.606 0 1.269-0.207 2.075-0.661l-0.423 2.924c-0.902 0.278-1.492 0.374-2.162 0.374-2.629 0-4.266-2.125-4.266-5.533 0-4.588 2.26-7.79 5.497-7.79 0.419 0 0.789 0.053 1.096 0.138l0.998 0.283c0.308 0.123 0.372 0.144 0.59 0.251"/>
      <path id="Fill-15" d="m61.35 22.965c0-2.627-1.297-4.671-3.737-4.671-2.808 0-4.627 2.486-4.627 6.146 0 2.62 1.075 4.763 3.734 4.763 2.683 0 4.63-1.9 4.63-6.238m-2.568-0.044c0 2.363-0.731 3.755-1.884 3.755-0.842 0.025-1.352-0.912-1.352-2.316 0-1.659 0.746-3.539 1.942-3.539 0.962 0 1.294 1.018 1.294 2.1"/>
      <path id="Fill-17" d="m65.921 26.305c1.149 0 1.941-1.448 1.941-3.513 0-1.329-0.452-2.042-1.291-2.042-1.109 0-1.897 1.448-1.897 3.507 0 1.358 0.423 2.048 1.247 2.048zm3.605 2.451h-2.303l0.118-1.017c-0.67 0.802-1.367 1.157-2.258 1.157-1.778 0-2.95-1.723-2.95-4.329 0-3.461 1.82-6.397 3.973-6.397 0.95 0 1.67 0.449 2.337 1.437l0.537-3.666h2.399l-1.853 12.815z"/>
      <path id="Fill-19" d="m76.474 22.511c0.011-0.22 0.019-0.395 0.019-0.53 0-0.85-0.427-1.347-1.153-1.347-0.779 0-1.331 0.669-1.556 1.866l2.69 0.011zm1.371 6.202c-0.843 0.286-1.641 0.425-2.505 0.425-2.723 0-4.148-1.606-4.148-4.669 0-3.577 1.814-6.216 4.266-6.216 2.01 0 3.289 1.474 3.289 3.791 0 0.766-0.083 1.516-0.299 2.572h-4.854c-0.017 0.157-0.02 0.234-0.02 0.325 0 1.215 0.728 1.828 2.142 1.828 0.873 0 1.659-0.203 2.534-0.66l-0.405 2.604z"/>
      <path id="Fill-21" d="m82.896 28.676h-0.368v-1.755h-0.005l-0.353 1.755h-0.387l-0.345-1.755h-0.005v1.755h-0.368v-2.1h0.576l0.342 1.656h0.006l0.337-1.656h0.57v2.1zm-2.618 0h-0.394v-1.728h-0.572v-0.372h1.537v0.372h-0.571v1.728z"/>
      <polygon id="Fill-23" points="10.976 13.084 8.3679 13.084 9.8616 3.2335 6.5237 13.084 4.7358 13.084 4.5198 3.2915 2.946 13.084 0.50281 13.084 2.5413 0.26509 6.3003 0.26509 6.4038 8.1972 8.9416 0.26509 12.998 0.26509"/>
      <path id="Fill-25" d="m19.596 13.084h-2.162l0.048-1.082c-0.659 0.862-1.54 1.263-2.736 1.263-1.419 0-2.389-1.162-2.389-2.84 0-2.5447 1.694-4.0224 4.589-4.0224 0.296 0 0.674 0.0231 1.062 0.0776 0.082-0.3452 0.104-0.4936 0.104-0.6765 0-0.6884-0.454-0.9499-1.678-0.9499-0.738 0-1.586 0.1125-2.171 0.2977l-0.363 0.1051-0.228 0.068 0.359-2.3381c1.303-0.4051 2.162-0.5615 3.129-0.5615 2.244 0 3.433 1.0588 3.433 3.0566 0 0.5191-0.038 0.9043-0.216 2.0683l-0.547 3.6931-0.089 0.667-0.067 0.531-0.045 0.363-0.033 0.28zm-1.898-4.6436c-0.276-0.0327-0.398-0.0448-0.585-0.0448-1.479 0-2.229 0.5387-2.229 1.5914 0 0.649 0.369 1.062 0.939 1.062 1.062 0 1.831-1.062 1.875-2.6086z"/>
      <path id="Fill-27" d="m21.459 5.9561c0 1.3152 0.606 2.2253 1.978 2.9054 1.051 0.5229 1.218 0.6752 1.218 1.1495 0 0.648-0.466 0.948-1.494 0.948-0.775 0-1.499-0.13-2.334-0.418l-0.361 2.404 0.118 0.026 0.479 0.102c0.154 0.032 0.381 0.061 0.681 0.094 0.622 0.058 1.099 0.086 1.437 0.086 2.739 0 4.006-1.106 4.006-3.4802 0-1.4267-0.528-2.2701-1.833-2.9021-1.089-0.5188-1.213-0.6412-1.213-1.1251 0-0.565 0.433-0.8557 1.271-0.8557 0.512 0 1.205 0.0606 1.868 0.1552l0.372-2.407c-0.681-0.1164-1.692-0.2058-2.291-0.2058-2.906 0-3.913 1.5998-3.902 3.5238"/>
      <path id="Fill-29" d="m31.75 12.957c-0.709 0.235-1.27 0.343-1.873 0.343-1.332 0-2.06-0.812-2.06-2.293 0-0.29 0.022-0.604 0.074-0.934l0.162-1.0165 0.12-0.8303 1.133-7.113h2.595l-0.298 1.5465h1.336l-0.366 2.534h-1.333l-0.689 4.3506c-0.024 0.1922-0.044 0.3339-0.044 0.4316 0 0.5341 0.272 0.7721 0.889 0.7721 0.302 0 0.529-0.031 0.703-0.097l-0.349 2.306z"/>
      <path id="Fill-31" d="m38.555 6.6581c0.015-0.2179 0.019-0.3958 0.019-0.5275 0-0.8521-0.46-1.3495-1.236-1.3495-0.828 0-1.422 0.6643-1.665 1.8696l2.882 0.0074zm1.465 6.2059c-0.893 0.281-1.757 0.423-2.682 0.419-2.912 0-4.433-1.602-4.433-4.6659 0-3.5819 1.935-6.2186 4.565-6.2186 2.146 0 3.523 1.4773 3.523 3.7936 0 0.7672-0.092 1.5149-0.325 2.5714h-5.191c-0.022 0.1583-0.026 0.2314-0.026 0.323 0 1.2185 0.778 1.8325 2.297 1.8325 0.931 0 1.769-0.202 2.708-0.663l-0.436 2.608z"/>
      <path id="Fill-33" d="m47.381 2.5739c-0.082-0.0157-0.172-0.0266-0.266-0.0266-0.861 0-1.347 0.4551-2.146 1.6965l0.232-1.584h-2.365l-1.603 10.423h2.623c0.939-6.3703 1.178-7.4705 2.437-7.4705 0.075 0 0.083 0 0.19 0.0109 0.232-1.2562 0.55-2.1794 0.987-3.0216l-0.089-0.0279z"/>
      <path id="Fill-35" d="m56.047 0.66801l-0.427 2.7807c-0.927-0.4935-1.61-0.6871-2.337-0.6871-1.944 0-3.319 1.976-3.319 4.7967 0 1.9484 0.922 3.1227 2.44 3.1227 0.644 0 1.352-0.207 2.218-0.661l-0.456 2.926c-0.958 0.276-1.583 0.374-2.307 0.374-2.815 0-4.567-2.124-4.567-5.5329 0-4.5852 2.42-7.7869 5.882-7.7869 0.446-0.00003977 0.845 0.043223 1.17 0.13776l1.077 0.28201c0.319 0.12722 0.391 0.14645 0.626 0.24804"/>
      <path id="Fill-37" d="m62.445 13.084h-2.166l0.051-1.082c-0.658 0.862-1.54 1.263-2.735 1.263-1.419 0-2.392-1.162-2.392-2.84 0-2.5447 1.692-4.0224 4.592-4.0224 0.294 0 0.675 0.0231 1.062 0.0776 0.08-0.3452 0.103-0.4936 0.103-0.6765 0-0.6884-0.453-0.9499-1.677-0.9499-0.742 0-1.588 0.1125-2.167 0.2977l-0.372 0.1051-0.225 0.068 0.363-2.3381c1.305-0.4051 2.162-0.5615 3.122-0.5615 2.247 0 3.436 1.0588 3.436 3.0566 0 0.5191-0.045 0.9043-0.214 2.0683l-0.55 3.6931-0.082 0.667-0.073 0.531-0.047 0.363-0.029 0.28zm-1.9-4.6436c-0.272-0.0327-0.398-0.0448-0.581-0.0448-1.485 0-2.236 0.5387-2.236 1.5914 0 0.649 0.372 1.062 0.942 1.062 1.067 0 1.827-1.062 1.875-2.6086z"/>
      <path id="Fill-39" d="m69.738 2.5739c-0.078-0.0157-0.163-0.0266-0.263-0.0266-0.857 0-1.347 0.4551-2.149 1.6965l0.232-1.584h-2.361l-1.597 10.423h2.615c0.939-6.3703 1.185-7.4705 2.434-7.4705 0.082 0 0.077-0.0073 0.184 0.0109 0.235-1.2562 0.555-2.1794 0.994-3.0216l-0.089-0.0279z"/>
      <path id="Fill-41" d="m72.989 10.629c1.22 0 2.073-1.448 2.073-3.5112 0-1.3251-0.486-2.0461-1.388-2.0461-1.184 0-2.024 1.4542-2.024 3.5055 0 1.3649 0.451 2.0518 1.339 2.0518zm3.854 2.455h-2.471l0.129-1.022c-0.718 0.807-1.457 1.16-2.412 1.16-1.909 0-3.16-1.721-3.16-4.3279 0-3.4667 1.944-6.3938 4.253-6.3938 1.015 0 1.782 0.439 2.505 1.4263l0.568-3.6616 2.574 0.00002-1.986 12.819z"/>
      <path id="Fill-43" d="m79.707 11.479h0.178c0.066 0 0.142 0.002 0.196-0.03 0.055-0.035 0.078-0.105 0.078-0.167 0-0.055-0.031-0.12-0.078-0.145-0.047-0.033-0.143-0.026-0.199-0.026h-0.175v0.368zm0 0.812h-0.319v-1.445h0.579c0.118 0 0.25 0.007 0.352 0.08 0.111 0.081 0.174 0.218 0.174 0.363 0 0.16-0.091 0.31-0.236 0.364l0.25 0.638h-0.355l-0.21-0.566h-0.235v0.566zm0.212 0.534c0.656 0 1.191-0.563 1.191-1.253 0-0.686-0.535-1.244-1.191-1.244-0.653 0-1.19 0.558-1.19 1.244 0 0.69 0.537 1.253 1.19 1.253zm-1.561-1.253c0-0.906 0.703-1.6395 1.561-1.6395 0.863 0 1.558 0.7335 1.558 1.6395 0 0.908-0.695 1.641-1.558 1.641-0.858 0-1.561-0.733-1.561-1.641z"/>
     </g>
    </g>
   </g>
  </g>
 </g>
</svg>
